<svg width="2512" height="125" viewBox="0 0 2512 125" fill="none" xmlns="http://www.w3.org/2000/svg">
<path d="M69.8784 29.7947C81.5149 44.1084 87.7515 62.0575 87.9797 80.5087L88.4968 123.602L12 123.769V1C33.4021 1.56281 54.7889 11.2523 69.8784 29.7947Z" stroke="#ECEAE4" stroke-miterlimit="10"/>
<path d="M253.475 124V79.2792C253.475 64.8134 249.794 50.5302 242.492 38.0266C214.945 -9.0671 152.031 -10.6186 119.115 29.843C107.478 44.1567 101.241 62.1059 101.013 80.557L100.496 123.65L253.475 124Z" stroke="#ECEAE4" stroke-miterlimit="10"/>
<path d="M418.453 124V79.2792C418.453 64.8134 414.772 50.5302 407.471 38.0266C379.923 -9.0671 317.01 -10.6186 284.093 29.843C272.457 44.1567 266.22 62.1059 265.992 80.557L265.475 123.65L418.453 124Z" stroke="#ECEAE4" stroke-miterlimit="10"/>
<path d="M583.432 124V79.2792C583.432 64.8134 579.751 50.5302 572.449 38.0266C544.902 -9.0671 481.989 -10.6186 449.072 29.843C437.435 44.1567 431.199 62.1059 430.97 80.557L430.453 123.65L583.432 124Z" fill="#ECEAE4" stroke="#ECEAE4" stroke-miterlimit="10"/>
<path d="M748.41 124V79.2792C748.41 64.8134 744.729 50.5302 737.428 38.0266C709.88 -9.0671 646.967 -10.6186 614.05 29.843C602.414 44.1567 596.177 62.1059 595.949 80.557L595.432 123.65L748.41 124Z" fill="#ECEAE4" stroke="#ECEAE4" stroke-miterlimit="10"/>
<path d="M779.03 29.7947C767.393 44.1084 761.157 62.0575 760.929 80.5087L760.411 123.602L836.908 123.769V1C815.506 1.56281 794.119 11.2523 779.03 29.7947Z" fill="#ECEAE4" stroke="#ECEAE4" stroke-miterlimit="10"/>
<path d="M906.787 29.7947C918.423 44.1084 924.66 62.0575 924.888 80.5087L925.405 123.602L848.908 123.769V1C870.31 1.56281 891.697 11.2523 906.787 29.7947Z" stroke="#ECEAE4" stroke-miterlimit="10"/>
<path d="M937.404 124V79.2792C937.404 64.8134 941.085 50.5302 948.387 38.0266C975.934 -9.0671 1038.85 -10.6186 1071.76 29.843C1083.4 44.1567 1089.64 62.1059 1089.87 80.557L1090.38 123.65L937.404 124Z" stroke="#ECEAE4" stroke-miterlimit="10"/>
<path d="M1102.38 124V79.2792C1102.38 64.8134 1106.06 50.5302 1113.37 38.0266C1140.91 -9.0671 1203.83 -10.6186 1236.74 29.843C1248.38 44.1567 1254.62 62.1059 1254.84 80.557L1255.36 123.65L1102.38 124Z" stroke="#ECEAE4" stroke-miterlimit="10"/>
<path d="M1267.36 124V79.2792C1267.36 64.8134 1271.04 50.5302 1278.34 38.0266C1305.89 -9.0671 1368.8 -10.6186 1401.72 29.843C1413.36 44.1567 1419.59 62.1059 1419.82 80.557L1420.34 123.65L1267.36 124Z" fill="#ECEAE4" stroke="#ECEAE4" stroke-miterlimit="10"/>
<path d="M1432.34 124V79.2792C1432.34 64.8134 1436.02 50.5302 1443.32 38.0266C1470.87 -9.0671 1533.78 -10.6186 1566.7 29.843C1578.34 44.1567 1584.57 62.1059 1584.8 80.557L1585.32 123.65L1432.34 124Z" fill="#ECEAE4" stroke="#ECEAE4" stroke-miterlimit="10"/>
<path d="M1615.94 29.7947C1604.3 44.1084 1598.06 62.0575 1597.83 80.5087L1597.32 123.602L1673.81 123.769V1C1652.41 1.56281 1631.03 11.2523 1615.94 29.7947Z" fill="#ECEAE4" stroke="#ECEAE4" stroke-miterlimit="10"/>
<path d="M1743.69 29.7947C1755.33 44.1084 1761.57 62.0575 1761.79 80.5087L1762.31 123.602L1685.81 123.769V1C1707.22 1.56281 1728.6 11.2523 1743.69 29.7947Z" stroke="#ECEAE4" stroke-miterlimit="10"/>
<path d="M1774.31 124V79.2792C1774.31 64.8134 1777.99 50.5302 1785.29 38.0266C1812.84 -9.0671 1875.76 -10.6186 1908.67 29.843C1920.31 44.1567 1926.55 62.1059 1926.77 80.557L1927.29 123.65L1774.31 124Z" stroke="#ECEAE4" stroke-miterlimit="10"/>
<path d="M1939.29 124V79.2792C1939.29 64.8134 1942.97 50.5302 1950.27 38.0266C1977.82 -9.0671 2040.73 -10.6186 2073.65 29.843C2085.29 44.1567 2091.52 62.1059 2091.75 80.557L2092.27 123.65L1939.29 124Z" stroke="#ECEAE4" stroke-miterlimit="10"/>
<path d="M2257.25 124V79.2792C2257.25 64.8134 2253.57 50.5302 2246.27 38.0266C2218.72 -9.0671 2155.8 -10.6186 2122.89 29.843C2111.25 44.1567 2105.01 62.1059 2104.79 80.557L2104.27 123.65L2257.25 124Z" fill="#ECEAE4" stroke="#ECEAE4" stroke-miterlimit="10"/>
<path d="M2422.23 124V79.2792C2422.23 64.8134 2418.55 50.5302 2411.24 38.0266C2383.7 -9.0671 2320.78 -10.6186 2287.87 29.843C2276.23 44.1567 2269.99 62.1059 2269.77 80.557L2269.25 123.65L2422.23 124Z" fill="#ECEAE4" stroke="#ECEAE4" stroke-miterlimit="10"/>
<path d="M2452.84 29.7947C2441.21 44.1084 2434.97 62.0575 2434.74 80.5087L2434.23 123.602L2510.72 123.769V1C2489.32 1.56281 2467.93 11.2523 2452.84 29.7947Z" fill="#ECEAE4" stroke="#ECEAE4" stroke-miterlimit="10"/>
<rect y="15" width="11" height="90" fill="#151515"/>
</svg>
