<?xml version="1.0" encoding="utf-8"?>
<!-- Generator: Adobe Illustrator 24.0.1, SVG Export Plug-In . SVG Version: 6.00 Build 0)  -->
<svg version="1.1" id="Layer_1" xmlns="http://www.w3.org/2000/svg" xmlns:xlink="http://www.w3.org/1999/xlink" x="0px" y="0px"
	 viewBox="0 0 283.64 128.45" style="enable-background:new 0 0 283.64 128.45;" xml:space="preserve">
<style type="text/css">
	.st0{fill:none;stroke:#EDEAE4;stroke-width:2;stroke-miterlimit:10;}
	.st1{fill:#EDEAE4;}
</style>
<g>
	<g>
		<path class="st0" d="M178.88,85.51v-29.4c0-9.51,2.42-18.9,7.22-27.12c18.11-30.96,59.47-31.98,81.11-5.38
			c7.65,9.41,11.75,21.21,11.9,33.34l0.34,28.33L178.88,85.51z"/>
		<path class="st0" d="M67.08,85.51v-29.4c0-9.51,2.42-18.9,7.22-27.12c18.11-30.96,59.47-31.98,81.11-5.38
			c7.65,9.41,11.75,21.21,11.9,33.34l0.34,28.33L67.08,85.51z"/>
		<path class="st0" d="M42.13,23.61c7.65,9.41,11.75,21.21,11.9,33.34l0.34,28.33L4.08,85.4V4.69
			C18.15,5.05,32.21,11.42,42.13,23.61z"/>
	</g>
	<g>
		<path class="st1" d="M2,106.61c-0.03,0.08-0.1,0.11-0.24,0.1c-0.13-0.01-0.2-0.06-0.2-0.14c0.1-1.04,0.22-2.4,0.35-4.06
			c0.13-1.66,0.2-2.91,0.2-3.74c0-0.13,0.07-0.2,0.22-0.2c0.14,0,0.22,0.07,0.22,0.2c0,0.58,0.75,0.86,2.24,0.86
			c2.26,0.08,4.9,0.12,7.92,0.12c1.55,0,3.19-0.03,4.92-0.08l2.68-0.04c1,0,1.73-0.06,2.19-0.2c0.46-0.13,0.75-0.39,0.89-0.78
			c0.03-0.1,0.11-0.16,0.26-0.16c0.14,0,0.22,0.05,0.22,0.16c-0.08,0.78-0.16,2.04-0.26,3.76c-0.09,1.72-0.14,3.11-0.14,4.16
			c0,0.08-0.07,0.12-0.2,0.12s-0.21-0.04-0.24-0.12c-0.39-2.01-1.13-3.52-2.21-4.53c-1.08-1.01-2.4-1.51-3.98-1.51
			c-0.76,0-1.27,0.16-1.52,0.49c-0.25,0.33-0.37,0.95-0.37,1.86v18.07c0,0.81,0.08,1.4,0.24,1.76c0.16,0.37,0.46,0.61,0.91,0.75
			c0.45,0.13,1.15,0.2,2.13,0.2c0.08,0,0.12,0.08,0.12,0.23c0,0.16-0.04,0.24-0.12,0.24c-0.95,0-1.69-0.01-2.24-0.04l-3.27-0.04
			l-3.19,0.04c-0.55,0.03-1.31,0.04-2.28,0.04c-0.08,0-0.12-0.08-0.12-0.24c0-0.16,0.04-0.23,0.12-0.23c0.95,0,1.65-0.07,2.11-0.2
			c0.46-0.13,0.77-0.39,0.94-0.76c0.17-0.38,0.26-0.96,0.26-1.74v-18.15c0-0.89-0.12-1.49-0.35-1.8c-0.24-0.31-0.72-0.47-1.46-0.47
			C5.61,100.53,3.37,102.56,2,106.61z"/>
		<path class="st1" d="M45,117.82c0.08,0,0.15,0.02,0.22,0.06c0.07,0.04,0.1,0.07,0.1,0.1c-0.26,2.04-0.39,3.89-0.39,5.57
			c0,0.21-0.04,0.36-0.12,0.45c-0.08,0.09-0.24,0.14-0.47,0.14h-17.4c-0.08,0-0.12-0.08-0.12-0.24c0-0.16,0.04-0.23,0.12-0.23
			c0.84,0,1.45-0.07,1.83-0.2c0.38-0.13,0.64-0.39,0.77-0.76c0.13-0.38,0.2-0.96,0.2-1.74v-18.15c0-0.78-0.07-1.36-0.2-1.73
			c-0.13-0.37-0.39-0.62-0.79-0.76c-0.39-0.14-1-0.22-1.81-0.22c-0.08,0-0.12-0.08-0.12-0.24c0-0.16,0.04-0.24,0.12-0.24h16.7
			c0.26,0,0.39,0.12,0.39,0.35l0.08,5.21c0,0.05-0.07,0.09-0.22,0.12c-0.14,0.03-0.23,0-0.26-0.08c-0.42-1.51-1.13-2.64-2.13-3.37
			c-1-0.73-2.31-1.1-3.94-1.1h-1.18c-0.79,0-1.37,0.17-1.73,0.51c-0.37,0.34-0.55,0.86-0.55,1.57v8h3.27c1.52,0,2.69-0.26,3.5-0.78
			c0.81-0.52,1.22-1.25,1.22-2.2c0-0.08,0.07-0.12,0.22-0.12c0.14,0,0.22,0.04,0.22,0.12l-0.04,3.53l0.04,1.88
			c0.05,0.89,0.08,1.59,0.08,2.12c0,0.05-0.08,0.08-0.24,0.08c-0.16,0-0.24-0.03-0.24-0.08c0-1.07-0.41-1.91-1.24-2.53
			c-0.83-0.61-2.02-0.92-3.56-0.92H34.1v8.86c0,0.76,0.14,1.32,0.43,1.69c0.29,0.37,0.75,0.55,1.38,0.55h1.3
			c2.05,0,3.69-0.42,4.92-1.25c1.23-0.84,2.14-2.13,2.72-3.88C44.85,117.85,44.9,117.82,45,117.82z"/>
		<path class="st1" d="M75.48,123.9c0,0.16-0.07,0.24-0.2,0.24c-0.53,0-1.34-0.03-2.44-0.08c-1.16-0.05-1.98-0.08-2.48-0.08
			c-0.66,0-1.46,0.03-2.4,0.08c-0.89,0.05-1.6,0.08-2.13,0.08c-0.11,0-0.16-0.08-0.16-0.24c0-0.16,0.05-0.23,0.16-0.23
			c0.68,0,1.17-0.07,1.48-0.22c0.3-0.14,0.45-0.4,0.45-0.76c0-0.44-0.26-1.19-0.79-2.23l-2.68-5.29h-9.69l-1.54,3.41
			c-0.34,0.76-0.51,1.46-0.51,2.12c0,0.94,0.33,1.67,1,2.2s1.57,0.78,2.7,0.78c0.13,0,0.2,0.08,0.2,0.23c0,0.16-0.07,0.24-0.2,0.24
			c-0.47,0-1.16-0.03-2.05-0.08c-1-0.05-1.86-0.08-2.6-0.08c-0.71,0-1.56,0.03-2.56,0.08c-0.89,0.05-1.61,0.08-2.17,0.08
			c-0.1,0-0.16-0.08-0.16-0.24c0-0.16,0.05-0.23,0.16-0.23c0.73,0,1.35-0.15,1.85-0.45c0.5-0.3,1-0.84,1.5-1.61
			c0.5-0.77,1.09-1.91,1.77-3.43l8.54-18.7c0.05-0.08,0.17-0.12,0.35-0.12c0.21,0,0.33,0.04,0.35,0.12l9.84,19.29
			c0.92,1.86,1.68,3.14,2.28,3.84c0.6,0.71,1.23,1.06,1.89,1.06C75.42,123.66,75.48,123.74,75.48,123.9z M55.12,114.06h8.58
			l-4.53-8.94L55.12,114.06z"/>
		<path class="st1" d="M74.5,106.61c-0.03,0.08-0.1,0.11-0.24,0.1c-0.13-0.01-0.2-0.06-0.2-0.14c0.1-1.04,0.22-2.4,0.35-4.06
			c0.13-1.66,0.2-2.91,0.2-3.74c0-0.13,0.07-0.2,0.22-0.2c0.14,0,0.22,0.07,0.22,0.2c0,0.58,0.75,0.86,2.24,0.86
			c2.26,0.08,4.9,0.12,7.92,0.12c1.55,0,3.19-0.03,4.92-0.08l2.68-0.04c1,0,1.73-0.06,2.19-0.2c0.46-0.13,0.75-0.39,0.89-0.78
			c0.03-0.1,0.11-0.16,0.26-0.16c0.14,0,0.22,0.05,0.22,0.16c-0.08,0.78-0.16,2.04-0.26,3.76c-0.09,1.72-0.14,3.11-0.14,4.16
			c0,0.08-0.07,0.12-0.2,0.12s-0.21-0.04-0.24-0.12c-0.39-2.01-1.13-3.52-2.21-4.53c-1.08-1.01-2.4-1.51-3.98-1.51
			c-0.76,0-1.27,0.16-1.52,0.49c-0.25,0.33-0.37,0.95-0.37,1.86v18.07c0,0.81,0.08,1.4,0.24,1.76c0.16,0.37,0.46,0.61,0.91,0.75
			c0.45,0.13,1.15,0.2,2.13,0.2c0.08,0,0.12,0.08,0.12,0.23c0,0.16-0.04,0.24-0.12,0.24c-0.95,0-1.69-0.01-2.24-0.04l-3.27-0.04
			l-3.19,0.04c-0.55,0.03-1.31,0.04-2.28,0.04c-0.08,0-0.12-0.08-0.12-0.24c0-0.16,0.04-0.23,0.12-0.23c0.95,0,1.65-0.07,2.11-0.2
			c0.46-0.13,0.77-0.39,0.94-0.76c0.17-0.38,0.26-0.96,0.26-1.74v-18.15c0-0.89-0.12-1.49-0.35-1.8c-0.24-0.31-0.72-0.47-1.46-0.47
			C78.11,100.53,75.86,102.56,74.5,106.61z"/>
		<path class="st1" d="M106.59,122.62c0.18,0.38,0.53,0.65,1.04,0.8c0.51,0.16,1.33,0.24,2.46,0.24c0.08,0,0.12,0.08,0.12,0.23
			c0,0.16-0.04,0.24-0.12,0.24c-1.08,0-1.92-0.01-2.52-0.04l-3.43-0.04l-2.87,0.04c-0.53,0.03-1.23,0.04-2.13,0.04
			c-0.08,0-0.12-0.08-0.12-0.24c0-0.16,0.04-0.23,0.12-0.23c0.84,0,1.45-0.07,1.83-0.2c0.38-0.13,0.64-0.39,0.77-0.76
			c0.13-0.38,0.2-0.96,0.2-1.74v-18.15c0-0.78-0.07-1.36-0.2-1.73c-0.13-0.37-0.39-0.62-0.79-0.76c-0.39-0.14-1-0.22-1.81-0.22
			c-0.08,0-0.12-0.08-0.12-0.24c0-0.16,0.04-0.24,0.12-0.24l2.09,0.04c1.21,0.05,2.17,0.08,2.88,0.08c0.63,0,1.38-0.04,2.24-0.12
			c0.34-0.03,0.77-0.05,1.3-0.08c0.52-0.03,1.13-0.04,1.81-0.04c2.68,0,4.79,0.56,6.34,1.67c1.55,1.11,2.32,2.83,2.32,5.15
			c0,1.62-0.42,2.99-1.26,4.12c-0.84,1.12-1.92,1.97-3.25,2.55c-1.33,0.58-2.68,0.86-4.08,0.86c-0.71,0-1.33-0.06-1.85-0.2
			c-0.05,0-0.08-0.07-0.08-0.2c0-0.08,0.02-0.16,0.06-0.24s0.08-0.1,0.14-0.08c0.39,0.1,0.84,0.16,1.34,0.16
			c1.21,0,2.21-0.56,3.01-1.69c0.8-1.12,1.2-2.72,1.2-4.78s-0.44-3.66-1.32-4.78c-0.88-1.12-2.16-1.69-3.84-1.69
			c-0.74,0-1.23,0.17-1.5,0.51c-0.26,0.34-0.39,1.01-0.39,2v17.91C106.32,121.64,106.41,122.24,106.59,122.62z"/>
		<path class="st1" d="M147.52,112.02c1.77,1.15,2.66,2.81,2.66,4.98c0,1.36-0.38,2.59-1.14,3.7c-0.76,1.11-1.83,1.99-3.19,2.63
			c-1.37,0.64-2.89,0.96-4.57,0.96c-0.71,0-1.56-0.04-2.56-0.12c-0.39-0.03-0.87-0.05-1.44-0.08c-0.56-0.03-1.19-0.04-1.87-0.04
			l-2.88,0.04c-0.53,0.03-1.23,0.04-2.13,0.04c-0.08,0-0.12-0.08-0.12-0.24c0-0.16,0.04-0.23,0.12-0.23c0.84,0,1.45-0.07,1.83-0.2
			c0.38-0.13,0.64-0.39,0.79-0.76c0.14-0.38,0.22-0.96,0.22-1.74v-18.15c0-0.78-0.07-1.36-0.2-1.73c-0.13-0.37-0.39-0.62-0.79-0.76
			c-0.39-0.14-1-0.22-1.81-0.22c-0.05,0-0.08-0.08-0.08-0.24c0-0.16,0.03-0.24,0.08-0.24h16.5c0.37,0,0.6,0.05,0.69,0.16
			c0.09,0.1,0.14,0.38,0.14,0.82l0.31,5.96c0,0.08-0.07,0.12-0.2,0.12c-0.13,0-0.22-0.04-0.28-0.12c-0.39-2.01-1.12-3.52-2.19-4.53
			c-1.06-1.01-2.38-1.51-3.96-1.51h-1.65c-0.84,0-1.41,0.18-1.71,0.53c-0.3,0.35-0.45,1.01-0.45,1.98v7.49
			c1.05-0.16,2.1-0.23,3.15-0.23C143.51,110.3,145.75,110.87,147.52,112.02z M144.35,121.96c0.81-0.9,1.22-2.23,1.22-3.98
			c0-2.25-0.54-3.91-1.61-4.98c-1.08-1.07-2.59-1.61-4.53-1.61c-0.63,0-1.22,0.05-1.77,0.16v9.41c0,0.78,0.19,1.37,0.57,1.76
			c0.38,0.39,1.15,0.59,2.3,0.59C142.27,123.31,143.54,122.86,144.35,121.96z"/>
		<path class="st1" d="M180.66,123.9c0,0.16-0.07,0.24-0.2,0.24c-0.53,0-1.34-0.03-2.44-0.08c-1.16-0.05-1.98-0.08-2.48-0.08
			c-0.66,0-1.46,0.03-2.4,0.08c-0.89,0.05-1.6,0.08-2.13,0.08c-0.11,0-0.16-0.08-0.16-0.24c0-0.16,0.05-0.23,0.16-0.23
			c0.68,0,1.17-0.07,1.48-0.22s0.45-0.4,0.45-0.76c0-0.44-0.26-1.19-0.79-2.23l-2.68-5.29h-9.69l-1.54,3.41
			c-0.34,0.76-0.51,1.46-0.51,2.12c0,0.94,0.33,1.67,1,2.2c0.67,0.52,1.57,0.78,2.7,0.78c0.13,0,0.2,0.08,0.2,0.23
			c0,0.16-0.07,0.24-0.2,0.24c-0.47,0-1.16-0.03-2.05-0.08c-1-0.05-1.86-0.08-2.6-0.08c-0.71,0-1.56,0.03-2.56,0.08
			c-0.89,0.05-1.61,0.08-2.17,0.08c-0.1,0-0.16-0.08-0.16-0.24c0-0.16,0.05-0.23,0.16-0.23c0.74,0,1.35-0.15,1.85-0.45
			c0.5-0.3,1-0.84,1.5-1.61c0.5-0.77,1.09-1.91,1.77-3.43l8.54-18.7c0.05-0.08,0.17-0.12,0.35-0.12c0.21,0,0.33,0.04,0.35,0.12
			l9.84,19.29c0.92,1.86,1.68,3.14,2.28,3.84c0.6,0.71,1.23,1.06,1.89,1.06C180.59,123.66,180.66,123.74,180.66,123.9z
			 M160.3,114.06h8.58l-4.53-8.94L160.3,114.06z"/>
		<path class="st1" d="M208.85,123.9c0,0.16-0.07,0.24-0.2,0.24c-0.53,0-1.34-0.03-2.44-0.08c-1.16-0.05-1.98-0.08-2.48-0.08
			c-0.66,0-1.46,0.03-2.4,0.08c-0.89,0.05-1.6,0.08-2.13,0.08c-0.11,0-0.16-0.08-0.16-0.24c0-0.16,0.05-0.23,0.16-0.23
			c0.68,0,1.17-0.07,1.48-0.22s0.45-0.4,0.45-0.76c0-0.44-0.26-1.19-0.79-2.23l-7.8-15.33l-6.1,13.45
			c-0.34,0.76-0.51,1.46-0.51,2.12c0,0.94,0.33,1.67,1,2.2c0.67,0.52,1.57,0.78,2.7,0.78c0.13,0,0.2,0.08,0.2,0.23
			c0,0.16-0.07,0.24-0.2,0.24c-0.47,0-1.16-0.03-2.05-0.08c-1-0.05-1.86-0.08-2.6-0.08c-0.71,0-1.56,0.03-2.56,0.08
			c-0.89,0.05-1.61,0.08-2.17,0.08c-0.1,0-0.16-0.08-0.16-0.24c0-0.16,0.05-0.23,0.16-0.23c0.74,0,1.35-0.15,1.85-0.45
			c0.5-0.3,1-0.84,1.5-1.61c0.5-0.77,1.09-1.91,1.77-3.43l8.54-18.7c0.05-0.08,0.17-0.12,0.35-0.12c0.21,0,0.33,0.04,0.35,0.12
			l9.84,19.29c0.92,1.86,1.68,3.14,2.28,3.84c0.6,0.71,1.23,1.06,1.89,1.06C208.79,123.66,208.85,123.74,208.85,123.9z"/>
		<path class="st1" d="M228.31,117.82c0.08,0,0.15,0.02,0.22,0.06s0.1,0.07,0.1,0.1c-0.26,2.04-0.39,3.89-0.39,5.57
			c0,0.21-0.04,0.36-0.12,0.45s-0.24,0.14-0.47,0.14h-17.41c-0.08,0-0.12-0.08-0.12-0.24c0-0.16,0.04-0.23,0.12-0.23
			c0.84,0,1.45-0.07,1.83-0.2c0.38-0.13,0.64-0.39,0.77-0.76c0.13-0.38,0.2-0.96,0.2-1.74v-18.15c0-0.78-0.07-1.36-0.2-1.73
			c-0.13-0.37-0.39-0.62-0.79-0.76s-1-0.22-1.81-0.22c-0.08,0-0.12-0.08-0.12-0.24c0-0.16,0.04-0.24,0.12-0.24h16.7
			c0.26,0,0.39,0.12,0.39,0.35l0.08,5.21c0,0.05-0.07,0.09-0.22,0.12s-0.23,0-0.26-0.08c-0.42-1.51-1.13-2.64-2.13-3.37
			c-1-0.73-2.31-1.1-3.94-1.1h-1.18c-0.79,0-1.37,0.17-1.73,0.51c-0.37,0.34-0.55,0.86-0.55,1.57v8h3.27c1.52,0,2.69-0.26,3.5-0.78
			c0.81-0.52,1.22-1.25,1.22-2.2c0-0.08,0.07-0.12,0.22-0.12s0.22,0.04,0.22,0.12l-0.04,3.53l0.04,1.88
			c0.05,0.89,0.08,1.59,0.08,2.12c0,0.05-0.08,0.08-0.24,0.08s-0.24-0.03-0.24-0.08c0-1.07-0.41-1.91-1.24-2.53
			c-0.83-0.61-2.02-0.92-3.56-0.92h-3.23v8.86c0,0.76,0.14,1.32,0.43,1.69c0.29,0.37,0.75,0.55,1.38,0.55h1.3
			c2.05,0,3.69-0.42,4.92-1.25c1.23-0.84,2.14-2.13,2.72-3.88C228.15,117.85,228.2,117.82,228.31,117.82z"/>
		<path class="st1" d="M232.36,106.61c-0.03,0.08-0.1,0.11-0.24,0.1c-0.13-0.01-0.2-0.06-0.2-0.14c0.1-1.04,0.22-2.4,0.35-4.06
			c0.13-1.66,0.2-2.91,0.2-3.74c0-0.13,0.07-0.2,0.22-0.2c0.14,0,0.22,0.07,0.22,0.2c0,0.58,0.75,0.86,2.24,0.86
			c2.26,0.08,4.9,0.12,7.92,0.12c1.55,0,3.19-0.03,4.92-0.08l2.68-0.04c1,0,1.73-0.06,2.19-0.2c0.46-0.13,0.75-0.39,0.89-0.78
			c0.03-0.1,0.11-0.16,0.26-0.16c0.14,0,0.22,0.05,0.22,0.16c-0.08,0.78-0.16,2.04-0.26,3.76c-0.09,1.72-0.14,3.11-0.14,4.16
			c0,0.08-0.07,0.12-0.2,0.12c-0.13,0-0.21-0.04-0.24-0.12c-0.39-2.01-1.13-3.52-2.21-4.53c-1.08-1.01-2.4-1.51-3.98-1.51
			c-0.76,0-1.27,0.16-1.52,0.49c-0.25,0.33-0.37,0.95-0.37,1.86v18.07c0,0.81,0.08,1.4,0.24,1.76c0.16,0.37,0.46,0.61,0.91,0.75
			s1.16,0.2,2.13,0.2c0.08,0,0.12,0.08,0.12,0.23c0,0.16-0.04,0.24-0.12,0.24c-0.95,0-1.69-0.01-2.25-0.04l-3.27-0.04l-3.19,0.04
			c-0.55,0.03-1.31,0.04-2.28,0.04c-0.08,0-0.12-0.08-0.12-0.24c0-0.16,0.04-0.23,0.12-0.23c0.95,0,1.65-0.07,2.11-0.2
			c0.46-0.13,0.77-0.39,0.94-0.76c0.17-0.38,0.26-0.96,0.26-1.74v-18.15c0-0.89-0.12-1.49-0.35-1.8c-0.24-0.31-0.72-0.47-1.46-0.47
			C235.97,100.53,233.73,102.56,232.36,106.61z"/>
		<path class="st1" d="M281.35,123.9c0,0.16-0.07,0.24-0.2,0.24c-0.53,0-1.34-0.03-2.44-0.08c-1.15-0.05-1.98-0.08-2.48-0.08
			c-0.66,0-1.46,0.03-2.4,0.08c-0.89,0.05-1.6,0.08-2.13,0.08c-0.1,0-0.16-0.08-0.16-0.24c0-0.16,0.05-0.23,0.16-0.23
			c0.68,0,1.18-0.07,1.48-0.22c0.3-0.14,0.45-0.4,0.45-0.76c0-0.44-0.26-1.19-0.79-2.23l-2.68-5.29h-9.69l-1.54,3.41
			c-0.34,0.76-0.51,1.46-0.51,2.12c0,0.94,0.33,1.67,1,2.2s1.57,0.78,2.7,0.78c0.13,0,0.2,0.08,0.2,0.23c0,0.16-0.07,0.24-0.2,0.24
			c-0.47,0-1.16-0.03-2.05-0.08c-1-0.05-1.87-0.08-2.6-0.08c-0.71,0-1.56,0.03-2.56,0.08c-0.89,0.05-1.62,0.08-2.17,0.08
			c-0.1,0-0.16-0.08-0.16-0.24c0-0.16,0.05-0.23,0.16-0.23c0.73,0,1.35-0.15,1.85-0.45c0.5-0.3,1-0.84,1.5-1.61
			c0.5-0.77,1.09-1.91,1.77-3.43l8.55-18.7c0.05-0.08,0.17-0.12,0.35-0.12c0.21,0,0.33,0.04,0.36,0.12l9.84,19.29
			c0.92,1.86,1.68,3.14,2.28,3.84c0.6,0.71,1.23,1.06,1.89,1.06C281.28,123.66,281.35,123.74,281.35,123.9z M260.99,114.06h8.59
			l-4.53-8.94L260.99,114.06z"/>
	</g>
</g>
</svg>
