<?xml version="1.0" encoding="utf-8"?>
<!-- Generator: Adobe Illustrator 24.0.1, SVG Export Plug-In . SVG Version: 6.00 Build 0)  -->
<svg version="1.1" id="Layer_1" xmlns="http://www.w3.org/2000/svg" xmlns:xlink="http://www.w3.org/1999/xlink" x="0px" y="0px"
	 viewBox="0 0 285.1 147.7" style="enable-background:new 0 0 285.1 147.7;" xml:space="preserve">
<style type="text/css">
	.st0{display:none;}
	.st1{display:inline;}
	.st2{fill:#EDEAE4;}
	.st3{fill:none;stroke:#000000;stroke-width:4;stroke-miterlimit:10;}
</style>
<g class="st0">
	<g class="st1">
		<path d="M176.33-84.43v-31.4c0-10.02,2.59-19.74,7.5-28.13c8.62-14.73,23.05-23.91,39.61-25.18c17.02-1.31,33.76,6,44.78,19.55
			c7.81,9.6,12.19,21.88,12.35,34.57l0.37,30.35L176.33-84.43z M227.35-165.29c-1.2,0-2.4,0.05-3.61,0.14
			c-15.23,1.17-28.52,9.63-36.46,23.22c-4.55,7.77-6.95,16.8-6.95,26.11v27.39l96.55-0.21l-0.32-26.31
			c-0.14-11.8-4.21-23.2-11.45-32.1C255.7-158.64,241.79-165.29,227.35-165.29z"/>
	</g>
	<g class="st1">
		<path d="M64.52-84.43v-31.4c0-10.02,2.59-19.74,7.5-28.13c8.62-14.73,23.05-23.91,39.61-25.18c17.02-1.31,33.76,6,44.78,19.55
			c7.81,9.6,12.19,21.88,12.35,34.57l0.37,30.35L64.52-84.43z M115.54-165.29c-1.2,0-2.4,0.05-3.61,0.14
			c-15.23,1.17-28.52,9.63-36.46,23.22c-4.55,7.77-6.95,16.8-6.95,26.11v27.39l96.55-0.21l-0.32-26.31
			c-0.14-11.8-4.21-23.2-11.45-32.1C143.89-158.64,129.98-165.29,115.54-165.29z"/>
	</g>
	<g class="st1">
		<path d="M1.53-84.54v-84.77l2.05,0.05c15.29,0.4,29.7,7.56,39.55,19.66c7.81,9.6,12.19,21.88,12.35,34.57l0.37,30.35L1.53-84.54z
			 M5.53-165.16v76.61l46.26-0.1l-0.32-26.31c-0.14-11.8-4.21-23.2-11.45-32.1l0,0C31.36-157.72,18.88-164.23,5.53-165.16z"/>
	</g>
</g>
<g class="st0">
	<g class="st1">
		<path d="M-128-83.46v-31.4c0-10.02,2.59-19.74,7.5-28.13c8.62-14.73,23.05-23.91,39.61-25.18c17.02-1.31,33.76,6,44.78,19.55
			c7.81,9.6,12.19,21.88,12.35,34.57l0.37,30.35L-128-83.46z M-76.98-164.32c-1.2,0-2.4,0.05-3.61,0.14
			c-15.23,1.17-28.52,9.63-36.46,23.22c-4.55,7.77-6.95,16.8-6.95,26.11v27.39l96.55-0.21l-0.32-26.31
			c-0.14-11.8-4.21-23.2-11.45-32.1C-48.63-157.66-62.54-164.32-76.98-164.32z"/>
	</g>
	<g class="st1">
		<path d="M-239.81-83.46v-31.4c0-10.02,2.59-19.74,7.5-28.13c8.62-14.73,23.05-23.91,39.61-25.18c17.02-1.31,33.76,6,44.78,19.55
			c7.81,9.6,12.19,21.88,12.35,34.57l0.37,30.35L-239.81-83.46z M-188.79-164.32c-1.2,0-2.4,0.05-3.61,0.14
			c-15.23,1.17-28.52,9.63-36.46,23.22c-4.55,7.77-6.95,16.8-6.95,26.11v27.39l96.55-0.21l-0.32-26.31
			c-0.14-11.8-4.21-23.2-11.45-32.1C-160.44-157.66-174.35-164.32-188.79-164.32z"/>
	</g>
	<g class="st1">
		<path d="M-302.8-83.57v-84.77l2.05,0.05c15.29,0.4,29.7,7.56,39.55,19.66c7.81,9.6,12.19,21.88,12.35,34.57l0.37,30.35
			L-302.8-83.57z M-298.8-164.18v76.61l46.26-0.1l-0.32-26.31c-0.14-11.8-4.21-23.2-11.45-32.1l0,0
			C-272.97-156.74-285.45-163.26-298.8-164.18z"/>
	</g>
</g>
<g class="st0">
	<path class="st1" d="M-302.88-64.36c-0.03,0.08-0.1,0.11-0.24,0.1c-0.13-0.01-0.2-0.06-0.2-0.14c0.1-1.04,0.22-2.4,0.35-4.06
		c0.13-1.66,0.2-2.91,0.2-3.74c0-0.13,0.07-0.2,0.22-0.2c0.14,0,0.22,0.07,0.22,0.2c0,0.58,0.75,0.86,2.24,0.86
		c2.26,0.08,4.9,0.12,7.92,0.12c1.55,0,3.19-0.03,4.92-0.08l2.68-0.04c1,0,1.73-0.06,2.19-0.2c0.46-0.13,0.75-0.39,0.89-0.78
		c0.03-0.1,0.11-0.16,0.26-0.16c0.14,0,0.22,0.05,0.22,0.16c-0.08,0.78-0.16,2.04-0.26,3.76c-0.09,1.72-0.14,3.11-0.14,4.16
		c0,0.08-0.07,0.12-0.2,0.12s-0.21-0.04-0.24-0.12c-0.39-2.01-1.13-3.52-2.21-4.53c-1.08-1.01-2.4-1.51-3.98-1.51
		c-0.76,0-1.27,0.16-1.52,0.49c-0.25,0.33-0.37,0.95-0.37,1.86v18.07c0,0.81,0.08,1.4,0.24,1.76c0.16,0.37,0.46,0.61,0.91,0.74
		c0.45,0.13,1.15,0.2,2.13,0.2c0.08,0,0.12,0.08,0.12,0.23s-0.04,0.24-0.12,0.24c-0.95,0-1.69-0.01-2.24-0.04l-3.27-0.04l-3.19,0.04
		c-0.55,0.03-1.31,0.04-2.28,0.04c-0.08,0-0.12-0.08-0.12-0.24s0.04-0.23,0.12-0.23c0.95,0,1.65-0.06,2.11-0.2
		c0.46-0.13,0.77-0.39,0.94-0.76c0.17-0.38,0.26-0.96,0.26-1.74v-18.15c0-0.89-0.12-1.49-0.35-1.8c-0.24-0.31-0.72-0.47-1.46-0.47
		C-299.27-70.43-301.52-68.41-302.88-64.36z"/>
	<path class="st1" d="M-259.88-53.15c0.08,0,0.15,0.02,0.22,0.06c0.07,0.04,0.1,0.07,0.1,0.1c-0.26,2.04-0.39,3.89-0.39,5.57
		c0,0.21-0.04,0.36-0.12,0.45c-0.08,0.09-0.24,0.14-0.47,0.14h-17.4c-0.08,0-0.12-0.08-0.12-0.24s0.04-0.23,0.12-0.23
		c0.84,0,1.45-0.06,1.83-0.2c0.38-0.13,0.64-0.39,0.77-0.76c0.13-0.38,0.2-0.96,0.2-1.74v-18.15c0-0.78-0.07-1.36-0.2-1.73
		c-0.13-0.37-0.39-0.62-0.79-0.76c-0.39-0.14-1-0.22-1.81-0.22c-0.08,0-0.12-0.08-0.12-0.23s0.04-0.24,0.12-0.24h16.7
		c0.26,0,0.39,0.12,0.39,0.35l0.08,5.21c0,0.05-0.07,0.09-0.22,0.12c-0.14,0.03-0.23,0-0.26-0.08c-0.42-1.52-1.13-2.64-2.13-3.37
		c-1-0.73-2.31-1.1-3.94-1.1h-1.18c-0.79,0-1.37,0.17-1.73,0.51c-0.37,0.34-0.55,0.86-0.55,1.57v8h3.27c1.52,0,2.69-0.26,3.5-0.78
		c0.81-0.52,1.22-1.25,1.22-2.2c0-0.08,0.07-0.12,0.22-0.12c0.14,0,0.22,0.04,0.22,0.12l-0.04,3.53l0.04,1.88
		c0.05,0.89,0.08,1.59,0.08,2.12c0,0.05-0.08,0.08-0.24,0.08c-0.16,0-0.24-0.03-0.24-0.08c0-1.07-0.41-1.91-1.24-2.53
		c-0.83-0.61-2.02-0.92-3.56-0.92h-3.23v8.86c0,0.76,0.14,1.32,0.43,1.69c0.29,0.37,0.75,0.55,1.38,0.55h1.3
		c2.05,0,3.69-0.42,4.92-1.25c1.23-0.84,2.14-2.13,2.72-3.88C-260.04-53.12-259.99-53.15-259.88-53.15z"/>
	<path class="st1" d="M-229.4-47.07c0,0.16-0.07,0.24-0.2,0.24c-0.53,0-1.34-0.03-2.44-0.08c-1.16-0.05-1.98-0.08-2.48-0.08
		c-0.66,0-1.46,0.03-2.4,0.08c-0.89,0.05-1.6,0.08-2.13,0.08c-0.11,0-0.16-0.08-0.16-0.24s0.05-0.23,0.16-0.23
		c0.68,0,1.17-0.07,1.48-0.22c0.3-0.14,0.45-0.4,0.45-0.76c0-0.44-0.26-1.19-0.79-2.23l-2.68-5.29h-9.69l-1.54,3.41
		c-0.34,0.76-0.51,1.46-0.51,2.12c0,0.94,0.33,1.67,1,2.2c0.67,0.52,1.57,0.78,2.7,0.78c0.13,0,0.2,0.08,0.2,0.23
		s-0.07,0.24-0.2,0.24c-0.47,0-1.16-0.03-2.05-0.08c-1-0.05-1.86-0.08-2.6-0.08c-0.71,0-1.56,0.03-2.56,0.08
		c-0.89,0.05-1.61,0.08-2.17,0.08c-0.1,0-0.16-0.08-0.16-0.24s0.05-0.23,0.16-0.23c0.73,0,1.35-0.15,1.85-0.45
		c0.5-0.3,1-0.84,1.5-1.61c0.5-0.77,1.09-1.91,1.77-3.43l8.54-18.7c0.05-0.08,0.17-0.12,0.35-0.12c0.21,0,0.33,0.04,0.35,0.12
		l9.84,19.29c0.92,1.86,1.68,3.14,2.28,3.84c0.6,0.71,1.23,1.06,1.89,1.06C-229.47-47.31-229.4-47.23-229.4-47.07z M-249.76-56.91
		h8.58l-4.53-8.94L-249.76-56.91z"/>
	<path class="st1" d="M-230.39-64.36c-0.03,0.08-0.1,0.11-0.24,0.1c-0.13-0.01-0.2-0.06-0.2-0.14c0.1-1.04,0.22-2.4,0.35-4.06
		c0.13-1.66,0.2-2.91,0.2-3.74c0-0.13,0.07-0.2,0.22-0.2c0.14,0,0.22,0.07,0.22,0.2c0,0.58,0.75,0.86,2.24,0.86
		c2.26,0.08,4.9,0.12,7.92,0.12c1.55,0,3.19-0.03,4.92-0.08l2.68-0.04c1,0,1.73-0.06,2.19-0.2c0.46-0.13,0.75-0.39,0.89-0.78
		c0.03-0.1,0.11-0.16,0.26-0.16c0.14,0,0.22,0.05,0.22,0.16c-0.08,0.78-0.16,2.04-0.26,3.76c-0.09,1.72-0.14,3.11-0.14,4.16
		c0,0.08-0.07,0.12-0.2,0.12s-0.21-0.04-0.24-0.12c-0.39-2.01-1.13-3.52-2.21-4.53c-1.08-1.01-2.4-1.51-3.98-1.51
		c-0.76,0-1.27,0.16-1.52,0.49c-0.25,0.33-0.37,0.95-0.37,1.86v18.07c0,0.81,0.08,1.4,0.24,1.76c0.16,0.37,0.46,0.61,0.91,0.74
		c0.45,0.13,1.15,0.2,2.13,0.2c0.08,0,0.12,0.08,0.12,0.23s-0.04,0.24-0.12,0.24c-0.95,0-1.69-0.01-2.24-0.04l-3.27-0.04l-3.19,0.04
		c-0.55,0.03-1.31,0.04-2.28,0.04c-0.08,0-0.12-0.08-0.12-0.24s0.04-0.23,0.12-0.23c0.95,0,1.65-0.06,2.11-0.2
		c0.46-0.13,0.77-0.39,0.94-0.76c0.17-0.38,0.26-0.96,0.26-1.74v-18.15c0-0.89-0.12-1.49-0.35-1.8c-0.24-0.31-0.72-0.47-1.46-0.47
		C-226.78-70.43-229.02-68.41-230.39-64.36z"/>
	<path class="st1" d="M-198.29-48.35c0.18,0.38,0.53,0.65,1.04,0.8c0.51,0.16,1.33,0.24,2.46,0.24c0.08,0,0.12,0.08,0.12,0.23
		s-0.04,0.24-0.12,0.24c-1.08,0-1.92-0.01-2.52-0.04l-3.43-0.04l-2.87,0.04c-0.53,0.03-1.23,0.04-2.13,0.04
		c-0.08,0-0.12-0.08-0.12-0.24s0.04-0.23,0.12-0.23c0.84,0,1.45-0.06,1.83-0.2c0.38-0.13,0.64-0.39,0.77-0.76
		c0.13-0.38,0.2-0.96,0.2-1.74v-18.15c0-0.78-0.07-1.36-0.2-1.73c-0.13-0.37-0.39-0.62-0.79-0.76c-0.39-0.14-1-0.22-1.81-0.22
		c-0.08,0-0.12-0.08-0.12-0.23s0.04-0.24,0.12-0.24l2.09,0.04c1.21,0.05,2.17,0.08,2.88,0.08c0.63,0,1.38-0.04,2.24-0.12
		c0.34-0.03,0.77-0.05,1.3-0.08c0.52-0.03,1.13-0.04,1.81-0.04c2.68,0,4.79,0.56,6.34,1.67c1.55,1.11,2.32,2.83,2.32,5.15
		c0,1.62-0.42,2.99-1.26,4.12c-0.84,1.12-1.92,1.97-3.25,2.55c-1.33,0.58-2.68,0.86-4.08,0.86c-0.71,0-1.33-0.06-1.85-0.2
		c-0.05,0-0.08-0.06-0.08-0.2c0-0.08,0.02-0.16,0.06-0.23c0.04-0.08,0.08-0.1,0.14-0.08c0.39,0.1,0.84,0.16,1.34,0.16
		c1.21,0,2.21-0.56,3.01-1.69c0.8-1.12,1.2-2.72,1.2-4.78s-0.44-3.66-1.32-4.78c-0.88-1.12-2.16-1.69-3.84-1.69
		c-0.74,0-1.23,0.17-1.5,0.51c-0.26,0.34-0.39,1.01-0.39,2v17.91C-198.57-49.33-198.48-48.72-198.29-48.35z"/>
	<path class="st1" d="M-157.36-58.95c1.77,1.15,2.66,2.81,2.66,4.98c0,1.36-0.38,2.59-1.14,3.7c-0.76,1.11-1.83,1.99-3.19,2.63
		c-1.37,0.64-2.89,0.96-4.57,0.96c-0.71,0-1.56-0.04-2.56-0.12c-0.39-0.03-0.87-0.05-1.44-0.08c-0.56-0.03-1.19-0.04-1.87-0.04
		l-2.88,0.04c-0.53,0.03-1.23,0.04-2.13,0.04c-0.08,0-0.12-0.08-0.12-0.24s0.04-0.23,0.12-0.23c0.84,0,1.45-0.06,1.83-0.2
		c0.38-0.13,0.64-0.39,0.79-0.76c0.14-0.38,0.22-0.96,0.22-1.74v-18.15c0-0.78-0.07-1.36-0.2-1.73c-0.13-0.37-0.39-0.62-0.79-0.76
		c-0.39-0.14-1-0.22-1.81-0.22c-0.05,0-0.08-0.08-0.08-0.23s0.03-0.24,0.08-0.24h16.5c0.37,0,0.6,0.05,0.69,0.16
		c0.09,0.1,0.14,0.38,0.14,0.82l0.31,5.96c0,0.08-0.07,0.12-0.2,0.12c-0.13,0-0.22-0.04-0.28-0.12c-0.39-2.01-1.12-3.52-2.19-4.53
		c-1.06-1.01-2.38-1.51-3.96-1.51h-1.65c-0.84,0-1.41,0.18-1.71,0.53c-0.3,0.35-0.45,1.01-0.45,1.98v7.49
		c1.05-0.16,2.1-0.23,3.15-0.23C-161.37-60.67-159.13-60.1-157.36-58.95z M-160.53-49.01c0.81-0.9,1.22-2.23,1.22-3.98
		c0-2.25-0.54-3.91-1.61-4.98c-1.08-1.07-2.59-1.61-4.53-1.61c-0.63,0-1.22,0.05-1.77,0.16v9.41c0,0.78,0.19,1.37,0.57,1.76
		c0.38,0.39,1.15,0.59,2.3,0.59C-162.62-47.66-161.35-48.11-160.53-49.01z"/>
	<path class="st1" d="M-124.22-47.07c0,0.16-0.07,0.24-0.2,0.24c-0.53,0-1.34-0.03-2.44-0.08c-1.16-0.05-1.98-0.08-2.48-0.08
		c-0.66,0-1.46,0.03-2.4,0.08c-0.89,0.05-1.6,0.08-2.13,0.08c-0.11,0-0.16-0.08-0.16-0.24s0.05-0.23,0.16-0.23
		c0.68,0,1.17-0.07,1.48-0.22c0.3-0.14,0.45-0.4,0.45-0.76c0-0.44-0.26-1.19-0.79-2.23l-2.68-5.29h-9.69l-1.54,3.41
		c-0.34,0.76-0.51,1.46-0.51,2.12c0,0.94,0.33,1.67,1,2.2c0.67,0.52,1.57,0.78,2.7,0.78c0.13,0,0.2,0.08,0.2,0.23
		s-0.07,0.24-0.2,0.24c-0.47,0-1.16-0.03-2.05-0.08c-1-0.05-1.86-0.08-2.6-0.08c-0.71,0-1.56,0.03-2.56,0.08
		c-0.89,0.05-1.61,0.08-2.17,0.08c-0.1,0-0.16-0.08-0.16-0.24s0.05-0.23,0.16-0.23c0.73,0,1.35-0.15,1.85-0.45
		c0.5-0.3,1-0.84,1.5-1.61c0.5-0.77,1.09-1.91,1.77-3.43l8.54-18.7c0.05-0.08,0.17-0.12,0.35-0.12c0.21,0,0.33,0.04,0.35,0.12
		l9.84,19.29c0.92,1.86,1.68,3.14,2.28,3.84c0.6,0.71,1.23,1.06,1.89,1.06C-124.29-47.31-124.22-47.23-124.22-47.07z M-144.58-56.91
		h8.58l-4.53-8.94L-144.58-56.91z"/>
	<path class="st1" d="M-96.03-47.07c0,0.16-0.07,0.24-0.2,0.24c-0.53,0-1.34-0.03-2.44-0.08c-1.16-0.05-1.98-0.08-2.48-0.08
		c-0.66,0-1.46,0.03-2.4,0.08c-0.89,0.05-1.6,0.08-2.13,0.08c-0.11,0-0.16-0.08-0.16-0.24s0.05-0.23,0.16-0.23
		c0.68,0,1.17-0.07,1.48-0.22c0.3-0.14,0.45-0.4,0.45-0.76c0-0.44-0.26-1.19-0.79-2.23l-7.8-15.33l-6.1,13.45
		c-0.34,0.76-0.51,1.46-0.51,2.12c0,0.94,0.33,1.67,1,2.2c0.67,0.52,1.57,0.78,2.7,0.78c0.13,0,0.2,0.08,0.2,0.23
		s-0.07,0.24-0.2,0.24c-0.47,0-1.16-0.03-2.05-0.08c-1-0.05-1.86-0.08-2.6-0.08c-0.71,0-1.56,0.03-2.56,0.08
		c-0.89,0.05-1.61,0.08-2.17,0.08c-0.1,0-0.16-0.08-0.16-0.24s0.05-0.23,0.16-0.23c0.73,0,1.35-0.15,1.85-0.45
		c0.5-0.3,1-0.84,1.5-1.61c0.5-0.77,1.09-1.91,1.77-3.43l8.54-18.7c0.05-0.08,0.17-0.12,0.35-0.12c0.21,0,0.33,0.04,0.35,0.12
		l9.84,19.29c0.92,1.86,1.68,3.14,2.28,3.84c0.6,0.71,1.23,1.06,1.89,1.06C-96.1-47.31-96.03-47.23-96.03-47.07z"/>
	<path class="st1" d="M-76.58-53.15c0.08,0,0.15,0.02,0.22,0.06c0.07,0.04,0.1,0.07,0.1,0.1c-0.26,2.04-0.39,3.89-0.39,5.57
		c0,0.21-0.04,0.36-0.12,0.45c-0.08,0.09-0.24,0.14-0.47,0.14h-17.4c-0.08,0-0.12-0.08-0.12-0.24s0.04-0.23,0.12-0.23
		c0.84,0,1.45-0.06,1.83-0.2c0.38-0.13,0.64-0.39,0.77-0.76c0.13-0.38,0.2-0.96,0.2-1.74v-18.15c0-0.78-0.07-1.36-0.2-1.73
		c-0.13-0.37-0.39-0.62-0.79-0.76c-0.39-0.14-1-0.22-1.81-0.22c-0.08,0-0.12-0.08-0.12-0.23s0.04-0.24,0.12-0.24h16.7
		c0.26,0,0.39,0.12,0.39,0.35l0.08,5.21c0,0.05-0.07,0.09-0.22,0.12c-0.14,0.03-0.23,0-0.26-0.08c-0.42-1.52-1.13-2.64-2.13-3.37
		c-1-0.73-2.31-1.1-3.94-1.1h-1.18c-0.79,0-1.37,0.17-1.73,0.51c-0.37,0.34-0.55,0.86-0.55,1.57v8h3.27c1.52,0,2.69-0.26,3.5-0.78
		c0.81-0.52,1.22-1.25,1.22-2.2c0-0.08,0.07-0.12,0.22-0.12c0.14,0,0.22,0.04,0.22,0.12l-0.04,3.53l0.04,1.88
		c0.05,0.89,0.08,1.59,0.08,2.12c0,0.05-0.08,0.08-0.24,0.08c-0.16,0-0.24-0.03-0.24-0.08c0-1.07-0.41-1.91-1.24-2.53
		c-0.83-0.61-2.02-0.92-3.56-0.92h-3.23v8.86c0,0.76,0.14,1.32,0.43,1.69c0.29,0.37,0.75,0.55,1.38,0.55h1.3
		c2.05,0,3.69-0.42,4.92-1.25c1.23-0.84,2.14-2.13,2.72-3.88C-76.74-53.12-76.68-53.15-76.58-53.15z"/>
	<path class="st1" d="M-72.52-64.36c-0.03,0.08-0.1,0.11-0.24,0.1c-0.13-0.01-0.2-0.06-0.2-0.14c0.1-1.04,0.22-2.4,0.35-4.06
		c0.13-1.66,0.2-2.91,0.2-3.74c0-0.13,0.07-0.2,0.22-0.2c0.14,0,0.22,0.07,0.22,0.2c0,0.58,0.75,0.86,2.24,0.86
		c2.26,0.08,4.9,0.12,7.92,0.12c1.55,0,3.19-0.03,4.92-0.08l2.68-0.04c1,0,1.73-0.06,2.19-0.2c0.46-0.13,0.75-0.39,0.89-0.78
		c0.03-0.1,0.11-0.16,0.26-0.16c0.14,0,0.22,0.05,0.22,0.16c-0.08,0.78-0.16,2.04-0.26,3.76c-0.09,1.72-0.14,3.11-0.14,4.16
		c0,0.08-0.07,0.12-0.2,0.12s-0.21-0.04-0.24-0.12c-0.39-2.01-1.13-3.52-2.21-4.53c-1.08-1.01-2.4-1.51-3.98-1.51
		c-0.76,0-1.27,0.16-1.52,0.49c-0.25,0.33-0.37,0.95-0.37,1.86v18.07c0,0.81,0.08,1.4,0.24,1.76c0.16,0.37,0.46,0.61,0.91,0.74
		c0.45,0.13,1.15,0.2,2.13,0.2c0.08,0,0.12,0.08,0.12,0.23s-0.04,0.24-0.12,0.24c-0.95,0-1.69-0.01-2.24-0.04l-3.27-0.04L-65-46.87
		c-0.55,0.03-1.31,0.04-2.28,0.04c-0.08,0-0.12-0.08-0.12-0.24s0.04-0.23,0.12-0.23c0.95,0,1.65-0.06,2.11-0.2
		c0.46-0.13,0.77-0.39,0.94-0.76c0.17-0.38,0.26-0.96,0.26-1.74v-18.15c0-0.89-0.12-1.49-0.35-1.8c-0.24-0.31-0.72-0.47-1.46-0.47
		C-68.91-70.43-71.16-68.41-72.52-64.36z"/>
	<path class="st1" d="M-23.54-47.07c0,0.16-0.07,0.24-0.2,0.24c-0.53,0-1.34-0.03-2.44-0.08c-1.15-0.05-1.98-0.08-2.48-0.08
		c-0.66,0-1.46,0.03-2.4,0.08c-0.89,0.05-1.6,0.08-2.13,0.08c-0.1,0-0.16-0.08-0.16-0.24s0.05-0.23,0.16-0.23
		c0.68,0,1.18-0.07,1.48-0.22c0.3-0.14,0.45-0.4,0.45-0.76c0-0.44-0.26-1.19-0.79-2.23l-2.68-5.29h-9.69l-1.54,3.41
		c-0.34,0.76-0.51,1.46-0.51,2.12c0,0.94,0.33,1.67,1,2.2c0.67,0.52,1.57,0.78,2.7,0.78c0.13,0,0.2,0.08,0.2,0.23
		s-0.07,0.24-0.2,0.24c-0.47,0-1.16-0.03-2.05-0.08c-1-0.05-1.86-0.08-2.6-0.08c-0.71,0-1.56,0.03-2.56,0.08
		c-0.89,0.05-1.61,0.08-2.17,0.08c-0.1,0-0.16-0.08-0.16-0.24s0.05-0.23,0.16-0.23c0.73,0,1.35-0.15,1.85-0.45
		c0.5-0.3,1-0.84,1.5-1.61c0.5-0.77,1.09-1.91,1.77-3.43l8.55-18.7c0.05-0.08,0.17-0.12,0.35-0.12c0.21,0,0.33,0.04,0.36,0.12
		l9.84,19.29c0.92,1.86,1.68,3.14,2.28,3.84s1.23,1.06,1.89,1.06C-23.6-47.31-23.54-47.23-23.54-47.07z M-43.9-56.91h8.59
		l-4.53-8.94L-43.9-56.91z"/>
</g>
<g>
	<g>
		<path class="st2" d="M177.81,88.37v-31.4c0-10.02,2.59-19.74,7.5-28.13c8.62-14.73,23.05-23.91,39.61-25.18
			c17.02-1.31,33.76,6,44.78,19.55c7.81,9.6,12.19,21.88,12.35,34.57l0.37,30.35L177.81,88.37z M228.82,7.51
			c-1.2,0-2.4,0.05-3.61,0.14c-15.23,1.17-28.52,9.63-36.46,23.22c-4.55,7.77-6.95,16.8-6.95,26.11v27.39l96.55-0.21l-0.32-26.31
			c-0.14-11.8-4.21-23.2-11.45-32.1C257.17,14.16,243.27,7.51,228.82,7.51z"/>
	</g>
	<g>
		<path class="st2" d="M66,88.37v-31.4c0-10.02,2.59-19.74,7.5-28.13C82.11,14.11,96.55,4.93,113.1,3.66
			c17.02-1.31,33.76,6,44.78,19.55c7.81,9.6,12.19,21.88,12.35,34.57l0.37,30.35L66,88.37z M117.02,7.51c-1.2,0-2.4,0.05-3.61,0.14
			c-15.23,1.17-28.52,9.63-36.46,23.22C72.4,38.63,70,47.66,70,56.97v27.39l96.55-0.21l-0.32-26.31c-0.14-11.8-4.21-23.2-11.45-32.1
			C145.37,14.16,131.46,7.51,117.02,7.51z"/>
	</g>
	<g>
		<path class="st2" d="M3,88.26V3.49l2.05,0.05c15.29,0.4,29.7,7.56,39.55,19.66c7.81,9.6,12.19,21.88,12.35,34.57l0.37,30.35
			L3,88.26z M7,7.64v76.61l46.26-0.1l-0.32-26.31c-0.14-11.8-4.21-23.2-11.45-32.1l0,0C32.83,15.08,20.36,8.56,7,7.64z"/>
	</g>
</g>
<g class="st0">
	<g class="st1">
		<g>
			<path class="st2" d="M-127.93,89.71v-31.4c0-10.02,2.59-19.74,7.5-28.13C-111.82,15.46-97.38,6.28-80.83,5
				c17.02-1.31,33.76,6,44.78,19.55c7.81,9.6,12.19,21.88,12.35,34.57l0.37,30.35L-127.93,89.71z M-76.91,8.85
				c-1.2,0-2.4,0.05-3.61,0.14c-15.23,1.17-28.52,9.63-36.46,23.22c-4.55,7.77-6.95,16.8-6.95,26.11V85.7l96.55-0.21l-0.32-26.31
				c-0.14-11.8-4.21-23.2-11.45-32.1C-48.56,15.51-62.47,8.85-76.91,8.85z"/>
		</g>
		<g>
			<path class="st2" d="M-239.74,89.71v-31.4c0-10.02,2.59-19.74,7.5-28.13c8.62-14.73,23.05-23.91,39.61-25.18
				c17.02-1.31,33.76,6,44.78,19.55c7.81,9.6,12.19,21.88,12.35,34.57l0.37,30.35L-239.74,89.71z M-188.72,8.85
				c-1.2,0-2.4,0.05-3.61,0.14c-15.23,1.17-28.52,9.63-36.46,23.22c-4.55,7.77-6.95,16.8-6.95,26.11V85.7l96.55-0.21l-0.32-26.31
				c-0.14-11.8-4.21-23.2-11.45-32.1C-160.37,15.51-174.28,8.85-188.72,8.85z"/>
		</g>
		<g>
			<path class="st2" d="M-302.73,89.6V4.84l2.05,0.05c15.29,0.4,29.7,7.56,39.55,19.66c7.81,9.6,12.19,21.88,12.35,34.57l0.37,30.35
				L-302.73,89.6z M-298.73,8.99v76.61l46.26-0.1l-0.32-26.31c-0.14-11.8-4.21-23.2-11.45-32.1l0,0
				C-272.9,16.43-285.38,9.91-298.73,8.99z"/>
		</g>
	</g>
	<g class="st1">
		<path class="st2" d="M-302.81,108.81c-0.03,0.08-0.1,0.11-0.24,0.1c-0.13-0.01-0.2-0.06-0.2-0.14c0.1-1.04,0.22-2.4,0.35-4.06
			c0.13-1.66,0.2-2.91,0.2-3.74c0-0.13,0.07-0.2,0.22-0.2c0.14,0,0.22,0.07,0.22,0.2c0,0.58,0.75,0.86,2.24,0.86
			c2.26,0.08,4.9,0.12,7.92,0.12c1.55,0,3.19-0.03,4.92-0.08l2.68-0.04c1,0,1.73-0.06,2.19-0.2c0.46-0.13,0.75-0.39,0.89-0.78
			c0.03-0.1,0.11-0.16,0.26-0.16c0.14,0,0.22,0.05,0.22,0.16c-0.08,0.78-0.16,2.04-0.26,3.76c-0.09,1.72-0.14,3.11-0.14,4.16
			c0,0.08-0.07,0.12-0.2,0.12s-0.21-0.04-0.24-0.12c-0.39-2.01-1.13-3.52-2.21-4.53c-1.08-1.01-2.4-1.51-3.98-1.51
			c-0.76,0-1.27,0.16-1.52,0.49c-0.25,0.33-0.37,0.95-0.37,1.86v18.07c0,0.81,0.08,1.4,0.24,1.76c0.16,0.37,0.46,0.61,0.91,0.74
			c0.45,0.13,1.15,0.2,2.13,0.2c0.08,0,0.12,0.08,0.12,0.23s-0.04,0.24-0.12,0.24c-0.95,0-1.69-0.01-2.24-0.04l-3.27-0.04
			l-3.19,0.04c-0.55,0.03-1.31,0.04-2.28,0.04c-0.08,0-0.12-0.08-0.12-0.24s0.04-0.23,0.12-0.23c0.95,0,1.65-0.06,2.11-0.2
			c0.46-0.13,0.77-0.39,0.94-0.76c0.17-0.38,0.26-0.96,0.26-1.74v-18.15c0-0.89-0.12-1.49-0.35-1.8c-0.24-0.31-0.72-0.47-1.46-0.47
			C-299.2,102.73-301.45,104.76-302.81,108.81z"/>
		<path class="st2" d="M-259.81,120.02c0.08,0,0.15,0.02,0.22,0.06c0.07,0.04,0.1,0.07,0.1,0.1c-0.26,2.04-0.39,3.89-0.39,5.57
			c0,0.21-0.04,0.36-0.12,0.45c-0.08,0.09-0.24,0.14-0.47,0.14h-17.4c-0.08,0-0.12-0.08-0.12-0.24s0.04-0.23,0.12-0.23
			c0.84,0,1.45-0.06,1.83-0.2c0.38-0.13,0.64-0.39,0.77-0.76c0.13-0.38,0.2-0.96,0.2-1.74v-18.15c0-0.78-0.07-1.36-0.2-1.73
			c-0.13-0.37-0.39-0.62-0.79-0.76c-0.39-0.14-1-0.22-1.81-0.22c-0.08,0-0.12-0.08-0.12-0.23s0.04-0.24,0.12-0.24h16.7
			c0.26,0,0.39,0.12,0.39,0.35l0.08,5.21c0,0.05-0.07,0.09-0.22,0.12c-0.14,0.03-0.23,0-0.26-0.08c-0.42-1.52-1.13-2.64-2.13-3.37
			c-1-0.73-2.31-1.1-3.94-1.1h-1.18c-0.79,0-1.37,0.17-1.73,0.51c-0.37,0.34-0.55,0.86-0.55,1.57v8h3.27c1.52,0,2.69-0.26,3.5-0.78
			c0.81-0.52,1.22-1.25,1.22-2.2c0-0.08,0.07-0.12,0.22-0.12c0.14,0,0.22,0.04,0.22,0.12l-0.04,3.53l0.04,1.88
			c0.05,0.89,0.08,1.59,0.08,2.12c0,0.05-0.08,0.08-0.24,0.08c-0.16,0-0.24-0.03-0.24-0.08c0-1.07-0.41-1.91-1.24-2.53
			c-0.83-0.61-2.02-0.92-3.56-0.92h-3.23V123c0,0.76,0.14,1.32,0.43,1.69c0.29,0.37,0.75,0.55,1.38,0.55h1.3
			c2.05,0,3.69-0.42,4.92-1.25c1.23-0.84,2.14-2.13,2.72-3.88C-259.97,120.05-259.92,120.02-259.81,120.02z"/>
		<path class="st2" d="M-229.33,126.1c0,0.16-0.07,0.24-0.2,0.24c-0.53,0-1.34-0.03-2.44-0.08c-1.16-0.05-1.98-0.08-2.48-0.08
			c-0.66,0-1.46,0.03-2.4,0.08c-0.89,0.05-1.6,0.08-2.13,0.08c-0.11,0-0.16-0.08-0.16-0.24s0.05-0.23,0.16-0.23
			c0.68,0,1.17-0.07,1.48-0.22c0.3-0.14,0.45-0.4,0.45-0.76c0-0.44-0.26-1.19-0.79-2.23l-2.68-5.29h-9.69l-1.54,3.41
			c-0.34,0.76-0.51,1.46-0.51,2.12c0,0.94,0.33,1.67,1,2.2c0.67,0.52,1.57,0.78,2.7,0.78c0.13,0,0.2,0.08,0.2,0.23
			s-0.07,0.24-0.2,0.24c-0.47,0-1.16-0.03-2.05-0.08c-1-0.05-1.86-0.08-2.6-0.08c-0.71,0-1.56,0.03-2.56,0.08
			c-0.89,0.05-1.61,0.08-2.17,0.08c-0.1,0-0.16-0.08-0.16-0.24s0.05-0.23,0.16-0.23c0.73,0,1.35-0.15,1.85-0.45
			c0.5-0.3,1-0.84,1.5-1.61c0.5-0.77,1.09-1.91,1.77-3.43l8.54-18.7c0.05-0.08,0.17-0.12,0.35-0.12c0.21,0,0.33,0.04,0.35,0.12
			l9.84,19.29c0.92,1.86,1.68,3.14,2.28,3.84c0.6,0.71,1.23,1.06,1.89,1.06C-229.4,125.86-229.33,125.94-229.33,126.1z
			 M-249.69,116.26h8.58l-4.53-8.94L-249.69,116.26z"/>
		<path class="st2" d="M-230.32,108.81c-0.03,0.08-0.1,0.11-0.24,0.1c-0.13-0.01-0.2-0.06-0.2-0.14c0.1-1.04,0.22-2.4,0.35-4.06
			c0.13-1.66,0.2-2.91,0.2-3.74c0-0.13,0.07-0.2,0.22-0.2c0.14,0,0.22,0.07,0.22,0.2c0,0.58,0.75,0.86,2.24,0.86
			c2.26,0.08,4.9,0.12,7.92,0.12c1.55,0,3.19-0.03,4.92-0.08l2.68-0.04c1,0,1.73-0.06,2.19-0.2c0.46-0.13,0.75-0.39,0.89-0.78
			c0.03-0.1,0.11-0.16,0.26-0.16c0.14,0,0.22,0.05,0.22,0.16c-0.08,0.78-0.16,2.04-0.26,3.76c-0.09,1.72-0.14,3.11-0.14,4.16
			c0,0.08-0.07,0.12-0.2,0.12s-0.21-0.04-0.24-0.12c-0.39-2.01-1.13-3.52-2.21-4.53c-1.08-1.01-2.4-1.51-3.98-1.51
			c-0.76,0-1.27,0.16-1.52,0.49c-0.25,0.33-0.37,0.95-0.37,1.86v18.07c0,0.81,0.08,1.4,0.24,1.76c0.16,0.37,0.46,0.61,0.91,0.74
			c0.45,0.13,1.15,0.2,2.13,0.2c0.08,0,0.12,0.08,0.12,0.23s-0.04,0.24-0.12,0.24c-0.95,0-1.69-0.01-2.24-0.04l-3.27-0.04
			l-3.19,0.04c-0.55,0.03-1.31,0.04-2.28,0.04c-0.08,0-0.12-0.08-0.12-0.24s0.04-0.23,0.12-0.23c0.95,0,1.65-0.06,2.11-0.2
			c0.46-0.13,0.77-0.39,0.94-0.76c0.17-0.38,0.26-0.96,0.26-1.74v-18.15c0-0.89-0.12-1.49-0.35-1.8c-0.24-0.31-0.72-0.47-1.46-0.47
			C-226.71,102.73-228.95,104.76-230.32,108.81z"/>
		<path class="st2" d="M-198.23,124.82c0.18,0.38,0.53,0.65,1.04,0.8c0.51,0.16,1.33,0.24,2.46,0.24c0.08,0,0.12,0.08,0.12,0.23
			s-0.04,0.24-0.12,0.24c-1.08,0-1.92-0.01-2.52-0.04l-3.43-0.04l-2.87,0.04c-0.53,0.03-1.23,0.04-2.13,0.04
			c-0.08,0-0.12-0.08-0.12-0.24s0.04-0.23,0.12-0.23c0.84,0,1.45-0.06,1.83-0.2c0.38-0.13,0.64-0.39,0.77-0.76
			c0.13-0.38,0.2-0.96,0.2-1.74v-18.15c0-0.78-0.07-1.36-0.2-1.73c-0.13-0.37-0.39-0.62-0.79-0.76c-0.39-0.14-1-0.22-1.81-0.22
			c-0.08,0-0.12-0.08-0.12-0.23s0.04-0.24,0.12-0.24l2.09,0.04c1.21,0.05,2.17,0.08,2.88,0.08c0.63,0,1.38-0.04,2.24-0.12
			c0.34-0.03,0.77-0.05,1.3-0.08c0.52-0.03,1.13-0.04,1.81-0.04c2.68,0,4.79,0.56,6.34,1.67c1.55,1.11,2.32,2.83,2.32,5.15
			c0,1.62-0.42,2.99-1.26,4.12c-0.84,1.12-1.92,1.97-3.25,2.55c-1.33,0.58-2.68,0.86-4.08,0.86c-0.71,0-1.33-0.06-1.85-0.2
			c-0.05,0-0.08-0.06-0.08-0.2c0-0.08,0.02-0.16,0.06-0.23c0.04-0.08,0.08-0.1,0.14-0.08c0.39,0.1,0.84,0.16,1.34,0.16
			c1.21,0,2.21-0.56,3.01-1.69c0.8-1.12,1.2-2.72,1.2-4.78s-0.44-3.66-1.32-4.78c-0.88-1.12-2.16-1.69-3.84-1.69
			c-0.74,0-1.23,0.17-1.5,0.51c-0.26,0.34-0.39,1.01-0.39,2V123C-198.5,123.84-198.41,124.45-198.23,124.82z"/>
		<path class="st2" d="M-157.29,114.22c1.77,1.15,2.66,2.81,2.66,4.98c0,1.36-0.38,2.59-1.14,3.7c-0.76,1.11-1.83,1.99-3.19,2.63
			c-1.37,0.64-2.89,0.96-4.57,0.96c-0.71,0-1.56-0.04-2.56-0.12c-0.39-0.03-0.87-0.05-1.44-0.08c-0.56-0.03-1.19-0.04-1.87-0.04
			l-2.88,0.04c-0.53,0.03-1.23,0.04-2.13,0.04c-0.08,0-0.12-0.08-0.12-0.24s0.04-0.23,0.12-0.23c0.84,0,1.45-0.06,1.83-0.2
			c0.38-0.13,0.64-0.39,0.79-0.76c0.14-0.38,0.22-0.96,0.22-1.74v-18.15c0-0.78-0.07-1.36-0.2-1.73c-0.13-0.37-0.39-0.62-0.79-0.76
			c-0.39-0.14-1-0.22-1.81-0.22c-0.05,0-0.08-0.08-0.08-0.23s0.03-0.24,0.08-0.24h16.5c0.37,0,0.6,0.05,0.69,0.16
			c0.09,0.1,0.14,0.38,0.14,0.82l0.31,5.96c0,0.08-0.07,0.12-0.2,0.12c-0.13,0-0.22-0.04-0.28-0.12c-0.39-2.01-1.12-3.52-2.19-4.53
			c-1.06-1.01-2.38-1.51-3.96-1.51h-1.65c-0.84,0-1.41,0.18-1.71,0.53c-0.3,0.35-0.45,1.01-0.45,1.98v7.49
			c1.05-0.16,2.1-0.23,3.15-0.23C-161.3,112.5-159.06,113.07-157.29,114.22z M-160.46,124.16c0.81-0.9,1.22-2.23,1.22-3.98
			c0-2.25-0.54-3.91-1.61-4.98c-1.08-1.07-2.59-1.61-4.53-1.61c-0.63,0-1.22,0.05-1.77,0.16v9.41c0,0.78,0.19,1.37,0.57,1.76
			c0.38,0.39,1.15,0.59,2.3,0.59C-162.55,125.51-161.28,125.06-160.46,124.16z"/>
		<path class="st2" d="M-124.16,126.1c0,0.16-0.07,0.24-0.2,0.24c-0.53,0-1.34-0.03-2.44-0.08c-1.16-0.05-1.98-0.08-2.48-0.08
			c-0.66,0-1.46,0.03-2.4,0.08c-0.89,0.05-1.6,0.08-2.13,0.08c-0.11,0-0.16-0.08-0.16-0.24s0.05-0.23,0.16-0.23
			c0.68,0,1.17-0.07,1.48-0.22c0.3-0.14,0.45-0.4,0.45-0.76c0-0.44-0.26-1.19-0.79-2.23l-2.68-5.29h-9.69l-1.54,3.41
			c-0.34,0.76-0.51,1.46-0.51,2.12c0,0.94,0.33,1.67,1,2.2c0.67,0.52,1.57,0.78,2.7,0.78c0.13,0,0.2,0.08,0.2,0.23
			s-0.07,0.24-0.2,0.24c-0.47,0-1.16-0.03-2.05-0.08c-1-0.05-1.86-0.08-2.6-0.08c-0.71,0-1.56,0.03-2.56,0.08
			c-0.89,0.05-1.61,0.08-2.17,0.08c-0.1,0-0.16-0.08-0.16-0.24s0.05-0.23,0.16-0.23c0.73,0,1.35-0.15,1.85-0.45
			c0.5-0.3,1-0.84,1.5-1.61c0.5-0.77,1.09-1.91,1.77-3.43l8.54-18.7c0.05-0.08,0.17-0.12,0.35-0.12c0.21,0,0.33,0.04,0.35,0.12
			l9.84,19.29c0.92,1.86,1.68,3.14,2.28,3.84c0.6,0.71,1.23,1.06,1.89,1.06C-124.22,125.86-124.16,125.94-124.16,126.1z
			 M-144.51,116.26h8.58l-4.53-8.94L-144.51,116.26z"/>
		<path class="st2" d="M-95.96,126.1c0,0.16-0.07,0.24-0.2,0.24c-0.53,0-1.34-0.03-2.44-0.08c-1.16-0.05-1.98-0.08-2.48-0.08
			c-0.66,0-1.46,0.03-2.4,0.08c-0.89,0.05-1.6,0.08-2.13,0.08c-0.11,0-0.16-0.08-0.16-0.24s0.05-0.23,0.16-0.23
			c0.68,0,1.17-0.07,1.48-0.22c0.3-0.14,0.45-0.4,0.45-0.76c0-0.44-0.26-1.19-0.79-2.23l-7.8-15.33l-6.1,13.45
			c-0.34,0.76-0.51,1.46-0.51,2.12c0,0.94,0.33,1.67,1,2.2c0.67,0.52,1.57,0.78,2.7,0.78c0.13,0,0.2,0.08,0.2,0.23
			s-0.07,0.24-0.2,0.24c-0.47,0-1.16-0.03-2.05-0.08c-1-0.05-1.86-0.08-2.6-0.08c-0.71,0-1.56,0.03-2.56,0.08
			c-0.89,0.05-1.61,0.08-2.17,0.08c-0.1,0-0.16-0.08-0.16-0.24s0.05-0.23,0.16-0.23c0.73,0,1.35-0.15,1.85-0.45
			c0.5-0.3,1-0.84,1.5-1.61c0.5-0.77,1.09-1.91,1.77-3.43l8.54-18.7c0.05-0.08,0.17-0.12,0.35-0.12c0.21,0,0.33,0.04,0.35,0.12
			l9.84,19.29c0.92,1.86,1.68,3.14,2.28,3.84c0.6,0.71,1.23,1.06,1.89,1.06C-96.03,125.86-95.96,125.94-95.96,126.1z"/>
		<path class="st2" d="M-76.51,120.02c0.08,0,0.15,0.02,0.22,0.06c0.07,0.04,0.1,0.07,0.1,0.1c-0.26,2.04-0.39,3.89-0.39,5.57
			c0,0.21-0.04,0.36-0.12,0.45c-0.08,0.09-0.24,0.14-0.47,0.14h-17.4c-0.08,0-0.12-0.08-0.12-0.24s0.04-0.23,0.12-0.23
			c0.84,0,1.45-0.06,1.83-0.2c0.38-0.13,0.64-0.39,0.77-0.76c0.13-0.38,0.2-0.96,0.2-1.74v-18.15c0-0.78-0.07-1.36-0.2-1.73
			c-0.13-0.37-0.39-0.62-0.79-0.76c-0.39-0.14-1-0.22-1.81-0.22c-0.08,0-0.12-0.08-0.12-0.23s0.04-0.24,0.12-0.24h16.7
			c0.26,0,0.39,0.12,0.39,0.35l0.08,5.21c0,0.05-0.07,0.09-0.22,0.12c-0.14,0.03-0.23,0-0.26-0.08c-0.42-1.52-1.13-2.64-2.13-3.37
			c-1-0.73-2.31-1.1-3.94-1.1h-1.18c-0.79,0-1.37,0.17-1.73,0.51c-0.37,0.34-0.55,0.86-0.55,1.57v8h3.27c1.52,0,2.69-0.26,3.5-0.78
			c0.81-0.52,1.22-1.25,1.22-2.2c0-0.08,0.07-0.12,0.22-0.12c0.14,0,0.22,0.04,0.22,0.12l-0.04,3.53l0.04,1.88
			c0.05,0.89,0.08,1.59,0.08,2.12c0,0.05-0.08,0.08-0.24,0.08c-0.16,0-0.24-0.03-0.24-0.08c0-1.07-0.41-1.91-1.24-2.53
			c-0.83-0.61-2.02-0.92-3.56-0.92h-3.23V123c0,0.76,0.14,1.32,0.43,1.69c0.29,0.37,0.75,0.55,1.38,0.55h1.3
			c2.05,0,3.69-0.42,4.92-1.25c1.23-0.84,2.14-2.13,2.72-3.88C-76.67,120.05-76.61,120.02-76.51,120.02z"/>
		<path class="st2" d="M-72.45,108.81c-0.03,0.08-0.1,0.11-0.24,0.1c-0.13-0.01-0.2-0.06-0.2-0.14c0.1-1.04,0.22-2.4,0.35-4.06
			c0.13-1.66,0.2-2.91,0.2-3.74c0-0.13,0.07-0.2,0.22-0.2c0.14,0,0.22,0.07,0.22,0.2c0,0.58,0.75,0.86,2.24,0.86
			c2.26,0.08,4.9,0.12,7.92,0.12c1.55,0,3.19-0.03,4.92-0.08l2.68-0.04c1,0,1.73-0.06,2.19-0.2c0.46-0.13,0.75-0.39,0.89-0.78
			c0.03-0.1,0.11-0.16,0.26-0.16c0.14,0,0.22,0.05,0.22,0.16c-0.08,0.78-0.16,2.04-0.26,3.76c-0.09,1.72-0.14,3.11-0.14,4.16
			c0,0.08-0.07,0.12-0.2,0.12s-0.21-0.04-0.24-0.12c-0.39-2.01-1.13-3.52-2.21-4.53c-1.08-1.01-2.4-1.51-3.98-1.51
			c-0.76,0-1.27,0.16-1.52,0.49c-0.25,0.33-0.37,0.95-0.37,1.86v18.07c0,0.81,0.08,1.4,0.24,1.76c0.16,0.37,0.46,0.61,0.91,0.74
			c0.45,0.13,1.15,0.2,2.13,0.2c0.08,0,0.12,0.08,0.12,0.23s-0.04,0.24-0.12,0.24c-0.95,0-1.69-0.01-2.24-0.04l-3.27-0.04
			l-3.19,0.04c-0.55,0.03-1.31,0.04-2.28,0.04c-0.08,0-0.12-0.08-0.12-0.24s0.04-0.23,0.12-0.23c0.95,0,1.65-0.06,2.11-0.2
			c0.46-0.13,0.77-0.39,0.94-0.76c0.17-0.38,0.26-0.96,0.26-1.74v-18.15c0-0.89-0.12-1.49-0.35-1.8c-0.24-0.31-0.72-0.47-1.46-0.47
			C-68.84,102.73-71.09,104.76-72.45,108.81z"/>
		<path class="st2" d="M-23.47,126.1c0,0.16-0.07,0.24-0.2,0.24c-0.53,0-1.34-0.03-2.44-0.08c-1.15-0.05-1.98-0.08-2.48-0.08
			c-0.66,0-1.46,0.03-2.4,0.08c-0.89,0.05-1.6,0.08-2.13,0.08c-0.1,0-0.16-0.08-0.16-0.24s0.05-0.23,0.16-0.23
			c0.68,0,1.18-0.07,1.48-0.22c0.3-0.14,0.45-0.4,0.45-0.76c0-0.44-0.26-1.19-0.79-2.23l-2.68-5.29h-9.69l-1.54,3.41
			c-0.34,0.76-0.51,1.46-0.51,2.12c0,0.94,0.33,1.67,1,2.2c0.67,0.52,1.57,0.78,2.7,0.78c0.13,0,0.2,0.08,0.2,0.23
			s-0.07,0.24-0.2,0.24c-0.47,0-1.16-0.03-2.05-0.08c-1-0.05-1.86-0.08-2.6-0.08c-0.71,0-1.56,0.03-2.56,0.08
			c-0.89,0.05-1.61,0.08-2.17,0.08c-0.1,0-0.16-0.08-0.16-0.24s0.05-0.23,0.16-0.23c0.73,0,1.35-0.15,1.85-0.45
			c0.5-0.3,1-0.84,1.5-1.61c0.5-0.77,1.09-1.91,1.77-3.43l8.55-18.7c0.05-0.08,0.17-0.12,0.35-0.12c0.21,0,0.33,0.04,0.36,0.12
			l9.84,19.29c0.92,1.86,1.68,3.14,2.28,3.84s1.23,1.06,1.89,1.06C-23.53,125.86-23.47,125.94-23.47,126.1z M-43.83,116.26h8.59
			l-4.53-8.94L-43.83,116.26z"/>
	</g>
</g>
<g class="st0">
	<g class="st1">
		<g>
			<path class="st2" d="M-429.63,89.71v-31.4c0-10.02,2.59-19.74,7.5-28.13c8.62-14.73,23.05-23.91,39.61-25.18
				c17.02-1.31,33.76,6,44.78,19.55c7.81,9.6,12.19,21.88,12.35,34.57l0.37,30.35L-429.63,89.71z M-378.61,8.85
				c-1.2,0-2.4,0.05-3.61,0.14c-15.23,1.17-28.52,9.63-36.46,23.22c-4.55,7.77-6.95,16.8-6.95,26.11V85.7l96.55-0.21l-0.32-26.31
				c-0.14-11.8-4.21-23.2-11.45-32.1C-350.26,15.51-364.17,8.85-378.61,8.85z"/>
		</g>
		<g>
			<path class="st2" d="M-541.43,89.71v-31.4c0-10.02,2.59-19.74,7.5-28.13c8.62-14.73,23.05-23.91,39.61-25.18
				c17.02-1.31,33.76,6,44.78,19.55c7.81,9.6,12.19,21.88,12.35,34.57l0.37,30.35L-541.43,89.71z M-490.41,8.85
				c-1.2,0-2.4,0.05-3.61,0.14c-15.23,1.17-28.52,9.63-36.46,23.22c-4.55,7.77-6.95,16.8-6.95,26.11V85.7l96.55-0.21l-0.32-26.31
				c-0.14-11.8-4.21-23.2-11.45-32.1C-462.06,15.51-475.97,8.85-490.41,8.85z"/>
		</g>
		<g>
			<path class="st2" d="M-604.43,89.6V4.84l2.05,0.05c15.29,0.4,29.7,7.56,39.55,19.66c7.81,9.6,12.19,21.88,12.35,34.57l0.37,30.35
				L-604.43,89.6z M-600.43,8.99v76.61l46.26-0.1l-0.32-26.31c-0.14-11.8-4.21-23.2-11.45-32.1l0,0
				C-574.6,16.43-587.08,9.91-600.43,8.99z"/>
		</g>
	</g>
	<g class="st1">
		<path class="st2" d="M-604.51,108.81c-0.03,0.08-0.1,0.11-0.24,0.1c-0.13-0.01-0.2-0.06-0.2-0.14c0.1-1.04,0.22-2.4,0.35-4.06
			c0.13-1.66,0.2-2.91,0.2-3.74c0-0.13,0.07-0.2,0.22-0.2c0.14,0,0.22,0.07,0.22,0.2c0,0.58,0.75,0.86,2.24,0.86
			c2.26,0.08,4.9,0.12,7.92,0.12c1.55,0,3.19-0.03,4.92-0.08l2.68-0.04c1,0,1.73-0.06,2.19-0.2c0.46-0.13,0.75-0.39,0.89-0.78
			c0.03-0.1,0.11-0.16,0.26-0.16c0.14,0,0.22,0.05,0.22,0.16c-0.08,0.78-0.16,2.04-0.26,3.76c-0.09,1.72-0.14,3.11-0.14,4.16
			c0,0.08-0.07,0.12-0.2,0.12s-0.21-0.04-0.24-0.12c-0.39-2.01-1.13-3.52-2.21-4.53c-1.08-1.01-2.4-1.51-3.98-1.51
			c-0.76,0-1.27,0.16-1.52,0.49c-0.25,0.33-0.37,0.95-0.37,1.86v18.07c0,0.81,0.08,1.4,0.24,1.76c0.16,0.37,0.46,0.61,0.91,0.74
			c0.45,0.13,1.15,0.2,2.13,0.2c0.08,0,0.12,0.08,0.12,0.23s-0.04,0.24-0.12,0.24c-0.95,0-1.69-0.01-2.24-0.04l-3.27-0.04
			l-3.19,0.04c-0.55,0.03-1.31,0.04-2.28,0.04c-0.08,0-0.12-0.08-0.12-0.24s0.04-0.23,0.12-0.23c0.95,0,1.65-0.06,2.11-0.2
			c0.46-0.13,0.77-0.39,0.94-0.76c0.17-0.38,0.26-0.96,0.26-1.74v-18.15c0-0.89-0.12-1.49-0.35-1.8c-0.24-0.31-0.72-0.47-1.46-0.47
			C-600.9,102.73-603.14,104.76-604.51,108.81z"/>
		<path class="st2" d="M-561.51,120.02c0.08,0,0.15,0.02,0.22,0.06c0.07,0.04,0.1,0.07,0.1,0.1c-0.26,2.04-0.39,3.89-0.39,5.57
			c0,0.21-0.04,0.36-0.12,0.45c-0.08,0.09-0.24,0.14-0.47,0.14h-17.4c-0.08,0-0.12-0.08-0.12-0.24s0.04-0.23,0.12-0.23
			c0.84,0,1.45-0.06,1.83-0.2c0.38-0.13,0.64-0.39,0.77-0.76c0.13-0.38,0.2-0.96,0.2-1.74v-18.15c0-0.78-0.07-1.36-0.2-1.73
			c-0.13-0.37-0.39-0.62-0.79-0.76c-0.39-0.14-1-0.22-1.81-0.22c-0.08,0-0.12-0.08-0.12-0.23s0.04-0.24,0.12-0.24h16.7
			c0.26,0,0.39,0.12,0.39,0.35l0.08,5.21c0,0.05-0.07,0.09-0.22,0.12c-0.14,0.03-0.23,0-0.26-0.08c-0.42-1.52-1.13-2.64-2.13-3.37
			c-1-0.73-2.31-1.1-3.94-1.1h-1.18c-0.79,0-1.37,0.17-1.73,0.51c-0.37,0.34-0.55,0.86-0.55,1.57v8h3.27c1.52,0,2.69-0.26,3.5-0.78
			c0.81-0.52,1.22-1.25,1.22-2.2c0-0.08,0.07-0.12,0.22-0.12c0.14,0,0.22,0.04,0.22,0.12l-0.04,3.53l0.04,1.88
			c0.05,0.89,0.08,1.59,0.08,2.12c0,0.05-0.08,0.08-0.24,0.08c-0.16,0-0.24-0.03-0.24-0.08c0-1.07-0.41-1.91-1.24-2.53
			c-0.83-0.61-2.02-0.92-3.56-0.92h-3.23V123c0,0.76,0.14,1.32,0.43,1.69c0.29,0.37,0.75,0.55,1.38,0.55h1.3
			c2.05,0,3.69-0.42,4.92-1.25c1.23-0.84,2.14-2.13,2.72-3.88C-561.67,120.05-561.61,120.02-561.51,120.02z"/>
		<path class="st2" d="M-531.03,126.1c0,0.16-0.07,0.24-0.2,0.24c-0.53,0-1.34-0.03-2.44-0.08c-1.16-0.05-1.98-0.08-2.48-0.08
			c-0.66,0-1.46,0.03-2.4,0.08c-0.89,0.05-1.6,0.08-2.13,0.08c-0.11,0-0.16-0.08-0.16-0.24s0.05-0.23,0.16-0.23
			c0.68,0,1.17-0.07,1.48-0.22c0.3-0.14,0.45-0.4,0.45-0.76c0-0.44-0.26-1.19-0.79-2.23l-2.68-5.29h-9.69l-1.54,3.41
			c-0.34,0.76-0.51,1.46-0.51,2.12c0,0.94,0.33,1.67,1,2.2c0.67,0.52,1.57,0.78,2.7,0.78c0.13,0,0.2,0.08,0.2,0.23
			s-0.07,0.24-0.2,0.24c-0.47,0-1.16-0.03-2.05-0.08c-1-0.05-1.86-0.08-2.6-0.08c-0.71,0-1.56,0.03-2.56,0.08
			c-0.89,0.05-1.61,0.08-2.17,0.08c-0.1,0-0.16-0.08-0.16-0.24s0.05-0.23,0.16-0.23c0.73,0,1.35-0.15,1.85-0.45
			c0.5-0.3,1-0.84,1.5-1.61c0.5-0.77,1.09-1.91,1.77-3.43l8.54-18.7c0.05-0.08,0.17-0.12,0.35-0.12c0.21,0,0.33,0.04,0.35,0.12
			l9.84,19.29c0.92,1.86,1.68,3.14,2.28,3.84c0.6,0.71,1.23,1.06,1.89,1.06C-531.1,125.86-531.03,125.94-531.03,126.1z
			 M-551.39,116.26h8.58l-4.53-8.94L-551.39,116.26z"/>
		<path class="st2" d="M-532.01,108.81c-0.03,0.08-0.1,0.11-0.24,0.1c-0.13-0.01-0.2-0.06-0.2-0.14c0.1-1.04,0.22-2.4,0.35-4.06
			c0.13-1.66,0.2-2.91,0.2-3.74c0-0.13,0.07-0.2,0.22-0.2c0.14,0,0.22,0.07,0.22,0.2c0,0.58,0.75,0.86,2.24,0.86
			c2.26,0.08,4.9,0.12,7.92,0.12c1.55,0,3.19-0.03,4.92-0.08l2.68-0.04c1,0,1.73-0.06,2.19-0.2c0.46-0.13,0.75-0.39,0.89-0.78
			c0.03-0.1,0.11-0.16,0.26-0.16c0.14,0,0.22,0.05,0.22,0.16c-0.08,0.78-0.16,2.04-0.26,3.76c-0.09,1.72-0.14,3.11-0.14,4.16
			c0,0.08-0.07,0.12-0.2,0.12s-0.21-0.04-0.24-0.12c-0.39-2.01-1.13-3.52-2.21-4.53c-1.08-1.01-2.4-1.51-3.98-1.51
			c-0.76,0-1.27,0.16-1.52,0.49c-0.25,0.33-0.37,0.95-0.37,1.86v18.07c0,0.81,0.08,1.4,0.24,1.76c0.16,0.37,0.46,0.61,0.91,0.74
			c0.45,0.13,1.15,0.2,2.13,0.2c0.08,0,0.12,0.08,0.12,0.23s-0.04,0.24-0.12,0.24c-0.95,0-1.69-0.01-2.24-0.04l-3.27-0.04
			l-3.19,0.04c-0.55,0.03-1.31,0.04-2.28,0.04c-0.08,0-0.12-0.08-0.12-0.24s0.04-0.23,0.12-0.23c0.95,0,1.65-0.06,2.11-0.2
			c0.46-0.13,0.77-0.39,0.94-0.76c0.17-0.38,0.26-0.96,0.26-1.74v-18.15c0-0.89-0.12-1.49-0.35-1.8c-0.24-0.31-0.72-0.47-1.46-0.47
			C-528.4,102.73-530.65,104.76-532.01,108.81z"/>
		<path class="st2" d="M-499.92,124.82c0.18,0.38,0.53,0.65,1.04,0.8c0.51,0.16,1.33,0.24,2.46,0.24c0.08,0,0.12,0.08,0.12,0.23
			s-0.04,0.24-0.12,0.24c-1.08,0-1.92-0.01-2.52-0.04l-3.43-0.04l-2.87,0.04c-0.53,0.03-1.23,0.04-2.13,0.04
			c-0.08,0-0.12-0.08-0.12-0.24s0.04-0.23,0.12-0.23c0.84,0,1.45-0.06,1.83-0.2c0.38-0.13,0.64-0.39,0.77-0.76
			c0.13-0.38,0.2-0.96,0.2-1.74v-18.15c0-0.78-0.07-1.36-0.2-1.73c-0.13-0.37-0.39-0.62-0.79-0.76c-0.39-0.14-1-0.22-1.81-0.22
			c-0.08,0-0.12-0.08-0.12-0.23s0.04-0.24,0.12-0.24l2.09,0.04c1.21,0.05,2.17,0.08,2.88,0.08c0.63,0,1.38-0.04,2.24-0.12
			c0.34-0.03,0.77-0.05,1.3-0.08c0.52-0.03,1.13-0.04,1.81-0.04c2.68,0,4.79,0.56,6.34,1.67c1.55,1.11,2.32,2.83,2.32,5.15
			c0,1.62-0.42,2.99-1.26,4.12c-0.84,1.12-1.92,1.97-3.25,2.55c-1.33,0.58-2.68,0.86-4.08,0.86c-0.71,0-1.33-0.06-1.85-0.2
			c-0.05,0-0.08-0.06-0.08-0.2c0-0.08,0.02-0.16,0.06-0.23c0.04-0.08,0.08-0.1,0.14-0.08c0.39,0.1,0.84,0.16,1.34,0.16
			c1.21,0,2.21-0.56,3.01-1.69c0.8-1.12,1.2-2.72,1.2-4.78s-0.44-3.66-1.32-4.78c-0.88-1.12-2.16-1.69-3.84-1.69
			c-0.74,0-1.23,0.17-1.5,0.51c-0.26,0.34-0.39,1.01-0.39,2V123C-500.2,123.84-500.11,124.45-499.92,124.82z"/>
		<path class="st2" d="M-458.99,114.22c1.77,1.15,2.66,2.81,2.66,4.98c0,1.36-0.38,2.59-1.14,3.7c-0.76,1.11-1.83,1.99-3.19,2.63
			c-1.37,0.64-2.89,0.96-4.57,0.96c-0.71,0-1.56-0.04-2.56-0.12c-0.39-0.03-0.87-0.05-1.44-0.08c-0.56-0.03-1.19-0.04-1.87-0.04
			l-2.88,0.04c-0.53,0.03-1.23,0.04-2.13,0.04c-0.08,0-0.12-0.08-0.12-0.24s0.04-0.23,0.12-0.23c0.84,0,1.45-0.06,1.83-0.2
			c0.38-0.13,0.64-0.39,0.79-0.76c0.14-0.38,0.22-0.96,0.22-1.74v-18.15c0-0.78-0.07-1.36-0.2-1.73c-0.13-0.37-0.39-0.62-0.79-0.76
			c-0.39-0.14-1-0.22-1.81-0.22c-0.05,0-0.08-0.08-0.08-0.23s0.03-0.24,0.08-0.24h16.5c0.37,0,0.6,0.05,0.69,0.16
			c0.09,0.1,0.14,0.38,0.14,0.82l0.31,5.96c0,0.08-0.07,0.12-0.2,0.12c-0.13,0-0.22-0.04-0.28-0.12c-0.39-2.01-1.12-3.52-2.19-4.53
			c-1.06-1.01-2.38-1.51-3.96-1.51h-1.65c-0.84,0-1.41,0.18-1.71,0.53c-0.3,0.35-0.45,1.01-0.45,1.98v7.49
			c1.05-0.16,2.1-0.23,3.15-0.23C-463,112.5-460.76,113.07-458.99,114.22z M-462.16,124.16c0.81-0.9,1.22-2.23,1.22-3.98
			c0-2.25-0.54-3.91-1.61-4.98c-1.08-1.07-2.59-1.61-4.53-1.61c-0.63,0-1.22,0.05-1.77,0.16v9.41c0,0.78,0.19,1.37,0.57,1.76
			c0.38,0.39,1.15,0.59,2.3,0.59C-464.24,125.51-462.97,125.06-462.16,124.16z"/>
		<path class="st2" d="M-425.85,126.1c0,0.16-0.07,0.24-0.2,0.24c-0.53,0-1.34-0.03-2.44-0.08c-1.16-0.05-1.98-0.08-2.48-0.08
			c-0.66,0-1.46,0.03-2.4,0.08c-0.89,0.05-1.6,0.08-2.13,0.08c-0.11,0-0.16-0.08-0.16-0.24s0.05-0.23,0.16-0.23
			c0.68,0,1.17-0.07,1.48-0.22c0.3-0.14,0.45-0.4,0.45-0.76c0-0.44-0.26-1.19-0.79-2.23l-2.68-5.29h-9.69l-1.54,3.41
			c-0.34,0.76-0.51,1.46-0.51,2.12c0,0.94,0.33,1.67,1,2.2c0.67,0.52,1.57,0.78,2.7,0.78c0.13,0,0.2,0.08,0.2,0.23
			s-0.07,0.24-0.2,0.24c-0.47,0-1.16-0.03-2.05-0.08c-1-0.05-1.86-0.08-2.6-0.08c-0.71,0-1.56,0.03-2.56,0.08
			c-0.89,0.05-1.61,0.08-2.17,0.08c-0.1,0-0.16-0.08-0.16-0.24s0.05-0.23,0.16-0.23c0.73,0,1.35-0.15,1.85-0.45
			c0.5-0.3,1-0.84,1.5-1.61c0.5-0.77,1.09-1.91,1.77-3.43l8.54-18.7c0.05-0.08,0.17-0.12,0.35-0.12c0.21,0,0.33,0.04,0.35,0.12
			l9.84,19.29c0.92,1.86,1.68,3.14,2.28,3.84c0.6,0.71,1.23,1.06,1.89,1.06C-425.92,125.86-425.85,125.94-425.85,126.1z
			 M-446.21,116.26h8.58l-4.53-8.94L-446.21,116.26z"/>
		<path class="st2" d="M-397.66,126.1c0,0.16-0.07,0.24-0.2,0.24c-0.53,0-1.34-0.03-2.44-0.08c-1.16-0.05-1.98-0.08-2.48-0.08
			c-0.66,0-1.46,0.03-2.4,0.08c-0.89,0.05-1.6,0.08-2.13,0.08c-0.11,0-0.16-0.08-0.16-0.24s0.05-0.23,0.16-0.23
			c0.68,0,1.17-0.07,1.48-0.22c0.3-0.14,0.45-0.4,0.45-0.76c0-0.44-0.26-1.19-0.79-2.23l-7.8-15.33l-6.1,13.45
			c-0.34,0.76-0.51,1.46-0.51,2.12c0,0.94,0.33,1.67,1,2.2c0.67,0.52,1.57,0.78,2.7,0.78c0.13,0,0.2,0.08,0.2,0.23
			s-0.07,0.24-0.2,0.24c-0.47,0-1.16-0.03-2.05-0.08c-1-0.05-1.86-0.08-2.6-0.08c-0.71,0-1.56,0.03-2.56,0.08
			c-0.89,0.05-1.61,0.08-2.17,0.08c-0.1,0-0.16-0.08-0.16-0.24s0.05-0.23,0.16-0.23c0.73,0,1.35-0.15,1.85-0.45
			c0.5-0.3,1-0.84,1.5-1.61c0.5-0.77,1.09-1.91,1.77-3.43l8.54-18.7c0.05-0.08,0.17-0.12,0.35-0.12c0.21,0,0.33,0.04,0.35,0.12
			l9.84,19.29c0.92,1.86,1.68,3.14,2.28,3.84c0.6,0.71,1.23,1.06,1.89,1.06C-397.72,125.86-397.66,125.94-397.66,126.1z"/>
		<path class="st2" d="M-378.2,120.02c0.08,0,0.15,0.02,0.22,0.06c0.07,0.04,0.1,0.07,0.1,0.1c-0.26,2.04-0.39,3.89-0.39,5.57
			c0,0.21-0.04,0.36-0.12,0.45c-0.08,0.09-0.24,0.14-0.47,0.14h-17.4c-0.08,0-0.12-0.08-0.12-0.24s0.04-0.23,0.12-0.23
			c0.84,0,1.45-0.06,1.83-0.2c0.38-0.13,0.64-0.39,0.77-0.76c0.13-0.38,0.2-0.96,0.2-1.74v-18.15c0-0.78-0.07-1.36-0.2-1.73
			c-0.13-0.37-0.39-0.62-0.79-0.76c-0.39-0.14-1-0.22-1.81-0.22c-0.08,0-0.12-0.08-0.12-0.23s0.04-0.24,0.12-0.24h16.7
			c0.26,0,0.39,0.12,0.39,0.35l0.08,5.21c0,0.05-0.07,0.09-0.22,0.12c-0.14,0.03-0.23,0-0.26-0.08c-0.42-1.52-1.13-2.64-2.13-3.37
			c-1-0.73-2.31-1.1-3.94-1.1h-1.18c-0.79,0-1.37,0.17-1.73,0.51c-0.37,0.34-0.55,0.86-0.55,1.57v8h3.27c1.52,0,2.69-0.26,3.5-0.78
			c0.81-0.52,1.22-1.25,1.22-2.2c0-0.08,0.07-0.12,0.22-0.12c0.14,0,0.22,0.04,0.22,0.12l-0.04,3.53l0.04,1.88
			c0.05,0.89,0.08,1.59,0.08,2.12c0,0.05-0.08,0.08-0.24,0.08c-0.16,0-0.24-0.03-0.24-0.08c0-1.07-0.41-1.91-1.24-2.53
			c-0.83-0.61-2.02-0.92-3.56-0.92h-3.23V123c0,0.76,0.14,1.32,0.43,1.69c0.29,0.37,0.75,0.55,1.38,0.55h1.3
			c2.05,0,3.69-0.42,4.92-1.25c1.23-0.84,2.14-2.13,2.72-3.88C-378.36,120.05-378.31,120.02-378.2,120.02z"/>
		<path class="st2" d="M-374.15,108.81c-0.03,0.08-0.1,0.11-0.24,0.1c-0.13-0.01-0.2-0.06-0.2-0.14c0.1-1.04,0.22-2.4,0.35-4.06
			c0.13-1.66,0.2-2.91,0.2-3.74c0-0.13,0.07-0.2,0.22-0.2c0.14,0,0.22,0.07,0.22,0.2c0,0.58,0.75,0.86,2.24,0.86
			c2.26,0.08,4.9,0.12,7.92,0.12c1.55,0,3.19-0.03,4.92-0.08l2.68-0.04c1,0,1.73-0.06,2.19-0.2c0.46-0.13,0.75-0.39,0.89-0.78
			c0.03-0.1,0.11-0.16,0.26-0.16c0.14,0,0.22,0.05,0.22,0.16c-0.08,0.78-0.16,2.04-0.26,3.76c-0.09,1.72-0.14,3.11-0.14,4.16
			c0,0.08-0.07,0.12-0.2,0.12s-0.21-0.04-0.24-0.12c-0.39-2.01-1.13-3.52-2.21-4.53c-1.08-1.01-2.4-1.51-3.98-1.51
			c-0.76,0-1.27,0.16-1.52,0.49c-0.25,0.33-0.37,0.95-0.37,1.86v18.07c0,0.81,0.08,1.4,0.24,1.76c0.16,0.37,0.46,0.61,0.91,0.74
			c0.45,0.13,1.15,0.2,2.13,0.2c0.08,0,0.12,0.08,0.12,0.23s-0.04,0.24-0.12,0.24c-0.95,0-1.69-0.01-2.24-0.04l-3.27-0.04
			l-3.19,0.04c-0.55,0.03-1.31,0.04-2.28,0.04c-0.08,0-0.12-0.08-0.12-0.24s0.04-0.23,0.12-0.23c0.95,0,1.65-0.06,2.11-0.2
			c0.46-0.13,0.77-0.39,0.94-0.76c0.17-0.38,0.26-0.96,0.26-1.74v-18.15c0-0.89-0.12-1.49-0.35-1.8c-0.24-0.31-0.72-0.47-1.46-0.47
			C-370.54,102.73-372.78,104.76-374.15,108.81z"/>
		<path class="st2" d="M-325.16,126.1c0,0.16-0.07,0.24-0.2,0.24c-0.53,0-1.34-0.03-2.44-0.08c-1.15-0.05-1.98-0.08-2.48-0.08
			c-0.66,0-1.46,0.03-2.4,0.08c-0.89,0.05-1.6,0.08-2.13,0.08c-0.1,0-0.16-0.08-0.16-0.24s0.05-0.23,0.16-0.23
			c0.68,0,1.18-0.07,1.48-0.22c0.3-0.14,0.45-0.4,0.45-0.76c0-0.44-0.26-1.19-0.79-2.23l-2.68-5.29h-9.69l-1.54,3.41
			c-0.34,0.76-0.51,1.46-0.51,2.12c0,0.94,0.33,1.67,1,2.2c0.67,0.52,1.57,0.78,2.7,0.78c0.13,0,0.2,0.08,0.2,0.23
			s-0.07,0.24-0.2,0.24c-0.47,0-1.16-0.03-2.05-0.08c-1-0.05-1.86-0.08-2.6-0.08c-0.71,0-1.56,0.03-2.56,0.08
			c-0.89,0.05-1.61,0.08-2.17,0.08c-0.1,0-0.16-0.08-0.16-0.24s0.05-0.23,0.16-0.23c0.73,0,1.35-0.15,1.85-0.45
			c0.5-0.3,1-0.84,1.5-1.61c0.5-0.77,1.09-1.91,1.77-3.43l8.55-18.7c0.05-0.08,0.17-0.12,0.35-0.12c0.21,0,0.33,0.04,0.36,0.12
			l9.84,19.29c0.92,1.86,1.68,3.14,2.28,3.84s1.23,1.06,1.89,1.06C-325.23,125.86-325.16,125.94-325.16,126.1z M-345.52,116.26h8.59
			l-4.53-8.94L-345.52,116.26z"/>
	</g>
	<g class="st1">
		<path class="st2" d="M-524.91,132.3h1.24v11.58h0.11l8.18-11.58h1.23v13.82h-1.26v-11.57h-0.11l-8.17,11.57h-1.22V132.3z"/>
		<path class="st2" d="M-510.48,132.3h1.46l5.01,12.04h0.12l5.01-12.04h1.46v13.82h-1.19v-11.15h-0.11l-4.66,11.15h-1.15
			l-4.66-11.15h-0.11v11.15h-1.19V132.3z"/>
		<path class="st2" d="M-493.75,146.12V132.3h8.02v1.13h-6.75v5.2h6.33v1.13h-6.33v5.22h6.89v1.13H-493.75z"/>
		<path class="st2" d="M-482.48,146.12V132.3h1.26v6.34h7.84v-6.34h1.26v13.82h-1.26v-6.35h-7.84v6.35H-482.48z"/>
		<path class="st2" d="M-468.44,132.3h1.24v11.58h0.11l8.18-11.58h1.23v13.82h-1.26v-11.57h-0.11l-8.17,11.57h-1.22V132.3z"/>
		<path class="st2" d="M-449.97,146.12v-1.17h0.36c0.57,0,1.02-0.19,1.36-0.57c0.33-0.38,0.58-0.99,0.74-1.83
			c0.16-0.84,0.26-1.95,0.31-3.32l0.24-6.93h8.11v13.82h-1.26v-12.68h-5.65l-0.22,6.07c-0.05,1.46-0.19,2.68-0.4,3.66
			c-0.22,0.98-0.57,1.71-1.08,2.21s-1.21,0.74-2.12,0.74H-449.97z"/>
		<path class="st2" d="M-434.47,146.22c-0.27,0-0.49-0.1-0.68-0.29c-0.19-0.19-0.29-0.42-0.29-0.69c0-0.27,0.1-0.5,0.29-0.69
			c0.19-0.19,0.42-0.28,0.68-0.28c0.27,0,0.5,0.09,0.69,0.28s0.28,0.42,0.28,0.69c0,0.18-0.04,0.34-0.13,0.49
			c-0.09,0.15-0.2,0.27-0.35,0.35C-434.13,146.18-434.29,146.22-434.47,146.22z"/>
		<path class="st2" d="M-427.27,139.89h1.42l-3.37,6.23h-1.46L-427.27,139.89z M-421.18,146.12h-1.26v-12.68h-3.16
			c-0.73,0-1.33,0.12-1.81,0.37s-0.84,0.6-1.08,1.05c-0.24,0.45-0.36,0.98-0.36,1.58s0.12,1.12,0.35,1.57
			c0.24,0.44,0.59,0.78,1.07,1.02c0.48,0.24,1.08,0.36,1.8,0.36h3.77v1.15h-3.8c-0.97,0-1.79-0.17-2.44-0.52
			c-0.66-0.35-1.15-0.83-1.49-1.44c-0.33-0.62-0.5-1.33-0.5-2.13s0.17-1.52,0.5-2.14s0.83-1.11,1.49-1.46
			c0.66-0.35,1.48-0.53,2.46-0.53h4.46V146.12z"/>
		<path class="st2" d="M-409.5,146.12l-4.76-6.52h-1.99v6.52h-1.26V132.3h1.26v6.17h1.25l5.09-6.17h1.5l-5.12,6.23l5.54,7.59H-409.5
			z"/>
		<path class="st2" d="M-394.97,139.21c0,1.44-0.26,2.69-0.77,3.75s-1.22,1.89-2.12,2.47c-0.9,0.58-1.93,0.87-3.09,0.87
			s-2.2-0.29-3.09-0.87c-0.9-0.58-1.6-1.41-2.11-2.47c-0.51-1.06-0.77-2.32-0.77-3.75s0.26-2.69,0.77-3.75
			c0.51-1.06,1.22-1.89,2.12-2.47c0.9-0.58,1.93-0.87,3.09-0.87c1.17,0,2.2,0.29,3.09,0.87s1.6,1.41,2.12,2.47
			C-395.22,136.52-394.97,137.77-394.97,139.21z M-396.19,139.21c0-1.24-0.21-2.3-0.62-3.18s-0.98-1.56-1.69-2.03
			c-0.72-0.47-1.53-0.7-2.44-0.7c-0.9,0-1.71,0.23-2.43,0.7s-1.28,1.14-1.7,2.02c-0.42,0.88-0.62,1.94-0.62,3.18
			c0,1.24,0.21,2.3,0.62,3.18c0.41,0.88,0.98,1.56,1.69,2.03s1.53,0.71,2.44,0.71s1.72-0.23,2.44-0.7c0.72-0.47,1.28-1.14,1.7-2.03
			C-396.39,141.51-396.19,140.45-396.19,139.21z"/>
		<path class="st2" d="M-391.92,146.12V132.3h8.06v1.13h-6.8v4.94h3.92c0.92,0,1.71,0.16,2.35,0.47c0.65,0.31,1.14,0.75,1.48,1.32
			c0.34,0.57,0.51,1.23,0.51,2c0,0.79-0.17,1.48-0.51,2.08c-0.34,0.59-0.83,1.06-1.48,1.39c-0.65,0.33-1.43,0.5-2.36,0.5H-391.92z
			 M-390.65,145.01h3.92c0.66,0,1.22-0.13,1.68-0.39c0.46-0.26,0.81-0.6,1.06-1.04c0.24-0.43,0.36-0.92,0.36-1.45
			c0-0.74-0.27-1.36-0.82-1.87c-0.55-0.5-1.31-0.75-2.28-0.75h-3.92V145.01z"/>
		<path class="st2" d="M-368.52,136.62h-1.27c-0.09-0.47-0.26-0.91-0.51-1.31c-0.25-0.4-0.55-0.75-0.92-1.06
			c-0.37-0.3-0.79-0.54-1.26-0.7s-0.97-0.25-1.52-0.25c-0.87,0-1.67,0.23-2.38,0.68c-0.72,0.45-1.29,1.12-1.72,2
			s-0.64,1.96-0.64,3.23c0,1.28,0.21,2.36,0.64,3.24s1,1.54,1.72,1.99c0.72,0.45,1.51,0.68,2.38,0.68c0.54,0,1.05-0.08,1.52-0.25
			s0.89-0.4,1.26-0.7c0.37-0.3,0.68-0.65,0.92-1.06s0.42-0.84,0.51-1.32h1.27c-0.11,0.63-0.32,1.22-0.63,1.77
			c-0.31,0.55-0.7,1.02-1.17,1.43c-0.47,0.41-1.02,0.73-1.64,0.96c-0.62,0.23-1.29,0.34-2.03,0.34c-1.16,0-2.19-0.29-3.09-0.87
			c-0.9-0.58-1.6-1.4-2.12-2.47c-0.51-1.06-0.77-2.31-0.77-3.76s0.26-2.7,0.77-3.76c0.51-1.06,1.22-1.88,2.12-2.47
			c0.9-0.58,1.93-0.87,3.09-0.87c0.74,0,1.41,0.11,2.03,0.34c0.62,0.23,1.16,0.55,1.64,0.96c0.47,0.41,0.87,0.89,1.17,1.43
			S-368.64,135.98-368.52,136.62z"/>
		<path class="st2" d="M-354.23,139.21c0,1.44-0.26,2.69-0.77,3.75c-0.51,1.06-1.22,1.89-2.12,2.47c-0.9,0.58-1.93,0.87-3.09,0.87
			c-1.16,0-2.2-0.29-3.09-0.87c-0.9-0.58-1.6-1.41-2.11-2.47c-0.51-1.06-0.77-2.32-0.77-3.75s0.26-2.69,0.77-3.75
			c0.51-1.06,1.22-1.89,2.11-2.47c0.9-0.58,1.93-0.87,3.09-0.87c1.17,0,2.2,0.29,3.09,0.87c0.9,0.58,1.6,1.41,2.12,2.47
			C-354.48,136.52-354.23,137.77-354.23,139.21z M-355.46,139.21c0-1.24-0.21-2.3-0.62-3.18c-0.41-0.88-0.98-1.56-1.7-2.03
			c-0.71-0.47-1.53-0.7-2.44-0.7c-0.9,0-1.71,0.23-2.43,0.7s-1.28,1.14-1.7,2.02c-0.42,0.88-0.62,1.94-0.62,3.18
			c0,1.24,0.21,2.3,0.62,3.18c0.41,0.88,0.98,1.56,1.69,2.03s1.53,0.71,2.44,0.71c0.91,0,1.72-0.23,2.44-0.7s1.28-1.14,1.7-2.03
			C-355.65,141.51-355.45,140.45-355.46,139.21z"/>
		<path class="st2" d="M-351.18,146.12V132.3h1.26v6.34h7.84v-6.34h1.26v13.82h-1.26v-6.35h-7.84v6.35H-351.18z"/>
		<path class="st2" d="M-337.12,146.12h-1.32l5.03-13.82h1.35l5.03,13.82h-1.32l-4.33-12.18h-0.09L-337.12,146.12z M-336.17,140.83
			h6.86v1.13h-6.86V140.83z"/>
	</g>
</g>
<g class="st0">
	<g class="st1">
		<g>
			<path d="M-429.63-82.68v-31.4c0-10.02,2.59-19.74,7.5-28.13c8.62-14.73,23.05-23.91,39.61-25.18c17.02-1.31,33.76,6,44.78,19.55
				c7.81,9.6,12.19,21.88,12.35,34.57l0.37,30.35L-429.63-82.68z M-378.61-163.54c-1.2,0-2.4,0.05-3.61,0.14
				c-15.23,1.17-28.52,9.63-36.46,23.22c-4.55,7.77-6.95,16.8-6.95,26.11v27.39l96.55-0.21l-0.32-26.31
				c-0.14-11.8-4.21-23.2-11.45-32.1C-350.26-156.89-364.17-163.54-378.61-163.54z"/>
		</g>
		<g>
			<path d="M-541.43-82.68v-31.4c0-10.02,2.59-19.74,7.5-28.13c8.62-14.73,23.05-23.91,39.61-25.18c17.02-1.31,33.76,6,44.78,19.55
				c7.81,9.6,12.19,21.88,12.35,34.57l0.37,30.35L-541.43-82.68z M-490.41-163.54c-1.2,0-2.4,0.05-3.61,0.14
				c-15.23,1.17-28.52,9.63-36.46,23.22c-4.55,7.77-6.95,16.8-6.95,26.11v27.39l96.55-0.21l-0.32-26.31
				c-0.14-11.8-4.21-23.2-11.45-32.1C-462.06-156.89-475.97-163.54-490.41-163.54z"/>
		</g>
		<g>
			<path d="M-604.43-82.8v-84.77l2.05,0.05c15.29,0.4,29.7,7.56,39.55,19.66c7.81,9.6,12.19,21.88,12.35,34.57l0.37,30.35
				L-604.43-82.8z M-600.43-163.41v76.61l46.26-0.1l-0.32-26.31c-0.14-11.8-4.21-23.2-11.45-32.1l0,0
				C-574.6-155.97-587.08-162.49-600.43-163.41z"/>
		</g>
	</g>
	<g class="st1">
		<path d="M-604.51-63.59c-0.03,0.08-0.1,0.11-0.24,0.1c-0.13-0.01-0.2-0.06-0.2-0.14c0.1-1.04,0.22-2.4,0.35-4.06
			c0.13-1.66,0.2-2.91,0.2-3.74c0-0.13,0.07-0.2,0.22-0.2c0.14,0,0.22,0.07,0.22,0.2c0,0.58,0.75,0.86,2.24,0.86
			c2.26,0.08,4.9,0.12,7.92,0.12c1.55,0,3.19-0.03,4.92-0.08l2.68-0.04c1,0,1.73-0.06,2.19-0.2c0.46-0.13,0.75-0.39,0.89-0.78
			c0.03-0.1,0.11-0.16,0.26-0.16c0.14,0,0.22,0.05,0.22,0.16c-0.08,0.78-0.16,2.04-0.26,3.76c-0.09,1.72-0.14,3.11-0.14,4.16
			c0,0.08-0.07,0.12-0.2,0.12s-0.21-0.04-0.24-0.12c-0.39-2.01-1.13-3.52-2.21-4.53c-1.08-1.01-2.4-1.51-3.98-1.51
			c-0.76,0-1.27,0.16-1.52,0.49c-0.25,0.33-0.37,0.95-0.37,1.86v18.07c0,0.81,0.08,1.4,0.24,1.76c0.16,0.37,0.46,0.61,0.91,0.74
			c0.45,0.13,1.15,0.2,2.13,0.2c0.08,0,0.12,0.08,0.12,0.23s-0.04,0.24-0.12,0.24c-0.95,0-1.69-0.01-2.24-0.04l-3.27-0.04
			l-3.19,0.04c-0.55,0.03-1.31,0.04-2.28,0.04c-0.08,0-0.12-0.08-0.12-0.24s0.04-0.23,0.12-0.23c0.95,0,1.65-0.06,2.11-0.2
			c0.46-0.13,0.77-0.39,0.94-0.76c0.17-0.38,0.26-0.96,0.26-1.74v-18.15c0-0.89-0.12-1.49-0.35-1.8c-0.24-0.31-0.72-0.47-1.46-0.47
			C-600.9-69.66-603.14-67.64-604.51-63.59z"/>
		<path d="M-561.51-52.38c0.08,0,0.15,0.02,0.22,0.06c0.07,0.04,0.1,0.07,0.1,0.1c-0.26,2.04-0.39,3.89-0.39,5.57
			c0,0.21-0.04,0.36-0.12,0.45c-0.08,0.09-0.24,0.14-0.47,0.14h-17.4c-0.08,0-0.12-0.08-0.12-0.24s0.04-0.23,0.12-0.23
			c0.84,0,1.45-0.06,1.83-0.2c0.38-0.13,0.64-0.39,0.77-0.76c0.13-0.38,0.2-0.96,0.2-1.74v-18.15c0-0.78-0.07-1.36-0.2-1.73
			c-0.13-0.37-0.39-0.62-0.79-0.76c-0.39-0.14-1-0.22-1.81-0.22c-0.08,0-0.12-0.08-0.12-0.23s0.04-0.24,0.12-0.24h16.7
			c0.26,0,0.39,0.12,0.39,0.35l0.08,5.21c0,0.05-0.07,0.09-0.22,0.12c-0.14,0.03-0.23,0-0.26-0.08c-0.42-1.52-1.13-2.64-2.13-3.37
			c-1-0.73-2.31-1.1-3.94-1.1h-1.18c-0.79,0-1.37,0.17-1.73,0.51c-0.37,0.34-0.55,0.86-0.55,1.57v8h3.27c1.52,0,2.69-0.26,3.5-0.78
			c0.81-0.52,1.22-1.25,1.22-2.2c0-0.08,0.07-0.12,0.22-0.12c0.14,0,0.22,0.04,0.22,0.12l-0.04,3.53l0.04,1.88
			c0.05,0.89,0.08,1.59,0.08,2.12c0,0.05-0.08,0.08-0.24,0.08c-0.16,0-0.24-0.03-0.24-0.08c0-1.07-0.41-1.91-1.24-2.53
			c-0.83-0.61-2.02-0.92-3.56-0.92h-3.23v8.86c0,0.76,0.14,1.32,0.43,1.69c0.29,0.37,0.75,0.55,1.38,0.55h1.3
			c2.05,0,3.69-0.42,4.92-1.25c1.23-0.84,2.14-2.13,2.72-3.88C-561.67-52.35-561.61-52.38-561.51-52.38z"/>
		<path d="M-531.03-46.3c0,0.16-0.07,0.24-0.2,0.24c-0.53,0-1.34-0.03-2.44-0.08c-1.16-0.05-1.98-0.08-2.48-0.08
			c-0.66,0-1.46,0.03-2.4,0.08c-0.89,0.05-1.6,0.08-2.13,0.08c-0.11,0-0.16-0.08-0.16-0.24s0.05-0.23,0.16-0.23
			c0.68,0,1.17-0.07,1.48-0.22c0.3-0.14,0.45-0.4,0.45-0.76c0-0.44-0.26-1.19-0.79-2.23l-2.68-5.29h-9.69l-1.54,3.41
			c-0.34,0.76-0.51,1.46-0.51,2.12c0,0.94,0.33,1.67,1,2.2c0.67,0.52,1.57,0.78,2.7,0.78c0.13,0,0.2,0.08,0.2,0.23
			s-0.07,0.24-0.2,0.24c-0.47,0-1.16-0.03-2.05-0.08c-1-0.05-1.86-0.08-2.6-0.08c-0.71,0-1.56,0.03-2.56,0.08
			c-0.89,0.05-1.61,0.08-2.17,0.08c-0.1,0-0.16-0.08-0.16-0.24s0.05-0.23,0.16-0.23c0.73,0,1.35-0.15,1.85-0.45
			c0.5-0.3,1-0.84,1.5-1.61c0.5-0.77,1.09-1.91,1.77-3.43l8.54-18.7c0.05-0.08,0.17-0.12,0.35-0.12c0.21,0,0.33,0.04,0.35,0.12
			l9.84,19.29c0.92,1.86,1.68,3.14,2.28,3.84c0.6,0.71,1.23,1.06,1.89,1.06C-531.1-46.53-531.03-46.46-531.03-46.3z M-551.39-56.14
			h8.58l-4.53-8.94L-551.39-56.14z"/>
		<path d="M-532.01-63.59c-0.03,0.08-0.1,0.11-0.24,0.1c-0.13-0.01-0.2-0.06-0.2-0.14c0.1-1.04,0.22-2.4,0.35-4.06
			c0.13-1.66,0.2-2.91,0.2-3.74c0-0.13,0.07-0.2,0.22-0.2c0.14,0,0.22,0.07,0.22,0.2c0,0.58,0.75,0.86,2.24,0.86
			c2.26,0.08,4.9,0.12,7.92,0.12c1.55,0,3.19-0.03,4.92-0.08l2.68-0.04c1,0,1.73-0.06,2.19-0.2c0.46-0.13,0.75-0.39,0.89-0.78
			c0.03-0.1,0.11-0.16,0.26-0.16c0.14,0,0.22,0.05,0.22,0.16c-0.08,0.78-0.16,2.04-0.26,3.76c-0.09,1.72-0.14,3.11-0.14,4.16
			c0,0.08-0.07,0.12-0.2,0.12s-0.21-0.04-0.24-0.12c-0.39-2.01-1.13-3.52-2.21-4.53c-1.08-1.01-2.4-1.51-3.98-1.51
			c-0.76,0-1.27,0.16-1.52,0.49c-0.25,0.33-0.37,0.95-0.37,1.86v18.07c0,0.81,0.08,1.4,0.24,1.76c0.16,0.37,0.46,0.61,0.91,0.74
			c0.45,0.13,1.15,0.2,2.13,0.2c0.08,0,0.12,0.08,0.12,0.23s-0.04,0.24-0.12,0.24c-0.95,0-1.69-0.01-2.24-0.04l-3.27-0.04
			l-3.19,0.04c-0.55,0.03-1.31,0.04-2.28,0.04c-0.08,0-0.12-0.08-0.12-0.24s0.04-0.23,0.12-0.23c0.95,0,1.65-0.06,2.11-0.2
			c0.46-0.13,0.77-0.39,0.94-0.76c0.17-0.38,0.26-0.96,0.26-1.74v-18.15c0-0.89-0.12-1.49-0.35-1.8c-0.24-0.31-0.72-0.47-1.46-0.47
			C-528.4-69.66-530.65-67.64-532.01-63.59z"/>
		<path d="M-499.92-47.57c0.18,0.38,0.53,0.65,1.04,0.8c0.51,0.16,1.33,0.24,2.46,0.24c0.08,0,0.12,0.08,0.12,0.23
			s-0.04,0.24-0.12,0.24c-1.08,0-1.92-0.01-2.52-0.04l-3.43-0.04l-2.87,0.04c-0.53,0.03-1.23,0.04-2.13,0.04
			c-0.08,0-0.12-0.08-0.12-0.24s0.04-0.23,0.12-0.23c0.84,0,1.45-0.06,1.83-0.2c0.38-0.13,0.64-0.39,0.77-0.76
			c0.13-0.38,0.2-0.96,0.2-1.74v-18.15c0-0.78-0.07-1.36-0.2-1.73c-0.13-0.37-0.39-0.62-0.79-0.76c-0.39-0.14-1-0.22-1.81-0.22
			c-0.08,0-0.12-0.08-0.12-0.23s0.04-0.24,0.12-0.24l2.09,0.04c1.21,0.05,2.17,0.08,2.88,0.08c0.63,0,1.38-0.04,2.24-0.12
			c0.34-0.03,0.77-0.05,1.3-0.08c0.52-0.03,1.13-0.04,1.81-0.04c2.68,0,4.79,0.56,6.34,1.67c1.55,1.11,2.32,2.83,2.32,5.15
			c0,1.62-0.42,2.99-1.26,4.12c-0.84,1.12-1.92,1.97-3.25,2.55c-1.33,0.58-2.68,0.86-4.08,0.86c-0.71,0-1.33-0.06-1.85-0.2
			c-0.05,0-0.08-0.06-0.08-0.2c0-0.08,0.02-0.16,0.06-0.23c0.04-0.08,0.08-0.1,0.14-0.08c0.39,0.1,0.84,0.16,1.34,0.16
			c1.21,0,2.21-0.56,3.01-1.69c0.8-1.12,1.2-2.72,1.2-4.78s-0.44-3.66-1.32-4.78c-0.88-1.12-2.16-1.69-3.84-1.69
			c-0.74,0-1.23,0.17-1.5,0.51c-0.26,0.34-0.39,1.01-0.39,2v17.91C-500.2-48.56-500.11-47.95-499.92-47.57z"/>
		<path d="M-458.99-58.18c1.77,1.15,2.66,2.81,2.66,4.98c0,1.36-0.38,2.59-1.14,3.7c-0.76,1.11-1.83,1.99-3.19,2.63
			c-1.37,0.64-2.89,0.96-4.57,0.96c-0.71,0-1.56-0.04-2.56-0.12c-0.39-0.03-0.87-0.05-1.44-0.08c-0.56-0.03-1.19-0.04-1.87-0.04
			l-2.88,0.04c-0.53,0.03-1.23,0.04-2.13,0.04c-0.08,0-0.12-0.08-0.12-0.24s0.04-0.23,0.12-0.23c0.84,0,1.45-0.06,1.83-0.2
			c0.38-0.13,0.64-0.39,0.79-0.76c0.14-0.38,0.22-0.96,0.22-1.74v-18.15c0-0.78-0.07-1.36-0.2-1.73c-0.13-0.37-0.39-0.62-0.79-0.76
			c-0.39-0.14-1-0.22-1.81-0.22c-0.05,0-0.08-0.08-0.08-0.23s0.03-0.24,0.08-0.24h16.5c0.37,0,0.6,0.05,0.69,0.16
			c0.09,0.1,0.14,0.38,0.14,0.82l0.31,5.96c0,0.08-0.07,0.12-0.2,0.12c-0.13,0-0.22-0.04-0.28-0.12c-0.39-2.01-1.12-3.52-2.19-4.53
			c-1.06-1.01-2.38-1.51-3.96-1.51h-1.65c-0.84,0-1.41,0.18-1.71,0.53c-0.3,0.35-0.45,1.01-0.45,1.98v7.49
			c1.05-0.16,2.1-0.23,3.15-0.23C-463-59.9-460.76-59.33-458.99-58.18z M-462.16-48.24c0.81-0.9,1.22-2.23,1.22-3.98
			c0-2.25-0.54-3.91-1.61-4.98c-1.08-1.07-2.59-1.61-4.53-1.61c-0.63,0-1.22,0.05-1.77,0.16v9.41c0,0.78,0.19,1.37,0.57,1.76
			c0.38,0.39,1.15,0.59,2.3,0.59C-464.24-46.89-462.97-47.34-462.16-48.24z"/>
		<path d="M-425.85-46.3c0,0.16-0.07,0.24-0.2,0.24c-0.53,0-1.34-0.03-2.44-0.08c-1.16-0.05-1.98-0.08-2.48-0.08
			c-0.66,0-1.46,0.03-2.4,0.08c-0.89,0.05-1.6,0.08-2.13,0.08c-0.11,0-0.16-0.08-0.16-0.24s0.05-0.23,0.16-0.23
			c0.68,0,1.17-0.07,1.48-0.22c0.3-0.14,0.45-0.4,0.45-0.76c0-0.44-0.26-1.19-0.79-2.23l-2.68-5.29h-9.69l-1.54,3.41
			c-0.34,0.76-0.51,1.46-0.51,2.12c0,0.94,0.33,1.67,1,2.2c0.67,0.52,1.57,0.78,2.7,0.78c0.13,0,0.2,0.08,0.2,0.23
			s-0.07,0.24-0.2,0.24c-0.47,0-1.16-0.03-2.05-0.08c-1-0.05-1.86-0.08-2.6-0.08c-0.71,0-1.56,0.03-2.56,0.08
			c-0.89,0.05-1.61,0.08-2.17,0.08c-0.1,0-0.16-0.08-0.16-0.24s0.05-0.23,0.16-0.23c0.73,0,1.35-0.15,1.85-0.45
			c0.5-0.3,1-0.84,1.5-1.61c0.5-0.77,1.09-1.91,1.77-3.43l8.54-18.7c0.05-0.08,0.17-0.12,0.35-0.12c0.21,0,0.33,0.04,0.35,0.12
			l9.84,19.29c0.92,1.86,1.68,3.14,2.28,3.84c0.6,0.71,1.23,1.06,1.89,1.06C-425.92-46.53-425.85-46.46-425.85-46.3z M-446.21-56.14
			h8.58l-4.53-8.94L-446.21-56.14z"/>
		<path d="M-397.66-46.3c0,0.16-0.07,0.24-0.2,0.24c-0.53,0-1.34-0.03-2.44-0.08c-1.16-0.05-1.98-0.08-2.48-0.08
			c-0.66,0-1.46,0.03-2.4,0.08c-0.89,0.05-1.6,0.08-2.13,0.08c-0.11,0-0.16-0.08-0.16-0.24s0.05-0.23,0.16-0.23
			c0.68,0,1.17-0.07,1.48-0.22c0.3-0.14,0.45-0.4,0.45-0.76c0-0.44-0.26-1.19-0.79-2.23l-7.8-15.33l-6.1,13.45
			c-0.34,0.76-0.51,1.46-0.51,2.12c0,0.94,0.33,1.67,1,2.2c0.67,0.52,1.57,0.78,2.7,0.78c0.13,0,0.2,0.08,0.2,0.23
			s-0.07,0.24-0.2,0.24c-0.47,0-1.16-0.03-2.05-0.08c-1-0.05-1.86-0.08-2.6-0.08c-0.71,0-1.56,0.03-2.56,0.08
			c-0.89,0.05-1.61,0.08-2.17,0.08c-0.1,0-0.16-0.08-0.16-0.24s0.05-0.23,0.16-0.23c0.73,0,1.35-0.15,1.85-0.45
			c0.5-0.3,1-0.84,1.5-1.61c0.5-0.77,1.09-1.91,1.77-3.43l8.54-18.7c0.05-0.08,0.17-0.12,0.35-0.12c0.21,0,0.33,0.04,0.35,0.12
			l9.84,19.29c0.92,1.86,1.68,3.14,2.28,3.84c0.6,0.71,1.23,1.06,1.89,1.06C-397.72-46.53-397.66-46.46-397.66-46.3z"/>
		<path d="M-378.2-52.38c0.08,0,0.15,0.02,0.22,0.06c0.07,0.04,0.1,0.07,0.1,0.1c-0.26,2.04-0.39,3.89-0.39,5.57
			c0,0.21-0.04,0.36-0.12,0.45c-0.08,0.09-0.24,0.14-0.47,0.14h-17.4c-0.08,0-0.12-0.08-0.12-0.24s0.04-0.23,0.12-0.23
			c0.84,0,1.45-0.06,1.83-0.2c0.38-0.13,0.64-0.39,0.77-0.76c0.13-0.38,0.2-0.96,0.2-1.74v-18.15c0-0.78-0.07-1.36-0.2-1.73
			c-0.13-0.37-0.39-0.62-0.79-0.76c-0.39-0.14-1-0.22-1.81-0.22c-0.08,0-0.12-0.08-0.12-0.23s0.04-0.24,0.12-0.24h16.7
			c0.26,0,0.39,0.12,0.39,0.35l0.08,5.21c0,0.05-0.07,0.09-0.22,0.12c-0.14,0.03-0.23,0-0.26-0.08c-0.42-1.52-1.13-2.64-2.13-3.37
			c-1-0.73-2.31-1.1-3.94-1.1h-1.18c-0.79,0-1.37,0.17-1.73,0.51c-0.37,0.34-0.55,0.86-0.55,1.57v8h3.27c1.52,0,2.69-0.26,3.5-0.78
			c0.81-0.52,1.22-1.25,1.22-2.2c0-0.08,0.07-0.12,0.22-0.12c0.14,0,0.22,0.04,0.22,0.12l-0.04,3.53l0.04,1.88
			c0.05,0.89,0.08,1.59,0.08,2.12c0,0.05-0.08,0.08-0.24,0.08c-0.16,0-0.24-0.03-0.24-0.08c0-1.07-0.41-1.91-1.24-2.53
			c-0.83-0.61-2.02-0.92-3.56-0.92h-3.23v8.86c0,0.76,0.14,1.32,0.43,1.69c0.29,0.37,0.75,0.55,1.38,0.55h1.3
			c2.05,0,3.69-0.42,4.92-1.25c1.23-0.84,2.14-2.13,2.72-3.88C-378.36-52.35-378.31-52.38-378.2-52.38z"/>
		<path d="M-374.15-63.59c-0.03,0.08-0.1,0.11-0.24,0.1c-0.13-0.01-0.2-0.06-0.2-0.14c0.1-1.04,0.22-2.4,0.35-4.06
			c0.13-1.66,0.2-2.91,0.2-3.74c0-0.13,0.07-0.2,0.22-0.2c0.14,0,0.22,0.07,0.22,0.2c0,0.58,0.75,0.86,2.24,0.86
			c2.26,0.08,4.9,0.12,7.92,0.12c1.55,0,3.19-0.03,4.92-0.08l2.68-0.04c1,0,1.73-0.06,2.19-0.2c0.46-0.13,0.75-0.39,0.89-0.78
			c0.03-0.1,0.11-0.16,0.26-0.16c0.14,0,0.22,0.05,0.22,0.16c-0.08,0.78-0.16,2.04-0.26,3.76c-0.09,1.72-0.14,3.11-0.14,4.16
			c0,0.08-0.07,0.12-0.2,0.12s-0.21-0.04-0.24-0.12c-0.39-2.01-1.13-3.52-2.21-4.53c-1.08-1.01-2.4-1.51-3.98-1.51
			c-0.76,0-1.27,0.16-1.52,0.49c-0.25,0.33-0.37,0.95-0.37,1.86v18.07c0,0.81,0.08,1.4,0.24,1.76c0.16,0.37,0.46,0.61,0.91,0.74
			c0.45,0.13,1.15,0.2,2.13,0.2c0.08,0,0.12,0.08,0.12,0.23s-0.04,0.24-0.12,0.24c-0.95,0-1.69-0.01-2.24-0.04l-3.27-0.04
			l-3.19,0.04c-0.55,0.03-1.31,0.04-2.28,0.04c-0.08,0-0.12-0.08-0.12-0.24s0.04-0.23,0.12-0.23c0.95,0,1.65-0.06,2.11-0.2
			c0.46-0.13,0.77-0.39,0.94-0.76c0.17-0.38,0.26-0.96,0.26-1.74v-18.15c0-0.89-0.12-1.49-0.35-1.8c-0.24-0.31-0.72-0.47-1.46-0.47
			C-370.54-69.66-372.78-67.64-374.15-63.59z"/>
		<path d="M-325.16-46.3c0,0.16-0.07,0.24-0.2,0.24c-0.53,0-1.34-0.03-2.44-0.08c-1.15-0.05-1.98-0.08-2.48-0.08
			c-0.66,0-1.46,0.03-2.4,0.08c-0.89,0.05-1.6,0.08-2.13,0.08c-0.1,0-0.16-0.08-0.16-0.24s0.05-0.23,0.16-0.23
			c0.68,0,1.18-0.07,1.48-0.22c0.3-0.14,0.45-0.4,0.45-0.76c0-0.44-0.26-1.19-0.79-2.23l-2.68-5.29h-9.69l-1.54,3.41
			c-0.34,0.76-0.51,1.46-0.51,2.12c0,0.94,0.33,1.67,1,2.2c0.67,0.52,1.57,0.78,2.7,0.78c0.13,0,0.2,0.08,0.2,0.23
			s-0.07,0.24-0.2,0.24c-0.47,0-1.16-0.03-2.05-0.08c-1-0.05-1.86-0.08-2.6-0.08c-0.71,0-1.56,0.03-2.56,0.08
			c-0.89,0.05-1.61,0.08-2.17,0.08c-0.1,0-0.16-0.08-0.16-0.24s0.05-0.23,0.16-0.23c0.73,0,1.35-0.15,1.85-0.45
			c0.5-0.3,1-0.84,1.5-1.61c0.5-0.77,1.09-1.91,1.77-3.43l8.55-18.7c0.05-0.08,0.17-0.12,0.35-0.12c0.21,0,0.33,0.04,0.36,0.12
			l9.84,19.29c0.92,1.86,1.68,3.14,2.28,3.84s1.23,1.06,1.89,1.06C-325.23-46.53-325.16-46.46-325.16-46.3z M-345.52-56.14h8.59
			l-4.53-8.94L-345.52-56.14z"/>
	</g>
	<g class="st1">
		<path d="M-524.91-40.09h1.24v11.58h0.11l8.18-11.58h1.23v13.82h-1.26v-11.57h-0.11l-8.17,11.57h-1.22V-40.09z"/>
		<path d="M-510.48-40.09h1.46l5.01,12.04h0.12l5.01-12.04h1.46v13.82h-1.19v-11.15h-0.11l-4.66,11.15h-1.15l-4.66-11.15h-0.11
			v11.15h-1.19V-40.09z"/>
		<path d="M-493.75-26.28v-13.82h8.02v1.13h-6.75v5.2h6.33v1.13h-6.33v5.22h6.89v1.13H-493.75z"/>
		<path d="M-482.48-26.28v-13.82h1.26v6.34h7.84v-6.34h1.26v13.82h-1.26v-6.35h-7.84v6.35H-482.48z"/>
		<path d="M-468.44-40.09h1.24v11.58h0.11l8.18-11.58h1.23v13.82h-1.26v-11.57h-0.11l-8.17,11.57h-1.22V-40.09z"/>
		<path d="M-449.97-26.28v-1.17h0.36c0.57,0,1.02-0.19,1.36-0.57c0.33-0.38,0.58-0.99,0.74-1.83c0.16-0.84,0.26-1.95,0.31-3.32
			l0.24-6.93h8.11v13.82h-1.26v-12.68h-5.65l-0.22,6.07c-0.05,1.46-0.19,2.68-0.4,3.66c-0.22,0.98-0.57,1.71-1.08,2.21
			s-1.21,0.74-2.12,0.74H-449.97z"/>
		<path d="M-434.47-26.17c-0.27,0-0.49-0.1-0.68-0.29c-0.19-0.19-0.29-0.42-0.29-0.69c0-0.27,0.1-0.5,0.29-0.69
			c0.19-0.19,0.42-0.28,0.68-0.28c0.27,0,0.5,0.09,0.69,0.28s0.28,0.42,0.28,0.69c0,0.18-0.04,0.34-0.13,0.49
			c-0.09,0.15-0.2,0.27-0.35,0.35C-434.13-26.22-434.29-26.17-434.47-26.17z"/>
		<path d="M-427.27-32.51h1.42l-3.37,6.23h-1.46L-427.27-32.51z M-421.18-26.28h-1.26v-12.68h-3.16c-0.73,0-1.33,0.12-1.81,0.37
			s-0.84,0.6-1.08,1.05c-0.24,0.45-0.36,0.98-0.36,1.58s0.12,1.12,0.35,1.57c0.24,0.44,0.59,0.78,1.07,1.02
			c0.48,0.24,1.08,0.36,1.8,0.36h3.77v1.15h-3.8c-0.97,0-1.79-0.17-2.44-0.52c-0.66-0.35-1.15-0.83-1.49-1.44
			c-0.33-0.62-0.5-1.33-0.5-2.13s0.17-1.52,0.5-2.14s0.83-1.11,1.49-1.46c0.66-0.35,1.48-0.53,2.46-0.53h4.46V-26.28z"/>
		<path d="M-409.5-26.28l-4.76-6.52h-1.99v6.52h-1.26v-13.82h1.26v6.17h1.25l5.09-6.17h1.5l-5.12,6.23l5.54,7.59H-409.5z"/>
		<path d="M-394.97-33.18c0,1.44-0.26,2.69-0.77,3.75s-1.22,1.89-2.12,2.47c-0.9,0.58-1.93,0.87-3.09,0.87s-2.2-0.29-3.09-0.87
			c-0.9-0.58-1.6-1.41-2.11-2.47c-0.51-1.06-0.77-2.32-0.77-3.75s0.26-2.69,0.77-3.75c0.51-1.06,1.22-1.89,2.12-2.47
			c0.9-0.58,1.93-0.87,3.09-0.87c1.17,0,2.2,0.29,3.09,0.87s1.6,1.41,2.12,2.47C-395.22-35.88-394.97-34.62-394.97-33.18z
			 M-396.19-33.18c0-1.24-0.21-2.3-0.62-3.18s-0.98-1.56-1.69-2.03c-0.72-0.47-1.53-0.7-2.44-0.7c-0.9,0-1.71,0.23-2.43,0.7
			s-1.28,1.14-1.7,2.02c-0.42,0.88-0.62,1.94-0.62,3.18c0,1.24,0.21,2.3,0.62,3.18c0.41,0.88,0.98,1.56,1.69,2.03
			s1.53,0.71,2.44,0.71s1.72-0.23,2.44-0.7c0.72-0.47,1.28-1.14,1.7-2.03C-396.39-30.89-396.19-31.95-396.19-33.18z"/>
		<path d="M-391.92-26.28v-13.82h8.06v1.13h-6.8v4.94h3.92c0.92,0,1.71,0.16,2.35,0.47c0.65,0.31,1.14,0.75,1.48,1.32
			c0.34,0.57,0.51,1.23,0.51,2c0,0.79-0.17,1.48-0.51,2.08c-0.34,0.59-0.83,1.06-1.48,1.39c-0.65,0.33-1.43,0.5-2.36,0.5H-391.92z
			 M-390.65-27.39h3.92c0.66,0,1.22-0.13,1.68-0.39c0.46-0.26,0.81-0.6,1.06-1.04c0.24-0.43,0.36-0.92,0.36-1.45
			c0-0.74-0.27-1.36-0.82-1.87c-0.55-0.5-1.31-0.75-2.28-0.75h-3.92V-27.39z"/>
		<path d="M-368.52-35.78h-1.27c-0.09-0.47-0.26-0.91-0.51-1.31c-0.25-0.4-0.55-0.75-0.92-1.06c-0.37-0.3-0.79-0.54-1.26-0.7
			s-0.97-0.25-1.52-0.25c-0.87,0-1.67,0.23-2.38,0.68c-0.72,0.45-1.29,1.12-1.72,2s-0.64,1.96-0.64,3.23c0,1.28,0.21,2.36,0.64,3.24
			s1,1.54,1.72,1.99c0.72,0.45,1.51,0.68,2.38,0.68c0.54,0,1.05-0.08,1.52-0.25s0.89-0.4,1.26-0.7c0.37-0.3,0.68-0.65,0.92-1.06
			s0.42-0.84,0.51-1.32h1.27c-0.11,0.63-0.32,1.22-0.63,1.77c-0.31,0.55-0.7,1.02-1.17,1.43c-0.47,0.41-1.02,0.73-1.64,0.96
			c-0.62,0.23-1.29,0.34-2.03,0.34c-1.16,0-2.19-0.29-3.09-0.87c-0.9-0.58-1.6-1.4-2.12-2.47c-0.51-1.06-0.77-2.31-0.77-3.76
			s0.26-2.7,0.77-3.76c0.51-1.06,1.22-1.88,2.12-2.47c0.9-0.58,1.93-0.87,3.09-0.87c0.74,0,1.41,0.11,2.03,0.34
			c0.62,0.23,1.16,0.55,1.64,0.96c0.47,0.41,0.87,0.89,1.17,1.43S-368.64-36.41-368.52-35.78z"/>
		<path d="M-354.23-33.18c0,1.44-0.26,2.69-0.77,3.75c-0.51,1.06-1.22,1.89-2.12,2.47c-0.9,0.58-1.93,0.87-3.09,0.87
			c-1.16,0-2.2-0.29-3.09-0.87c-0.9-0.58-1.6-1.41-2.11-2.47c-0.51-1.06-0.77-2.32-0.77-3.75s0.26-2.69,0.77-3.75
			c0.51-1.06,1.22-1.89,2.11-2.47c0.9-0.58,1.93-0.87,3.09-0.87c1.17,0,2.2,0.29,3.09,0.87c0.9,0.58,1.6,1.41,2.12,2.47
			C-354.48-35.88-354.23-34.62-354.23-33.18z M-355.46-33.18c0-1.24-0.21-2.3-0.62-3.18c-0.41-0.88-0.98-1.56-1.7-2.03
			c-0.71-0.47-1.53-0.7-2.44-0.7c-0.9,0-1.71,0.23-2.43,0.7s-1.28,1.14-1.7,2.02c-0.42,0.88-0.62,1.94-0.62,3.18
			c0,1.24,0.21,2.3,0.62,3.18c0.41,0.88,0.98,1.56,1.69,2.03s1.53,0.71,2.44,0.71c0.91,0,1.72-0.23,2.44-0.7s1.28-1.14,1.7-2.03
			C-355.65-30.89-355.45-31.95-355.46-33.18z"/>
		<path d="M-351.18-26.28v-13.82h1.26v6.34h7.84v-6.34h1.26v13.82h-1.26v-6.35h-7.84v6.35H-351.18z"/>
		<path d="M-337.12-26.28h-1.32l5.03-13.82h1.35l5.03,13.82h-1.32l-4.33-12.18h-0.09L-337.12-26.28z M-336.17-31.57h6.86v1.13h-6.86
			V-31.57z"/>
	</g>
</g>
<g class="st0">
	<g class="st1">
		<path class="st3" d="M-427.63-648.62v-29.4c0-9.51,2.42-18.9,7.22-27.12c18.11-30.96,59.47-31.98,81.11-5.38
			c7.65,9.41,11.75,21.21,11.9,33.34l0.34,28.33L-427.63-648.62z"/>
		<path class="st3" d="M-539.43-648.62v-29.4c0-9.51,2.42-18.9,7.22-27.12c18.11-30.96,59.47-31.98,81.11-5.38
			c7.65,9.41,11.75,21.21,11.9,33.34l0.34,28.33L-539.43-648.62z"/>
		<path class="st3" d="M-564.38-710.51c7.65,9.41,11.75,21.21,11.9,33.34l0.34,28.33l-50.29,0.11v-80.71
			C-588.36-729.08-574.3-722.71-564.38-710.51z"/>
	</g>
	
		<text transform="matrix(0.9845 0 0 0.98 -606.5167 -609.9949)" class="st1" style="font-family:'CormorantGaramond-Bold'; font-size:40px;"> </text>
	<text transform="matrix(1 0 0 1 -526.7503 -590.2057)" class="st1" style="font-family:'Inter-Light'; font-size:19px;"> .</text>
</g>
</svg>
