<?xml version="1.0" encoding="utf-8"?>
<!-- Generator: Adobe Illustrator 24.0.1, SVG Export Plug-In . SVG Version: 6.00 Build 0)  -->
<svg version="1.1" id="Layer_1" xmlns="http://www.w3.org/2000/svg" xmlns:xlink="http://www.w3.org/1999/xlink" x="0px" y="0px"
	 viewBox="0 0 290.55 151.17" style="enable-background:new 0 0 290.55 151.17;" xml:space="preserve">
<style type="text/css">
	.st0{display:none;}
	.st1{display:inline;}
	.st2{fill:#EDEAE4;}
	.st3{fill:none;stroke:#000000;stroke-width:4;stroke-miterlimit:10;}
</style>
<g class="st0">
	<g class="st1">
		<path d="M786.24-83.79v-31.4c0-10.02,2.59-19.74,7.5-28.13c8.62-14.73,23.05-23.91,39.61-25.18c17.02-1.31,33.76,6,44.78,19.55
			c7.81,9.6,12.19,21.88,12.35,34.57l0.37,30.35L786.24-83.79z M837.26-164.65c-1.2,0-2.4,0.05-3.61,0.14
			c-15.23,1.17-28.52,9.63-36.46,23.22c-4.55,7.77-6.95,16.8-6.95,26.11v27.39l96.55-0.21l-0.32-26.31
			c-0.14-11.8-4.21-23.2-11.45-32.1C865.61-158,851.7-164.65,837.26-164.65z"/>
	</g>
	<g class="st1">
		<path d="M674.43-83.79v-31.4c0-10.02,2.59-19.74,7.5-28.13c8.62-14.73,23.05-23.91,39.61-25.18c17.02-1.31,33.76,6,44.78,19.55
			c7.81,9.6,12.19,21.88,12.35,34.57l0.37,30.35L674.43-83.79z M725.45-164.65c-1.2,0-2.4,0.05-3.61,0.14
			c-15.23,1.17-28.52,9.63-36.46,23.22c-4.55,7.77-6.95,16.8-6.95,26.11v27.39l96.55-0.21l-0.32-26.31
			c-0.14-11.8-4.21-23.2-11.45-32.1C753.8-158,739.89-164.65,725.45-164.65z"/>
	</g>
	<g class="st1">
		<path d="M611.44-83.9v-84.77l2.05,0.05c15.29,0.4,29.7,7.56,39.55,19.66c7.81,9.6,12.19,21.88,12.35,34.57l0.37,30.35L611.44-83.9
			z M615.44-164.52v76.61l46.26-0.1l-0.32-26.31c-0.14-11.8-4.21-23.2-11.45-32.1l0,0C641.27-157.08,628.79-163.6,615.44-164.52z"/>
	</g>
</g>
<g class="st0">
	<g class="st1">
		<path d="M481.91-82.82v-31.4c0-10.02,2.59-19.74,7.5-28.13c8.62-14.73,23.05-23.91,39.61-25.18c17.02-1.31,33.76,6,44.78,19.55
			c7.81,9.6,12.19,21.88,12.35,34.57l0.37,30.35L481.91-82.82z M532.93-163.68c-1.2,0-2.4,0.05-3.61,0.14
			c-15.23,1.17-28.52,9.63-36.46,23.22c-4.55,7.77-6.95,16.8-6.95,26.11v27.39l96.55-0.21l-0.32-26.31
			c-0.14-11.8-4.21-23.2-11.45-32.1C561.28-157.03,547.37-163.68,532.93-163.68z"/>
	</g>
	<g class="st1">
		<path d="M370.1-82.82v-31.4c0-10.02,2.59-19.74,7.5-28.13c8.62-14.73,23.05-23.91,39.61-25.18c17.02-1.31,33.76,6,44.78,19.55
			c7.81,9.6,12.19,21.88,12.35,34.57l0.37,30.35L370.1-82.82z M421.12-163.68c-1.2,0-2.4,0.05-3.61,0.14
			c-15.23,1.17-28.52,9.63-36.46,23.22c-4.55,7.77-6.95,16.8-6.95,26.11v27.39l96.55-0.21l-0.32-26.31
			c-0.14-11.8-4.21-23.2-11.45-32.1C449.47-157.03,435.56-163.68,421.12-163.68z"/>
	</g>
	<g class="st1">
		<path d="M307.11-82.93v-84.77l2.05,0.05c15.29,0.4,29.7,7.56,39.55,19.66c7.81,9.6,12.19,21.88,12.35,34.57l0.37,30.35
			L307.11-82.93z M311.11-163.55v76.61l46.26-0.1l-0.32-26.31c-0.14-11.8-4.21-23.2-11.45-32.1l0,0
			C336.94-156.11,324.46-162.63,311.11-163.55z"/>
	</g>
</g>
<g class="st0">
	<path class="st1" d="M307.03-63.72c-0.03,0.08-0.1,0.11-0.24,0.1c-0.13-0.01-0.2-0.06-0.2-0.14c0.1-1.04,0.22-2.4,0.35-4.06
		c0.13-1.66,0.2-2.91,0.2-3.74c0-0.13,0.07-0.2,0.22-0.2c0.14,0,0.22,0.07,0.22,0.2c0,0.58,0.75,0.86,2.24,0.86
		c2.26,0.08,4.9,0.12,7.92,0.12c1.55,0,3.19-0.03,4.92-0.08l2.68-0.04c1,0,1.73-0.06,2.19-0.2c0.46-0.13,0.75-0.39,0.89-0.78
		c0.03-0.1,0.11-0.16,0.26-0.16c0.14,0,0.22,0.05,0.22,0.16c-0.08,0.78-0.16,2.04-0.26,3.76c-0.09,1.72-0.14,3.11-0.14,4.16
		c0,0.08-0.07,0.12-0.2,0.12s-0.21-0.04-0.24-0.12c-0.39-2.01-1.13-3.52-2.21-4.53c-1.08-1.01-2.4-1.51-3.98-1.51
		c-0.76,0-1.27,0.16-1.52,0.49c-0.25,0.33-0.37,0.95-0.37,1.86v18.07c0,0.81,0.08,1.4,0.24,1.76c0.16,0.37,0.46,0.61,0.91,0.74
		c0.45,0.13,1.15,0.2,2.13,0.2c0.08,0,0.12,0.08,0.12,0.23s-0.04,0.24-0.12,0.24c-0.95,0-1.69-0.01-2.24-0.04l-3.27-0.04l-3.19,0.04
		c-0.55,0.03-1.31,0.04-2.28,0.04c-0.08,0-0.12-0.08-0.12-0.24s0.04-0.23,0.12-0.23c0.95,0,1.65-0.06,2.11-0.2
		c0.46-0.13,0.77-0.39,0.94-0.76c0.17-0.38,0.26-0.96,0.26-1.74v-18.15c0-0.89-0.12-1.49-0.35-1.8c-0.24-0.31-0.72-0.47-1.46-0.47
		C310.64-69.8,308.39-67.77,307.03-63.72z"/>
	<path class="st1" d="M350.03-52.51c0.08,0,0.15,0.02,0.22,0.06c0.07,0.04,0.1,0.07,0.1,0.1c-0.26,2.04-0.39,3.89-0.39,5.57
		c0,0.21-0.04,0.36-0.12,0.45c-0.08,0.09-0.24,0.14-0.47,0.14h-17.4c-0.08,0-0.12-0.08-0.12-0.24s0.04-0.23,0.12-0.23
		c0.84,0,1.45-0.06,1.83-0.2c0.38-0.13,0.64-0.39,0.77-0.76c0.13-0.38,0.2-0.96,0.2-1.74v-18.15c0-0.78-0.07-1.36-0.2-1.73
		c-0.13-0.37-0.39-0.62-0.79-0.76c-0.39-0.14-1-0.22-1.81-0.22c-0.08,0-0.12-0.08-0.12-0.23s0.04-0.24,0.12-0.24h16.7
		c0.26,0,0.39,0.12,0.39,0.35l0.08,5.21c0,0.05-0.07,0.09-0.22,0.12c-0.14,0.03-0.23,0-0.26-0.08c-0.42-1.52-1.13-2.64-2.13-3.37
		c-1-0.73-2.31-1.1-3.94-1.1h-1.18c-0.79,0-1.37,0.17-1.73,0.51c-0.37,0.34-0.55,0.86-0.55,1.57v8h3.27c1.52,0,2.69-0.26,3.5-0.78
		c0.81-0.52,1.22-1.25,1.22-2.2c0-0.08,0.07-0.12,0.22-0.12c0.14,0,0.22,0.04,0.22,0.12l-0.04,3.53l0.04,1.88
		c0.05,0.89,0.08,1.59,0.08,2.12c0,0.05-0.08,0.08-0.24,0.08c-0.16,0-0.24-0.03-0.24-0.08c0-1.07-0.41-1.91-1.24-2.53
		c-0.83-0.61-2.02-0.92-3.56-0.92h-3.23v8.86c0,0.76,0.14,1.32,0.43,1.69c0.29,0.37,0.75,0.55,1.38,0.55h1.3
		c2.05,0,3.69-0.42,4.92-1.25c1.23-0.84,2.14-2.13,2.72-3.88C349.87-52.48,349.92-52.51,350.03-52.51z"/>
	<path class="st1" d="M380.51-46.44c0,0.16-0.07,0.24-0.2,0.24c-0.53,0-1.34-0.03-2.44-0.08c-1.16-0.05-1.98-0.08-2.48-0.08
		c-0.66,0-1.46,0.03-2.4,0.08c-0.89,0.05-1.6,0.08-2.13,0.08c-0.11,0-0.16-0.08-0.16-0.24s0.05-0.23,0.16-0.23
		c0.68,0,1.17-0.07,1.48-0.22c0.3-0.14,0.45-0.4,0.45-0.76c0-0.44-0.26-1.19-0.79-2.23l-2.68-5.29h-9.69l-1.54,3.41
		c-0.34,0.76-0.51,1.46-0.51,2.12c0,0.94,0.33,1.67,1,2.2c0.67,0.52,1.57,0.78,2.7,0.78c0.13,0,0.2,0.08,0.2,0.23
		s-0.07,0.24-0.2,0.24c-0.47,0-1.16-0.03-2.05-0.08c-1-0.05-1.86-0.08-2.6-0.08c-0.71,0-1.56,0.03-2.56,0.08
		c-0.89,0.05-1.61,0.08-2.17,0.08c-0.1,0-0.16-0.08-0.16-0.24s0.05-0.23,0.16-0.23c0.73,0,1.35-0.15,1.85-0.45
		c0.5-0.3,1-0.84,1.5-1.61c0.5-0.77,1.09-1.91,1.77-3.43l8.54-18.7c0.05-0.08,0.17-0.12,0.35-0.12c0.21,0,0.33,0.04,0.35,0.12
		l9.84,19.29c0.92,1.86,1.68,3.14,2.28,3.84c0.6,0.71,1.23,1.06,1.89,1.06C380.44-46.67,380.51-46.59,380.51-46.44z M360.15-56.27
		h8.58l-4.53-8.94L360.15-56.27z"/>
	<path class="st1" d="M379.52-63.72c-0.03,0.08-0.1,0.11-0.24,0.1c-0.13-0.01-0.2-0.06-0.2-0.14c0.1-1.04,0.22-2.4,0.35-4.06
		c0.13-1.66,0.2-2.91,0.2-3.74c0-0.13,0.07-0.2,0.22-0.2c0.14,0,0.22,0.07,0.22,0.2c0,0.58,0.75,0.86,2.24,0.86
		c2.26,0.08,4.9,0.12,7.92,0.12c1.55,0,3.19-0.03,4.92-0.08l2.68-0.04c1,0,1.73-0.06,2.19-0.2c0.46-0.13,0.75-0.39,0.89-0.78
		c0.03-0.1,0.11-0.16,0.26-0.16c0.14,0,0.22,0.05,0.22,0.16c-0.08,0.78-0.16,2.04-0.26,3.76c-0.09,1.72-0.14,3.11-0.14,4.16
		c0,0.08-0.07,0.12-0.2,0.12s-0.21-0.04-0.24-0.12c-0.39-2.01-1.13-3.52-2.21-4.53c-1.08-1.01-2.4-1.51-3.98-1.51
		c-0.76,0-1.27,0.16-1.52,0.49c-0.25,0.33-0.37,0.95-0.37,1.86v18.07c0,0.81,0.08,1.4,0.24,1.76c0.16,0.37,0.46,0.61,0.91,0.74
		c0.45,0.13,1.15,0.2,2.13,0.2c0.08,0,0.12,0.08,0.12,0.23s-0.04,0.24-0.12,0.24c-0.95,0-1.69-0.01-2.24-0.04l-3.27-0.04l-3.19,0.04
		c-0.55,0.03-1.31,0.04-2.28,0.04c-0.08,0-0.12-0.08-0.12-0.24s0.04-0.23,0.12-0.23c0.95,0,1.65-0.06,2.11-0.2
		c0.46-0.13,0.77-0.39,0.94-0.76c0.17-0.38,0.26-0.96,0.26-1.74v-18.15c0-0.89-0.12-1.49-0.35-1.8c-0.24-0.31-0.72-0.47-1.46-0.47
		C383.13-69.8,380.89-67.77,379.52-63.72z"/>
	<path class="st1" d="M411.62-47.71c0.18,0.38,0.53,0.65,1.04,0.8c0.51,0.16,1.33,0.24,2.46,0.24c0.08,0,0.12,0.08,0.12,0.23
		s-0.04,0.24-0.12,0.24c-1.08,0-1.92-0.01-2.52-0.04l-3.43-0.04l-2.87,0.04c-0.53,0.03-1.23,0.04-2.13,0.04
		c-0.08,0-0.12-0.08-0.12-0.24s0.04-0.23,0.12-0.23c0.84,0,1.45-0.06,1.83-0.2c0.38-0.13,0.64-0.39,0.77-0.76
		c0.13-0.38,0.2-0.96,0.2-1.74v-18.15c0-0.78-0.07-1.36-0.2-1.73c-0.13-0.37-0.39-0.62-0.79-0.76c-0.39-0.14-1-0.22-1.81-0.22
		c-0.08,0-0.12-0.08-0.12-0.23s0.04-0.24,0.12-0.24l2.09,0.04c1.21,0.05,2.17,0.08,2.88,0.08c0.63,0,1.38-0.04,2.24-0.12
		c0.34-0.03,0.77-0.05,1.3-0.08c0.52-0.03,1.13-0.04,1.81-0.04c2.68,0,4.79,0.56,6.34,1.67c1.55,1.11,2.32,2.83,2.32,5.15
		c0,1.62-0.42,2.99-1.26,4.12c-0.84,1.12-1.92,1.97-3.25,2.55c-1.33,0.58-2.68,0.86-4.08,0.86c-0.71,0-1.33-0.06-1.85-0.2
		c-0.05,0-0.08-0.06-0.08-0.2c0-0.08,0.02-0.16,0.06-0.23c0.04-0.08,0.08-0.1,0.14-0.08c0.39,0.1,0.84,0.16,1.34,0.16
		c1.21,0,2.21-0.56,3.01-1.69c0.8-1.12,1.2-2.72,1.2-4.78c0-2.06-0.44-3.66-1.32-4.78c-0.88-1.12-2.16-1.69-3.84-1.69
		c-0.74,0-1.23,0.17-1.5,0.51c-0.26,0.34-0.39,1.01-0.39,2v17.91C411.34-48.7,411.43-48.09,411.62-47.71z"/>
	<path class="st1" d="M452.55-58.31c1.77,1.15,2.66,2.81,2.66,4.98c0,1.36-0.38,2.59-1.14,3.7c-0.76,1.11-1.83,1.99-3.19,2.63
		c-1.37,0.64-2.89,0.96-4.57,0.96c-0.71,0-1.56-0.04-2.56-0.12c-0.39-0.03-0.87-0.05-1.44-0.08c-0.56-0.03-1.19-0.04-1.87-0.04
		l-2.88,0.04c-0.53,0.03-1.23,0.04-2.13,0.04c-0.08,0-0.12-0.08-0.12-0.24s0.04-0.23,0.12-0.23c0.84,0,1.45-0.06,1.83-0.2
		c0.38-0.13,0.64-0.39,0.79-0.76c0.14-0.38,0.22-0.96,0.22-1.74v-18.15c0-0.78-0.07-1.36-0.2-1.73c-0.13-0.37-0.39-0.62-0.79-0.76
		c-0.39-0.14-1-0.22-1.81-0.22c-0.05,0-0.08-0.08-0.08-0.23s0.03-0.24,0.08-0.24h16.5c0.37,0,0.6,0.05,0.69,0.16
		c0.09,0.1,0.14,0.38,0.14,0.82l0.31,5.96c0,0.08-0.07,0.12-0.2,0.12c-0.13,0-0.22-0.04-0.28-0.12c-0.39-2.01-1.12-3.52-2.19-4.53
		c-1.06-1.01-2.38-1.51-3.96-1.51h-1.65c-0.84,0-1.41,0.18-1.71,0.53c-0.3,0.35-0.45,1.01-0.45,1.98v7.49
		c1.05-0.16,2.1-0.23,3.15-0.23C448.54-60.04,450.78-59.46,452.55-58.31z M449.38-48.38c0.81-0.9,1.22-2.23,1.22-3.98
		c0-2.25-0.54-3.91-1.61-4.98c-1.08-1.07-2.59-1.61-4.53-1.61c-0.63,0-1.22,0.05-1.77,0.16v9.41c0,0.78,0.19,1.37,0.57,1.76
		c0.38,0.39,1.15,0.59,2.3,0.59C447.29-47.02,448.56-47.47,449.38-48.38z"/>
	<path class="st1" d="M485.69-46.44c0,0.16-0.07,0.24-0.2,0.24c-0.53,0-1.34-0.03-2.44-0.08c-1.16-0.05-1.98-0.08-2.48-0.08
		c-0.66,0-1.46,0.03-2.4,0.08c-0.89,0.05-1.6,0.08-2.13,0.08c-0.11,0-0.16-0.08-0.16-0.24s0.05-0.23,0.16-0.23
		c0.68,0,1.17-0.07,1.48-0.22c0.3-0.14,0.45-0.4,0.45-0.76c0-0.44-0.26-1.19-0.79-2.23l-2.68-5.29h-9.69l-1.54,3.41
		c-0.34,0.76-0.51,1.46-0.51,2.12c0,0.94,0.33,1.67,1,2.2c0.67,0.52,1.57,0.78,2.7,0.78c0.13,0,0.2,0.08,0.2,0.23
		s-0.07,0.24-0.2,0.24c-0.47,0-1.16-0.03-2.05-0.08c-1-0.05-1.86-0.08-2.6-0.08c-0.71,0-1.56,0.03-2.56,0.08
		c-0.89,0.05-1.61,0.08-2.17,0.08c-0.1,0-0.16-0.08-0.16-0.24s0.05-0.23,0.16-0.23c0.73,0,1.35-0.15,1.85-0.45
		c0.5-0.3,1-0.84,1.5-1.61c0.5-0.77,1.09-1.91,1.77-3.43l8.54-18.7c0.05-0.08,0.17-0.12,0.35-0.12c0.21,0,0.33,0.04,0.35,0.12
		l9.84,19.29c0.92,1.86,1.68,3.14,2.28,3.84c0.6,0.71,1.23,1.06,1.89,1.06C485.62-46.67,485.69-46.59,485.69-46.44z M465.33-56.27
		h8.58l-4.53-8.94L465.33-56.27z"/>
	<path class="st1" d="M513.88-46.44c0,0.16-0.07,0.24-0.2,0.24c-0.53,0-1.34-0.03-2.44-0.08c-1.16-0.05-1.98-0.08-2.48-0.08
		c-0.66,0-1.46,0.03-2.4,0.08c-0.89,0.05-1.6,0.08-2.13,0.08c-0.11,0-0.16-0.08-0.16-0.24s0.05-0.23,0.16-0.23
		c0.68,0,1.17-0.07,1.48-0.22c0.3-0.14,0.45-0.4,0.45-0.76c0-0.44-0.26-1.19-0.79-2.23l-7.8-15.33l-6.1,13.45
		c-0.34,0.76-0.51,1.46-0.51,2.12c0,0.94,0.33,1.67,1,2.2c0.67,0.52,1.57,0.78,2.7,0.78c0.13,0,0.2,0.08,0.2,0.23
		s-0.07,0.24-0.2,0.24c-0.47,0-1.16-0.03-2.05-0.08c-1-0.05-1.86-0.08-2.6-0.08c-0.71,0-1.56,0.03-2.56,0.08
		c-0.89,0.05-1.61,0.08-2.17,0.08c-0.1,0-0.16-0.08-0.16-0.24s0.05-0.23,0.16-0.23c0.73,0,1.35-0.15,1.85-0.45
		c0.5-0.3,1-0.84,1.5-1.61c0.5-0.77,1.09-1.91,1.77-3.43l8.54-18.7c0.05-0.08,0.17-0.12,0.35-0.12c0.21,0,0.33,0.04,0.35,0.12
		l9.84,19.29c0.92,1.86,1.68,3.14,2.28,3.84c0.6,0.71,1.23,1.06,1.89,1.06C513.81-46.67,513.88-46.59,513.88-46.44z"/>
	<path class="st1" d="M533.33-52.51c0.08,0,0.15,0.02,0.22,0.06c0.07,0.04,0.1,0.07,0.1,0.1c-0.26,2.04-0.39,3.89-0.39,5.57
		c0,0.21-0.04,0.36-0.12,0.45c-0.08,0.09-0.24,0.14-0.47,0.14h-17.4c-0.08,0-0.12-0.08-0.12-0.24s0.04-0.23,0.12-0.23
		c0.84,0,1.45-0.06,1.83-0.2c0.38-0.13,0.64-0.39,0.77-0.76c0.13-0.38,0.2-0.96,0.2-1.74v-18.15c0-0.78-0.07-1.36-0.2-1.73
		c-0.13-0.37-0.39-0.62-0.79-0.76c-0.39-0.14-1-0.22-1.81-0.22c-0.08,0-0.12-0.08-0.12-0.23s0.04-0.24,0.12-0.24h16.7
		c0.26,0,0.39,0.12,0.39,0.35l0.08,5.21c0,0.05-0.07,0.09-0.22,0.12c-0.14,0.03-0.23,0-0.26-0.08c-0.42-1.52-1.13-2.64-2.13-3.37
		c-1-0.73-2.31-1.1-3.94-1.1h-1.18c-0.79,0-1.37,0.17-1.73,0.51c-0.37,0.34-0.55,0.86-0.55,1.57v8h3.27c1.52,0,2.69-0.26,3.5-0.78
		c0.81-0.52,1.22-1.25,1.22-2.2c0-0.08,0.07-0.12,0.22-0.12c0.14,0,0.22,0.04,0.22,0.12l-0.04,3.53l0.04,1.88
		c0.05,0.89,0.08,1.59,0.08,2.12c0,0.05-0.08,0.08-0.24,0.08c-0.16,0-0.24-0.03-0.24-0.08c0-1.07-0.41-1.91-1.24-2.53
		c-0.83-0.61-2.02-0.92-3.56-0.92h-3.23v8.86c0,0.76,0.14,1.32,0.43,1.69c0.29,0.37,0.75,0.55,1.38,0.55h1.3
		c2.05,0,3.69-0.42,4.92-1.25c1.23-0.84,2.14-2.13,2.72-3.88C533.17-52.48,533.23-52.51,533.33-52.51z"/>
	<path class="st1" d="M537.39-63.72c-0.03,0.08-0.1,0.11-0.24,0.1c-0.13-0.01-0.2-0.06-0.2-0.14c0.1-1.04,0.22-2.4,0.35-4.06
		c0.13-1.66,0.2-2.91,0.2-3.74c0-0.13,0.07-0.2,0.22-0.2c0.14,0,0.22,0.07,0.22,0.2c0,0.58,0.75,0.86,2.24,0.86
		c2.26,0.08,4.9,0.12,7.92,0.12c1.55,0,3.19-0.03,4.92-0.08l2.68-0.04c1,0,1.73-0.06,2.19-0.2c0.46-0.13,0.75-0.39,0.89-0.78
		c0.03-0.1,0.11-0.16,0.26-0.16c0.14,0,0.22,0.05,0.22,0.16c-0.08,0.78-0.16,2.04-0.26,3.76c-0.09,1.72-0.14,3.11-0.14,4.16
		c0,0.08-0.07,0.12-0.2,0.12s-0.21-0.04-0.24-0.12c-0.39-2.01-1.13-3.52-2.21-4.53c-1.08-1.01-2.4-1.51-3.98-1.51
		c-0.76,0-1.27,0.16-1.52,0.49c-0.25,0.33-0.37,0.95-0.37,1.86v18.07c0,0.81,0.08,1.4,0.24,1.76c0.16,0.37,0.46,0.61,0.91,0.74
		c0.45,0.13,1.15,0.2,2.13,0.2c0.08,0,0.12,0.08,0.12,0.23s-0.04,0.24-0.12,0.24c-0.95,0-1.69-0.01-2.24-0.04l-3.27-0.04l-3.19,0.04
		c-0.55,0.03-1.31,0.04-2.28,0.04c-0.08,0-0.12-0.08-0.12-0.24s0.04-0.23,0.12-0.23c0.95,0,1.65-0.06,2.11-0.2
		c0.46-0.13,0.77-0.39,0.94-0.76c0.17-0.38,0.26-0.96,0.26-1.74v-18.15c0-0.89-0.12-1.49-0.35-1.8c-0.24-0.31-0.72-0.47-1.46-0.47
		C541-69.8,538.75-67.77,537.39-63.72z"/>
	<path class="st1" d="M586.37-46.44c0,0.16-0.07,0.24-0.2,0.24c-0.53,0-1.34-0.03-2.44-0.08c-1.15-0.05-1.98-0.08-2.48-0.08
		c-0.66,0-1.46,0.03-2.4,0.08c-0.89,0.05-1.6,0.08-2.13,0.08c-0.1,0-0.16-0.08-0.16-0.24s0.05-0.23,0.16-0.23
		c0.68,0,1.18-0.07,1.48-0.22c0.3-0.14,0.45-0.4,0.45-0.76c0-0.44-0.26-1.19-0.79-2.23l-2.68-5.29h-9.69l-1.54,3.41
		c-0.34,0.76-0.51,1.46-0.51,2.12c0,0.94,0.33,1.67,1,2.2c0.67,0.52,1.57,0.78,2.7,0.78c0.13,0,0.2,0.08,0.2,0.23
		s-0.07,0.24-0.2,0.24c-0.47,0-1.16-0.03-2.05-0.08c-1-0.05-1.86-0.08-2.6-0.08c-0.71,0-1.56,0.03-2.56,0.08
		c-0.89,0.05-1.61,0.08-2.17,0.08c-0.1,0-0.16-0.08-0.16-0.24s0.05-0.23,0.16-0.23c0.73,0,1.35-0.15,1.85-0.45
		c0.5-0.3,1-0.84,1.5-1.61c0.5-0.77,1.09-1.91,1.77-3.43l8.55-18.7c0.05-0.08,0.17-0.12,0.35-0.12c0.21,0,0.33,0.04,0.36,0.12
		L582-51.57c0.92,1.86,1.68,3.14,2.28,3.84s1.23,1.06,1.89,1.06C586.31-46.67,586.37-46.59,586.37-46.44z M566.01-56.27h8.59
		l-4.53-8.94L566.01-56.27z"/>
</g>
<g class="st0">
	<g class="st1">
		<path class="st2" d="M787.72,89V57.6c0-10.02,2.59-19.74,7.5-28.13c8.62-14.73,23.05-23.91,39.61-25.18
			c17.02-1.31,33.76,6,44.78,19.55c7.81,9.6,12.19,21.88,12.35,34.57l0.37,30.35L787.72,89z M838.73,8.14c-1.2,0-2.4,0.05-3.61,0.14
			c-15.23,1.17-28.52,9.63-36.46,23.22c-4.55,7.77-6.95,16.8-6.95,26.11v27.39l96.55-0.21l-0.32-26.31
			c-0.14-11.8-4.21-23.2-11.45-32.1C867.08,14.79,853.18,8.14,838.73,8.14z"/>
	</g>
	<g class="st1">
		<path class="st2" d="M675.91,89V57.6c0-10.02,2.59-19.74,7.5-28.13c8.62-14.73,23.05-23.91,39.61-25.18
			c17.02-1.31,33.76,6,44.78,19.55c7.81,9.6,12.19,21.88,12.35,34.57l0.37,30.35L675.91,89z M726.93,8.14c-1.2,0-2.4,0.05-3.61,0.14
			c-15.23,1.17-28.52,9.63-36.46,23.22c-4.55,7.77-6.95,16.8-6.95,26.11v27.39l96.55-0.21l-0.32-26.31
			c-0.14-11.8-4.21-23.2-11.45-32.1C755.28,14.79,741.37,8.14,726.93,8.14z"/>
	</g>
	<g class="st1">
		<path class="st2" d="M612.91,88.89V4.13l2.05,0.05c15.29,0.4,29.7,7.56,39.55,19.66c7.81,9.6,12.19,21.88,12.35,34.57l0.37,30.35
			L612.91,88.89z M616.91,8.27v76.61l46.26-0.1l-0.32-26.31c-0.14-11.8-4.21-23.2-11.45-32.1l0,0
			C642.74,15.71,630.27,9.2,616.91,8.27z"/>
	</g>
</g>
<g class="st0">
	<g class="st1">
		<g>
			<path class="st2" d="M481.98,90.35v-31.4c0-10.02,2.59-19.74,7.5-28.13c8.62-14.73,23.05-23.91,39.61-25.18
				c17.02-1.31,33.76,6,44.78,19.55c7.81,9.6,12.19,21.88,12.35,34.57l0.37,30.35L481.98,90.35z M533,9.49
				c-1.2,0-2.4,0.05-3.61,0.14c-15.23,1.17-28.52,9.63-36.46,23.22c-4.55,7.77-6.95,16.8-6.95,26.11v27.39l96.55-0.21l-0.32-26.31
				c-0.14-11.8-4.21-23.2-11.45-32.1C561.35,16.14,547.44,9.49,533,9.49z"/>
		</g>
		<g>
			<path class="st2" d="M370.17,90.35v-31.4c0-10.02,2.59-19.74,7.5-28.13c8.62-14.73,23.05-23.91,39.61-25.18
				c17.02-1.31,33.76,6,44.78,19.55c7.81,9.6,12.19,21.88,12.35,34.57l0.37,30.35L370.17,90.35z M421.19,9.49
				c-1.2,0-2.4,0.05-3.61,0.14c-15.23,1.17-28.52,9.63-36.46,23.22c-4.55,7.77-6.95,16.8-6.95,26.11v27.39l96.55-0.21l-0.32-26.31
				c-0.14-11.8-4.21-23.2-11.45-32.1C449.54,16.14,435.63,9.49,421.19,9.49z"/>
		</g>
		<g>
			<path class="st2" d="M307.18,90.24V5.47l2.05,0.05c15.29,0.4,29.7,7.56,39.55,19.66c7.81,9.6,12.19,21.88,12.35,34.57l0.37,30.35
				L307.18,90.24z M311.18,9.62v76.61l46.26-0.1l-0.32-26.31c-0.14-11.8-4.21-23.2-11.45-32.1l0,0
				C337.01,17.06,324.53,10.54,311.18,9.62z"/>
		</g>
	</g>
	<g class="st1">
		<path class="st2" d="M307.1,109.45c-0.03,0.08-0.1,0.11-0.24,0.1c-0.13-0.01-0.2-0.06-0.2-0.14c0.1-1.04,0.22-2.4,0.35-4.06
			c0.13-1.66,0.2-2.91,0.2-3.74c0-0.13,0.07-0.2,0.22-0.2c0.14,0,0.22,0.07,0.22,0.2c0,0.58,0.75,0.86,2.24,0.86
			c2.26,0.08,4.9,0.12,7.92,0.12c1.55,0,3.19-0.03,4.92-0.08l2.68-0.04c1,0,1.73-0.06,2.19-0.2c0.46-0.13,0.75-0.39,0.89-0.78
			c0.03-0.1,0.11-0.16,0.26-0.16c0.14,0,0.22,0.05,0.22,0.16c-0.08,0.78-0.16,2.04-0.26,3.76c-0.09,1.72-0.14,3.11-0.14,4.16
			c0,0.08-0.07,0.12-0.2,0.12s-0.21-0.04-0.24-0.12c-0.39-2.01-1.13-3.52-2.21-4.53c-1.08-1.01-2.4-1.51-3.98-1.51
			c-0.76,0-1.27,0.16-1.52,0.49c-0.25,0.33-0.37,0.95-0.37,1.86v18.07c0,0.81,0.08,1.4,0.24,1.76c0.16,0.37,0.46,0.61,0.91,0.74
			c0.45,0.13,1.15,0.2,2.13,0.2c0.08,0,0.12,0.08,0.12,0.23s-0.04,0.24-0.12,0.24c-0.95,0-1.69-0.01-2.24-0.04l-3.27-0.04
			l-3.19,0.04c-0.55,0.03-1.31,0.04-2.28,0.04c-0.08,0-0.12-0.08-0.12-0.24s0.04-0.23,0.12-0.23c0.95,0,1.65-0.06,2.11-0.2
			c0.46-0.13,0.77-0.39,0.94-0.76c0.17-0.38,0.26-0.96,0.26-1.74v-18.15c0-0.89-0.12-1.49-0.35-1.8c-0.24-0.31-0.72-0.47-1.46-0.47
			C310.71,103.37,308.46,105.4,307.1,109.45z"/>
		<path class="st2" d="M350.1,120.66c0.08,0,0.15,0.02,0.22,0.06c0.07,0.04,0.1,0.07,0.1,0.1c-0.26,2.04-0.39,3.89-0.39,5.57
			c0,0.21-0.04,0.36-0.12,0.45c-0.08,0.09-0.24,0.14-0.47,0.14h-17.4c-0.08,0-0.12-0.08-0.12-0.24s0.04-0.23,0.12-0.23
			c0.84,0,1.45-0.06,1.83-0.2c0.38-0.13,0.64-0.39,0.77-0.76c0.13-0.38,0.2-0.96,0.2-1.74v-18.15c0-0.78-0.07-1.36-0.2-1.73
			c-0.13-0.37-0.39-0.62-0.79-0.76c-0.39-0.14-1-0.22-1.81-0.22c-0.08,0-0.12-0.08-0.12-0.23s0.04-0.24,0.12-0.24h16.7
			c0.26,0,0.39,0.12,0.39,0.35l0.08,5.21c0,0.05-0.07,0.09-0.22,0.12c-0.14,0.03-0.23,0-0.26-0.08c-0.42-1.52-1.13-2.64-2.13-3.37
			c-1-0.73-2.31-1.1-3.94-1.1h-1.18c-0.79,0-1.37,0.17-1.73,0.51c-0.37,0.34-0.55,0.86-0.55,1.57v8h3.27c1.52,0,2.69-0.26,3.5-0.78
			c0.81-0.52,1.22-1.25,1.22-2.2c0-0.08,0.07-0.12,0.22-0.12c0.14,0,0.22,0.04,0.22,0.12l-0.04,3.53l0.04,1.88
			c0.05,0.89,0.08,1.59,0.08,2.12c0,0.05-0.08,0.08-0.24,0.08c-0.16,0-0.24-0.03-0.24-0.08c0-1.07-0.41-1.91-1.24-2.53
			c-0.83-0.61-2.02-0.92-3.56-0.92h-3.23v8.86c0,0.76,0.14,1.32,0.43,1.69c0.29,0.37,0.75,0.55,1.38,0.55h1.3
			c2.05,0,3.69-0.42,4.92-1.25c1.23-0.84,2.14-2.13,2.72-3.88C349.94,120.68,349.99,120.66,350.1,120.66z"/>
		<path class="st2" d="M380.58,126.73c0,0.16-0.07,0.24-0.2,0.24c-0.53,0-1.34-0.03-2.44-0.08c-1.16-0.05-1.98-0.08-2.48-0.08
			c-0.66,0-1.46,0.03-2.4,0.08c-0.89,0.05-1.6,0.08-2.13,0.08c-0.11,0-0.16-0.08-0.16-0.24s0.05-0.23,0.16-0.23
			c0.68,0,1.17-0.07,1.48-0.22c0.3-0.14,0.45-0.4,0.45-0.76c0-0.44-0.26-1.19-0.79-2.23l-2.68-5.29h-9.69l-1.54,3.41
			c-0.34,0.76-0.51,1.46-0.51,2.12c0,0.94,0.33,1.67,1,2.2c0.67,0.52,1.57,0.78,2.7,0.78c0.13,0,0.2,0.08,0.2,0.23
			s-0.07,0.24-0.2,0.24c-0.47,0-1.16-0.03-2.05-0.08c-1-0.05-1.86-0.08-2.6-0.08c-0.71,0-1.56,0.03-2.56,0.08
			c-0.89,0.05-1.61,0.08-2.17,0.08c-0.1,0-0.16-0.08-0.16-0.24s0.05-0.23,0.16-0.23c0.73,0,1.35-0.15,1.85-0.45
			c0.5-0.3,1-0.84,1.5-1.61c0.5-0.77,1.09-1.91,1.77-3.43l8.54-18.7c0.05-0.08,0.17-0.12,0.35-0.12c0.21,0,0.33,0.04,0.35,0.12
			l9.84,19.29c0.92,1.86,1.68,3.14,2.28,3.84c0.6,0.71,1.23,1.06,1.89,1.06C380.51,126.5,380.58,126.58,380.58,126.73z
			 M360.22,116.89h8.58l-4.53-8.94L360.22,116.89z"/>
		<path class="st2" d="M379.59,109.45c-0.03,0.08-0.1,0.11-0.24,0.1c-0.13-0.01-0.2-0.06-0.2-0.14c0.1-1.04,0.22-2.4,0.35-4.06
			c0.13-1.66,0.2-2.91,0.2-3.74c0-0.13,0.07-0.2,0.22-0.2c0.14,0,0.22,0.07,0.22,0.2c0,0.58,0.75,0.86,2.24,0.86
			c2.26,0.08,4.9,0.12,7.92,0.12c1.55,0,3.19-0.03,4.92-0.08l2.68-0.04c1,0,1.73-0.06,2.19-0.2c0.46-0.13,0.75-0.39,0.89-0.78
			c0.03-0.1,0.11-0.16,0.26-0.16c0.14,0,0.22,0.05,0.22,0.16c-0.08,0.78-0.16,2.04-0.26,3.76c-0.09,1.72-0.14,3.11-0.14,4.16
			c0,0.08-0.07,0.12-0.2,0.12s-0.21-0.04-0.24-0.12c-0.39-2.01-1.13-3.52-2.21-4.53c-1.08-1.01-2.4-1.51-3.98-1.51
			c-0.76,0-1.27,0.16-1.52,0.49c-0.25,0.33-0.37,0.95-0.37,1.86v18.07c0,0.81,0.08,1.4,0.24,1.76c0.16,0.37,0.46,0.61,0.91,0.74
			c0.45,0.13,1.15,0.2,2.13,0.2c0.08,0,0.12,0.08,0.12,0.23s-0.04,0.24-0.12,0.24c-0.95,0-1.69-0.01-2.24-0.04l-3.27-0.04
			l-3.19,0.04c-0.55,0.03-1.31,0.04-2.28,0.04c-0.08,0-0.12-0.08-0.12-0.24s0.04-0.23,0.12-0.23c0.95,0,1.65-0.06,2.11-0.2
			c0.46-0.13,0.77-0.39,0.94-0.76c0.17-0.38,0.26-0.96,0.26-1.74v-18.15c0-0.89-0.12-1.49-0.35-1.8c-0.24-0.31-0.72-0.47-1.46-0.47
			C383.2,103.37,380.96,105.4,379.59,109.45z"/>
		<path class="st2" d="M411.69,125.46c0.18,0.38,0.53,0.65,1.04,0.8c0.51,0.16,1.33,0.24,2.46,0.24c0.08,0,0.12,0.08,0.12,0.23
			s-0.04,0.24-0.12,0.24c-1.08,0-1.92-0.01-2.52-0.04l-3.43-0.04l-2.87,0.04c-0.53,0.03-1.23,0.04-2.13,0.04
			c-0.08,0-0.12-0.08-0.12-0.24s0.04-0.23,0.12-0.23c0.84,0,1.45-0.06,1.83-0.2c0.38-0.13,0.64-0.39,0.77-0.76
			c0.13-0.38,0.2-0.96,0.2-1.74v-18.15c0-0.78-0.07-1.36-0.2-1.73c-0.13-0.37-0.39-0.62-0.79-0.76c-0.39-0.14-1-0.22-1.81-0.22
			c-0.08,0-0.12-0.08-0.12-0.23s0.04-0.24,0.12-0.24l2.09,0.04c1.21,0.05,2.17,0.08,2.88,0.08c0.63,0,1.38-0.04,2.24-0.12
			c0.34-0.03,0.77-0.05,1.3-0.08c0.52-0.03,1.13-0.04,1.81-0.04c2.68,0,4.79,0.56,6.34,1.67c1.55,1.11,2.32,2.83,2.32,5.15
			c0,1.62-0.42,2.99-1.26,4.12c-0.84,1.12-1.92,1.97-3.25,2.55c-1.33,0.58-2.68,0.86-4.08,0.86c-0.71,0-1.33-0.06-1.85-0.2
			c-0.05,0-0.08-0.06-0.08-0.2c0-0.08,0.02-0.16,0.06-0.23c0.04-0.08,0.08-0.1,0.14-0.08c0.39,0.1,0.84,0.16,1.34,0.16
			c1.21,0,2.21-0.56,3.01-1.69c0.8-1.12,1.2-2.72,1.2-4.78s-0.44-3.66-1.32-4.78c-0.88-1.12-2.16-1.69-3.84-1.69
			c-0.74,0-1.23,0.17-1.5,0.51c-0.26,0.34-0.39,1.01-0.39,2v17.91C411.41,124.47,411.5,125.08,411.69,125.46z"/>
		<path class="st2" d="M452.62,114.86c1.77,1.15,2.66,2.81,2.66,4.98c0,1.36-0.38,2.59-1.14,3.7c-0.76,1.11-1.83,1.99-3.19,2.63
			c-1.37,0.64-2.89,0.96-4.57,0.96c-0.71,0-1.56-0.04-2.56-0.12c-0.39-0.03-0.87-0.05-1.44-0.08c-0.56-0.03-1.19-0.04-1.87-0.04
			l-2.88,0.04c-0.53,0.03-1.23,0.04-2.13,0.04c-0.08,0-0.12-0.08-0.12-0.24s0.04-0.23,0.12-0.23c0.84,0,1.45-0.06,1.83-0.2
			c0.38-0.13,0.64-0.39,0.79-0.76c0.14-0.38,0.22-0.96,0.22-1.74v-18.15c0-0.78-0.07-1.36-0.2-1.73c-0.13-0.37-0.39-0.62-0.79-0.76
			c-0.39-0.14-1-0.22-1.81-0.22c-0.05,0-0.08-0.08-0.08-0.23s0.03-0.24,0.08-0.24h16.5c0.37,0,0.6,0.05,0.69,0.16
			c0.09,0.1,0.14,0.38,0.14,0.82l0.31,5.96c0,0.08-0.07,0.12-0.2,0.12c-0.13,0-0.22-0.04-0.28-0.12c-0.39-2.01-1.12-3.52-2.19-4.53
			c-1.06-1.01-2.38-1.51-3.96-1.51h-1.65c-0.84,0-1.41,0.18-1.71,0.53c-0.3,0.35-0.45,1.01-0.45,1.98v7.49
			c1.05-0.16,2.1-0.23,3.15-0.23C448.61,113.13,450.85,113.71,452.62,114.86z M449.45,124.79c0.81-0.9,1.22-2.23,1.22-3.98
			c0-2.25-0.54-3.91-1.61-4.98c-1.08-1.07-2.59-1.61-4.53-1.61c-0.63,0-1.22,0.05-1.77,0.16v9.41c0,0.78,0.19,1.37,0.57,1.76
			c0.38,0.39,1.15,0.59,2.3,0.59C447.36,126.15,448.63,125.69,449.45,124.79z"/>
		<path class="st2" d="M485.75,126.73c0,0.16-0.07,0.24-0.2,0.24c-0.53,0-1.34-0.03-2.44-0.08c-1.16-0.05-1.98-0.08-2.48-0.08
			c-0.66,0-1.46,0.03-2.4,0.08c-0.89,0.05-1.6,0.08-2.13,0.08c-0.11,0-0.16-0.08-0.16-0.24s0.05-0.23,0.16-0.23
			c0.68,0,1.17-0.07,1.48-0.22c0.3-0.14,0.45-0.4,0.45-0.76c0-0.44-0.26-1.19-0.79-2.23l-2.68-5.29h-9.69l-1.54,3.41
			c-0.34,0.76-0.51,1.46-0.51,2.12c0,0.94,0.33,1.67,1,2.2c0.67,0.52,1.57,0.78,2.7,0.78c0.13,0,0.2,0.08,0.2,0.23
			s-0.07,0.24-0.2,0.24c-0.47,0-1.16-0.03-2.05-0.08c-1-0.05-1.86-0.08-2.6-0.08c-0.71,0-1.56,0.03-2.56,0.08
			c-0.89,0.05-1.61,0.08-2.17,0.08c-0.1,0-0.16-0.08-0.16-0.24s0.05-0.23,0.16-0.23c0.73,0,1.35-0.15,1.85-0.45
			c0.5-0.3,1-0.84,1.5-1.61c0.5-0.77,1.09-1.91,1.77-3.43l8.54-18.7c0.05-0.08,0.17-0.12,0.35-0.12c0.21,0,0.33,0.04,0.35,0.12
			l9.84,19.29c0.92,1.86,1.68,3.14,2.28,3.84c0.6,0.71,1.23,1.06,1.89,1.06C485.69,126.5,485.75,126.58,485.75,126.73z
			 M465.4,116.89h8.58l-4.53-8.94L465.4,116.89z"/>
		<path class="st2" d="M513.95,126.73c0,0.16-0.07,0.24-0.2,0.24c-0.53,0-1.34-0.03-2.44-0.08c-1.16-0.05-1.98-0.08-2.48-0.08
			c-0.66,0-1.46,0.03-2.4,0.08c-0.89,0.05-1.6,0.08-2.13,0.08c-0.11,0-0.16-0.08-0.16-0.24s0.05-0.23,0.16-0.23
			c0.68,0,1.17-0.07,1.48-0.22c0.3-0.14,0.45-0.4,0.45-0.76c0-0.44-0.26-1.19-0.79-2.23l-7.8-15.33l-6.1,13.45
			c-0.34,0.76-0.51,1.46-0.51,2.12c0,0.94,0.33,1.67,1,2.2c0.67,0.52,1.57,0.78,2.7,0.78c0.13,0,0.2,0.08,0.2,0.23
			s-0.07,0.24-0.2,0.24c-0.47,0-1.16-0.03-2.05-0.08c-1-0.05-1.86-0.08-2.6-0.08c-0.71,0-1.56,0.03-2.56,0.08
			c-0.89,0.05-1.61,0.08-2.17,0.08c-0.1,0-0.16-0.08-0.16-0.24s0.05-0.23,0.16-0.23c0.73,0,1.35-0.15,1.85-0.45
			c0.5-0.3,1-0.84,1.5-1.61c0.5-0.77,1.09-1.91,1.77-3.43l8.54-18.7c0.05-0.08,0.17-0.12,0.35-0.12c0.21,0,0.33,0.04,0.35,0.12
			l9.84,19.29c0.92,1.86,1.68,3.14,2.28,3.84c0.6,0.71,1.23,1.06,1.89,1.06C513.88,126.5,513.95,126.58,513.95,126.73z"/>
		<path class="st2" d="M533.4,120.66c0.08,0,0.15,0.02,0.22,0.06c0.07,0.04,0.1,0.07,0.1,0.1c-0.26,2.04-0.39,3.89-0.39,5.57
			c0,0.21-0.04,0.36-0.12,0.45c-0.08,0.09-0.24,0.14-0.47,0.14h-17.4c-0.08,0-0.12-0.08-0.12-0.24s0.04-0.23,0.12-0.23
			c0.84,0,1.45-0.06,1.83-0.2c0.38-0.13,0.64-0.39,0.77-0.76c0.13-0.38,0.2-0.96,0.2-1.74v-18.15c0-0.78-0.07-1.36-0.2-1.73
			c-0.13-0.37-0.39-0.62-0.79-0.76c-0.39-0.14-1-0.22-1.81-0.22c-0.08,0-0.12-0.08-0.12-0.23s0.04-0.24,0.12-0.24h16.7
			c0.26,0,0.39,0.12,0.39,0.35l0.08,5.21c0,0.05-0.07,0.09-0.22,0.12c-0.14,0.03-0.23,0-0.26-0.08c-0.42-1.52-1.13-2.64-2.13-3.37
			c-1-0.73-2.31-1.1-3.94-1.1h-1.18c-0.79,0-1.37,0.17-1.73,0.51c-0.37,0.34-0.55,0.86-0.55,1.57v8h3.27c1.52,0,2.69-0.26,3.5-0.78
			c0.81-0.52,1.22-1.25,1.22-2.2c0-0.08,0.07-0.12,0.22-0.12c0.14,0,0.22,0.04,0.22,0.12l-0.04,3.53l0.04,1.88
			c0.05,0.89,0.08,1.59,0.08,2.12c0,0.05-0.08,0.08-0.24,0.08c-0.16,0-0.24-0.03-0.24-0.08c0-1.07-0.41-1.91-1.24-2.53
			c-0.83-0.61-2.02-0.92-3.56-0.92h-3.23v8.86c0,0.76,0.14,1.32,0.43,1.69c0.29,0.37,0.75,0.55,1.38,0.55h1.3
			c2.05,0,3.69-0.42,4.92-1.25c1.23-0.84,2.14-2.13,2.72-3.88C533.24,120.68,533.3,120.66,533.4,120.66z"/>
		<path class="st2" d="M537.46,109.45c-0.03,0.08-0.1,0.11-0.24,0.1c-0.13-0.01-0.2-0.06-0.2-0.14c0.1-1.04,0.22-2.4,0.35-4.06
			c0.13-1.66,0.2-2.91,0.2-3.74c0-0.13,0.07-0.2,0.22-0.2c0.14,0,0.22,0.07,0.22,0.2c0,0.58,0.75,0.86,2.24,0.86
			c2.26,0.08,4.9,0.12,7.92,0.12c1.55,0,3.19-0.03,4.92-0.08l2.68-0.04c1,0,1.73-0.06,2.19-0.2c0.46-0.13,0.75-0.39,0.89-0.78
			c0.03-0.1,0.11-0.16,0.26-0.16c0.14,0,0.22,0.05,0.22,0.16c-0.08,0.78-0.16,2.04-0.26,3.76c-0.09,1.72-0.14,3.11-0.14,4.16
			c0,0.08-0.07,0.12-0.2,0.12s-0.21-0.04-0.24-0.12c-0.39-2.01-1.13-3.52-2.21-4.53c-1.08-1.01-2.4-1.51-3.98-1.51
			c-0.76,0-1.27,0.16-1.52,0.49c-0.25,0.33-0.37,0.95-0.37,1.86v18.07c0,0.81,0.08,1.4,0.24,1.76c0.16,0.37,0.46,0.61,0.91,0.74
			c0.45,0.13,1.15,0.2,2.13,0.2c0.08,0,0.12,0.08,0.12,0.23s-0.04,0.24-0.12,0.24c-0.95,0-1.69-0.01-2.24-0.04l-3.27-0.04
			l-3.19,0.04c-0.55,0.03-1.31,0.04-2.28,0.04c-0.08,0-0.12-0.08-0.12-0.24s0.04-0.23,0.12-0.23c0.95,0,1.65-0.06,2.11-0.2
			c0.46-0.13,0.77-0.39,0.94-0.76c0.17-0.38,0.26-0.96,0.26-1.74v-18.15c0-0.89-0.12-1.49-0.35-1.8c-0.24-0.31-0.72-0.47-1.46-0.47
			C541.07,103.37,538.82,105.4,537.46,109.45z"/>
		<path class="st2" d="M586.44,126.73c0,0.16-0.07,0.24-0.2,0.24c-0.53,0-1.34-0.03-2.44-0.08c-1.15-0.05-1.98-0.08-2.48-0.08
			c-0.66,0-1.46,0.03-2.4,0.08c-0.89,0.05-1.6,0.08-2.13,0.08c-0.1,0-0.16-0.08-0.16-0.24s0.05-0.23,0.16-0.23
			c0.68,0,1.18-0.07,1.48-0.22c0.3-0.14,0.45-0.4,0.45-0.76c0-0.44-0.26-1.19-0.79-2.23l-2.68-5.29h-9.69l-1.54,3.41
			c-0.34,0.76-0.51,1.46-0.51,2.12c0,0.94,0.33,1.67,1,2.2c0.67,0.52,1.57,0.78,2.7,0.78c0.13,0,0.2,0.08,0.2,0.23
			s-0.07,0.24-0.2,0.24c-0.47,0-1.16-0.03-2.05-0.08c-1-0.05-1.86-0.08-2.6-0.08c-0.71,0-1.56,0.03-2.56,0.08
			c-0.89,0.05-1.61,0.08-2.17,0.08c-0.1,0-0.16-0.08-0.16-0.24s0.05-0.23,0.16-0.23c0.73,0,1.35-0.15,1.85-0.45
			c0.5-0.3,1-0.84,1.5-1.61c0.5-0.77,1.09-1.91,1.77-3.43l8.55-18.7c0.05-0.08,0.17-0.12,0.35-0.12c0.21,0,0.33,0.04,0.36,0.12
			l9.84,19.29c0.92,1.86,1.68,3.14,2.28,3.84s1.23,1.06,1.89,1.06C586.38,126.5,586.44,126.58,586.44,126.73z M566.08,116.89h8.59
			l-4.53-8.94L566.08,116.89z"/>
	</g>
</g>
<g>
	<g>
		<g>
			<path class="st2" d="M180.28,90.35v-31.4c0-10.02,2.59-19.74,7.5-28.13c8.62-14.73,23.05-23.91,39.61-25.18
				c17.02-1.31,33.76,6,44.78,19.55c7.81,9.6,12.19,21.88,12.35,34.57l0.37,30.35L180.28,90.35z M231.3,9.49
				c-1.2,0-2.4,0.05-3.61,0.14c-15.23,1.17-28.52,9.63-36.46,23.22c-4.55,7.77-6.95,16.8-6.95,26.11v27.39l96.55-0.21l-0.32-26.31
				c-0.14-11.8-4.21-23.2-11.45-32.1C259.65,16.14,245.74,9.49,231.3,9.49z"/>
		</g>
		<g>
			<path class="st2" d="M68.48,90.35v-31.4c0-10.02,2.59-19.74,7.5-28.13c8.62-14.73,23.05-23.91,39.61-25.18
				c17.02-1.31,33.76,6,44.78,19.55c7.81,9.6,12.19,21.88,12.35,34.57l0.37,30.35L68.48,90.35z M119.5,9.49
				c-1.2,0-2.4,0.05-3.61,0.14c-15.23,1.17-28.52,9.63-36.46,23.22c-4.55,7.77-6.95,16.8-6.95,26.11v27.39l96.55-0.21l-0.32-26.31
				c-0.14-11.8-4.21-23.2-11.45-32.1C147.85,16.14,133.94,9.49,119.5,9.49z"/>
		</g>
		<g>
			<path class="st2" d="M5.48,90.24V5.47l2.05,0.05c15.29,0.4,29.7,7.56,39.55,19.66c7.81,9.6,12.19,21.88,12.35,34.57l0.37,30.35
				L5.48,90.24z M9.48,9.62v76.61l46.26-0.1l-0.32-26.31c-0.14-11.8-4.21-23.2-11.45-32.1l0,0C35.31,17.06,22.83,10.54,9.48,9.62z"
				/>
		</g>
	</g>
	<g>
		<path class="st2" d="M5.4,109.45c-0.03,0.08-0.1,0.11-0.24,0.1c-0.13-0.01-0.2-0.06-0.2-0.14c0.1-1.04,0.22-2.4,0.35-4.06
			c0.13-1.66,0.2-2.91,0.2-3.74c0-0.13,0.07-0.2,0.22-0.2c0.14,0,0.22,0.07,0.22,0.2c0,0.58,0.75,0.86,2.24,0.86
			c2.26,0.08,4.9,0.12,7.92,0.12c1.55,0,3.19-0.03,4.92-0.08l2.68-0.04c1,0,1.73-0.06,2.19-0.2c0.46-0.13,0.75-0.39,0.89-0.78
			c0.03-0.1,0.11-0.16,0.26-0.16c0.14,0,0.22,0.05,0.22,0.16c-0.08,0.78-0.16,2.04-0.26,3.76c-0.09,1.72-0.14,3.11-0.14,4.16
			c0,0.08-0.07,0.12-0.2,0.12s-0.21-0.04-0.24-0.12c-0.39-2.01-1.13-3.52-2.21-4.53c-1.08-1.01-2.4-1.51-3.98-1.51
			c-0.76,0-1.27,0.16-1.52,0.49c-0.25,0.33-0.37,0.95-0.37,1.86v18.07c0,0.81,0.08,1.4,0.24,1.76c0.16,0.37,0.46,0.61,0.91,0.74
			c0.45,0.13,1.15,0.2,2.13,0.2c0.08,0,0.12,0.08,0.12,0.23s-0.04,0.24-0.12,0.24c-0.95,0-1.69-0.01-2.24-0.04l-3.27-0.04
			l-3.19,0.04c-0.55,0.03-1.31,0.04-2.28,0.04c-0.08,0-0.12-0.08-0.12-0.24s0.04-0.23,0.12-0.23c0.95,0,1.65-0.06,2.11-0.2
			c0.46-0.13,0.77-0.39,0.94-0.76c0.17-0.38,0.26-0.96,0.26-1.74v-18.15c0-0.89-0.12-1.49-0.35-1.8c-0.24-0.31-0.72-0.47-1.46-0.47
			C9.01,103.37,6.77,105.4,5.4,109.45z"/>
		<path class="st2" d="M48.4,120.66c0.08,0,0.15,0.02,0.22,0.06c0.07,0.04,0.1,0.07,0.1,0.1c-0.26,2.04-0.39,3.89-0.39,5.57
			c0,0.21-0.04,0.36-0.12,0.45c-0.08,0.09-0.24,0.14-0.47,0.14h-17.4c-0.08,0-0.12-0.08-0.12-0.24s0.04-0.23,0.12-0.23
			c0.84,0,1.45-0.06,1.83-0.2c0.38-0.13,0.64-0.39,0.77-0.76c0.13-0.38,0.2-0.96,0.2-1.74v-18.15c0-0.78-0.07-1.36-0.2-1.73
			c-0.13-0.37-0.39-0.62-0.79-0.76c-0.39-0.14-1-0.22-1.81-0.22c-0.08,0-0.12-0.08-0.12-0.23s0.04-0.24,0.12-0.24h16.7
			c0.26,0,0.39,0.12,0.39,0.35l0.08,5.21c0,0.05-0.07,0.09-0.22,0.12c-0.14,0.03-0.23,0-0.26-0.08c-0.42-1.52-1.13-2.64-2.13-3.37
			c-1-0.73-2.31-1.1-3.94-1.1h-1.18c-0.79,0-1.37,0.17-1.73,0.51c-0.37,0.34-0.55,0.86-0.55,1.57v8h3.27c1.52,0,2.69-0.26,3.5-0.78
			c0.81-0.52,1.22-1.25,1.22-2.2c0-0.08,0.07-0.12,0.22-0.12c0.14,0,0.22,0.04,0.22,0.12l-0.04,3.53l0.04,1.88
			C45.97,117,46,117.7,46,118.23c0,0.05-0.08,0.08-0.24,0.08c-0.16,0-0.24-0.03-0.24-0.08c0-1.07-0.41-1.91-1.24-2.53
			c-0.83-0.61-2.02-0.92-3.56-0.92h-3.23v8.86c0,0.76,0.14,1.32,0.43,1.69c0.29,0.37,0.75,0.55,1.38,0.55h1.3
			c2.05,0,3.69-0.42,4.92-1.25c1.23-0.84,2.14-2.13,2.72-3.88C48.25,120.68,48.3,120.66,48.4,120.66z"/>
		<path class="st2" d="M78.88,126.73c0,0.16-0.07,0.24-0.2,0.24c-0.53,0-1.34-0.03-2.44-0.08c-1.16-0.05-1.98-0.08-2.48-0.08
			c-0.66,0-1.46,0.03-2.4,0.08c-0.89,0.05-1.6,0.08-2.13,0.08c-0.11,0-0.16-0.08-0.16-0.24s0.05-0.23,0.16-0.23
			c0.68,0,1.17-0.07,1.48-0.22c0.3-0.14,0.45-0.4,0.45-0.76c0-0.44-0.26-1.19-0.79-2.23l-2.68-5.29h-9.69l-1.54,3.41
			c-0.34,0.76-0.51,1.46-0.51,2.12c0,0.94,0.33,1.67,1,2.2c0.67,0.52,1.57,0.78,2.7,0.78c0.13,0,0.2,0.08,0.2,0.23
			s-0.07,0.24-0.2,0.24c-0.47,0-1.16-0.03-2.05-0.08c-1-0.05-1.86-0.08-2.6-0.08c-0.71,0-1.56,0.03-2.56,0.08
			c-0.89,0.05-1.61,0.08-2.17,0.08c-0.1,0-0.16-0.08-0.16-0.24s0.05-0.23,0.16-0.23c0.73,0,1.35-0.15,1.85-0.45
			c0.5-0.3,1-0.84,1.5-1.61c0.5-0.77,1.09-1.91,1.77-3.43l8.54-18.7c0.05-0.08,0.17-0.12,0.35-0.12c0.21,0,0.33,0.04,0.35,0.12
			l9.84,19.29c0.92,1.86,1.68,3.14,2.28,3.84c0.6,0.71,1.23,1.06,1.89,1.06C78.81,126.5,78.88,126.58,78.88,126.73z M58.52,116.89
			h8.58l-4.53-8.94L58.52,116.89z"/>
		<path class="st2" d="M77.9,109.45c-0.03,0.08-0.1,0.11-0.24,0.1c-0.13-0.01-0.2-0.06-0.2-0.14c0.1-1.04,0.22-2.4,0.35-4.06
			c0.13-1.66,0.2-2.91,0.2-3.74c0-0.13,0.07-0.2,0.22-0.2c0.14,0,0.22,0.07,0.22,0.2c0,0.58,0.75,0.86,2.24,0.86
			c2.26,0.08,4.9,0.12,7.92,0.12c1.55,0,3.19-0.03,4.92-0.08l2.68-0.04c1,0,1.73-0.06,2.19-0.2c0.46-0.13,0.75-0.39,0.89-0.78
			c0.03-0.1,0.11-0.16,0.26-0.16c0.14,0,0.22,0.05,0.22,0.16c-0.08,0.78-0.16,2.04-0.26,3.76c-0.09,1.72-0.14,3.11-0.14,4.16
			c0,0.08-0.07,0.12-0.2,0.12s-0.21-0.04-0.24-0.12c-0.39-2.01-1.13-3.52-2.21-4.53c-1.08-1.01-2.4-1.51-3.98-1.51
			c-0.76,0-1.27,0.16-1.52,0.49c-0.25,0.33-0.37,0.95-0.37,1.86v18.07c0,0.81,0.08,1.4,0.24,1.76c0.16,0.37,0.46,0.61,0.91,0.74
			c0.45,0.13,1.15,0.2,2.13,0.2c0.08,0,0.12,0.08,0.12,0.23s-0.04,0.24-0.12,0.24c-0.95,0-1.69-0.01-2.24-0.04l-3.27-0.04
			l-3.19,0.04c-0.55,0.03-1.31,0.04-2.28,0.04c-0.08,0-0.12-0.08-0.12-0.24s0.04-0.23,0.12-0.23c0.95,0,1.65-0.06,2.11-0.2
			c0.46-0.13,0.77-0.39,0.94-0.76c0.17-0.38,0.26-0.96,0.26-1.74v-18.15c0-0.89-0.12-1.49-0.35-1.8c-0.24-0.31-0.72-0.47-1.46-0.47
			C81.51,103.37,79.26,105.4,77.9,109.45z"/>
		<path class="st2" d="M109.99,125.46c0.18,0.38,0.53,0.65,1.04,0.8c0.51,0.16,1.33,0.24,2.46,0.24c0.08,0,0.12,0.08,0.12,0.23
			s-0.04,0.24-0.12,0.24c-1.08,0-1.92-0.01-2.52-0.04l-3.43-0.04l-2.87,0.04c-0.53,0.03-1.23,0.04-2.13,0.04
			c-0.08,0-0.12-0.08-0.12-0.24s0.04-0.23,0.12-0.23c0.84,0,1.45-0.06,1.83-0.2c0.38-0.13,0.64-0.39,0.77-0.76
			c0.13-0.38,0.2-0.96,0.2-1.74v-18.15c0-0.78-0.07-1.36-0.2-1.73c-0.13-0.37-0.39-0.62-0.79-0.76c-0.39-0.14-1-0.22-1.81-0.22
			c-0.08,0-0.12-0.08-0.12-0.23s0.04-0.24,0.12-0.24l2.09,0.04c1.21,0.05,2.17,0.08,2.88,0.08c0.63,0,1.38-0.04,2.24-0.12
			c0.34-0.03,0.77-0.05,1.3-0.08c0.52-0.03,1.13-0.04,1.81-0.04c2.68,0,4.79,0.56,6.34,1.67c1.55,1.11,2.32,2.83,2.32,5.15
			c0,1.62-0.42,2.99-1.26,4.12c-0.84,1.12-1.92,1.97-3.25,2.55c-1.33,0.58-2.68,0.86-4.08,0.86c-0.71,0-1.33-0.06-1.85-0.2
			c-0.05,0-0.08-0.06-0.08-0.2c0-0.08,0.02-0.16,0.06-0.23c0.04-0.08,0.08-0.1,0.14-0.08c0.39,0.1,0.84,0.16,1.34,0.16
			c1.21,0,2.21-0.56,3.01-1.69c0.8-1.12,1.2-2.72,1.2-4.78s-0.44-3.66-1.32-4.78c-0.88-1.12-2.16-1.69-3.84-1.69
			c-0.74,0-1.23,0.17-1.5,0.51c-0.26,0.34-0.39,1.01-0.39,2v17.91C109.71,124.47,109.81,125.08,109.99,125.46z"/>
		<path class="st2" d="M150.92,114.86c1.77,1.15,2.66,2.81,2.66,4.98c0,1.36-0.38,2.59-1.14,3.7c-0.76,1.11-1.83,1.99-3.19,2.63
			c-1.37,0.64-2.89,0.96-4.57,0.96c-0.71,0-1.56-0.04-2.56-0.12c-0.39-0.03-0.87-0.05-1.44-0.08c-0.56-0.03-1.19-0.04-1.87-0.04
			l-2.88,0.04c-0.53,0.03-1.23,0.04-2.13,0.04c-0.08,0-0.12-0.08-0.12-0.24s0.04-0.23,0.12-0.23c0.84,0,1.45-0.06,1.83-0.2
			c0.38-0.13,0.64-0.39,0.79-0.76c0.14-0.38,0.22-0.96,0.22-1.74v-18.15c0-0.78-0.07-1.36-0.2-1.73c-0.13-0.37-0.39-0.62-0.79-0.76
			c-0.39-0.14-1-0.22-1.81-0.22c-0.05,0-0.08-0.08-0.08-0.23s0.03-0.24,0.08-0.24h16.5c0.37,0,0.6,0.05,0.69,0.16
			c0.09,0.1,0.14,0.38,0.14,0.82l0.31,5.96c0,0.08-0.07,0.12-0.2,0.12c-0.13,0-0.22-0.04-0.28-0.12c-0.39-2.01-1.12-3.52-2.19-4.53
			c-1.06-1.01-2.38-1.51-3.96-1.51h-1.65c-0.84,0-1.41,0.18-1.71,0.53c-0.3,0.35-0.45,1.01-0.45,1.98v7.49
			c1.05-0.16,2.1-0.23,3.15-0.23C146.91,113.13,149.15,113.71,150.92,114.86z M147.75,124.79c0.81-0.9,1.22-2.23,1.22-3.98
			c0-2.25-0.54-3.91-1.61-4.98c-1.08-1.07-2.59-1.61-4.53-1.61c-0.63,0-1.22,0.05-1.77,0.16v9.41c0,0.78,0.19,1.37,0.57,1.76
			c0.38,0.39,1.15,0.59,2.3,0.59C145.67,126.15,146.94,125.69,147.75,124.79z"/>
		<path class="st2" d="M184.06,126.73c0,0.16-0.07,0.24-0.2,0.24c-0.53,0-1.34-0.03-2.44-0.08c-1.16-0.05-1.98-0.08-2.48-0.08
			c-0.66,0-1.46,0.03-2.4,0.08c-0.89,0.05-1.6,0.08-2.13,0.08c-0.11,0-0.16-0.08-0.16-0.24s0.05-0.23,0.16-0.23
			c0.68,0,1.17-0.07,1.48-0.22c0.3-0.14,0.45-0.4,0.45-0.76c0-0.44-0.26-1.19-0.79-2.23l-2.68-5.29h-9.69l-1.54,3.41
			c-0.34,0.76-0.51,1.46-0.51,2.12c0,0.94,0.33,1.67,1,2.2c0.67,0.52,1.57,0.78,2.7,0.78c0.13,0,0.2,0.08,0.2,0.23
			s-0.07,0.24-0.2,0.24c-0.47,0-1.16-0.03-2.05-0.08c-1-0.05-1.86-0.08-2.6-0.08c-0.71,0-1.56,0.03-2.56,0.08
			c-0.89,0.05-1.61,0.08-2.17,0.08c-0.1,0-0.16-0.08-0.16-0.24s0.05-0.23,0.16-0.23c0.73,0,1.35-0.15,1.85-0.45
			c0.5-0.3,1-0.84,1.5-1.61c0.5-0.77,1.09-1.91,1.77-3.43l8.54-18.7c0.05-0.08,0.17-0.12,0.35-0.12c0.21,0,0.33,0.04,0.35,0.12
			l9.84,19.29c0.92,1.86,1.68,3.14,2.28,3.84c0.6,0.71,1.23,1.06,1.89,1.06C183.99,126.5,184.06,126.58,184.06,126.73z
			 M163.7,116.89h8.58l-4.53-8.94L163.7,116.89z"/>
		<path class="st2" d="M212.25,126.73c0,0.16-0.07,0.24-0.2,0.24c-0.53,0-1.34-0.03-2.44-0.08c-1.16-0.05-1.98-0.08-2.48-0.08
			c-0.66,0-1.46,0.03-2.4,0.08c-0.89,0.05-1.6,0.08-2.13,0.08c-0.11,0-0.16-0.08-0.16-0.24s0.05-0.23,0.16-0.23
			c0.68,0,1.17-0.07,1.48-0.22c0.3-0.14,0.45-0.4,0.45-0.76c0-0.44-0.26-1.19-0.79-2.23l-7.8-15.33l-6.1,13.45
			c-0.34,0.76-0.51,1.46-0.51,2.12c0,0.94,0.33,1.67,1,2.2c0.67,0.52,1.57,0.78,2.7,0.78c0.13,0,0.2,0.08,0.2,0.23
			s-0.07,0.24-0.2,0.24c-0.47,0-1.16-0.03-2.05-0.08c-1-0.05-1.86-0.08-2.6-0.08c-0.71,0-1.56,0.03-2.56,0.08
			c-0.89,0.05-1.61,0.08-2.17,0.08c-0.1,0-0.16-0.08-0.16-0.24s0.05-0.23,0.16-0.23c0.73,0,1.35-0.15,1.85-0.45
			c0.5-0.3,1-0.84,1.5-1.61c0.5-0.77,1.09-1.91,1.77-3.43l8.54-18.7c0.05-0.08,0.17-0.12,0.35-0.12c0.21,0,0.33,0.04,0.35,0.12
			l9.84,19.29c0.92,1.86,1.68,3.14,2.28,3.84c0.6,0.71,1.23,1.06,1.89,1.06C212.19,126.5,212.25,126.58,212.25,126.73z"/>
		<path class="st2" d="M231.71,120.66c0.08,0,0.15,0.02,0.22,0.06c0.07,0.04,0.1,0.07,0.1,0.1c-0.26,2.04-0.39,3.89-0.39,5.57
			c0,0.21-0.04,0.36-0.12,0.45c-0.08,0.09-0.24,0.14-0.47,0.14h-17.4c-0.08,0-0.12-0.08-0.12-0.24s0.04-0.23,0.12-0.23
			c0.84,0,1.45-0.06,1.83-0.2c0.38-0.13,0.64-0.39,0.77-0.76c0.13-0.38,0.2-0.96,0.2-1.74v-18.15c0-0.78-0.07-1.36-0.2-1.73
			c-0.13-0.37-0.39-0.62-0.79-0.76c-0.39-0.14-1-0.22-1.81-0.22c-0.08,0-0.12-0.08-0.12-0.23s0.04-0.24,0.12-0.24h16.7
			c0.26,0,0.39,0.12,0.39,0.35l0.08,5.21c0,0.05-0.07,0.09-0.22,0.12c-0.14,0.03-0.23,0-0.26-0.08c-0.42-1.52-1.13-2.64-2.13-3.37
			c-1-0.73-2.31-1.1-3.94-1.1h-1.18c-0.79,0-1.37,0.17-1.73,0.51c-0.37,0.34-0.55,0.86-0.55,1.57v8h3.27c1.52,0,2.69-0.26,3.5-0.78
			c0.81-0.52,1.22-1.25,1.22-2.2c0-0.08,0.07-0.12,0.22-0.12c0.14,0,0.22,0.04,0.22,0.12l-0.04,3.53l0.04,1.88
			c0.05,0.89,0.08,1.59,0.08,2.12c0,0.05-0.08,0.08-0.24,0.08c-0.16,0-0.24-0.03-0.24-0.08c0-1.07-0.41-1.91-1.24-2.53
			c-0.83-0.61-2.02-0.92-3.56-0.92h-3.23v8.86c0,0.76,0.14,1.32,0.43,1.69c0.29,0.37,0.75,0.55,1.38,0.55h1.3
			c2.05,0,3.69-0.42,4.92-1.25c1.23-0.84,2.14-2.13,2.72-3.88C231.55,120.68,231.6,120.66,231.71,120.66z"/>
		<path class="st2" d="M235.76,109.45c-0.03,0.08-0.1,0.11-0.24,0.1c-0.13-0.01-0.2-0.06-0.2-0.14c0.1-1.04,0.22-2.4,0.35-4.06
			c0.13-1.66,0.2-2.91,0.2-3.74c0-0.13,0.07-0.2,0.22-0.2c0.14,0,0.22,0.07,0.22,0.2c0,0.58,0.75,0.86,2.24,0.86
			c2.26,0.08,4.9,0.12,7.92,0.12c1.55,0,3.19-0.03,4.92-0.08l2.68-0.04c1,0,1.73-0.06,2.19-0.2c0.46-0.13,0.75-0.39,0.89-0.78
			c0.03-0.1,0.11-0.16,0.26-0.16c0.14,0,0.22,0.05,0.22,0.16c-0.08,0.78-0.16,2.04-0.26,3.76c-0.09,1.72-0.14,3.11-0.14,4.16
			c0,0.08-0.07,0.12-0.2,0.12s-0.21-0.04-0.24-0.12c-0.39-2.01-1.13-3.52-2.21-4.53c-1.08-1.01-2.4-1.51-3.98-1.51
			c-0.76,0-1.27,0.16-1.52,0.49c-0.25,0.33-0.37,0.95-0.37,1.86v18.07c0,0.81,0.08,1.4,0.24,1.76c0.16,0.37,0.46,0.61,0.91,0.74
			c0.45,0.13,1.15,0.2,2.13,0.2c0.08,0,0.12,0.08,0.12,0.23s-0.04,0.24-0.12,0.24c-0.95,0-1.69-0.01-2.24-0.04l-3.27-0.04
			l-3.19,0.04c-0.55,0.03-1.31,0.04-2.28,0.04c-0.08,0-0.12-0.08-0.12-0.24s0.04-0.23,0.12-0.23c0.95,0,1.65-0.06,2.11-0.2
			c0.46-0.13,0.77-0.39,0.94-0.76c0.17-0.38,0.26-0.96,0.26-1.74v-18.15c0-0.89-0.12-1.49-0.35-1.8c-0.24-0.31-0.72-0.47-1.46-0.47
			C239.37,103.37,237.13,105.4,235.76,109.45z"/>
		<path class="st2" d="M284.75,126.73c0,0.16-0.07,0.24-0.2,0.24c-0.53,0-1.34-0.03-2.44-0.08c-1.15-0.05-1.98-0.08-2.48-0.08
			c-0.66,0-1.46,0.03-2.4,0.08c-0.89,0.05-1.6,0.08-2.13,0.08c-0.1,0-0.16-0.08-0.16-0.24s0.05-0.23,0.16-0.23
			c0.68,0,1.18-0.07,1.48-0.22c0.3-0.14,0.45-0.4,0.45-0.76c0-0.44-0.26-1.19-0.79-2.23l-2.68-5.29h-9.69l-1.54,3.41
			c-0.34,0.76-0.51,1.46-0.51,2.12c0,0.94,0.33,1.67,1,2.2c0.67,0.52,1.57,0.78,2.7,0.78c0.13,0,0.2,0.08,0.2,0.23
			s-0.07,0.24-0.2,0.24c-0.47,0-1.16-0.03-2.05-0.08c-1-0.05-1.86-0.08-2.6-0.08c-0.71,0-1.56,0.03-2.56,0.08
			c-0.89,0.05-1.61,0.08-2.17,0.08c-0.1,0-0.16-0.08-0.16-0.24s0.05-0.23,0.16-0.23c0.73,0,1.35-0.15,1.85-0.45
			c0.5-0.3,1-0.84,1.5-1.61c0.5-0.77,1.09-1.91,1.77-3.43l8.55-18.7c0.05-0.08,0.17-0.12,0.35-0.12c0.21,0,0.33,0.04,0.36,0.12
			l9.84,19.29c0.92,1.86,1.68,3.14,2.28,3.84s1.23,1.06,1.89,1.06C284.68,126.5,284.75,126.58,284.75,126.73z M264.39,116.89h8.59
			l-4.53-8.94L264.39,116.89z"/>
	</g>
	<g>
		<path class="st2" d="M85,132.94h1.24v11.58h0.11l8.18-11.58h1.23v13.82H94.5v-11.57h-0.11l-8.17,11.57H85V132.94z"/>
		<path class="st2" d="M99.43,132.94h1.46l5.01,12.04h0.12l5.01-12.04h1.46v13.82h-1.19v-11.15h-0.11l-4.66,11.15h-1.15l-4.66-11.15
			h-0.11v11.15h-1.19V132.94z"/>
		<path class="st2" d="M116.16,146.76v-13.82h8.02v1.13h-6.75v5.2h6.33v1.13h-6.33v5.22h6.89v1.13H116.16z"/>
		<path class="st2" d="M127.44,146.76v-13.82h1.26v6.34h7.84v-6.34h1.26v13.82h-1.26v-6.35h-7.84v6.35H127.44z"/>
		<path class="st2" d="M141.47,132.94h1.24v11.58h0.11l8.18-11.58h1.23v13.82h-1.26v-11.57h-0.11l-8.17,11.57h-1.22V132.94z"/>
		<path class="st2" d="M159.94,146.76v-1.17h0.36c0.57,0,1.02-0.19,1.36-0.57c0.33-0.38,0.58-0.99,0.74-1.83
			c0.16-0.84,0.26-1.95,0.31-3.32l0.24-6.93h8.11v13.82h-1.26v-12.68h-5.65l-0.22,6.07c-0.05,1.46-0.19,2.68-0.4,3.66
			c-0.22,0.98-0.57,1.71-1.08,2.21s-1.21,0.74-2.12,0.74H159.94z"/>
		<path class="st2" d="M175.44,146.86c-0.27,0-0.49-0.1-0.68-0.29c-0.19-0.19-0.29-0.42-0.29-0.69c0-0.27,0.1-0.5,0.29-0.69
			c0.19-0.19,0.42-0.28,0.68-0.28c0.27,0,0.5,0.09,0.69,0.28s0.28,0.42,0.28,0.69c0,0.18-0.04,0.34-0.13,0.49
			c-0.09,0.15-0.2,0.27-0.35,0.35C175.78,146.82,175.62,146.86,175.44,146.86z"/>
		<path class="st2" d="M182.64,140.52h1.42l-3.37,6.23h-1.46L182.64,140.52z M188.73,146.76h-1.26v-12.68h-3.16
			c-0.73,0-1.33,0.12-1.81,0.37s-0.84,0.6-1.08,1.05c-0.24,0.45-0.36,0.98-0.36,1.58s0.12,1.12,0.35,1.57
			c0.24,0.44,0.59,0.78,1.07,1.02c0.48,0.24,1.08,0.36,1.8,0.36h3.77v1.15h-3.8c-0.97,0-1.79-0.17-2.44-0.52
			c-0.66-0.35-1.15-0.83-1.49-1.44c-0.33-0.62-0.5-1.33-0.5-2.13s0.17-1.52,0.5-2.14s0.83-1.11,1.49-1.46
			c0.66-0.35,1.48-0.53,2.46-0.53h4.46V146.76z"/>
		<path class="st2" d="M200.41,146.76l-4.76-6.52h-1.99v6.52h-1.26v-13.82h1.26v6.17h1.25l5.09-6.17h1.5l-5.12,6.23l5.54,7.59
			H200.41z"/>
		<path class="st2" d="M214.94,139.85c0,1.44-0.26,2.69-0.77,3.75s-1.22,1.89-2.12,2.47c-0.9,0.58-1.93,0.87-3.09,0.87
			s-2.2-0.29-3.09-0.87c-0.9-0.58-1.6-1.41-2.11-2.47c-0.51-1.06-0.77-2.32-0.77-3.75s0.26-2.69,0.77-3.75
			c0.51-1.06,1.22-1.89,2.12-2.47c0.9-0.58,1.93-0.87,3.09-0.87c1.17,0,2.2,0.29,3.09,0.87s1.6,1.41,2.12,2.47
			C214.69,137.16,214.94,138.41,214.94,139.85z M213.72,139.85c0-1.24-0.21-2.3-0.62-3.18s-0.98-1.56-1.69-2.03
			c-0.72-0.47-1.53-0.7-2.44-0.7c-0.9,0-1.71,0.23-2.43,0.7s-1.28,1.14-1.7,2.02c-0.42,0.88-0.62,1.94-0.62,3.18
			c0,1.24,0.21,2.3,0.62,3.18c0.41,0.88,0.98,1.56,1.69,2.03s1.53,0.71,2.44,0.71s1.72-0.23,2.44-0.7c0.72-0.47,1.28-1.14,1.7-2.03
			C213.52,142.15,213.72,141.09,213.72,139.85z"/>
		<path class="st2" d="M217.99,146.76v-13.82h8.06v1.13h-6.8v4.94h3.92c0.92,0,1.71,0.16,2.35,0.47c0.65,0.31,1.14,0.75,1.48,1.32
			c0.34,0.57,0.51,1.23,0.51,2c0,0.79-0.17,1.48-0.51,2.08c-0.34,0.59-0.83,1.06-1.48,1.39c-0.65,0.33-1.43,0.5-2.36,0.5H217.99z
			 M219.26,145.64h3.92c0.66,0,1.22-0.13,1.68-0.39c0.46-0.26,0.81-0.6,1.06-1.04c0.24-0.43,0.36-0.92,0.36-1.45
			c0-0.74-0.27-1.36-0.82-1.87c-0.55-0.5-1.31-0.75-2.28-0.75h-3.92V145.64z"/>
		<path class="st2" d="M241.39,137.26h-1.27c-0.09-0.47-0.26-0.91-0.51-1.31c-0.25-0.4-0.55-0.75-0.92-1.06
			c-0.37-0.3-0.79-0.54-1.26-0.7s-0.97-0.25-1.52-0.25c-0.87,0-1.67,0.23-2.38,0.68c-0.72,0.45-1.29,1.12-1.72,2
			s-0.64,1.96-0.64,3.23c0,1.28,0.21,2.36,0.64,3.24s1,1.54,1.72,1.99c0.72,0.45,1.51,0.68,2.38,0.68c0.54,0,1.05-0.08,1.52-0.25
			s0.89-0.4,1.26-0.7c0.37-0.3,0.68-0.65,0.92-1.06s0.42-0.84,0.51-1.32h1.27c-0.11,0.63-0.32,1.22-0.63,1.77
			c-0.31,0.55-0.7,1.02-1.17,1.43c-0.47,0.41-1.02,0.73-1.64,0.96c-0.62,0.23-1.29,0.34-2.03,0.34c-1.16,0-2.19-0.29-3.09-0.87
			c-0.9-0.58-1.6-1.4-2.12-2.47c-0.51-1.06-0.77-2.31-0.77-3.76s0.26-2.7,0.77-3.76c0.51-1.06,1.22-1.88,2.12-2.47
			c0.9-0.58,1.93-0.87,3.09-0.87c0.74,0,1.41,0.11,2.03,0.34c0.62,0.23,1.16,0.55,1.64,0.96c0.47,0.41,0.87,0.89,1.17,1.43
			S241.27,136.62,241.39,137.26z"/>
		<path class="st2" d="M255.68,139.85c0,1.44-0.26,2.69-0.77,3.75c-0.51,1.06-1.22,1.89-2.12,2.47c-0.9,0.58-1.93,0.87-3.09,0.87
			c-1.16,0-2.2-0.29-3.09-0.87c-0.9-0.58-1.6-1.41-2.11-2.47c-0.51-1.06-0.77-2.32-0.77-3.75s0.26-2.69,0.77-3.75
			c0.51-1.06,1.22-1.89,2.11-2.47c0.9-0.58,1.93-0.87,3.09-0.87c1.17,0,2.2,0.29,3.09,0.87c0.9,0.58,1.6,1.41,2.12,2.47
			C255.43,137.16,255.68,138.41,255.68,139.85z M254.46,139.85c0-1.24-0.21-2.3-0.62-3.18c-0.41-0.88-0.98-1.56-1.7-2.03
			c-0.71-0.47-1.53-0.7-2.44-0.7c-0.9,0-1.71,0.23-2.43,0.7s-1.28,1.14-1.7,2.02c-0.42,0.88-0.62,1.94-0.62,3.18
			c0,1.24,0.21,2.3,0.62,3.18c0.41,0.88,0.98,1.56,1.69,2.03s1.53,0.71,2.44,0.71c0.91,0,1.72-0.23,2.44-0.7s1.28-1.14,1.7-2.03
			C254.26,142.15,254.46,141.09,254.46,139.85z"/>
		<path class="st2" d="M258.73,146.76v-13.82H260v6.34h7.84v-6.34h1.26v13.82h-1.26v-6.35H260v6.35H258.73z"/>
		<path class="st2" d="M272.79,146.76h-1.32l5.03-13.82h1.35l5.03,13.82h-1.32l-4.33-12.18h-0.09L272.79,146.76z M273.74,141.46
			h6.86v1.13h-6.86V141.46z"/>
	</g>
</g>
<g class="st0">
	<g class="st1">
		<g>
			<path d="M180.28-82.05v-31.4c0-10.02,2.59-19.74,7.5-28.13c8.62-14.73,23.05-23.91,39.61-25.18c17.02-1.31,33.76,6,44.78,19.55
				c7.81,9.6,12.19,21.88,12.35,34.57l0.37,30.35L180.28-82.05z M231.3-162.91c-1.2,0-2.4,0.05-3.61,0.14
				c-15.23,1.17-28.52,9.63-36.46,23.22c-4.55,7.77-6.95,16.8-6.95,26.11v27.39l96.55-0.21l-0.32-26.31
				c-0.14-11.8-4.21-23.2-11.45-32.1C259.65-156.26,245.74-162.91,231.3-162.91z"/>
		</g>
		<g>
			<path d="M68.48-82.05v-31.4c0-10.02,2.59-19.74,7.5-28.13c8.62-14.73,23.05-23.91,39.61-25.18c17.02-1.31,33.76,6,44.78,19.55
				c7.81,9.6,12.19,21.88,12.35,34.57l0.37,30.35L68.48-82.05z M119.5-162.91c-1.2,0-2.4,0.05-3.61,0.14
				c-15.23,1.17-28.52,9.63-36.46,23.22c-4.55,7.77-6.95,16.8-6.95,26.11v27.39l96.55-0.21l-0.32-26.31
				c-0.14-11.8-4.21-23.2-11.45-32.1C147.85-156.26,133.94-162.91,119.5-162.91z"/>
		</g>
		<g>
			<path d="M5.48-82.16v-84.77l2.05,0.05c15.29,0.4,29.7,7.56,39.55,19.66c7.81,9.6,12.19,21.88,12.35,34.57l0.37,30.35L5.48-82.16z
				 M9.48-162.78v76.61l46.26-0.1l-0.32-26.31c-0.14-11.8-4.21-23.2-11.45-32.1l0,0C35.31-155.34,22.83-161.85,9.48-162.78z"/>
		</g>
	</g>
	<g class="st1">
		<path d="M5.4-62.95c-0.03,0.08-0.1,0.11-0.24,0.1c-0.13-0.01-0.2-0.06-0.2-0.14c0.1-1.04,0.22-2.4,0.35-4.06
			c0.13-1.66,0.2-2.91,0.2-3.74c0-0.13,0.07-0.2,0.22-0.2c0.14,0,0.22,0.07,0.22,0.2c0,0.58,0.75,0.86,2.24,0.86
			c2.26,0.08,4.9,0.12,7.92,0.12c1.55,0,3.19-0.03,4.92-0.08l2.68-0.04c1,0,1.73-0.06,2.19-0.2c0.46-0.13,0.75-0.39,0.89-0.78
			c0.03-0.1,0.11-0.16,0.26-0.16c0.14,0,0.22,0.05,0.22,0.16c-0.08,0.78-0.16,2.04-0.26,3.76c-0.09,1.72-0.14,3.11-0.14,4.16
			c0,0.08-0.07,0.12-0.2,0.12s-0.21-0.04-0.24-0.12c-0.39-2.01-1.13-3.52-2.21-4.53c-1.08-1.01-2.4-1.51-3.98-1.51
			c-0.76,0-1.27,0.16-1.52,0.49c-0.25,0.33-0.37,0.95-0.37,1.86v18.07c0,0.81,0.08,1.4,0.24,1.76c0.16,0.37,0.46,0.61,0.91,0.74
			c0.45,0.13,1.15,0.2,2.13,0.2c0.08,0,0.12,0.08,0.12,0.23s-0.04,0.24-0.12,0.24c-0.95,0-1.69-0.01-2.24-0.04l-3.27-0.04
			l-3.19,0.04c-0.55,0.03-1.31,0.04-2.28,0.04c-0.08,0-0.12-0.08-0.12-0.24s0.04-0.23,0.12-0.23c0.95,0,1.65-0.06,2.11-0.2
			c0.46-0.13,0.77-0.39,0.94-0.76c0.17-0.38,0.26-0.96,0.26-1.74v-18.15c0-0.89-0.12-1.49-0.35-1.8c-0.24-0.31-0.72-0.47-1.46-0.47
			C9.01-69.03,6.77-67,5.4-62.95z"/>
		<path d="M48.4-51.74c0.08,0,0.15,0.02,0.22,0.06c0.07,0.04,0.1,0.07,0.1,0.1c-0.26,2.04-0.39,3.89-0.39,5.57
			c0,0.21-0.04,0.36-0.12,0.45c-0.08,0.09-0.24,0.14-0.47,0.14h-17.4c-0.08,0-0.12-0.08-0.12-0.24s0.04-0.23,0.12-0.23
			c0.84,0,1.45-0.06,1.83-0.2c0.38-0.13,0.64-0.39,0.77-0.76c0.13-0.38,0.2-0.96,0.2-1.74v-18.15c0-0.78-0.07-1.36-0.2-1.73
			c-0.13-0.37-0.39-0.62-0.79-0.76c-0.39-0.14-1-0.22-1.81-0.22c-0.08,0-0.12-0.08-0.12-0.23s0.04-0.24,0.12-0.24h16.7
			c0.26,0,0.39,0.12,0.39,0.35l0.08,5.21c0,0.05-0.07,0.09-0.22,0.12c-0.14,0.03-0.23,0-0.26-0.08c-0.42-1.52-1.13-2.64-2.13-3.37
			c-1-0.73-2.31-1.1-3.94-1.1h-1.18c-0.79,0-1.37,0.17-1.73,0.51c-0.37,0.34-0.55,0.86-0.55,1.57v8h3.27c1.52,0,2.69-0.26,3.5-0.78
			c0.81-0.52,1.22-1.25,1.22-2.2c0-0.08,0.07-0.12,0.22-0.12c0.14,0,0.22,0.04,0.22,0.12l-0.04,3.53l0.04,1.88
			C45.97-55.4,46-54.69,46-54.17c0,0.05-0.08,0.08-0.24,0.08c-0.16,0-0.24-0.03-0.24-0.08c0-1.07-0.41-1.91-1.24-2.53
			c-0.83-0.61-2.02-0.92-3.56-0.92h-3.23v8.86c0,0.76,0.14,1.32,0.43,1.69c0.29,0.37,0.75,0.55,1.38,0.55h1.3
			c2.05,0,3.69-0.42,4.92-1.25c1.23-0.84,2.14-2.13,2.72-3.88C48.25-51.71,48.3-51.74,48.4-51.74z"/>
		<path d="M78.88-45.66c0,0.16-0.07,0.24-0.2,0.24c-0.53,0-1.34-0.03-2.44-0.08c-1.16-0.05-1.98-0.08-2.48-0.08
			c-0.66,0-1.46,0.03-2.4,0.08c-0.89,0.05-1.6,0.08-2.13,0.08c-0.11,0-0.16-0.08-0.16-0.24s0.05-0.23,0.16-0.23
			c0.68,0,1.17-0.07,1.48-0.22c0.3-0.14,0.45-0.4,0.45-0.76c0-0.44-0.26-1.19-0.79-2.23l-2.68-5.29h-9.69L56.47-51
			c-0.34,0.76-0.51,1.46-0.51,2.12c0,0.94,0.33,1.67,1,2.2c0.67,0.52,1.57,0.78,2.7,0.78c0.13,0,0.2,0.08,0.2,0.23
			s-0.07,0.24-0.2,0.24c-0.47,0-1.16-0.03-2.05-0.08c-1-0.05-1.86-0.08-2.6-0.08c-0.71,0-1.56,0.03-2.56,0.08
			c-0.89,0.05-1.61,0.08-2.17,0.08c-0.1,0-0.16-0.08-0.16-0.24s0.05-0.23,0.16-0.23c0.73,0,1.35-0.15,1.85-0.45
			c0.5-0.3,1-0.84,1.5-1.61c0.5-0.77,1.09-1.91,1.77-3.43l8.54-18.7c0.05-0.08,0.17-0.12,0.35-0.12c0.21,0,0.33,0.04,0.35,0.12
			l9.84,19.29c0.92,1.86,1.68,3.14,2.28,3.84c0.6,0.71,1.23,1.06,1.89,1.06C78.81-45.9,78.88-45.82,78.88-45.66z M58.52-55.5h8.58
			l-4.53-8.94L58.52-55.5z"/>
		<path d="M77.9-62.95c-0.03,0.08-0.1,0.11-0.24,0.1c-0.13-0.01-0.2-0.06-0.2-0.14c0.1-1.04,0.22-2.4,0.35-4.06
			c0.13-1.66,0.2-2.91,0.2-3.74c0-0.13,0.07-0.2,0.22-0.2c0.14,0,0.22,0.07,0.22,0.2c0,0.58,0.75,0.86,2.24,0.86
			c2.26,0.08,4.9,0.12,7.92,0.12c1.55,0,3.19-0.03,4.92-0.08l2.68-0.04c1,0,1.73-0.06,2.19-0.2c0.46-0.13,0.75-0.39,0.89-0.78
			c0.03-0.1,0.11-0.16,0.26-0.16c0.14,0,0.22,0.05,0.22,0.16c-0.08,0.78-0.16,2.04-0.26,3.76c-0.09,1.72-0.14,3.11-0.14,4.16
			c0,0.08-0.07,0.12-0.2,0.12s-0.21-0.04-0.24-0.12c-0.39-2.01-1.13-3.52-2.21-4.53c-1.08-1.01-2.4-1.51-3.98-1.51
			c-0.76,0-1.27,0.16-1.52,0.49c-0.25,0.33-0.37,0.95-0.37,1.86v18.07c0,0.81,0.08,1.4,0.24,1.76c0.16,0.37,0.46,0.61,0.91,0.74
			c0.45,0.13,1.15,0.2,2.13,0.2c0.08,0,0.12,0.08,0.12,0.23s-0.04,0.24-0.12,0.24c-0.95,0-1.69-0.01-2.24-0.04l-3.27-0.04
			l-3.19,0.04c-0.55,0.03-1.31,0.04-2.28,0.04c-0.08,0-0.12-0.08-0.12-0.24s0.04-0.23,0.12-0.23c0.95,0,1.65-0.06,2.11-0.2
			c0.46-0.13,0.77-0.39,0.94-0.76c0.17-0.38,0.26-0.96,0.26-1.74v-18.15c0-0.89-0.12-1.49-0.35-1.8c-0.24-0.31-0.72-0.47-1.46-0.47
			C81.51-69.03,79.26-67,77.9-62.95z"/>
		<path d="M109.99-46.94c0.18,0.38,0.53,0.65,1.04,0.8c0.51,0.16,1.33,0.24,2.46,0.24c0.08,0,0.12,0.08,0.12,0.23
			s-0.04,0.24-0.12,0.24c-1.08,0-1.92-0.01-2.52-0.04l-3.43-0.04l-2.87,0.04c-0.53,0.03-1.23,0.04-2.13,0.04
			c-0.08,0-0.12-0.08-0.12-0.24s0.04-0.23,0.12-0.23c0.84,0,1.45-0.06,1.83-0.2c0.38-0.13,0.64-0.39,0.77-0.76
			c0.13-0.38,0.2-0.96,0.2-1.74v-18.15c0-0.78-0.07-1.36-0.2-1.73c-0.13-0.37-0.39-0.62-0.79-0.76c-0.39-0.14-1-0.22-1.81-0.22
			c-0.08,0-0.12-0.08-0.12-0.23s0.04-0.24,0.12-0.24l2.09,0.04c1.21,0.05,2.17,0.08,2.88,0.08c0.63,0,1.38-0.04,2.24-0.12
			c0.34-0.03,0.77-0.05,1.3-0.08c0.52-0.03,1.13-0.04,1.81-0.04c2.68,0,4.79,0.56,6.34,1.67c1.55,1.11,2.32,2.83,2.32,5.15
			c0,1.62-0.42,2.99-1.26,4.12c-0.84,1.12-1.92,1.97-3.25,2.55c-1.33,0.58-2.68,0.86-4.08,0.86c-0.71,0-1.33-0.06-1.85-0.2
			c-0.05,0-0.08-0.06-0.08-0.2c0-0.08,0.02-0.16,0.06-0.23c0.04-0.08,0.08-0.1,0.14-0.08c0.39,0.1,0.84,0.16,1.34,0.16
			c1.21,0,2.21-0.56,3.01-1.69c0.8-1.12,1.2-2.72,1.2-4.78c0-2.06-0.44-3.66-1.32-4.78c-0.88-1.12-2.16-1.69-3.84-1.69
			c-0.74,0-1.23,0.17-1.5,0.51c-0.26,0.34-0.39,1.01-0.39,2v17.91C109.71-47.92,109.81-47.32,109.99-46.94z"/>
		<path d="M150.92-57.54c1.77,1.15,2.66,2.81,2.66,4.98c0,1.36-0.38,2.59-1.14,3.7c-0.76,1.11-1.83,1.99-3.19,2.63
			c-1.37,0.64-2.89,0.96-4.57,0.96c-0.71,0-1.56-0.04-2.56-0.12c-0.39-0.03-0.87-0.05-1.44-0.08c-0.56-0.03-1.19-0.04-1.87-0.04
			l-2.88,0.04c-0.53,0.03-1.23,0.04-2.13,0.04c-0.08,0-0.12-0.08-0.12-0.24s0.04-0.23,0.12-0.23c0.84,0,1.45-0.06,1.83-0.2
			c0.38-0.13,0.64-0.39,0.79-0.76c0.14-0.38,0.22-0.96,0.22-1.74v-18.15c0-0.78-0.07-1.36-0.2-1.73c-0.13-0.37-0.39-0.62-0.79-0.76
			c-0.39-0.14-1-0.22-1.81-0.22c-0.05,0-0.08-0.08-0.08-0.23s0.03-0.24,0.08-0.24h16.5c0.37,0,0.6,0.05,0.69,0.16
			c0.09,0.1,0.14,0.38,0.14,0.82l0.31,5.96c0,0.08-0.07,0.12-0.2,0.12c-0.13,0-0.22-0.04-0.28-0.12c-0.39-2.01-1.12-3.52-2.19-4.53
			c-1.06-1.01-2.38-1.51-3.96-1.51h-1.65c-0.84,0-1.41,0.18-1.71,0.53c-0.3,0.35-0.45,1.01-0.45,1.98v7.49
			c1.05-0.16,2.1-0.23,3.15-0.23C146.91-59.27,149.15-58.69,150.92-57.54z M147.75-47.6c0.81-0.9,1.22-2.23,1.22-3.98
			c0-2.25-0.54-3.91-1.61-4.98c-1.08-1.07-2.59-1.61-4.53-1.61c-0.63,0-1.22,0.05-1.77,0.16v9.41c0,0.78,0.19,1.37,0.57,1.76
			c0.38,0.39,1.15,0.59,2.3,0.59C145.67-46.25,146.94-46.7,147.75-47.6z"/>
		<path d="M184.06-45.66c0,0.16-0.07,0.24-0.2,0.24c-0.53,0-1.34-0.03-2.44-0.08c-1.16-0.05-1.98-0.08-2.48-0.08
			c-0.66,0-1.46,0.03-2.4,0.08c-0.89,0.05-1.6,0.08-2.13,0.08c-0.11,0-0.16-0.08-0.16-0.24s0.05-0.23,0.16-0.23
			c0.68,0,1.17-0.07,1.48-0.22c0.3-0.14,0.45-0.4,0.45-0.76c0-0.44-0.26-1.19-0.79-2.23l-2.68-5.29h-9.69L161.65-51
			c-0.34,0.76-0.51,1.46-0.51,2.12c0,0.94,0.33,1.67,1,2.2c0.67,0.52,1.57,0.78,2.7,0.78c0.13,0,0.2,0.08,0.2,0.23
			s-0.07,0.24-0.2,0.24c-0.47,0-1.16-0.03-2.05-0.08c-1-0.05-1.86-0.08-2.6-0.08c-0.71,0-1.56,0.03-2.56,0.08
			c-0.89,0.05-1.61,0.08-2.17,0.08c-0.1,0-0.16-0.08-0.16-0.24s0.05-0.23,0.16-0.23c0.73,0,1.35-0.15,1.85-0.45
			c0.5-0.3,1-0.84,1.5-1.61c0.5-0.77,1.09-1.91,1.77-3.43l8.54-18.7c0.05-0.08,0.17-0.12,0.35-0.12c0.21,0,0.33,0.04,0.35,0.12
			l9.84,19.29c0.92,1.86,1.68,3.14,2.28,3.84c0.6,0.71,1.23,1.06,1.89,1.06C183.99-45.9,184.06-45.82,184.06-45.66z M163.7-55.5
			h8.58l-4.53-8.94L163.7-55.5z"/>
		<path d="M212.25-45.66c0,0.16-0.07,0.24-0.2,0.24c-0.53,0-1.34-0.03-2.44-0.08c-1.16-0.05-1.98-0.08-2.48-0.08
			c-0.66,0-1.46,0.03-2.4,0.08c-0.89,0.05-1.6,0.08-2.13,0.08c-0.11,0-0.16-0.08-0.16-0.24s0.05-0.23,0.16-0.23
			c0.68,0,1.17-0.07,1.48-0.22c0.3-0.14,0.45-0.4,0.45-0.76c0-0.44-0.26-1.19-0.79-2.23l-7.8-15.33L189.85-51
			c-0.34,0.76-0.51,1.46-0.51,2.12c0,0.94,0.33,1.67,1,2.2c0.67,0.52,1.57,0.78,2.7,0.78c0.13,0,0.2,0.08,0.2,0.23
			s-0.07,0.24-0.2,0.24c-0.47,0-1.16-0.03-2.05-0.08c-1-0.05-1.86-0.08-2.6-0.08c-0.71,0-1.56,0.03-2.56,0.08
			c-0.89,0.05-1.61,0.08-2.17,0.08c-0.1,0-0.16-0.08-0.16-0.24s0.05-0.23,0.16-0.23c0.73,0,1.35-0.15,1.85-0.45
			c0.5-0.3,1-0.84,1.5-1.61c0.5-0.77,1.09-1.91,1.77-3.43l8.54-18.7c0.05-0.08,0.17-0.12,0.35-0.12c0.21,0,0.33,0.04,0.35,0.12
			l9.84,19.29c0.92,1.86,1.68,3.14,2.28,3.84c0.6,0.71,1.23,1.06,1.89,1.06C212.19-45.9,212.25-45.82,212.25-45.66z"/>
		<path d="M231.71-51.74c0.08,0,0.15,0.02,0.22,0.06c0.07,0.04,0.1,0.07,0.1,0.1c-0.26,2.04-0.39,3.89-0.39,5.57
			c0,0.21-0.04,0.36-0.12,0.45c-0.08,0.09-0.24,0.14-0.47,0.14h-17.4c-0.08,0-0.12-0.08-0.12-0.24s0.04-0.23,0.12-0.23
			c0.84,0,1.45-0.06,1.83-0.2c0.38-0.13,0.64-0.39,0.77-0.76c0.13-0.38,0.2-0.96,0.2-1.74v-18.15c0-0.78-0.07-1.36-0.2-1.73
			c-0.13-0.37-0.39-0.62-0.79-0.76c-0.39-0.14-1-0.22-1.81-0.22c-0.08,0-0.12-0.08-0.12-0.23s0.04-0.24,0.12-0.24h16.7
			c0.26,0,0.39,0.12,0.39,0.35l0.08,5.21c0,0.05-0.07,0.09-0.22,0.12c-0.14,0.03-0.23,0-0.26-0.08c-0.42-1.52-1.13-2.64-2.13-3.37
			c-1-0.73-2.31-1.1-3.94-1.1h-1.18c-0.79,0-1.37,0.17-1.73,0.51c-0.37,0.34-0.55,0.86-0.55,1.57v8h3.27c1.52,0,2.69-0.26,3.5-0.78
			c0.81-0.52,1.22-1.25,1.22-2.2c0-0.08,0.07-0.12,0.22-0.12c0.14,0,0.22,0.04,0.22,0.12l-0.04,3.53l0.04,1.88
			c0.05,0.89,0.08,1.59,0.08,2.12c0,0.05-0.08,0.08-0.24,0.08c-0.16,0-0.24-0.03-0.24-0.08c0-1.07-0.41-1.91-1.24-2.53
			c-0.83-0.61-2.02-0.92-3.56-0.92h-3.23v8.86c0,0.76,0.14,1.32,0.43,1.69c0.29,0.37,0.75,0.55,1.38,0.55h1.3
			c2.05,0,3.69-0.42,4.92-1.25c1.23-0.84,2.14-2.13,2.72-3.88C231.55-51.71,231.6-51.74,231.71-51.74z"/>
		<path d="M235.76-62.95c-0.03,0.08-0.1,0.11-0.24,0.1c-0.13-0.01-0.2-0.06-0.2-0.14c0.1-1.04,0.22-2.4,0.35-4.06
			c0.13-1.66,0.2-2.91,0.2-3.74c0-0.13,0.07-0.2,0.22-0.2c0.14,0,0.22,0.07,0.22,0.2c0,0.58,0.75,0.86,2.24,0.86
			c2.26,0.08,4.9,0.12,7.92,0.12c1.55,0,3.19-0.03,4.92-0.08l2.68-0.04c1,0,1.73-0.06,2.19-0.2c0.46-0.13,0.75-0.39,0.89-0.78
			c0.03-0.1,0.11-0.16,0.26-0.16c0.14,0,0.22,0.05,0.22,0.16c-0.08,0.78-0.16,2.04-0.26,3.76c-0.09,1.72-0.14,3.11-0.14,4.16
			c0,0.08-0.07,0.12-0.2,0.12s-0.21-0.04-0.24-0.12c-0.39-2.01-1.13-3.52-2.21-4.53c-1.08-1.01-2.4-1.51-3.98-1.51
			c-0.76,0-1.27,0.16-1.52,0.49c-0.25,0.33-0.37,0.95-0.37,1.86v18.07c0,0.81,0.08,1.4,0.24,1.76c0.16,0.37,0.46,0.61,0.91,0.74
			c0.45,0.13,1.15,0.2,2.13,0.2c0.08,0,0.12,0.08,0.12,0.23s-0.04,0.24-0.12,0.24c-0.95,0-1.69-0.01-2.24-0.04l-3.27-0.04
			l-3.19,0.04c-0.55,0.03-1.31,0.04-2.28,0.04c-0.08,0-0.12-0.08-0.12-0.24s0.04-0.23,0.12-0.23c0.95,0,1.65-0.06,2.11-0.2
			c0.46-0.13,0.77-0.39,0.94-0.76c0.17-0.38,0.26-0.96,0.26-1.74v-18.15c0-0.89-0.12-1.49-0.35-1.8c-0.24-0.31-0.72-0.47-1.46-0.47
			C239.37-69.03,237.13-67,235.76-62.95z"/>
		<path d="M284.75-45.66c0,0.16-0.07,0.24-0.2,0.24c-0.53,0-1.34-0.03-2.44-0.08c-1.15-0.05-1.98-0.08-2.48-0.08
			c-0.66,0-1.46,0.03-2.4,0.08c-0.89,0.05-1.6,0.08-2.13,0.08c-0.1,0-0.16-0.08-0.16-0.24s0.05-0.23,0.16-0.23
			c0.68,0,1.18-0.07,1.48-0.22c0.3-0.14,0.45-0.4,0.45-0.76c0-0.44-0.26-1.19-0.79-2.23l-2.68-5.29h-9.69L262.34-51
			c-0.34,0.76-0.51,1.46-0.51,2.12c0,0.94,0.33,1.67,1,2.2c0.67,0.52,1.57,0.78,2.7,0.78c0.13,0,0.2,0.08,0.2,0.23
			s-0.07,0.24-0.2,0.24c-0.47,0-1.16-0.03-2.05-0.08c-1-0.05-1.86-0.08-2.6-0.08c-0.71,0-1.56,0.03-2.56,0.08
			c-0.89,0.05-1.61,0.08-2.17,0.08c-0.1,0-0.16-0.08-0.16-0.24s0.05-0.23,0.16-0.23c0.73,0,1.35-0.15,1.85-0.45
			c0.5-0.3,1-0.84,1.5-1.61c0.5-0.77,1.09-1.91,1.77-3.43l8.55-18.7c0.05-0.08,0.17-0.12,0.35-0.12c0.21,0,0.33,0.04,0.36,0.12
			l9.84,19.29c0.92,1.86,1.68,3.14,2.28,3.84s1.23,1.06,1.89,1.06C284.68-45.9,284.75-45.82,284.75-45.66z M264.39-55.5h8.59
			l-4.53-8.94L264.39-55.5z"/>
	</g>
	<g class="st1">
		<path d="M85-39.46h1.24v11.58h0.11l8.18-11.58h1.23v13.82H94.5v-11.57h-0.11l-8.17,11.57H85V-39.46z"/>
		<path d="M99.43-39.46h1.46l5.01,12.04h0.12l5.01-12.04h1.46v13.82h-1.19v-11.15h-0.11l-4.66,11.15h-1.15l-4.66-11.15h-0.11v11.15
			h-1.19V-39.46z"/>
		<path d="M116.16-25.64v-13.82h8.02v1.13h-6.75v5.2h6.33v1.13h-6.33v5.22h6.89v1.13H116.16z"/>
		<path d="M127.44-25.64v-13.82h1.26v6.34h7.84v-6.34h1.26v13.82h-1.26v-6.35h-7.84v6.35H127.44z"/>
		<path d="M141.47-39.46h1.24v11.58h0.11L151-39.46h1.23v13.82h-1.26v-11.57h-0.11l-8.17,11.57h-1.22V-39.46z"/>
		<path d="M159.94-25.64v-1.17h0.36c0.57,0,1.02-0.19,1.36-0.57c0.33-0.38,0.58-0.99,0.74-1.83c0.16-0.84,0.26-1.95,0.31-3.32
			l0.24-6.93h8.11v13.82h-1.26v-12.68h-5.65l-0.22,6.07c-0.05,1.46-0.19,2.68-0.4,3.66c-0.22,0.98-0.57,1.71-1.08,2.21
			s-1.21,0.74-2.12,0.74H159.94z"/>
		<path d="M175.44-25.54c-0.27,0-0.49-0.1-0.68-0.29c-0.19-0.19-0.29-0.42-0.29-0.69c0-0.27,0.1-0.5,0.29-0.69
			c0.19-0.19,0.42-0.28,0.68-0.28c0.27,0,0.5,0.09,0.69,0.28s0.28,0.42,0.28,0.69c0,0.18-0.04,0.34-0.13,0.49
			c-0.09,0.15-0.2,0.27-0.35,0.35C175.78-25.58,175.62-25.54,175.44-25.54z"/>
		<path d="M182.64-31.87h1.42l-3.37,6.23h-1.46L182.64-31.87z M188.73-25.64h-1.26v-12.68h-3.16c-0.73,0-1.33,0.12-1.81,0.37
			s-0.84,0.6-1.08,1.05c-0.24,0.45-0.36,0.98-0.36,1.58s0.12,1.12,0.35,1.57c0.24,0.44,0.59,0.78,1.07,1.02
			c0.48,0.24,1.08,0.36,1.8,0.36h3.77v1.15h-3.8c-0.97,0-1.79-0.17-2.44-0.52c-0.66-0.35-1.15-0.83-1.49-1.44
			c-0.33-0.62-0.5-1.33-0.5-2.13s0.17-1.52,0.5-2.14s0.83-1.11,1.49-1.46c0.66-0.35,1.48-0.53,2.46-0.53h4.46V-25.64z"/>
		<path d="M200.41-25.64l-4.76-6.52h-1.99v6.52h-1.26v-13.82h1.26v6.17h1.25l5.09-6.17h1.5l-5.12,6.23l5.54,7.59H200.41z"/>
		<path d="M214.94-32.55c0,1.44-0.26,2.69-0.77,3.75s-1.22,1.89-2.12,2.47c-0.9,0.58-1.93,0.87-3.09,0.87s-2.2-0.29-3.09-0.87
			c-0.9-0.58-1.6-1.41-2.11-2.47c-0.51-1.06-0.77-2.32-0.77-3.75c0-1.44,0.26-2.69,0.77-3.75c0.51-1.06,1.22-1.89,2.12-2.47
			c0.9-0.58,1.93-0.87,3.09-0.87c1.17,0,2.2,0.29,3.09,0.87s1.6,1.41,2.12,2.47C214.69-35.24,214.94-33.99,214.94-32.55z
			 M213.72-32.55c0-1.24-0.21-2.3-0.62-3.18s-0.98-1.56-1.69-2.03c-0.72-0.47-1.53-0.7-2.44-0.7c-0.9,0-1.71,0.23-2.43,0.7
			s-1.28,1.14-1.7,2.02c-0.42,0.88-0.62,1.94-0.62,3.18c0,1.24,0.21,2.3,0.62,3.18c0.41,0.88,0.98,1.56,1.69,2.03
			s1.53,0.71,2.44,0.71s1.72-0.23,2.44-0.7c0.72-0.47,1.28-1.14,1.7-2.03C213.52-30.25,213.72-31.31,213.72-32.55z"/>
		<path d="M217.99-25.64v-13.82h8.06v1.13h-6.8v4.94h3.92c0.92,0,1.71,0.16,2.35,0.47c0.65,0.31,1.14,0.75,1.48,1.32
			c0.34,0.57,0.51,1.23,0.51,2c0,0.79-0.17,1.48-0.51,2.08c-0.34,0.59-0.83,1.06-1.48,1.39c-0.65,0.33-1.43,0.5-2.36,0.5H217.99z
			 M219.26-26.75h3.92c0.66,0,1.22-0.13,1.68-0.39c0.46-0.26,0.81-0.6,1.06-1.04c0.24-0.43,0.36-0.92,0.36-1.45
			c0-0.74-0.27-1.36-0.82-1.87c-0.55-0.5-1.31-0.75-2.28-0.75h-3.92V-26.75z"/>
		<path d="M241.39-35.14h-1.27c-0.09-0.47-0.26-0.91-0.51-1.31c-0.25-0.4-0.55-0.75-0.92-1.06c-0.37-0.3-0.79-0.54-1.26-0.7
			s-0.97-0.25-1.52-0.25c-0.87,0-1.67,0.23-2.38,0.68c-0.72,0.45-1.29,1.12-1.72,2s-0.64,1.96-0.64,3.23c0,1.28,0.21,2.36,0.64,3.24
			s1,1.54,1.72,1.99c0.72,0.45,1.51,0.68,2.38,0.68c0.54,0,1.05-0.08,1.52-0.25s0.89-0.4,1.26-0.7c0.37-0.3,0.68-0.65,0.92-1.06
			s0.42-0.84,0.51-1.32h1.27c-0.11,0.63-0.32,1.22-0.63,1.77c-0.31,0.55-0.7,1.02-1.17,1.43c-0.47,0.41-1.02,0.73-1.64,0.96
			c-0.62,0.23-1.29,0.34-2.03,0.34c-1.16,0-2.19-0.29-3.09-0.87c-0.9-0.58-1.6-1.4-2.12-2.47c-0.51-1.06-0.77-2.31-0.77-3.76
			c0-1.44,0.26-2.7,0.77-3.76c0.51-1.06,1.22-1.88,2.12-2.47c0.9-0.58,1.93-0.87,3.09-0.87c0.74,0,1.41,0.11,2.03,0.34
			c0.62,0.23,1.16,0.55,1.64,0.96c0.47,0.41,0.87,0.89,1.17,1.43S241.27-35.78,241.39-35.14z"/>
		<path d="M255.68-32.55c0,1.44-0.26,2.69-0.77,3.75c-0.51,1.06-1.22,1.89-2.12,2.47c-0.9,0.58-1.93,0.87-3.09,0.87
			c-1.16,0-2.2-0.29-3.09-0.87c-0.9-0.58-1.6-1.41-2.11-2.47c-0.51-1.06-0.77-2.32-0.77-3.75c0-1.44,0.26-2.69,0.77-3.75
			c0.51-1.06,1.22-1.89,2.11-2.47c0.9-0.58,1.93-0.87,3.09-0.87c1.17,0,2.2,0.29,3.09,0.87c0.9,0.58,1.6,1.41,2.12,2.47
			C255.43-35.24,255.68-33.99,255.68-32.55z M254.46-32.55c0-1.24-0.21-2.3-0.62-3.18c-0.41-0.88-0.98-1.56-1.7-2.03
			c-0.71-0.47-1.53-0.7-2.44-0.7c-0.9,0-1.71,0.23-2.43,0.7s-1.28,1.14-1.7,2.02c-0.42,0.88-0.62,1.94-0.62,3.18
			c0,1.24,0.21,2.3,0.62,3.18c0.41,0.88,0.98,1.56,1.69,2.03s1.53,0.71,2.44,0.71c0.91,0,1.72-0.23,2.44-0.7s1.28-1.14,1.7-2.03
			C254.26-30.25,254.46-31.31,254.46-32.55z"/>
		<path d="M258.73-25.64v-13.82H260v6.34h7.84v-6.34h1.26v13.82h-1.26v-6.35H260v6.35H258.73z"/>
		<path d="M272.79-25.64h-1.32l5.03-13.82h1.35l5.03,13.82h-1.32l-4.33-12.18h-0.09L272.79-25.64z M273.74-30.94h6.86v1.13h-6.86
			V-30.94z"/>
	</g>
</g>
<g class="st0">
	<g class="st1">
		<path class="st3" d="M182.28-647.98v-29.4c0-9.51,2.42-18.9,7.22-27.12c18.11-30.96,59.47-31.98,81.11-5.38
			c7.65,9.41,11.75,21.21,11.9,33.34l0.34,28.33L182.28-647.98z"/>
		<path class="st3" d="M70.48-647.98l0-29.4c0-9.51,2.42-18.9,7.22-27.12c18.11-30.96,59.47-31.98,81.11-5.38
			c7.65,9.41,11.75,21.21,11.9,33.34l0.34,28.33L70.48-647.98z"/>
		<path class="st3" d="M45.53-709.88c7.65,9.41,11.75,21.21,11.9,33.34l0.34,28.33l-50.29,0.11v-80.71
			C21.55-728.44,35.61-722.07,45.53-709.88z"/>
	</g>
	
		<text transform="matrix(0.9845 0 0 0.98 3.3936 -609.3594)" class="st1" style="font-family:'CormorantGaramond-Bold'; font-size:40px;"> </text>
	<text transform="matrix(1 0 0 1 83.16 -589.5702)" class="st1" style="font-family:'Inter-Light'; font-size:19px;"> .</text>
</g>
</svg>
