<?xml version="1.0" encoding="utf-8"?>
<!-- Generator: Adobe Illustrator 24.0.1, SVG Export Plug-In . SVG Version: 6.00 Build 0)  -->
<svg version="1.1" id="Layer_1" xmlns="http://www.w3.org/2000/svg" xmlns:xlink="http://www.w3.org/1999/xlink" x="0px" y="0px"
	 viewBox="0 0 285.1 147.7" style="enable-background:new 0 0 285.1 147.7;" xml:space="preserve">
<style type="text/css">
	.st0{display:none;}
	.st1{display:inline;}
	.st2{fill:#EDEAE4;}
	.st3{fill:none;stroke:#000000;stroke-width:4;stroke-miterlimit:10;}
</style>
<g class="st0">
	<g class="st1">
		<path d="M482.07-85.77v-31.4c0-10.02,2.59-19.74,7.5-28.13c8.62-14.73,23.05-23.91,39.61-25.18c17.02-1.31,33.76,6,44.78,19.55
			c7.81,9.6,12.19,21.88,12.35,34.57l0.37,30.35L482.07-85.77z M533.08-166.63c-1.2,0-2.4,0.05-3.61,0.14
			c-15.23,1.17-28.52,9.63-36.46,23.22c-4.55,7.77-6.95,16.8-6.95,26.11v27.39L582.62-90l-0.32-26.31
			c-0.14-11.8-4.21-23.2-11.45-32.1C561.43-159.98,547.53-166.63,533.08-166.63z"/>
	</g>
	<g class="st1">
		<path d="M370.26-85.77v-31.4c0-10.02,2.59-19.74,7.5-28.13c8.62-14.73,23.05-23.91,39.61-25.18c17.02-1.31,33.76,6,44.78,19.55
			c7.81,9.6,12.19,21.88,12.35,34.57l0.37,30.35L370.26-85.77z M421.28-166.63c-1.2,0-2.4,0.05-3.61,0.14
			c-15.23,1.17-28.52,9.63-36.46,23.22c-4.55,7.77-6.95,16.8-6.95,26.11v27.39L470.81-90l-0.32-26.31
			c-0.14-11.8-4.21-23.2-11.45-32.1C449.63-159.98,435.72-166.63,421.28-166.63z"/>
	</g>
	<g class="st1">
		<path d="M307.26-85.89v-84.77l2.05,0.05c15.29,0.4,29.7,7.56,39.55,19.66c7.81,9.6,12.19,21.88,12.35,34.57l0.37,30.35
			L307.26-85.89z M311.26-166.5v76.61l46.26-0.1l-0.32-26.31c-0.14-11.8-4.21-23.2-11.45-32.1l0,0
			C337.09-159.06,324.62-165.58,311.26-166.5z"/>
	</g>
</g>
<g class="st0">
	<g class="st1">
		<path d="M177.74-84.8v-31.4c0-10.02,2.59-19.74,7.5-28.13c8.62-14.73,23.05-23.91,39.61-25.18c17.02-1.31,33.76,6,44.78,19.55
			c7.81,9.6,12.19,21.88,12.35,34.57l0.37,30.35L177.74-84.8z M228.75-165.66c-1.2,0-2.4,0.05-3.61,0.14
			c-15.23,1.17-28.52,9.63-36.46,23.22c-4.55,7.77-6.95,16.8-6.95,26.11v27.39l96.55-0.21l-0.32-26.31
			c-0.14-11.8-4.21-23.2-11.45-32.1C257.1-159.01,243.2-165.66,228.75-165.66z"/>
	</g>
	<g class="st1">
		<path d="M65.93-84.8v-31.4c0-10.02,2.59-19.74,7.5-28.13c8.62-14.73,23.05-23.91,39.61-25.18c17.02-1.31,33.76,6,44.78,19.55
			c7.81,9.6,12.19,21.88,12.35,34.57l0.37,30.35L65.93-84.8z M116.95-165.66c-1.2,0-2.4,0.05-3.61,0.14
			c-15.23,1.17-28.52,9.63-36.46,23.22c-4.55,7.77-6.95,16.8-6.95,26.11v27.39l96.55-0.21l-0.32-26.31
			c-0.14-11.8-4.21-23.2-11.45-32.1C145.3-159.01,131.39-165.66,116.95-165.66z"/>
	</g>
	<g class="st1">
		<path d="M2.93-84.91v-84.77l2.05,0.05c15.29,0.4,29.7,7.56,39.55,19.66c7.81,9.6,12.19,21.88,12.35,34.57l0.37,30.35L2.93-84.91z
			 M6.93-165.53v76.61l46.26-0.1l-0.32-26.31c-0.14-11.8-4.21-23.2-11.45-32.1l0,0C32.76-158.09,20.29-164.61,6.93-165.53z"/>
	</g>
</g>
<g class="st0">
	<path class="st1" d="M2.85-65.71c-0.03,0.08-0.1,0.11-0.24,0.1c-0.13-0.01-0.2-0.06-0.2-0.14c0.1-1.04,0.22-2.4,0.35-4.06
		c0.13-1.66,0.2-2.91,0.2-3.74c0-0.13,0.07-0.2,0.22-0.2c0.14,0,0.22,0.07,0.22,0.2c0,0.58,0.75,0.86,2.24,0.86
		c2.26,0.08,4.9,0.12,7.92,0.12c1.55,0,3.19-0.03,4.92-0.08l2.68-0.04c1,0,1.73-0.06,2.19-0.2c0.46-0.13,0.75-0.39,0.89-0.78
		c0.03-0.1,0.11-0.16,0.26-0.16c0.14,0,0.22,0.05,0.22,0.16c-0.08,0.78-0.16,2.04-0.26,3.76c-0.09,1.72-0.14,3.11-0.14,4.16
		c0,0.08-0.07,0.12-0.2,0.12s-0.21-0.04-0.24-0.12c-0.39-2.01-1.13-3.52-2.21-4.53c-1.08-1.01-2.4-1.51-3.98-1.51
		c-0.76,0-1.27,0.16-1.52,0.49c-0.25,0.33-0.37,0.95-0.37,1.86v18.07c0,0.81,0.08,1.4,0.24,1.76c0.16,0.37,0.46,0.61,0.91,0.74
		c0.45,0.13,1.15,0.2,2.13,0.2c0.08,0,0.12,0.08,0.12,0.23s-0.04,0.24-0.12,0.24c-0.95,0-1.69-0.01-2.24-0.04l-3.27-0.04l-3.19,0.04
		c-0.55,0.03-1.31,0.04-2.28,0.04c-0.08,0-0.12-0.08-0.12-0.24s0.04-0.23,0.12-0.23c0.95,0,1.65-0.06,2.11-0.2
		c0.46-0.13,0.77-0.39,0.94-0.76c0.17-0.38,0.26-0.96,0.26-1.74v-18.15c0-0.89-0.12-1.49-0.35-1.8c-0.24-0.31-0.72-0.47-1.46-0.47
		C6.46-71.78,4.22-69.76,2.85-65.71z"/>
	<path class="st1" d="M45.85-54.49c0.08,0,0.15,0.02,0.22,0.06c0.07,0.04,0.1,0.07,0.1,0.1c-0.26,2.04-0.39,3.89-0.39,5.57
		c0,0.21-0.04,0.36-0.12,0.45c-0.08,0.09-0.24,0.14-0.47,0.14h-17.4c-0.08,0-0.12-0.08-0.12-0.24s0.04-0.23,0.12-0.23
		c0.84,0,1.45-0.06,1.83-0.2c0.38-0.13,0.64-0.39,0.77-0.76c0.13-0.38,0.2-0.96,0.2-1.74v-18.15c0-0.78-0.07-1.36-0.2-1.73
		c-0.13-0.37-0.39-0.62-0.79-0.76c-0.39-0.14-1-0.22-1.81-0.22c-0.08,0-0.12-0.08-0.12-0.23s0.04-0.24,0.12-0.24h16.7
		c0.26,0,0.39,0.12,0.39,0.35l0.08,5.21c0,0.05-0.07,0.09-0.22,0.12c-0.14,0.03-0.23,0-0.26-0.08c-0.42-1.52-1.13-2.64-2.13-3.37
		c-1-0.73-2.31-1.1-3.94-1.1h-1.18c-0.79,0-1.37,0.17-1.73,0.51c-0.37,0.34-0.55,0.86-0.55,1.57v8h3.27c1.52,0,2.69-0.26,3.5-0.78
		c0.81-0.52,1.22-1.25,1.22-2.2c0-0.08,0.07-0.12,0.22-0.12c0.14,0,0.22,0.04,0.22,0.12l-0.04,3.53l0.04,1.88
		c0.05,0.89,0.08,1.59,0.08,2.12c0,0.05-0.08,0.08-0.24,0.08c-0.16,0-0.24-0.03-0.24-0.08c0-1.07-0.41-1.91-1.24-2.53
		c-0.83-0.61-2.02-0.92-3.56-0.92h-3.23v8.86c0,0.76,0.14,1.32,0.43,1.69c0.29,0.37,0.75,0.55,1.38,0.55h1.3
		c2.05,0,3.69-0.42,4.92-1.25c1.23-0.84,2.14-2.13,2.72-3.88C45.7-54.47,45.75-54.49,45.85-54.49z"/>
	<path class="st1" d="M76.33-48.42c0,0.16-0.07,0.24-0.2,0.24c-0.53,0-1.34-0.03-2.44-0.08c-1.16-0.05-1.98-0.08-2.48-0.08
		c-0.66,0-1.46,0.03-2.4,0.08c-0.89,0.05-1.6,0.08-2.13,0.08c-0.11,0-0.16-0.08-0.16-0.24s0.05-0.23,0.16-0.23
		c0.68,0,1.17-0.07,1.48-0.22c0.3-0.14,0.45-0.4,0.45-0.76c0-0.44-0.26-1.19-0.79-2.23l-2.68-5.29h-9.69l-1.54,3.41
		c-0.34,0.76-0.51,1.46-0.51,2.12c0,0.94,0.33,1.67,1,2.2c0.67,0.52,1.57,0.78,2.7,0.78c0.13,0,0.2,0.08,0.2,0.23
		s-0.07,0.24-0.2,0.24c-0.47,0-1.16-0.03-2.05-0.08c-1-0.05-1.86-0.08-2.6-0.08c-0.71,0-1.56,0.03-2.56,0.08
		c-0.89,0.05-1.61,0.08-2.17,0.08c-0.1,0-0.16-0.08-0.16-0.24s0.05-0.23,0.16-0.23c0.73,0,1.35-0.15,1.85-0.45
		c0.5-0.3,1-0.84,1.5-1.61c0.5-0.77,1.09-1.91,1.77-3.43l8.54-18.7c0.05-0.08,0.17-0.12,0.35-0.12c0.21,0,0.33,0.04,0.35,0.12
		l9.84,19.29c0.92,1.86,1.68,3.14,2.28,3.84c0.6,0.71,1.23,1.06,1.89,1.06C76.27-48.65,76.33-48.57,76.33-48.42z M55.97-58.26h8.58
		l-4.53-8.94L55.97-58.26z"/>
	<path class="st1" d="M75.35-65.71c-0.03,0.08-0.1,0.11-0.24,0.1c-0.13-0.01-0.2-0.06-0.2-0.14c0.1-1.04,0.22-2.4,0.35-4.06
		c0.13-1.66,0.2-2.91,0.2-3.74c0-0.13,0.07-0.2,0.22-0.2c0.14,0,0.22,0.07,0.22,0.2c0,0.58,0.75,0.86,2.24,0.86
		c2.26,0.08,4.9,0.12,7.92,0.12c1.55,0,3.19-0.03,4.92-0.08l2.68-0.04c1,0,1.73-0.06,2.19-0.2c0.46-0.13,0.75-0.39,0.89-0.78
		c0.03-0.1,0.11-0.16,0.26-0.16c0.14,0,0.22,0.05,0.22,0.16c-0.08,0.78-0.16,2.04-0.26,3.76c-0.09,1.72-0.14,3.11-0.14,4.16
		c0,0.08-0.07,0.12-0.2,0.12s-0.21-0.04-0.24-0.12c-0.39-2.01-1.13-3.52-2.21-4.53c-1.08-1.01-2.4-1.51-3.98-1.51
		c-0.76,0-1.27,0.16-1.52,0.49c-0.25,0.33-0.37,0.95-0.37,1.86v18.07c0,0.81,0.08,1.4,0.24,1.76c0.16,0.37,0.46,0.61,0.91,0.74
		c0.45,0.13,1.15,0.2,2.13,0.2c0.08,0,0.12,0.08,0.12,0.23s-0.04,0.24-0.12,0.24c-0.95,0-1.69-0.01-2.24-0.04l-3.27-0.04l-3.19,0.04
		c-0.55,0.03-1.31,0.04-2.28,0.04c-0.08,0-0.12-0.08-0.12-0.24s0.04-0.23,0.12-0.23c0.95,0,1.65-0.06,2.11-0.2
		c0.46-0.13,0.77-0.39,0.94-0.76c0.17-0.38,0.26-0.96,0.26-1.74v-18.15c0-0.89-0.12-1.49-0.35-1.8c-0.24-0.31-0.72-0.47-1.46-0.47
		C78.96-71.78,76.71-69.76,75.35-65.71z"/>
	<path class="st1" d="M107.44-49.69c0.18,0.38,0.53,0.65,1.04,0.8c0.51,0.16,1.33,0.24,2.46,0.24c0.08,0,0.12,0.08,0.12,0.23
		s-0.04,0.24-0.12,0.24c-1.08,0-1.92-0.01-2.52-0.04L105-48.26l-2.87,0.04c-0.53,0.03-1.23,0.04-2.13,0.04
		c-0.08,0-0.12-0.08-0.12-0.24s0.04-0.23,0.12-0.23c0.84,0,1.45-0.06,1.83-0.2c0.38-0.13,0.64-0.39,0.77-0.76
		c0.13-0.38,0.2-0.96,0.2-1.74v-18.15c0-0.78-0.07-1.36-0.2-1.73c-0.13-0.37-0.39-0.62-0.79-0.76c-0.39-0.14-1-0.22-1.81-0.22
		c-0.08,0-0.12-0.08-0.12-0.23s0.04-0.24,0.12-0.24l2.09,0.04c1.21,0.05,2.17,0.08,2.88,0.08c0.63,0,1.38-0.04,2.24-0.12
		c0.34-0.03,0.77-0.05,1.3-0.08c0.52-0.03,1.13-0.04,1.81-0.04c2.68,0,4.79,0.56,6.34,1.67c1.55,1.11,2.32,2.83,2.32,5.15
		c0,1.62-0.42,2.99-1.26,4.12c-0.84,1.12-1.92,1.97-3.25,2.55c-1.33,0.58-2.68,0.86-4.08,0.86c-0.71,0-1.33-0.06-1.85-0.2
		c-0.05,0-0.08-0.06-0.08-0.2c0-0.08,0.02-0.16,0.06-0.23c0.04-0.08,0.08-0.1,0.14-0.08c0.39,0.1,0.84,0.16,1.34,0.16
		c1.21,0,2.21-0.56,3.01-1.69c0.8-1.12,1.2-2.72,1.2-4.78s-0.44-3.66-1.32-4.78c-0.88-1.12-2.16-1.69-3.84-1.69
		c-0.74,0-1.23,0.17-1.5,0.51c-0.26,0.34-0.39,1.01-0.39,2v17.91C107.17-50.68,107.26-50.07,107.44-49.69z"/>
	<path class="st1" d="M148.38-60.3c1.77,1.15,2.66,2.81,2.66,4.98c0,1.36-0.38,2.59-1.14,3.7c-0.76,1.11-1.83,1.99-3.19,2.63
		c-1.37,0.64-2.89,0.96-4.57,0.96c-0.71,0-1.56-0.04-2.56-0.12c-0.39-0.03-0.87-0.05-1.44-0.08c-0.56-0.03-1.19-0.04-1.87-0.04
		l-2.88,0.04c-0.53,0.03-1.23,0.04-2.13,0.04c-0.08,0-0.12-0.08-0.12-0.24s0.04-0.23,0.12-0.23c0.84,0,1.45-0.06,1.83-0.2
		c0.38-0.13,0.64-0.39,0.79-0.76c0.14-0.38,0.22-0.96,0.22-1.74v-18.15c0-0.78-0.07-1.36-0.2-1.73c-0.13-0.37-0.39-0.62-0.79-0.76
		c-0.39-0.14-1-0.22-1.81-0.22c-0.05,0-0.08-0.08-0.08-0.23s0.03-0.24,0.08-0.24h16.5c0.37,0,0.6,0.05,0.69,0.16
		c0.09,0.1,0.14,0.38,0.14,0.82l0.31,5.96c0,0.08-0.07,0.12-0.2,0.12c-0.13,0-0.22-0.04-0.28-0.12c-0.39-2.01-1.12-3.52-2.19-4.53
		c-1.06-1.01-2.38-1.51-3.96-1.51h-1.65c-0.84,0-1.41,0.18-1.71,0.53c-0.3,0.35-0.45,1.01-0.45,1.98v7.49
		c1.05-0.16,2.1-0.23,3.15-0.23C144.36-62.02,146.6-61.45,148.38-60.3z M145.21-50.36c0.81-0.9,1.22-2.23,1.22-3.98
		c0-2.25-0.54-3.91-1.61-4.98c-1.08-1.07-2.59-1.61-4.53-1.61c-0.63,0-1.22,0.05-1.77,0.16v9.41c0,0.78,0.19,1.37,0.57,1.76
		c0.38,0.39,1.15,0.59,2.3,0.59C143.12-49.01,144.39-49.46,145.21-50.36z"/>
	<path class="st1" d="M181.51-48.42c0,0.16-0.07,0.24-0.2,0.24c-0.53,0-1.34-0.03-2.44-0.08c-1.16-0.05-1.98-0.08-2.48-0.08
		c-0.66,0-1.46,0.03-2.4,0.08c-0.89,0.05-1.6,0.08-2.13,0.08c-0.11,0-0.16-0.08-0.16-0.24s0.05-0.23,0.16-0.23
		c0.68,0,1.17-0.07,1.48-0.22c0.3-0.14,0.45-0.4,0.45-0.76c0-0.44-0.26-1.19-0.79-2.23l-2.68-5.29h-9.69l-1.54,3.41
		c-0.34,0.76-0.51,1.46-0.51,2.12c0,0.94,0.33,1.67,1,2.2c0.67,0.52,1.57,0.78,2.7,0.78c0.13,0,0.2,0.08,0.2,0.23
		s-0.07,0.24-0.2,0.24c-0.47,0-1.16-0.03-2.05-0.08c-1-0.05-1.86-0.08-2.6-0.08c-0.71,0-1.56,0.03-2.56,0.08
		c-0.89,0.05-1.61,0.08-2.17,0.08c-0.1,0-0.16-0.08-0.16-0.24s0.05-0.23,0.16-0.23c0.73,0,1.35-0.15,1.85-0.45
		c0.5-0.3,1-0.84,1.5-1.61c0.5-0.77,1.09-1.91,1.77-3.43l8.54-18.7c0.05-0.08,0.17-0.12,0.35-0.12c0.21,0,0.33,0.04,0.35,0.12
		l9.84,19.29c0.92,1.86,1.68,3.14,2.28,3.84c0.6,0.71,1.23,1.06,1.89,1.06C181.45-48.65,181.51-48.57,181.51-48.42z M161.15-58.26
		h8.58l-4.53-8.94L161.15-58.26z"/>
	<path class="st1" d="M209.71-48.42c0,0.16-0.07,0.24-0.2,0.24c-0.53,0-1.34-0.03-2.44-0.08c-1.16-0.05-1.98-0.08-2.48-0.08
		c-0.66,0-1.46,0.03-2.4,0.08c-0.89,0.05-1.6,0.08-2.13,0.08c-0.11,0-0.16-0.08-0.16-0.24s0.05-0.23,0.16-0.23
		c0.68,0,1.17-0.07,1.48-0.22c0.3-0.14,0.45-0.4,0.45-0.76c0-0.44-0.26-1.19-0.79-2.23l-7.8-15.33l-6.1,13.45
		c-0.34,0.76-0.51,1.46-0.51,2.12c0,0.94,0.33,1.67,1,2.2c0.67,0.52,1.57,0.78,2.7,0.78c0.13,0,0.2,0.08,0.2,0.23
		s-0.07,0.24-0.2,0.24c-0.47,0-1.16-0.03-2.05-0.08c-1-0.05-1.86-0.08-2.6-0.08c-0.71,0-1.56,0.03-2.56,0.08
		c-0.89,0.05-1.61,0.08-2.17,0.08c-0.1,0-0.16-0.08-0.16-0.24s0.05-0.23,0.16-0.23c0.73,0,1.35-0.15,1.85-0.45
		c0.5-0.3,1-0.84,1.5-1.61c0.5-0.77,1.09-1.91,1.77-3.43l8.54-18.7c0.05-0.08,0.17-0.12,0.35-0.12c0.21,0,0.33,0.04,0.35,0.12
		l9.84,19.29c0.92,1.86,1.68,3.14,2.28,3.84c0.6,0.71,1.23,1.06,1.89,1.06C209.64-48.65,209.71-48.57,209.71-48.42z"/>
	<path class="st1" d="M229.16-54.49c0.08,0,0.15,0.02,0.22,0.06c0.07,0.04,0.1,0.07,0.1,0.1c-0.26,2.04-0.39,3.89-0.39,5.57
		c0,0.21-0.04,0.36-0.12,0.45c-0.08,0.09-0.24,0.14-0.47,0.14h-17.4c-0.08,0-0.12-0.08-0.12-0.24s0.04-0.23,0.12-0.23
		c0.84,0,1.45-0.06,1.83-0.2c0.38-0.13,0.64-0.39,0.77-0.76c0.13-0.38,0.2-0.96,0.2-1.74v-18.15c0-0.78-0.07-1.36-0.2-1.73
		c-0.13-0.37-0.39-0.62-0.79-0.76c-0.39-0.14-1-0.22-1.81-0.22c-0.08,0-0.12-0.08-0.12-0.23s0.04-0.24,0.12-0.24h16.7
		c0.26,0,0.39,0.12,0.39,0.35l0.08,5.21c0,0.05-0.07,0.09-0.22,0.12c-0.14,0.03-0.23,0-0.26-0.08c-0.42-1.52-1.13-2.64-2.13-3.37
		c-1-0.73-2.31-1.1-3.94-1.1h-1.18c-0.79,0-1.37,0.17-1.73,0.51c-0.37,0.34-0.55,0.86-0.55,1.57v8h3.27c1.52,0,2.69-0.26,3.5-0.78
		c0.81-0.52,1.22-1.25,1.22-2.2c0-0.08,0.07-0.12,0.22-0.12c0.14,0,0.22,0.04,0.22,0.12l-0.04,3.53l0.04,1.88
		c0.05,0.89,0.08,1.59,0.08,2.12c0,0.05-0.08,0.08-0.24,0.08c-0.16,0-0.24-0.03-0.24-0.08c0-1.07-0.41-1.91-1.24-2.53
		c-0.83-0.61-2.02-0.92-3.56-0.92h-3.23v8.86c0,0.76,0.14,1.32,0.43,1.69c0.29,0.37,0.75,0.55,1.38,0.55h1.3
		c2.05,0,3.69-0.42,4.92-1.25c1.23-0.84,2.14-2.13,2.72-3.88C229-54.47,229.05-54.49,229.16-54.49z"/>
	<path class="st1" d="M233.21-65.71c-0.03,0.08-0.1,0.11-0.24,0.1c-0.13-0.01-0.2-0.06-0.2-0.14c0.1-1.04,0.22-2.4,0.35-4.06
		c0.13-1.66,0.2-2.91,0.2-3.74c0-0.13,0.07-0.2,0.22-0.2c0.14,0,0.22,0.07,0.22,0.2c0,0.58,0.75,0.86,2.24,0.86
		c2.26,0.08,4.9,0.12,7.92,0.12c1.55,0,3.19-0.03,4.92-0.08l2.68-0.04c1,0,1.73-0.06,2.19-0.2c0.46-0.13,0.75-0.39,0.89-0.78
		c0.03-0.1,0.11-0.16,0.26-0.16c0.14,0,0.22,0.05,0.22,0.16c-0.08,0.78-0.16,2.04-0.26,3.76c-0.09,1.72-0.14,3.11-0.14,4.16
		c0,0.08-0.07,0.12-0.2,0.12s-0.21-0.04-0.24-0.12c-0.39-2.01-1.13-3.52-2.21-4.53c-1.08-1.01-2.4-1.51-3.98-1.51
		c-0.76,0-1.27,0.16-1.52,0.49c-0.25,0.33-0.37,0.95-0.37,1.86v18.07c0,0.81,0.08,1.4,0.24,1.76c0.16,0.37,0.46,0.61,0.91,0.74
		c0.45,0.13,1.15,0.2,2.13,0.2c0.08,0,0.12,0.08,0.12,0.23s-0.04,0.24-0.12,0.24c-0.95,0-1.69-0.01-2.24-0.04l-3.27-0.04l-3.19,0.04
		c-0.55,0.03-1.31,0.04-2.28,0.04c-0.08,0-0.12-0.08-0.12-0.24s0.04-0.23,0.12-0.23c0.95,0,1.65-0.06,2.11-0.2
		c0.46-0.13,0.77-0.39,0.94-0.76c0.17-0.38,0.26-0.96,0.26-1.74v-18.15c0-0.89-0.12-1.49-0.35-1.8c-0.24-0.31-0.72-0.47-1.46-0.47
		C236.82-71.78,234.58-69.76,233.21-65.71z"/>
	<path class="st1" d="M282.2-48.42c0,0.16-0.07,0.24-0.2,0.24c-0.53,0-1.34-0.03-2.44-0.08c-1.15-0.05-1.98-0.08-2.48-0.08
		c-0.66,0-1.46,0.03-2.4,0.08c-0.89,0.05-1.6,0.08-2.13,0.08c-0.1,0-0.16-0.08-0.16-0.24s0.05-0.23,0.16-0.23
		c0.68,0,1.18-0.07,1.48-0.22c0.3-0.14,0.45-0.4,0.45-0.76c0-0.44-0.26-1.19-0.79-2.23l-2.68-5.29h-9.69l-1.54,3.41
		c-0.34,0.76-0.51,1.46-0.51,2.12c0,0.94,0.33,1.67,1,2.2c0.67,0.52,1.57,0.78,2.7,0.78c0.13,0,0.2,0.08,0.2,0.23
		s-0.07,0.24-0.2,0.24c-0.47,0-1.16-0.03-2.05-0.08c-1-0.05-1.86-0.08-2.6-0.08c-0.71,0-1.56,0.03-2.56,0.08
		c-0.89,0.05-1.61,0.08-2.17,0.08c-0.1,0-0.16-0.08-0.16-0.24s0.05-0.23,0.16-0.23c0.73,0,1.35-0.15,1.85-0.45
		c0.5-0.3,1-0.84,1.5-1.61c0.5-0.77,1.09-1.91,1.77-3.43l8.55-18.7c0.05-0.08,0.17-0.12,0.35-0.12c0.21,0,0.33,0.04,0.36,0.12
		l9.84,19.29c0.92,1.86,1.68,3.14,2.28,3.84s1.23,1.06,1.89,1.06C282.13-48.65,282.2-48.57,282.2-48.42z M261.84-58.26h8.59
		l-4.53-8.94L261.84-58.26z"/>
</g>
<g class="st0">
	<g class="st1">
		<path class="st2" d="M483.54,87.02v-31.4c0-10.02,2.59-19.74,7.5-28.13c8.62-14.73,23.05-23.91,39.61-25.18
			c17.02-1.31,33.76,6,44.78,19.55c7.81,9.6,12.19,21.88,12.35,34.57l0.37,30.35L483.54,87.02z M534.56,6.16
			c-1.2,0-2.4,0.05-3.61,0.14c-15.23,1.17-28.52,9.63-36.46,23.22c-4.55,7.77-6.95,16.8-6.95,26.11v27.39l96.55-0.21l-0.32-26.31
			c-0.14-11.8-4.21-23.2-11.45-32.1C562.91,12.81,549,6.16,534.56,6.16z"/>
	</g>
	<g class="st1">
		<path class="st2" d="M371.74,87.02v-31.4c0-10.02,2.59-19.74,7.5-28.13c8.62-14.73,23.05-23.91,39.61-25.18
			c17.02-1.31,33.76,6,44.78,19.55c7.81,9.6,12.19,21.88,12.35,34.57l0.37,30.35L371.74,87.02z M422.75,6.16
			c-1.2,0-2.4,0.05-3.61,0.14c-15.23,1.17-28.52,9.63-36.46,23.22c-4.55,7.77-6.95,16.8-6.95,26.11v27.39l96.55-0.21l-0.32-26.31
			c-0.14-11.8-4.21-23.2-11.45-32.1C451.1,12.81,437.2,6.16,422.75,6.16z"/>
	</g>
	<g class="st1">
		<path class="st2" d="M308.74,86.91V2.14l2.05,0.05c15.29,0.4,29.7,7.56,39.55,19.66c7.81,9.6,12.19,21.88,12.35,34.57l0.37,30.35
			L308.74,86.91z M312.74,6.29V82.9L359,82.8l-0.32-26.31c-0.14-11.8-4.21-23.2-11.45-32.1l0,0
			C338.57,13.73,326.09,7.21,312.74,6.29z"/>
	</g>
</g>
<g>
	<g>
		<g>
			<path class="st2" d="M177.81,88.37v-31.4c0-10.02,2.59-19.74,7.5-28.13c8.62-14.73,23.05-23.91,39.61-25.18
				c17.02-1.31,33.76,6,44.78,19.55c7.81,9.6,12.19,21.88,12.35,34.57l0.37,30.35L177.81,88.37z M228.82,7.51
				c-1.2,0-2.4,0.05-3.61,0.14c-15.23,1.17-28.52,9.63-36.46,23.22c-4.55,7.77-6.95,16.8-6.95,26.11v27.39l96.55-0.21l-0.32-26.31
				c-0.14-11.8-4.21-23.2-11.45-32.1C257.17,14.16,243.27,7.51,228.82,7.51z"/>
		</g>
		<g>
			<path class="st2" d="M66,88.37v-31.4c0-10.02,2.59-19.74,7.5-28.13C82.11,14.11,96.55,4.93,113.1,3.66
				c17.02-1.31,33.76,6,44.78,19.55c7.81,9.6,12.19,21.88,12.35,34.57l0.37,30.35L66,88.37z M117.02,7.51c-1.2,0-2.4,0.05-3.61,0.14
				c-15.23,1.17-28.52,9.63-36.46,23.22C72.4,38.63,70,47.66,70,56.97v27.39l96.55-0.21l-0.32-26.31
				c-0.14-11.8-4.21-23.2-11.45-32.1C145.37,14.16,131.46,7.51,117.02,7.51z"/>
		</g>
		<g>
			<path class="st2" d="M3,88.26V3.49l2.05,0.05c15.29,0.4,29.7,7.56,39.55,19.66c7.81,9.6,12.19,21.88,12.35,34.57l0.37,30.35
				L3,88.26z M7,7.64v76.61l46.26-0.1l-0.32-26.31c-0.14-11.8-4.21-23.2-11.45-32.1l0,0C32.83,15.08,20.36,8.56,7,7.64z"/>
		</g>
	</g>
	<g>
		<path class="st2" d="M2.92,107.46c-0.03,0.08-0.1,0.11-0.24,0.1c-0.13-0.01-0.2-0.06-0.2-0.14c0.1-1.04,0.22-2.4,0.35-4.06
			c0.13-1.66,0.2-2.91,0.2-3.74c0-0.13,0.07-0.2,0.22-0.2c0.14,0,0.22,0.07,0.22,0.2c0,0.58,0.75,0.86,2.24,0.86
			c2.26,0.08,4.9,0.12,7.92,0.12c1.55,0,3.19-0.03,4.92-0.08l2.68-0.04c1,0,1.73-0.06,2.19-0.2c0.46-0.13,0.75-0.39,0.89-0.78
			c0.03-0.1,0.11-0.16,0.26-0.16c0.14,0,0.22,0.05,0.22,0.16c-0.08,0.78-0.16,2.04-0.26,3.76c-0.09,1.72-0.14,3.11-0.14,4.16
			c0,0.08-0.07,0.12-0.2,0.12s-0.21-0.04-0.24-0.12c-0.39-2.01-1.13-3.52-2.21-4.53c-1.08-1.01-2.4-1.51-3.98-1.51
			c-0.76,0-1.27,0.16-1.52,0.49c-0.25,0.33-0.37,0.95-0.37,1.86v18.07c0,0.81,0.08,1.4,0.24,1.76c0.16,0.37,0.46,0.61,0.91,0.74
			c0.45,0.13,1.15,0.2,2.13,0.2c0.08,0,0.12,0.08,0.12,0.23s-0.04,0.24-0.12,0.24c-0.95,0-1.69-0.01-2.24-0.04l-3.27-0.04
			l-3.19,0.04c-0.55,0.03-1.31,0.04-2.28,0.04c-0.08,0-0.12-0.08-0.12-0.24s0.04-0.23,0.12-0.23c0.95,0,1.65-0.06,2.11-0.2
			c0.46-0.13,0.77-0.39,0.94-0.76c0.17-0.38,0.26-0.96,0.26-1.74v-18.15c0-0.89-0.12-1.49-0.35-1.8c-0.24-0.31-0.72-0.47-1.46-0.47
			C6.53,101.39,4.29,103.41,2.92,107.46z"/>
		<path class="st2" d="M45.92,118.68c0.08,0,0.15,0.02,0.22,0.06c0.07,0.04,0.1,0.07,0.1,0.1c-0.26,2.04-0.39,3.89-0.39,5.57
			c0,0.21-0.04,0.36-0.12,0.45c-0.08,0.09-0.24,0.14-0.47,0.14h-17.4c-0.08,0-0.12-0.08-0.12-0.24s0.04-0.23,0.12-0.23
			c0.84,0,1.45-0.06,1.83-0.2c0.38-0.13,0.64-0.39,0.77-0.76c0.13-0.38,0.2-0.96,0.2-1.74v-18.15c0-0.78-0.07-1.36-0.2-1.73
			c-0.13-0.37-0.39-0.62-0.79-0.76c-0.39-0.14-1-0.22-1.81-0.22c-0.08,0-0.12-0.08-0.12-0.23s0.04-0.24,0.12-0.24h16.7
			c0.26,0,0.39,0.12,0.39,0.35l0.08,5.21c0,0.05-0.07,0.09-0.22,0.12c-0.14,0.03-0.23,0-0.26-0.08c-0.42-1.52-1.13-2.64-2.13-3.37
			c-1-0.73-2.31-1.1-3.94-1.1H37.3c-0.79,0-1.37,0.17-1.73,0.51c-0.37,0.34-0.55,0.86-0.55,1.57v8h3.27c1.52,0,2.69-0.26,3.5-0.78
			c0.81-0.52,1.22-1.25,1.22-2.2c0-0.08,0.07-0.12,0.22-0.12c0.14,0,0.22,0.04,0.22,0.12l-0.04,3.53l0.04,1.88
			c0.05,0.89,0.08,1.59,0.08,2.12c0,0.05-0.08,0.08-0.24,0.08c-0.16,0-0.24-0.03-0.24-0.08c0-1.07-0.41-1.91-1.24-2.53
			c-0.83-0.61-2.02-0.92-3.56-0.92h-3.23v8.86c0,0.76,0.14,1.32,0.43,1.69c0.29,0.37,0.75,0.55,1.38,0.55h1.3
			c2.05,0,3.69-0.42,4.92-1.25c1.23-0.84,2.14-2.13,2.72-3.88C45.77,118.7,45.82,118.68,45.92,118.68z"/>
		<path class="st2" d="M76.4,124.75c0,0.16-0.07,0.24-0.2,0.24c-0.53,0-1.34-0.03-2.44-0.08c-1.16-0.05-1.98-0.08-2.48-0.08
			c-0.66,0-1.46,0.03-2.4,0.08c-0.89,0.05-1.6,0.08-2.13,0.08c-0.11,0-0.16-0.08-0.16-0.24s0.05-0.23,0.16-0.23
			c0.68,0,1.17-0.07,1.48-0.22c0.3-0.14,0.45-0.4,0.45-0.76c0-0.44-0.26-1.19-0.79-2.23l-2.68-5.29h-9.69L54,119.42
			c-0.34,0.76-0.51,1.46-0.51,2.12c0,0.94,0.33,1.67,1,2.2c0.67,0.52,1.57,0.78,2.7,0.78c0.13,0,0.2,0.08,0.2,0.23
			s-0.07,0.24-0.2,0.24c-0.47,0-1.16-0.03-2.05-0.08c-1-0.05-1.86-0.08-2.6-0.08c-0.71,0-1.56,0.03-2.56,0.08
			c-0.89,0.05-1.61,0.08-2.17,0.08c-0.1,0-0.16-0.08-0.16-0.24s0.05-0.23,0.16-0.23c0.73,0,1.35-0.15,1.85-0.45
			c0.5-0.3,1-0.84,1.5-1.61c0.5-0.77,1.09-1.91,1.77-3.43l8.54-18.7c0.05-0.08,0.17-0.12,0.35-0.12c0.21,0,0.33,0.04,0.35,0.12
			l9.84,19.29c0.92,1.86,1.68,3.14,2.28,3.84c0.6,0.71,1.23,1.06,1.89,1.06C76.34,124.52,76.4,124.59,76.4,124.75z M56.04,114.91
			h8.58l-4.53-8.94L56.04,114.91z"/>
		<path class="st2" d="M75.42,107.46c-0.03,0.08-0.1,0.11-0.24,0.1c-0.13-0.01-0.2-0.06-0.2-0.14c0.1-1.04,0.22-2.4,0.35-4.06
			c0.13-1.66,0.2-2.91,0.2-3.74c0-0.13,0.07-0.2,0.22-0.2c0.14,0,0.22,0.07,0.22,0.2c0,0.58,0.75,0.86,2.24,0.86
			c2.26,0.08,4.9,0.12,7.92,0.12c1.55,0,3.19-0.03,4.92-0.08l2.68-0.04c1,0,1.73-0.06,2.19-0.2c0.46-0.13,0.75-0.39,0.89-0.78
			c0.03-0.1,0.11-0.16,0.26-0.16c0.14,0,0.22,0.05,0.22,0.16c-0.08,0.78-0.16,2.04-0.26,3.76c-0.09,1.72-0.14,3.11-0.14,4.16
			c0,0.08-0.07,0.12-0.2,0.12s-0.21-0.04-0.24-0.12c-0.39-2.01-1.13-3.52-2.21-4.53c-1.08-1.01-2.4-1.51-3.98-1.51
			c-0.76,0-1.27,0.16-1.52,0.49c-0.25,0.33-0.37,0.95-0.37,1.86v18.07c0,0.81,0.08,1.4,0.24,1.76c0.16,0.37,0.46,0.61,0.91,0.74
			c0.45,0.13,1.15,0.2,2.13,0.2c0.08,0,0.12,0.08,0.12,0.23s-0.04,0.24-0.12,0.24c-0.95,0-1.69-0.01-2.24-0.04l-3.27-0.04
			l-3.19,0.04c-0.55,0.03-1.31,0.04-2.28,0.04c-0.08,0-0.12-0.08-0.12-0.24s0.04-0.23,0.12-0.23c0.95,0,1.65-0.06,2.11-0.2
			c0.46-0.13,0.77-0.39,0.94-0.76c0.17-0.38,0.26-0.96,0.26-1.74v-18.15c0-0.89-0.12-1.49-0.35-1.8c-0.24-0.31-0.72-0.47-1.46-0.47
			C79.03,101.39,76.78,103.41,75.42,107.46z"/>
		<path class="st2" d="M107.51,123.48c0.18,0.38,0.53,0.65,1.04,0.8c0.51,0.16,1.33,0.24,2.46,0.24c0.08,0,0.12,0.08,0.12,0.23
			s-0.04,0.24-0.12,0.24c-1.08,0-1.92-0.01-2.52-0.04l-3.43-0.04l-2.87,0.04c-0.53,0.03-1.23,0.04-2.13,0.04
			c-0.08,0-0.12-0.08-0.12-0.24s0.04-0.23,0.12-0.23c0.84,0,1.45-0.06,1.83-0.2c0.38-0.13,0.64-0.39,0.77-0.76
			c0.13-0.38,0.2-0.96,0.2-1.74v-18.15c0-0.78-0.07-1.36-0.2-1.73c-0.13-0.37-0.39-0.62-0.79-0.76c-0.39-0.14-1-0.22-1.81-0.22
			c-0.08,0-0.12-0.08-0.12-0.23s0.04-0.24,0.12-0.24l2.09,0.04c1.21,0.05,2.17,0.08,2.88,0.08c0.63,0,1.38-0.04,2.24-0.12
			c0.34-0.03,0.77-0.05,1.3-0.08c0.52-0.03,1.13-0.04,1.81-0.04c2.68,0,4.79,0.56,6.34,1.67c1.55,1.11,2.32,2.83,2.32,5.15
			c0,1.62-0.42,2.99-1.26,4.12c-0.84,1.12-1.92,1.97-3.25,2.55c-1.33,0.58-2.68,0.86-4.08,0.86c-0.71,0-1.33-0.06-1.85-0.2
			c-0.05,0-0.08-0.06-0.08-0.2c0-0.08,0.02-0.16,0.06-0.23c0.04-0.08,0.08-0.1,0.14-0.08c0.39,0.1,0.84,0.16,1.34,0.16
			c1.21,0,2.21-0.56,3.01-1.69c0.8-1.12,1.2-2.72,1.2-4.78s-0.44-3.66-1.32-4.78c-0.88-1.12-2.16-1.69-3.84-1.69
			c-0.74,0-1.23,0.17-1.5,0.51c-0.26,0.34-0.39,1.01-0.39,2v17.91C107.24,122.49,107.33,123.1,107.51,123.48z"/>
		<path class="st2" d="M148.44,112.87c1.77,1.15,2.66,2.81,2.66,4.98c0,1.36-0.38,2.59-1.14,3.7c-0.76,1.11-1.83,1.99-3.19,2.63
			c-1.37,0.64-2.89,0.96-4.57,0.96c-0.71,0-1.56-0.04-2.56-0.12c-0.39-0.03-0.87-0.05-1.44-0.08c-0.56-0.03-1.19-0.04-1.87-0.04
			l-2.88,0.04c-0.53,0.03-1.23,0.04-2.13,0.04c-0.08,0-0.12-0.08-0.12-0.24s0.04-0.23,0.12-0.23c0.84,0,1.45-0.06,1.83-0.2
			c0.38-0.13,0.64-0.39,0.79-0.76c0.14-0.38,0.22-0.96,0.22-1.74v-18.15c0-0.78-0.07-1.36-0.2-1.73c-0.13-0.37-0.39-0.62-0.79-0.76
			c-0.39-0.14-1-0.22-1.81-0.22c-0.05,0-0.08-0.08-0.08-0.23s0.03-0.24,0.08-0.24h16.5c0.37,0,0.6,0.05,0.69,0.16
			c0.09,0.1,0.14,0.38,0.14,0.82l0.31,5.96c0,0.08-0.07,0.12-0.2,0.12c-0.13,0-0.22-0.04-0.28-0.12c-0.39-2.01-1.12-3.52-2.19-4.53
			c-1.06-1.01-2.38-1.51-3.96-1.51h-1.65c-0.84,0-1.41,0.18-1.71,0.53c-0.3,0.35-0.45,1.01-0.45,1.98v7.49
			c1.05-0.16,2.1-0.23,3.15-0.23C144.43,111.15,146.67,111.72,148.44,112.87z M145.27,122.81c0.81-0.9,1.22-2.23,1.22-3.98
			c0-2.25-0.54-3.91-1.61-4.98c-1.08-1.07-2.59-1.61-4.53-1.61c-0.63,0-1.22,0.05-1.77,0.16v9.41c0,0.78,0.19,1.37,0.57,1.76
			c0.38,0.39,1.15,0.59,2.3,0.59C143.19,124.16,144.46,123.71,145.27,122.81z"/>
		<path class="st2" d="M181.58,124.75c0,0.16-0.07,0.24-0.2,0.24c-0.53,0-1.34-0.03-2.44-0.08c-1.16-0.05-1.98-0.08-2.48-0.08
			c-0.66,0-1.46,0.03-2.4,0.08c-0.89,0.05-1.6,0.08-2.13,0.08c-0.11,0-0.16-0.08-0.16-0.24s0.05-0.23,0.16-0.23
			c0.68,0,1.17-0.07,1.48-0.22c0.3-0.14,0.45-0.4,0.45-0.76c0-0.44-0.26-1.19-0.79-2.23l-2.68-5.29h-9.69l-1.54,3.41
			c-0.34,0.76-0.51,1.46-0.51,2.12c0,0.94,0.33,1.67,1,2.2c0.67,0.52,1.57,0.78,2.7,0.78c0.13,0,0.2,0.08,0.2,0.23
			s-0.07,0.24-0.2,0.24c-0.47,0-1.16-0.03-2.05-0.08c-1-0.05-1.86-0.08-2.6-0.08c-0.71,0-1.56,0.03-2.56,0.08
			c-0.89,0.05-1.61,0.08-2.17,0.08c-0.1,0-0.16-0.08-0.16-0.24s0.05-0.23,0.16-0.23c0.73,0,1.35-0.15,1.85-0.45
			c0.5-0.3,1-0.84,1.5-1.61c0.5-0.77,1.09-1.91,1.77-3.43l8.54-18.7c0.05-0.08,0.17-0.12,0.35-0.12c0.21,0,0.33,0.04,0.35,0.12
			l9.84,19.29c0.92,1.86,1.68,3.14,2.28,3.84c0.6,0.71,1.23,1.06,1.89,1.06C181.52,124.52,181.58,124.59,181.58,124.75z
			 M161.22,114.91h8.58l-4.53-8.94L161.22,114.91z"/>
		<path class="st2" d="M209.78,124.75c0,0.16-0.07,0.24-0.2,0.24c-0.53,0-1.34-0.03-2.44-0.08c-1.16-0.05-1.98-0.08-2.48-0.08
			c-0.66,0-1.46,0.03-2.4,0.08c-0.89,0.05-1.6,0.08-2.13,0.08c-0.11,0-0.16-0.08-0.16-0.24s0.05-0.23,0.16-0.23
			c0.68,0,1.17-0.07,1.48-0.22c0.3-0.14,0.45-0.4,0.45-0.76c0-0.44-0.26-1.19-0.79-2.23l-7.8-15.33l-6.1,13.45
			c-0.34,0.76-0.51,1.46-0.51,2.12c0,0.94,0.33,1.67,1,2.2c0.67,0.52,1.57,0.78,2.7,0.78c0.13,0,0.2,0.08,0.2,0.23
			s-0.07,0.24-0.2,0.24c-0.47,0-1.16-0.03-2.05-0.08c-1-0.05-1.86-0.08-2.6-0.08c-0.71,0-1.56,0.03-2.56,0.08
			c-0.89,0.05-1.61,0.08-2.17,0.08c-0.1,0-0.16-0.08-0.16-0.24s0.05-0.23,0.16-0.23c0.73,0,1.35-0.15,1.85-0.45
			c0.5-0.3,1-0.84,1.5-1.61c0.5-0.77,1.09-1.91,1.77-3.43l8.54-18.7c0.05-0.08,0.17-0.12,0.35-0.12c0.21,0,0.33,0.04,0.35,0.12
			l9.84,19.29c0.92,1.86,1.68,3.14,2.28,3.84c0.6,0.71,1.23,1.06,1.89,1.06C209.71,124.52,209.78,124.59,209.78,124.75z"/>
		<path class="st2" d="M229.23,118.68c0.08,0,0.15,0.02,0.22,0.06c0.07,0.04,0.1,0.07,0.1,0.1c-0.26,2.04-0.39,3.89-0.39,5.57
			c0,0.21-0.04,0.36-0.12,0.45c-0.08,0.09-0.24,0.14-0.47,0.14h-17.4c-0.08,0-0.12-0.08-0.12-0.24s0.04-0.23,0.12-0.23
			c0.84,0,1.45-0.06,1.83-0.2c0.38-0.13,0.64-0.39,0.77-0.76c0.13-0.38,0.2-0.96,0.2-1.74v-18.15c0-0.78-0.07-1.36-0.2-1.73
			c-0.13-0.37-0.39-0.62-0.79-0.76c-0.39-0.14-1-0.22-1.81-0.22c-0.08,0-0.12-0.08-0.12-0.23s0.04-0.24,0.12-0.24h16.7
			c0.26,0,0.39,0.12,0.39,0.35l0.08,5.21c0,0.05-0.07,0.09-0.22,0.12c-0.14,0.03-0.23,0-0.26-0.08c-0.42-1.52-1.13-2.64-2.13-3.37
			c-1-0.73-2.31-1.1-3.94-1.1h-1.18c-0.79,0-1.37,0.17-1.73,0.51c-0.37,0.34-0.55,0.86-0.55,1.57v8h3.27c1.52,0,2.69-0.26,3.5-0.78
			c0.81-0.52,1.22-1.25,1.22-2.2c0-0.08,0.07-0.12,0.22-0.12c0.14,0,0.22,0.04,0.22,0.12l-0.04,3.53l0.04,1.88
			c0.05,0.89,0.08,1.59,0.08,2.12c0,0.05-0.08,0.08-0.24,0.08c-0.16,0-0.24-0.03-0.24-0.08c0-1.07-0.41-1.91-1.24-2.53
			c-0.83-0.61-2.02-0.92-3.56-0.92h-3.23v8.86c0,0.76,0.14,1.32,0.43,1.69c0.29,0.37,0.75,0.55,1.38,0.55h1.3
			c2.05,0,3.69-0.42,4.92-1.25c1.23-0.84,2.14-2.13,2.72-3.88C229.07,118.7,229.12,118.68,229.23,118.68z"/>
		<path class="st2" d="M233.28,107.46c-0.03,0.08-0.1,0.11-0.24,0.1c-0.13-0.01-0.2-0.06-0.2-0.14c0.1-1.04,0.22-2.4,0.35-4.06
			c0.13-1.66,0.2-2.91,0.2-3.74c0-0.13,0.07-0.2,0.22-0.2c0.14,0,0.22,0.07,0.22,0.2c0,0.58,0.75,0.86,2.24,0.86
			c2.26,0.08,4.9,0.12,7.92,0.12c1.55,0,3.19-0.03,4.92-0.08l2.68-0.04c1,0,1.73-0.06,2.19-0.2c0.46-0.13,0.75-0.39,0.89-0.78
			c0.03-0.1,0.11-0.16,0.26-0.16c0.14,0,0.22,0.05,0.22,0.16c-0.08,0.78-0.16,2.04-0.26,3.76c-0.09,1.72-0.14,3.11-0.14,4.16
			c0,0.08-0.07,0.12-0.2,0.12s-0.21-0.04-0.24-0.12c-0.39-2.01-1.13-3.52-2.21-4.53c-1.08-1.01-2.4-1.51-3.98-1.51
			c-0.76,0-1.27,0.16-1.52,0.49c-0.25,0.33-0.37,0.95-0.37,1.86v18.07c0,0.81,0.08,1.4,0.24,1.76c0.16,0.37,0.46,0.61,0.91,0.74
			c0.45,0.13,1.15,0.2,2.13,0.2c0.08,0,0.12,0.08,0.12,0.23s-0.04,0.24-0.12,0.24c-0.95,0-1.69-0.01-2.24-0.04l-3.27-0.04
			l-3.19,0.04c-0.55,0.03-1.31,0.04-2.28,0.04c-0.08,0-0.12-0.08-0.12-0.24s0.04-0.23,0.12-0.23c0.95,0,1.65-0.06,2.11-0.2
			c0.46-0.13,0.77-0.39,0.94-0.76c0.17-0.38,0.26-0.96,0.26-1.74v-18.15c0-0.89-0.12-1.49-0.35-1.8c-0.24-0.31-0.72-0.47-1.46-0.47
			C236.89,101.39,234.65,103.41,233.28,107.46z"/>
		<path class="st2" d="M282.27,124.75c0,0.16-0.07,0.24-0.2,0.24c-0.53,0-1.34-0.03-2.44-0.08c-1.15-0.05-1.98-0.08-2.48-0.08
			c-0.66,0-1.46,0.03-2.4,0.08c-0.89,0.05-1.6,0.08-2.13,0.08c-0.1,0-0.16-0.08-0.16-0.24s0.05-0.23,0.16-0.23
			c0.68,0,1.18-0.07,1.48-0.22c0.3-0.14,0.45-0.4,0.45-0.76c0-0.44-0.26-1.19-0.79-2.23l-2.68-5.29h-9.69l-1.54,3.41
			c-0.34,0.76-0.51,1.46-0.51,2.12c0,0.94,0.33,1.67,1,2.2c0.67,0.52,1.57,0.78,2.7,0.78c0.13,0,0.2,0.08,0.2,0.23
			s-0.07,0.24-0.2,0.24c-0.47,0-1.16-0.03-2.05-0.08c-1-0.05-1.86-0.08-2.6-0.08c-0.71,0-1.56,0.03-2.56,0.08
			c-0.89,0.05-1.61,0.08-2.17,0.08c-0.1,0-0.16-0.08-0.16-0.24s0.05-0.23,0.16-0.23c0.73,0,1.35-0.15,1.85-0.45
			c0.5-0.3,1-0.84,1.5-1.61c0.5-0.77,1.09-1.91,1.77-3.43l8.55-18.7c0.05-0.08,0.17-0.12,0.35-0.12c0.21,0,0.33,0.04,0.36,0.12
			l9.84,19.29c0.92,1.86,1.68,3.14,2.28,3.84s1.23,1.06,1.89,1.06C282.2,124.52,282.27,124.59,282.27,124.75z M261.91,114.91h8.59
			l-4.53-8.94L261.91,114.91z"/>
	</g>
</g>
<g class="st0">
	<g class="st1">
		<g>
			<path class="st2" d="M-123.89,88.37v-31.4c0-10.02,2.59-19.74,7.5-28.13c8.62-14.73,23.05-23.91,39.61-25.18
				c17.02-1.31,33.76,6,44.78,19.55c7.81,9.6,12.19,21.88,12.35,34.57l0.37,30.35L-123.89,88.37z M-72.87,7.51
				c-1.2,0-2.4,0.05-3.61,0.14c-15.23,1.17-28.52,9.63-36.46,23.22c-4.55,7.77-6.95,16.8-6.95,26.11v27.39l96.55-0.21l-0.32-26.31
				c-0.14-11.8-4.21-23.2-11.45-32.1C-44.52,14.16-58.43,7.51-72.87,7.51z"/>
		</g>
		<g>
			<path class="st2" d="M-235.7,88.37v-31.4c0-10.02,2.59-19.74,7.5-28.13c8.62-14.73,23.05-23.91,39.61-25.18
				c17.02-1.31,33.76,6,44.78,19.55c7.81,9.6,12.19,21.88,12.35,34.57l0.37,30.35L-235.7,88.37z M-184.68,7.51
				c-1.2,0-2.4,0.05-3.61,0.14c-15.23,1.17-28.52,9.63-36.46,23.22c-4.55,7.77-6.95,16.8-6.95,26.11v27.39l96.55-0.21l-0.32-26.31
				c-0.14-11.8-4.21-23.2-11.45-32.1C-156.33,14.16-170.24,7.51-184.68,7.51z"/>
		</g>
		<g>
			<path class="st2" d="M-298.69,88.26V3.49l2.05,0.05c15.29,0.4,29.7,7.56,39.55,19.66c7.81,9.6,12.19,21.88,12.35,34.57
				l0.37,30.35L-298.69,88.26z M-294.69,7.64v76.61l46.26-0.1l-0.32-26.31c-0.14-11.8-4.21-23.2-11.45-32.1l0,0
				C-268.86,15.08-281.34,8.56-294.69,7.64z"/>
		</g>
	</g>
	<g class="st1">
		<path class="st2" d="M-298.77,107.46c-0.03,0.08-0.1,0.11-0.24,0.1c-0.13-0.01-0.2-0.06-0.2-0.14c0.1-1.04,0.22-2.4,0.35-4.06
			c0.13-1.66,0.2-2.91,0.2-3.74c0-0.13,0.07-0.2,0.22-0.2c0.14,0,0.22,0.07,0.22,0.2c0,0.58,0.75,0.86,2.24,0.86
			c2.26,0.08,4.9,0.12,7.92,0.12c1.55,0,3.19-0.03,4.92-0.08l2.68-0.04c1,0,1.73-0.06,2.19-0.2c0.46-0.13,0.75-0.39,0.89-0.78
			c0.03-0.1,0.11-0.16,0.26-0.16c0.14,0,0.22,0.05,0.22,0.16c-0.08,0.78-0.16,2.04-0.26,3.76c-0.09,1.72-0.14,3.11-0.14,4.16
			c0,0.08-0.07,0.12-0.2,0.12s-0.21-0.04-0.24-0.12c-0.39-2.01-1.13-3.52-2.21-4.53c-1.08-1.01-2.4-1.51-3.98-1.51
			c-0.76,0-1.27,0.16-1.52,0.49c-0.25,0.33-0.37,0.95-0.37,1.86v18.07c0,0.81,0.08,1.4,0.24,1.76c0.16,0.37,0.46,0.61,0.91,0.74
			c0.45,0.13,1.15,0.2,2.13,0.2c0.08,0,0.12,0.08,0.12,0.23s-0.04,0.24-0.12,0.24c-0.95,0-1.69-0.01-2.24-0.04l-3.27-0.04
			l-3.19,0.04c-0.55,0.03-1.31,0.04-2.28,0.04c-0.08,0-0.12-0.08-0.12-0.24s0.04-0.23,0.12-0.23c0.95,0,1.65-0.06,2.11-0.2
			c0.46-0.13,0.77-0.39,0.94-0.76c0.17-0.38,0.26-0.96,0.26-1.74v-18.15c0-0.89-0.12-1.49-0.35-1.8c-0.24-0.31-0.72-0.47-1.46-0.47
			C-295.16,101.39-297.41,103.41-298.77,107.46z"/>
		<path class="st2" d="M-255.77,118.68c0.08,0,0.15,0.02,0.22,0.06c0.07,0.04,0.1,0.07,0.1,0.1c-0.26,2.04-0.39,3.89-0.39,5.57
			c0,0.21-0.04,0.36-0.12,0.45c-0.08,0.09-0.24,0.14-0.47,0.14h-17.4c-0.08,0-0.12-0.08-0.12-0.24s0.04-0.23,0.12-0.23
			c0.84,0,1.45-0.06,1.83-0.2c0.38-0.13,0.64-0.39,0.77-0.76c0.13-0.38,0.2-0.96,0.2-1.74v-18.15c0-0.78-0.07-1.36-0.2-1.73
			c-0.13-0.37-0.39-0.62-0.79-0.76c-0.39-0.14-1-0.22-1.81-0.22c-0.08,0-0.12-0.08-0.12-0.23s0.04-0.24,0.12-0.24h16.7
			c0.26,0,0.39,0.12,0.39,0.35l0.08,5.21c0,0.05-0.07,0.09-0.22,0.12c-0.14,0.03-0.23,0-0.26-0.08c-0.42-1.52-1.13-2.64-2.13-3.37
			c-1-0.73-2.31-1.1-3.94-1.1h-1.18c-0.79,0-1.37,0.17-1.73,0.51c-0.37,0.34-0.55,0.86-0.55,1.57v8h3.27c1.52,0,2.69-0.26,3.5-0.78
			c0.81-0.52,1.22-1.25,1.22-2.2c0-0.08,0.07-0.12,0.22-0.12c0.14,0,0.22,0.04,0.22,0.12l-0.04,3.53l0.04,1.88
			c0.05,0.89,0.08,1.59,0.08,2.12c0,0.05-0.08,0.08-0.24,0.08c-0.16,0-0.24-0.03-0.24-0.08c0-1.07-0.41-1.91-1.24-2.53
			c-0.83-0.61-2.02-0.92-3.56-0.92h-3.23v8.86c0,0.76,0.14,1.32,0.43,1.69c0.29,0.37,0.75,0.55,1.38,0.55h1.3
			c2.05,0,3.69-0.42,4.92-1.25c1.23-0.84,2.14-2.13,2.72-3.88C-255.93,118.7-255.88,118.68-255.77,118.68z"/>
		<path class="st2" d="M-225.29,124.75c0,0.16-0.07,0.24-0.2,0.24c-0.53,0-1.34-0.03-2.44-0.08c-1.16-0.05-1.98-0.08-2.48-0.08
			c-0.66,0-1.46,0.03-2.4,0.08c-0.89,0.05-1.6,0.08-2.13,0.08c-0.11,0-0.16-0.08-0.16-0.24s0.05-0.23,0.16-0.23
			c0.68,0,1.17-0.07,1.48-0.22c0.3-0.14,0.45-0.4,0.45-0.76c0-0.44-0.26-1.19-0.79-2.23l-2.68-5.29h-9.69l-1.54,3.41
			c-0.34,0.76-0.51,1.46-0.51,2.12c0,0.94,0.33,1.67,1,2.2c0.67,0.52,1.57,0.78,2.7,0.78c0.13,0,0.2,0.08,0.2,0.23
			s-0.07,0.24-0.2,0.24c-0.47,0-1.16-0.03-2.05-0.08c-1-0.05-1.86-0.08-2.6-0.08c-0.71,0-1.56,0.03-2.56,0.08
			c-0.89,0.05-1.61,0.08-2.17,0.08c-0.1,0-0.16-0.08-0.16-0.24s0.05-0.23,0.16-0.23c0.73,0,1.35-0.15,1.85-0.45
			c0.5-0.3,1-0.84,1.5-1.61c0.5-0.77,1.09-1.91,1.77-3.43l8.54-18.7c0.05-0.08,0.17-0.12,0.35-0.12c0.21,0,0.33,0.04,0.35,0.12
			l9.84,19.29c0.92,1.86,1.68,3.14,2.28,3.84c0.6,0.71,1.23,1.06,1.89,1.06C-225.36,124.52-225.29,124.59-225.29,124.75z
			 M-245.65,114.91h8.58l-4.53-8.94L-245.65,114.91z"/>
		<path class="st2" d="M-226.28,107.46c-0.03,0.08-0.1,0.11-0.24,0.1c-0.13-0.01-0.2-0.06-0.2-0.14c0.1-1.04,0.22-2.4,0.35-4.06
			c0.13-1.66,0.2-2.91,0.2-3.74c0-0.13,0.07-0.2,0.22-0.2c0.14,0,0.22,0.07,0.22,0.2c0,0.58,0.75,0.86,2.24,0.86
			c2.26,0.08,4.9,0.12,7.92,0.12c1.55,0,3.19-0.03,4.92-0.08l2.68-0.04c1,0,1.73-0.06,2.19-0.2c0.46-0.13,0.75-0.39,0.89-0.78
			c0.03-0.1,0.11-0.16,0.26-0.16c0.14,0,0.22,0.05,0.22,0.16c-0.08,0.78-0.16,2.04-0.26,3.76c-0.09,1.72-0.14,3.11-0.14,4.16
			c0,0.08-0.07,0.12-0.2,0.12s-0.21-0.04-0.24-0.12c-0.39-2.01-1.13-3.52-2.21-4.53c-1.08-1.01-2.4-1.51-3.98-1.51
			c-0.76,0-1.27,0.16-1.52,0.49c-0.25,0.33-0.37,0.95-0.37,1.86v18.07c0,0.81,0.08,1.4,0.24,1.76c0.16,0.37,0.46,0.61,0.91,0.74
			c0.45,0.13,1.15,0.2,2.13,0.2c0.08,0,0.12,0.08,0.12,0.23s-0.04,0.24-0.12,0.24c-0.95,0-1.69-0.01-2.24-0.04l-3.27-0.04
			l-3.19,0.04c-0.55,0.03-1.31,0.04-2.28,0.04c-0.08,0-0.12-0.08-0.12-0.24s0.04-0.23,0.12-0.23c0.95,0,1.65-0.06,2.11-0.2
			c0.46-0.13,0.77-0.39,0.94-0.76c0.17-0.38,0.26-0.96,0.26-1.74v-18.15c0-0.89-0.12-1.49-0.35-1.8c-0.24-0.31-0.72-0.47-1.46-0.47
			C-222.67,101.39-224.91,103.41-226.28,107.46z"/>
		<path class="st2" d="M-194.18,123.48c0.18,0.38,0.53,0.65,1.04,0.8c0.51,0.16,1.33,0.24,2.46,0.24c0.08,0,0.12,0.08,0.12,0.23
			s-0.04,0.24-0.12,0.24c-1.08,0-1.92-0.01-2.52-0.04l-3.43-0.04l-2.87,0.04c-0.53,0.03-1.23,0.04-2.13,0.04
			c-0.08,0-0.12-0.08-0.12-0.24s0.04-0.23,0.12-0.23c0.84,0,1.45-0.06,1.83-0.2c0.38-0.13,0.64-0.39,0.77-0.76
			c0.13-0.38,0.2-0.96,0.2-1.74v-18.15c0-0.78-0.07-1.36-0.2-1.73c-0.13-0.37-0.39-0.62-0.79-0.76c-0.39-0.14-1-0.22-1.81-0.22
			c-0.08,0-0.12-0.08-0.12-0.23s0.04-0.24,0.12-0.24l2.09,0.04c1.21,0.05,2.17,0.08,2.88,0.08c0.63,0,1.38-0.04,2.24-0.12
			c0.34-0.03,0.77-0.05,1.3-0.08c0.52-0.03,1.13-0.04,1.81-0.04c2.68,0,4.79,0.56,6.34,1.67c1.55,1.11,2.32,2.83,2.32,5.15
			c0,1.62-0.42,2.99-1.26,4.12c-0.84,1.12-1.92,1.97-3.25,2.55c-1.33,0.58-2.68,0.86-4.08,0.86c-0.71,0-1.33-0.06-1.85-0.2
			c-0.05,0-0.08-0.06-0.08-0.2c0-0.08,0.02-0.16,0.06-0.23c0.04-0.08,0.08-0.1,0.14-0.08c0.39,0.1,0.84,0.16,1.34,0.16
			c1.21,0,2.21-0.56,3.01-1.69c0.8-1.12,1.2-2.72,1.2-4.78s-0.44-3.66-1.32-4.78c-0.88-1.12-2.16-1.69-3.84-1.69
			c-0.74,0-1.23,0.17-1.5,0.51c-0.26,0.34-0.39,1.01-0.39,2v17.91C-194.46,122.49-194.37,123.1-194.18,123.48z"/>
		<path class="st2" d="M-153.25,112.87c1.77,1.15,2.66,2.81,2.66,4.98c0,1.36-0.38,2.59-1.14,3.7c-0.76,1.11-1.83,1.99-3.19,2.63
			c-1.37,0.64-2.89,0.96-4.57,0.96c-0.71,0-1.56-0.04-2.56-0.12c-0.39-0.03-0.87-0.05-1.44-0.08c-0.56-0.03-1.19-0.04-1.87-0.04
			l-2.88,0.04c-0.53,0.03-1.23,0.04-2.13,0.04c-0.08,0-0.12-0.08-0.12-0.24s0.04-0.23,0.12-0.23c0.84,0,1.45-0.06,1.83-0.2
			c0.38-0.13,0.64-0.39,0.79-0.76c0.14-0.38,0.22-0.96,0.22-1.74v-18.15c0-0.78-0.07-1.36-0.2-1.73c-0.13-0.37-0.39-0.62-0.79-0.76
			c-0.39-0.14-1-0.22-1.81-0.22c-0.05,0-0.08-0.08-0.08-0.23s0.03-0.24,0.08-0.24h16.5c0.37,0,0.6,0.05,0.69,0.16
			c0.09,0.1,0.14,0.38,0.14,0.82l0.31,5.96c0,0.08-0.07,0.12-0.2,0.12c-0.13,0-0.22-0.04-0.28-0.12c-0.39-2.01-1.12-3.52-2.19-4.53
			c-1.06-1.01-2.38-1.51-3.96-1.51h-1.65c-0.84,0-1.41,0.18-1.71,0.53c-0.3,0.35-0.45,1.01-0.45,1.98v7.49
			c1.05-0.16,2.1-0.23,3.15-0.23C-157.26,111.15-155.02,111.72-153.25,112.87z M-156.42,122.81c0.81-0.9,1.22-2.23,1.22-3.98
			c0-2.25-0.54-3.91-1.61-4.98c-1.08-1.07-2.59-1.61-4.53-1.61c-0.63,0-1.22,0.05-1.77,0.16v9.41c0,0.78,0.19,1.37,0.57,1.76
			c0.38,0.39,1.15,0.59,2.3,0.59C-158.51,124.16-157.24,123.71-156.42,122.81z"/>
		<path class="st2" d="M-120.11,124.75c0,0.16-0.07,0.24-0.2,0.24c-0.53,0-1.34-0.03-2.44-0.08c-1.16-0.05-1.98-0.08-2.48-0.08
			c-0.66,0-1.46,0.03-2.4,0.08c-0.89,0.05-1.6,0.08-2.13,0.08c-0.11,0-0.16-0.08-0.16-0.24s0.05-0.23,0.16-0.23
			c0.68,0,1.17-0.07,1.48-0.22c0.3-0.14,0.45-0.4,0.45-0.76c0-0.44-0.26-1.19-0.79-2.23l-2.68-5.29h-9.69l-1.54,3.41
			c-0.34,0.76-0.51,1.46-0.51,2.12c0,0.94,0.33,1.67,1,2.2c0.67,0.52,1.57,0.78,2.7,0.78c0.13,0,0.2,0.08,0.2,0.23
			s-0.07,0.24-0.2,0.24c-0.47,0-1.16-0.03-2.05-0.08c-1-0.05-1.86-0.08-2.6-0.08c-0.71,0-1.56,0.03-2.56,0.08
			c-0.89,0.05-1.61,0.08-2.17,0.08c-0.1,0-0.16-0.08-0.16-0.24s0.05-0.23,0.16-0.23c0.73,0,1.35-0.15,1.85-0.45
			c0.5-0.3,1-0.84,1.5-1.61c0.5-0.77,1.09-1.91,1.77-3.43l8.54-18.7c0.05-0.08,0.17-0.12,0.35-0.12c0.21,0,0.33,0.04,0.35,0.12
			l9.84,19.29c0.92,1.86,1.68,3.14,2.28,3.84c0.6,0.71,1.23,1.06,1.89,1.06C-120.18,124.52-120.11,124.59-120.11,124.75z
			 M-140.47,114.91h8.58l-4.53-8.94L-140.47,114.91z"/>
		<path class="st2" d="M-91.92,124.75c0,0.16-0.07,0.24-0.2,0.24c-0.53,0-1.34-0.03-2.44-0.08c-1.16-0.05-1.98-0.08-2.48-0.08
			c-0.66,0-1.46,0.03-2.4,0.08c-0.89,0.05-1.6,0.08-2.13,0.08c-0.11,0-0.16-0.08-0.16-0.24s0.05-0.23,0.16-0.23
			c0.68,0,1.17-0.07,1.48-0.22c0.3-0.14,0.45-0.4,0.45-0.76c0-0.44-0.26-1.19-0.79-2.23l-7.8-15.33l-6.1,13.45
			c-0.34,0.76-0.51,1.46-0.51,2.12c0,0.94,0.33,1.67,1,2.2c0.67,0.52,1.57,0.78,2.7,0.78c0.13,0,0.2,0.08,0.2,0.23
			s-0.07,0.24-0.2,0.24c-0.47,0-1.16-0.03-2.05-0.08c-1-0.05-1.86-0.08-2.6-0.08c-0.71,0-1.56,0.03-2.56,0.08
			c-0.89,0.05-1.61,0.08-2.17,0.08c-0.1,0-0.16-0.08-0.16-0.24s0.05-0.23,0.16-0.23c0.73,0,1.35-0.15,1.85-0.45
			c0.5-0.3,1-0.84,1.5-1.61c0.5-0.77,1.09-1.91,1.77-3.43l8.54-18.7c0.05-0.08,0.17-0.12,0.35-0.12c0.21,0,0.33,0.04,0.35,0.12
			l9.84,19.29c0.92,1.86,1.68,3.14,2.28,3.84c0.6,0.71,1.23,1.06,1.89,1.06C-91.99,124.52-91.92,124.59-91.92,124.75z"/>
		<path class="st2" d="M-72.47,118.68c0.08,0,0.15,0.02,0.22,0.06c0.07,0.04,0.1,0.07,0.1,0.1c-0.26,2.04-0.39,3.89-0.39,5.57
			c0,0.21-0.04,0.36-0.12,0.45c-0.08,0.09-0.24,0.14-0.47,0.14h-17.4c-0.08,0-0.12-0.08-0.12-0.24s0.04-0.23,0.12-0.23
			c0.84,0,1.45-0.06,1.83-0.2c0.38-0.13,0.64-0.39,0.77-0.76c0.13-0.38,0.2-0.96,0.2-1.74v-18.15c0-0.78-0.07-1.36-0.2-1.73
			c-0.13-0.37-0.39-0.62-0.79-0.76c-0.39-0.14-1-0.22-1.81-0.22c-0.08,0-0.12-0.08-0.12-0.23s0.04-0.24,0.12-0.24h16.7
			c0.26,0,0.39,0.12,0.39,0.35l0.08,5.21c0,0.05-0.07,0.09-0.22,0.12c-0.14,0.03-0.23,0-0.26-0.08c-0.42-1.52-1.13-2.64-2.13-3.37
			c-1-0.73-2.31-1.1-3.94-1.1h-1.18c-0.79,0-1.37,0.17-1.73,0.51c-0.37,0.34-0.55,0.86-0.55,1.57v8h3.27c1.52,0,2.69-0.26,3.5-0.78
			c0.81-0.52,1.22-1.25,1.22-2.2c0-0.08,0.07-0.12,0.22-0.12c0.14,0,0.22,0.04,0.22,0.12l-0.04,3.53l0.04,1.88
			c0.05,0.89,0.08,1.59,0.08,2.12c0,0.05-0.08,0.08-0.24,0.08c-0.16,0-0.24-0.03-0.24-0.08c0-1.07-0.41-1.91-1.24-2.53
			c-0.83-0.61-2.02-0.92-3.56-0.92h-3.23v8.86c0,0.76,0.14,1.32,0.43,1.69c0.29,0.37,0.75,0.55,1.38,0.55h1.3
			c2.05,0,3.69-0.42,4.92-1.25c1.23-0.84,2.14-2.13,2.72-3.88C-72.63,118.7-72.57,118.68-72.47,118.68z"/>
		<path class="st2" d="M-68.41,107.46c-0.03,0.08-0.1,0.11-0.24,0.1c-0.13-0.01-0.2-0.06-0.2-0.14c0.1-1.04,0.22-2.4,0.35-4.06
			c0.13-1.66,0.2-2.91,0.2-3.74c0-0.13,0.07-0.2,0.22-0.2c0.14,0,0.22,0.07,0.22,0.2c0,0.58,0.75,0.86,2.24,0.86
			c2.26,0.08,4.9,0.12,7.92,0.12c1.55,0,3.19-0.03,4.92-0.08l2.68-0.04c1,0,1.73-0.06,2.19-0.2c0.46-0.13,0.75-0.39,0.89-0.78
			c0.03-0.1,0.11-0.16,0.26-0.16c0.14,0,0.22,0.05,0.22,0.16c-0.08,0.78-0.16,2.04-0.26,3.76c-0.09,1.72-0.14,3.11-0.14,4.16
			c0,0.08-0.07,0.12-0.2,0.12s-0.21-0.04-0.24-0.12c-0.39-2.01-1.13-3.52-2.21-4.53c-1.08-1.01-2.4-1.51-3.98-1.51
			c-0.76,0-1.27,0.16-1.52,0.49c-0.25,0.33-0.37,0.95-0.37,1.86v18.07c0,0.81,0.08,1.4,0.24,1.76c0.16,0.37,0.46,0.61,0.91,0.74
			c0.45,0.13,1.15,0.2,2.13,0.2c0.08,0,0.12,0.08,0.12,0.23s-0.04,0.24-0.12,0.24c-0.95,0-1.69-0.01-2.24-0.04l-3.27-0.04
			l-3.19,0.04c-0.55,0.03-1.31,0.04-2.28,0.04c-0.08,0-0.12-0.08-0.12-0.24s0.04-0.23,0.12-0.23c0.95,0,1.65-0.06,2.11-0.2
			c0.46-0.13,0.77-0.39,0.94-0.76c0.17-0.38,0.26-0.96,0.26-1.74v-18.15c0-0.89-0.12-1.49-0.35-1.8c-0.24-0.31-0.72-0.47-1.46-0.47
			C-64.8,101.39-67.05,103.41-68.41,107.46z"/>
		<path class="st2" d="M-19.43,124.75c0,0.16-0.07,0.24-0.2,0.24c-0.53,0-1.34-0.03-2.44-0.08c-1.15-0.05-1.98-0.08-2.48-0.08
			c-0.66,0-1.46,0.03-2.4,0.08c-0.89,0.05-1.6,0.08-2.13,0.08c-0.1,0-0.16-0.08-0.16-0.24s0.05-0.23,0.16-0.23
			c0.68,0,1.18-0.07,1.48-0.22c0.3-0.14,0.45-0.4,0.45-0.76c0-0.44-0.26-1.19-0.79-2.23l-2.68-5.29h-9.69l-1.54,3.41
			c-0.34,0.76-0.51,1.46-0.51,2.12c0,0.94,0.33,1.67,1,2.2c0.67,0.52,1.57,0.78,2.7,0.78c0.13,0,0.2,0.08,0.2,0.23
			s-0.07,0.24-0.2,0.24c-0.47,0-1.16-0.03-2.05-0.08c-1-0.05-1.86-0.08-2.6-0.08c-0.71,0-1.56,0.03-2.56,0.08
			c-0.89,0.05-1.61,0.08-2.17,0.08c-0.1,0-0.16-0.08-0.16-0.24s0.05-0.23,0.16-0.23c0.73,0,1.35-0.15,1.85-0.45
			c0.5-0.3,1-0.84,1.5-1.61c0.5-0.77,1.09-1.91,1.77-3.43l8.55-18.7c0.05-0.08,0.17-0.12,0.35-0.12c0.21,0,0.33,0.04,0.36,0.12
			l9.84,19.29c0.92,1.86,1.68,3.14,2.28,3.84s1.23,1.06,1.89,1.06C-19.49,124.52-19.43,124.59-19.43,124.75z M-39.79,114.91h8.59
			l-4.53-8.94L-39.79,114.91z"/>
	</g>
	<g class="st1">
		<path class="st2" d="M-219.18,130.96h1.24v11.58h0.11l8.18-11.58h1.23v13.82h-1.26V133.2h-0.11l-8.17,11.57h-1.22V130.96z"/>
		<path class="st2" d="M-204.75,130.96h1.46l5.01,12.04h0.12l5.01-12.04h1.46v13.82h-1.19v-11.15h-0.11l-4.66,11.15h-1.15
			l-4.66-11.15h-0.11v11.15h-1.19V130.96z"/>
		<path class="st2" d="M-188.01,144.78v-13.82h8.02v1.13h-6.75v5.2h6.33v1.13h-6.33v5.22h6.89v1.13H-188.01z"/>
		<path class="st2" d="M-176.74,144.78v-13.82h1.26v6.34h7.84v-6.34h1.26v13.82h-1.26v-6.35h-7.84v6.35H-176.74z"/>
		<path class="st2" d="M-162.71,130.96h1.24v11.58h0.11l8.18-11.58h1.23v13.82h-1.26V133.2h-0.11l-8.17,11.57h-1.22V130.96z"/>
		<path class="st2" d="M-144.23,144.78v-1.17h0.36c0.57,0,1.02-0.19,1.36-0.57c0.33-0.38,0.58-0.99,0.74-1.83
			c0.16-0.84,0.26-1.95,0.31-3.32l0.24-6.93h8.11v13.82h-1.26v-12.68h-5.65l-0.22,6.07c-0.05,1.46-0.19,2.68-0.4,3.66
			c-0.22,0.98-0.57,1.71-1.08,2.21s-1.21,0.74-2.12,0.74H-144.23z"/>
		<path class="st2" d="M-128.73,144.88c-0.27,0-0.49-0.1-0.68-0.29c-0.19-0.19-0.29-0.42-0.29-0.69c0-0.27,0.1-0.5,0.29-0.69
			c0.19-0.19,0.42-0.28,0.68-0.28c0.27,0,0.5,0.09,0.69,0.28c0.19,0.19,0.28,0.42,0.28,0.69c0,0.18-0.04,0.34-0.13,0.49
			c-0.09,0.15-0.2,0.27-0.35,0.35C-128.39,144.83-128.55,144.88-128.73,144.88z"/>
		<path class="st2" d="M-121.53,138.54h1.42l-3.37,6.23h-1.46L-121.53,138.54z M-115.44,144.78h-1.26v-12.68h-3.16
			c-0.73,0-1.33,0.12-1.81,0.37s-0.84,0.6-1.08,1.05c-0.24,0.45-0.36,0.98-0.36,1.58s0.12,1.12,0.35,1.57
			c0.24,0.44,0.59,0.78,1.07,1.02c0.48,0.24,1.08,0.36,1.8,0.36h3.77v1.15h-3.8c-0.97,0-1.79-0.17-2.44-0.52
			c-0.66-0.35-1.15-0.83-1.49-1.44c-0.33-0.62-0.5-1.33-0.5-2.13s0.17-1.52,0.5-2.14s0.83-1.11,1.49-1.46
			c0.66-0.35,1.48-0.53,2.46-0.53h4.46V144.78z"/>
		<path class="st2" d="M-103.76,144.78l-4.76-6.52h-1.99v6.52h-1.26v-13.82h1.26v6.17h1.25l5.09-6.17h1.5l-5.12,6.23l5.54,7.59
			H-103.76z"/>
		<path class="st2" d="M-89.23,137.87c0,1.44-0.26,2.69-0.77,3.75s-1.22,1.89-2.12,2.47c-0.9,0.58-1.93,0.87-3.09,0.87
			s-2.2-0.29-3.09-0.87c-0.9-0.58-1.6-1.41-2.11-2.47c-0.51-1.06-0.77-2.32-0.77-3.75s0.26-2.69,0.77-3.75
			c0.51-1.06,1.22-1.89,2.12-2.47c0.9-0.58,1.93-0.87,3.09-0.87c1.17,0,2.2,0.29,3.09,0.87s1.6,1.41,2.12,2.47
			C-89.49,135.18-89.23,136.43-89.23,137.87z M-90.46,137.87c0-1.24-0.21-2.3-0.62-3.18s-0.98-1.56-1.69-2.03
			c-0.72-0.47-1.53-0.7-2.44-0.7c-0.9,0-1.71,0.23-2.43,0.7s-1.28,1.14-1.7,2.02c-0.42,0.88-0.62,1.94-0.62,3.18
			c0,1.24,0.21,2.3,0.62,3.18c0.41,0.88,0.98,1.56,1.69,2.03s1.53,0.71,2.44,0.71s1.72-0.23,2.44-0.7c0.72-0.47,1.28-1.14,1.7-2.03
			C-90.66,140.16-90.45,139.1-90.46,137.87z"/>
		<path class="st2" d="M-86.18,144.78v-13.82h8.06v1.13h-6.8v4.94H-81c0.92,0,1.71,0.16,2.35,0.47c0.65,0.31,1.14,0.75,1.48,1.32
			c0.34,0.57,0.51,1.23,0.51,2c0,0.79-0.17,1.48-0.51,2.08c-0.34,0.59-0.83,1.06-1.48,1.39c-0.65,0.33-1.43,0.5-2.36,0.5H-86.18z
			 M-84.92,143.66H-81c0.66,0,1.22-0.13,1.68-0.39c0.46-0.26,0.81-0.6,1.06-1.04c0.24-0.43,0.36-0.92,0.36-1.45
			c0-0.74-0.27-1.36-0.82-1.87c-0.55-0.5-1.31-0.75-2.28-0.75h-3.92V143.66z"/>
		<path class="st2" d="M-62.79,135.28h-1.27c-0.09-0.47-0.26-0.91-0.51-1.31c-0.25-0.4-0.55-0.75-0.92-1.06
			c-0.37-0.3-0.79-0.54-1.26-0.7s-0.97-0.25-1.52-0.25c-0.87,0-1.67,0.23-2.38,0.68c-0.72,0.45-1.29,1.12-1.72,2
			s-0.64,1.96-0.64,3.23c0,1.28,0.21,2.36,0.64,3.24s1,1.54,1.72,1.99c0.72,0.45,1.51,0.68,2.38,0.68c0.54,0,1.05-0.08,1.52-0.25
			s0.89-0.4,1.26-0.7c0.37-0.3,0.68-0.65,0.92-1.06s0.42-0.84,0.51-1.32h1.27c-0.11,0.63-0.32,1.22-0.63,1.77
			c-0.31,0.55-0.7,1.02-1.17,1.43c-0.47,0.41-1.02,0.73-1.64,0.96c-0.62,0.23-1.29,0.34-2.03,0.34c-1.16,0-2.19-0.29-3.09-0.87
			c-0.9-0.58-1.6-1.4-2.12-2.47c-0.51-1.06-0.77-2.31-0.77-3.76s0.26-2.7,0.77-3.76c0.51-1.06,1.22-1.88,2.12-2.47
			c0.9-0.58,1.93-0.87,3.09-0.87c0.74,0,1.41,0.11,2.03,0.34c0.62,0.23,1.16,0.55,1.64,0.96c0.47,0.41,0.87,0.89,1.17,1.43
			S-62.9,134.64-62.79,135.28z"/>
		<path class="st2" d="M-48.49,137.87c0,1.44-0.26,2.69-0.77,3.75c-0.51,1.06-1.22,1.89-2.12,2.47c-0.9,0.58-1.93,0.87-3.09,0.87
			c-1.16,0-2.2-0.29-3.09-0.87c-0.9-0.58-1.6-1.41-2.11-2.47c-0.51-1.06-0.77-2.32-0.77-3.75s0.26-2.69,0.77-3.75
			c0.51-1.06,1.22-1.89,2.11-2.47c0.9-0.58,1.93-0.87,3.09-0.87c1.17,0,2.2,0.29,3.09,0.87c0.9,0.58,1.6,1.41,2.12,2.47
			C-48.75,135.18-48.49,136.43-48.49,137.87z M-49.72,137.87c0-1.24-0.21-2.3-0.62-3.18c-0.41-0.88-0.98-1.56-1.7-2.03
			c-0.71-0.47-1.53-0.7-2.44-0.7c-0.9,0-1.71,0.23-2.43,0.7s-1.28,1.14-1.7,2.02c-0.42,0.88-0.62,1.94-0.62,3.18
			c0,1.24,0.21,2.3,0.62,3.18c0.41,0.88,0.98,1.56,1.69,2.03s1.53,0.71,2.44,0.71c0.91,0,1.72-0.23,2.44-0.7s1.28-1.14,1.7-2.03
			C-49.92,140.16-49.71,139.1-49.72,137.87z"/>
		<path class="st2" d="M-45.44,144.78v-13.82h1.26v6.34h7.84v-6.34h1.26v13.82h-1.26v-6.35h-7.84v6.35H-45.44z"/>
		<path class="st2" d="M-31.39,144.78h-1.32l5.03-13.82h1.35l5.03,13.82h-1.32l-4.33-12.18h-0.09L-31.39,144.78z M-30.43,139.48
			h6.86v1.13h-6.86V139.48z"/>
	</g>
</g>
<g class="st0">
	<g class="st1">
		<g>
			<path d="M-123.89-84.03v-31.4c0-10.02,2.59-19.74,7.5-28.13c8.62-14.73,23.05-23.91,39.61-25.18c17.02-1.31,33.76,6,44.78,19.55
				c7.81,9.6,12.19,21.88,12.35,34.57l0.37,30.35L-123.89-84.03z M-72.87-164.89c-1.2,0-2.4,0.05-3.61,0.14
				c-15.23,1.17-28.52,9.63-36.46,23.22c-4.55,7.77-6.95,16.8-6.95,26.11v27.39l96.55-0.21l-0.32-26.31
				c-0.14-11.8-4.21-23.2-11.45-32.1C-44.52-158.24-58.43-164.89-72.87-164.89z"/>
		</g>
		<g>
			<path d="M-235.7-84.03v-31.4c0-10.02,2.59-19.74,7.5-28.13c8.62-14.73,23.05-23.91,39.61-25.18c17.02-1.31,33.76,6,44.78,19.55
				c7.81,9.6,12.19,21.88,12.35,34.57l0.37,30.35L-235.7-84.03z M-184.68-164.89c-1.2,0-2.4,0.05-3.61,0.14
				c-15.23,1.17-28.52,9.63-36.46,23.22c-4.55,7.77-6.95,16.8-6.95,26.11v27.39l96.55-0.21l-0.32-26.31
				c-0.14-11.8-4.21-23.2-11.45-32.1C-156.33-158.24-170.24-164.89-184.68-164.89z"/>
		</g>
		<g>
			<path d="M-298.69-84.14v-84.77l2.05,0.05c15.29,0.4,29.7,7.56,39.55,19.66c7.81,9.6,12.19,21.88,12.35,34.57l0.37,30.35
				L-298.69-84.14z M-294.69-164.76v76.61l46.26-0.1l-0.32-26.31c-0.14-11.8-4.21-23.2-11.45-32.1l0,0
				C-268.86-157.32-281.34-163.84-294.69-164.76z"/>
		</g>
	</g>
	<g class="st1">
		<path d="M-298.77-64.93c-0.03,0.08-0.1,0.11-0.24,0.1c-0.13-0.01-0.2-0.06-0.2-0.14c0.1-1.04,0.22-2.4,0.35-4.06
			c0.13-1.66,0.2-2.91,0.2-3.74c0-0.13,0.07-0.2,0.22-0.2c0.14,0,0.22,0.07,0.22,0.2c0,0.58,0.75,0.86,2.24,0.86
			c2.26,0.08,4.9,0.12,7.92,0.12c1.55,0,3.19-0.03,4.92-0.08l2.68-0.04c1,0,1.73-0.06,2.19-0.2c0.46-0.13,0.75-0.39,0.89-0.78
			c0.03-0.1,0.11-0.16,0.26-0.16c0.14,0,0.22,0.05,0.22,0.16c-0.08,0.78-0.16,2.04-0.26,3.76c-0.09,1.72-0.14,3.11-0.14,4.16
			c0,0.08-0.07,0.12-0.2,0.12s-0.21-0.04-0.24-0.12c-0.39-2.01-1.13-3.52-2.21-4.53c-1.08-1.01-2.4-1.51-3.98-1.51
			c-0.76,0-1.27,0.16-1.52,0.49c-0.25,0.33-0.37,0.95-0.37,1.86v18.07c0,0.81,0.08,1.4,0.24,1.76c0.16,0.37,0.46,0.61,0.91,0.74
			c0.45,0.13,1.15,0.2,2.13,0.2c0.08,0,0.12,0.08,0.12,0.23s-0.04,0.24-0.12,0.24c-0.95,0-1.69-0.01-2.24-0.04l-3.27-0.04
			l-3.19,0.04c-0.55,0.03-1.31,0.04-2.28,0.04c-0.08,0-0.12-0.08-0.12-0.24s0.04-0.23,0.12-0.23c0.95,0,1.65-0.06,2.11-0.2
			c0.46-0.13,0.77-0.39,0.94-0.76c0.17-0.38,0.26-0.96,0.26-1.74v-18.15c0-0.89-0.12-1.49-0.35-1.8c-0.24-0.31-0.72-0.47-1.46-0.47
			C-295.16-71.01-297.41-68.98-298.77-64.93z"/>
		<path d="M-255.77-53.72c0.08,0,0.15,0.02,0.22,0.06c0.07,0.04,0.1,0.07,0.1,0.1c-0.26,2.04-0.39,3.89-0.39,5.57
			c0,0.21-0.04,0.36-0.12,0.45c-0.08,0.09-0.24,0.14-0.47,0.14h-17.4c-0.08,0-0.12-0.08-0.12-0.24s0.04-0.23,0.12-0.23
			c0.84,0,1.45-0.06,1.83-0.2c0.38-0.13,0.64-0.39,0.77-0.76c0.13-0.38,0.2-0.96,0.2-1.74v-18.15c0-0.78-0.07-1.36-0.2-1.73
			c-0.13-0.37-0.39-0.62-0.79-0.76c-0.39-0.14-1-0.22-1.81-0.22c-0.08,0-0.12-0.08-0.12-0.23s0.04-0.24,0.12-0.24h16.7
			c0.26,0,0.39,0.12,0.39,0.35l0.08,5.21c0,0.05-0.07,0.09-0.22,0.12c-0.14,0.03-0.23,0-0.26-0.08c-0.42-1.52-1.13-2.64-2.13-3.37
			c-1-0.73-2.31-1.1-3.94-1.1h-1.18c-0.79,0-1.37,0.17-1.73,0.51c-0.37,0.34-0.55,0.86-0.55,1.57v8h3.27c1.52,0,2.69-0.26,3.5-0.78
			c0.81-0.52,1.22-1.25,1.22-2.2c0-0.08,0.07-0.12,0.22-0.12c0.14,0,0.22,0.04,0.22,0.12l-0.04,3.53l0.04,1.88
			c0.05,0.89,0.08,1.59,0.08,2.12c0,0.05-0.08,0.08-0.24,0.08c-0.16,0-0.24-0.03-0.24-0.08c0-1.07-0.41-1.91-1.24-2.53
			c-0.83-0.61-2.02-0.92-3.56-0.92h-3.23v8.86c0,0.76,0.14,1.32,0.43,1.69c0.29,0.37,0.75,0.55,1.38,0.55h1.3
			c2.05,0,3.69-0.42,4.92-1.25c1.23-0.84,2.14-2.13,2.72-3.88C-255.93-53.7-255.88-53.72-255.77-53.72z"/>
		<path d="M-225.29-47.65c0,0.16-0.07,0.24-0.2,0.24c-0.53,0-1.34-0.03-2.44-0.08c-1.16-0.05-1.98-0.08-2.48-0.08
			c-0.66,0-1.46,0.03-2.4,0.08c-0.89,0.05-1.6,0.08-2.13,0.08c-0.11,0-0.16-0.08-0.16-0.24s0.05-0.23,0.16-0.23
			c0.68,0,1.17-0.07,1.48-0.22c0.3-0.14,0.45-0.4,0.45-0.76c0-0.44-0.26-1.19-0.79-2.23l-2.68-5.29h-9.69l-1.54,3.41
			c-0.34,0.76-0.51,1.46-0.51,2.12c0,0.94,0.33,1.67,1,2.2c0.67,0.52,1.57,0.78,2.7,0.78c0.13,0,0.2,0.08,0.2,0.23
			s-0.07,0.24-0.2,0.24c-0.47,0-1.16-0.03-2.05-0.08c-1-0.05-1.86-0.08-2.6-0.08c-0.71,0-1.56,0.03-2.56,0.08
			c-0.89,0.05-1.61,0.08-2.17,0.08c-0.1,0-0.16-0.08-0.16-0.24s0.05-0.23,0.16-0.23c0.73,0,1.35-0.15,1.85-0.45
			c0.5-0.3,1-0.84,1.5-1.61c0.5-0.77,1.09-1.91,1.77-3.43l8.54-18.7c0.05-0.08,0.17-0.12,0.35-0.12c0.21,0,0.33,0.04,0.35,0.12
			l9.84,19.29c0.92,1.86,1.68,3.14,2.28,3.84c0.6,0.71,1.23,1.06,1.89,1.06C-225.36-47.88-225.29-47.8-225.29-47.65z M-245.65-57.49
			h8.58l-4.53-8.94L-245.65-57.49z"/>
		<path d="M-226.28-64.93c-0.03,0.08-0.1,0.11-0.24,0.1c-0.13-0.01-0.2-0.06-0.2-0.14c0.1-1.04,0.22-2.4,0.35-4.06
			c0.13-1.66,0.2-2.91,0.2-3.74c0-0.13,0.07-0.2,0.22-0.2c0.14,0,0.22,0.07,0.22,0.2c0,0.58,0.75,0.86,2.24,0.86
			c2.26,0.08,4.9,0.12,7.92,0.12c1.55,0,3.19-0.03,4.92-0.08l2.68-0.04c1,0,1.73-0.06,2.19-0.2c0.46-0.13,0.75-0.39,0.89-0.78
			c0.03-0.1,0.11-0.16,0.26-0.16c0.14,0,0.22,0.05,0.22,0.16c-0.08,0.78-0.16,2.04-0.26,3.76c-0.09,1.72-0.14,3.11-0.14,4.16
			c0,0.08-0.07,0.12-0.2,0.12s-0.21-0.04-0.24-0.12c-0.39-2.01-1.13-3.52-2.21-4.53c-1.08-1.01-2.4-1.51-3.98-1.51
			c-0.76,0-1.27,0.16-1.52,0.49c-0.25,0.33-0.37,0.95-0.37,1.86v18.07c0,0.81,0.08,1.4,0.24,1.76c0.16,0.37,0.46,0.61,0.91,0.74
			c0.45,0.13,1.15,0.2,2.13,0.2c0.08,0,0.12,0.08,0.12,0.23s-0.04,0.24-0.12,0.24c-0.95,0-1.69-0.01-2.24-0.04l-3.27-0.04
			l-3.19,0.04c-0.55,0.03-1.31,0.04-2.28,0.04c-0.08,0-0.12-0.08-0.12-0.24s0.04-0.23,0.12-0.23c0.95,0,1.65-0.06,2.11-0.2
			c0.46-0.13,0.77-0.39,0.94-0.76c0.17-0.38,0.26-0.96,0.26-1.74v-18.15c0-0.89-0.12-1.49-0.35-1.8c-0.24-0.31-0.72-0.47-1.46-0.47
			C-222.67-71.01-224.91-68.98-226.28-64.93z"/>
		<path d="M-194.18-48.92c0.18,0.38,0.53,0.65,1.04,0.8c0.51,0.16,1.33,0.24,2.46,0.24c0.08,0,0.12,0.08,0.12,0.23
			s-0.04,0.24-0.12,0.24c-1.08,0-1.92-0.01-2.52-0.04l-3.43-0.04l-2.87,0.04c-0.53,0.03-1.23,0.04-2.13,0.04
			c-0.08,0-0.12-0.08-0.12-0.24s0.04-0.23,0.12-0.23c0.84,0,1.45-0.06,1.83-0.2c0.38-0.13,0.64-0.39,0.77-0.76
			c0.13-0.38,0.2-0.96,0.2-1.74v-18.15c0-0.78-0.07-1.36-0.2-1.73c-0.13-0.37-0.39-0.62-0.79-0.76c-0.39-0.14-1-0.22-1.81-0.22
			c-0.08,0-0.12-0.08-0.12-0.23s0.04-0.24,0.12-0.24l2.09,0.04c1.21,0.05,2.17,0.08,2.88,0.08c0.63,0,1.38-0.04,2.24-0.12
			c0.34-0.03,0.77-0.05,1.3-0.08c0.52-0.03,1.13-0.04,1.81-0.04c2.68,0,4.79,0.56,6.34,1.67c1.55,1.11,2.32,2.83,2.32,5.15
			c0,1.62-0.42,2.99-1.26,4.12c-0.84,1.12-1.92,1.97-3.25,2.55c-1.33,0.58-2.68,0.86-4.08,0.86c-0.71,0-1.33-0.06-1.85-0.2
			c-0.05,0-0.08-0.06-0.08-0.2c0-0.08,0.02-0.16,0.06-0.23c0.04-0.08,0.08-0.1,0.14-0.08c0.39,0.1,0.84,0.16,1.34,0.16
			c1.21,0,2.21-0.56,3.01-1.69c0.8-1.12,1.2-2.72,1.2-4.78c0-2.06-0.44-3.66-1.32-4.78c-0.88-1.12-2.16-1.69-3.84-1.69
			c-0.74,0-1.23,0.17-1.5,0.51c-0.26,0.34-0.39,1.01-0.39,2v17.91C-194.46-49.91-194.37-49.3-194.18-48.92z"/>
		<path d="M-153.25-59.52c1.77,1.15,2.66,2.81,2.66,4.98c0,1.36-0.38,2.59-1.14,3.7c-0.76,1.11-1.83,1.99-3.19,2.63
			c-1.37,0.64-2.89,0.96-4.57,0.96c-0.71,0-1.56-0.04-2.56-0.12c-0.39-0.03-0.87-0.05-1.44-0.08c-0.56-0.03-1.19-0.04-1.87-0.04
			l-2.88,0.04c-0.53,0.03-1.23,0.04-2.13,0.04c-0.08,0-0.12-0.08-0.12-0.24s0.04-0.23,0.12-0.23c0.84,0,1.45-0.06,1.83-0.2
			c0.38-0.13,0.64-0.39,0.79-0.76c0.14-0.38,0.22-0.96,0.22-1.74v-18.15c0-0.78-0.07-1.36-0.2-1.73c-0.13-0.37-0.39-0.62-0.79-0.76
			c-0.39-0.14-1-0.22-1.81-0.22c-0.05,0-0.08-0.08-0.08-0.23s0.03-0.24,0.08-0.24h16.5c0.37,0,0.6,0.05,0.69,0.16
			c0.09,0.1,0.14,0.38,0.14,0.82l0.31,5.96c0,0.08-0.07,0.12-0.2,0.12c-0.13,0-0.22-0.04-0.28-0.12c-0.39-2.01-1.12-3.52-2.19-4.53
			c-1.06-1.01-2.38-1.51-3.96-1.51h-1.65c-0.84,0-1.41,0.18-1.71,0.53c-0.3,0.35-0.45,1.01-0.45,1.98v7.49
			c1.05-0.16,2.1-0.23,3.15-0.23C-157.26-61.25-155.02-60.67-153.25-59.52z M-156.42-49.59c0.81-0.9,1.22-2.23,1.22-3.98
			c0-2.25-0.54-3.91-1.61-4.98c-1.08-1.07-2.59-1.61-4.53-1.61c-0.63,0-1.22,0.05-1.77,0.16v9.41c0,0.78,0.19,1.37,0.57,1.76
			c0.38,0.39,1.15,0.59,2.3,0.59C-158.51-48.23-157.24-48.69-156.42-49.59z"/>
		<path d="M-120.11-47.65c0,0.16-0.07,0.24-0.2,0.24c-0.53,0-1.34-0.03-2.44-0.08c-1.16-0.05-1.98-0.08-2.48-0.08
			c-0.66,0-1.46,0.03-2.4,0.08c-0.89,0.05-1.6,0.08-2.13,0.08c-0.11,0-0.16-0.08-0.16-0.24s0.05-0.23,0.16-0.23
			c0.68,0,1.17-0.07,1.48-0.22c0.3-0.14,0.45-0.4,0.45-0.76c0-0.44-0.26-1.19-0.79-2.23l-2.68-5.29h-9.69l-1.54,3.41
			c-0.34,0.76-0.51,1.46-0.51,2.12c0,0.94,0.33,1.67,1,2.2c0.67,0.52,1.57,0.78,2.7,0.78c0.13,0,0.2,0.08,0.2,0.23
			s-0.07,0.24-0.2,0.24c-0.47,0-1.16-0.03-2.05-0.08c-1-0.05-1.86-0.08-2.6-0.08c-0.71,0-1.56,0.03-2.56,0.08
			c-0.89,0.05-1.61,0.08-2.17,0.08c-0.1,0-0.16-0.08-0.16-0.24s0.05-0.23,0.16-0.23c0.73,0,1.35-0.15,1.85-0.45
			c0.5-0.3,1-0.84,1.5-1.61c0.5-0.77,1.09-1.91,1.77-3.43l8.54-18.7c0.05-0.08,0.17-0.12,0.35-0.12c0.21,0,0.33,0.04,0.35,0.12
			l9.84,19.29c0.92,1.86,1.68,3.14,2.28,3.84c0.6,0.71,1.23,1.06,1.89,1.06C-120.18-47.88-120.11-47.8-120.11-47.65z M-140.47-57.49
			h8.58l-4.53-8.94L-140.47-57.49z"/>
		<path d="M-91.92-47.65c0,0.16-0.07,0.24-0.2,0.24c-0.53,0-1.34-0.03-2.44-0.08c-1.16-0.05-1.98-0.08-2.48-0.08
			c-0.66,0-1.46,0.03-2.4,0.08c-0.89,0.05-1.6,0.08-2.13,0.08c-0.11,0-0.16-0.08-0.16-0.24s0.05-0.23,0.16-0.23
			c0.68,0,1.17-0.07,1.48-0.22c0.3-0.14,0.45-0.4,0.45-0.76c0-0.44-0.26-1.19-0.79-2.23l-7.8-15.33l-6.1,13.45
			c-0.34,0.76-0.51,1.46-0.51,2.12c0,0.94,0.33,1.67,1,2.2c0.67,0.52,1.57,0.78,2.7,0.78c0.13,0,0.2,0.08,0.2,0.23
			s-0.07,0.24-0.2,0.24c-0.47,0-1.16-0.03-2.05-0.08c-1-0.05-1.86-0.08-2.6-0.08c-0.71,0-1.56,0.03-2.56,0.08
			c-0.89,0.05-1.61,0.08-2.17,0.08c-0.1,0-0.16-0.08-0.16-0.24s0.05-0.23,0.16-0.23c0.73,0,1.35-0.15,1.85-0.45
			c0.5-0.3,1-0.84,1.5-1.61c0.5-0.77,1.09-1.91,1.77-3.43l8.54-18.7c0.05-0.08,0.17-0.12,0.35-0.12c0.21,0,0.33,0.04,0.35,0.12
			l9.84,19.29c0.92,1.86,1.68,3.14,2.28,3.84c0.6,0.71,1.23,1.06,1.89,1.06C-91.99-47.88-91.92-47.8-91.92-47.65z"/>
		<path d="M-72.47-53.72c0.08,0,0.15,0.02,0.22,0.06c0.07,0.04,0.1,0.07,0.1,0.1c-0.26,2.04-0.39,3.89-0.39,5.57
			c0,0.21-0.04,0.36-0.12,0.45c-0.08,0.09-0.24,0.14-0.47,0.14h-17.4c-0.08,0-0.12-0.08-0.12-0.24s0.04-0.23,0.12-0.23
			c0.84,0,1.45-0.06,1.83-0.2c0.38-0.13,0.64-0.39,0.77-0.76c0.13-0.38,0.2-0.96,0.2-1.74v-18.15c0-0.78-0.07-1.36-0.2-1.73
			c-0.13-0.37-0.39-0.62-0.79-0.76c-0.39-0.14-1-0.22-1.81-0.22c-0.08,0-0.12-0.08-0.12-0.23s0.04-0.24,0.12-0.24h16.7
			c0.26,0,0.39,0.12,0.39,0.35l0.08,5.21c0,0.05-0.07,0.09-0.22,0.12c-0.14,0.03-0.23,0-0.26-0.08c-0.42-1.52-1.13-2.64-2.13-3.37
			c-1-0.73-2.31-1.1-3.94-1.1h-1.18c-0.79,0-1.37,0.17-1.73,0.51c-0.37,0.34-0.55,0.86-0.55,1.57v8h3.27c1.52,0,2.69-0.26,3.5-0.78
			c0.81-0.52,1.22-1.25,1.22-2.2c0-0.08,0.07-0.12,0.22-0.12c0.14,0,0.22,0.04,0.22,0.12l-0.04,3.53l0.04,1.88
			c0.05,0.89,0.08,1.59,0.08,2.12c0,0.05-0.08,0.08-0.24,0.08c-0.16,0-0.24-0.03-0.24-0.08c0-1.07-0.41-1.91-1.24-2.53
			c-0.83-0.61-2.02-0.92-3.56-0.92h-3.23v8.86c0,0.76,0.14,1.32,0.43,1.69c0.29,0.37,0.75,0.55,1.38,0.55h1.3
			c2.05,0,3.69-0.42,4.92-1.25c1.23-0.84,2.14-2.13,2.72-3.88C-72.63-53.7-72.57-53.72-72.47-53.72z"/>
		<path d="M-68.41-64.93c-0.03,0.08-0.1,0.11-0.24,0.1c-0.13-0.01-0.2-0.06-0.2-0.14c0.1-1.04,0.22-2.4,0.35-4.06
			c0.13-1.66,0.2-2.91,0.2-3.74c0-0.13,0.07-0.2,0.22-0.2c0.14,0,0.22,0.07,0.22,0.2c0,0.58,0.75,0.86,2.24,0.86
			c2.26,0.08,4.9,0.12,7.92,0.12c1.55,0,3.19-0.03,4.92-0.08l2.68-0.04c1,0,1.73-0.06,2.19-0.2c0.46-0.13,0.75-0.39,0.89-0.78
			c0.03-0.1,0.11-0.16,0.26-0.16c0.14,0,0.22,0.05,0.22,0.16c-0.08,0.78-0.16,2.04-0.26,3.76c-0.09,1.72-0.14,3.11-0.14,4.16
			c0,0.08-0.07,0.12-0.2,0.12s-0.21-0.04-0.24-0.12c-0.39-2.01-1.13-3.52-2.21-4.53c-1.08-1.01-2.4-1.51-3.98-1.51
			c-0.76,0-1.27,0.16-1.52,0.49c-0.25,0.33-0.37,0.95-0.37,1.86v18.07c0,0.81,0.08,1.4,0.24,1.76c0.16,0.37,0.46,0.61,0.91,0.74
			c0.45,0.13,1.15,0.2,2.13,0.2c0.08,0,0.12,0.08,0.12,0.23s-0.04,0.24-0.12,0.24c-0.95,0-1.69-0.01-2.24-0.04l-3.27-0.04
			l-3.19,0.04c-0.55,0.03-1.31,0.04-2.28,0.04c-0.08,0-0.12-0.08-0.12-0.24s0.04-0.23,0.12-0.23c0.95,0,1.65-0.06,2.11-0.2
			c0.46-0.13,0.77-0.39,0.94-0.76c0.17-0.38,0.26-0.96,0.26-1.74v-18.15c0-0.89-0.12-1.49-0.35-1.8c-0.24-0.31-0.72-0.47-1.46-0.47
			C-64.8-71.01-67.05-68.98-68.41-64.93z"/>
		<path d="M-19.43-47.65c0,0.16-0.07,0.24-0.2,0.24c-0.53,0-1.34-0.03-2.44-0.08c-1.15-0.05-1.98-0.08-2.48-0.08
			c-0.66,0-1.46,0.03-2.4,0.08c-0.89,0.05-1.6,0.08-2.13,0.08c-0.1,0-0.16-0.08-0.16-0.24s0.05-0.23,0.16-0.23
			c0.68,0,1.18-0.07,1.48-0.22c0.3-0.14,0.45-0.4,0.45-0.76c0-0.44-0.26-1.19-0.79-2.23l-2.68-5.29h-9.69l-1.54,3.41
			c-0.34,0.76-0.51,1.46-0.51,2.12c0,0.94,0.33,1.67,1,2.2c0.67,0.52,1.57,0.78,2.7,0.78c0.13,0,0.2,0.08,0.2,0.23
			s-0.07,0.24-0.2,0.24c-0.47,0-1.16-0.03-2.05-0.08c-1-0.05-1.86-0.08-2.6-0.08c-0.71,0-1.56,0.03-2.56,0.08
			c-0.89,0.05-1.61,0.08-2.17,0.08c-0.1,0-0.16-0.08-0.16-0.24s0.05-0.23,0.16-0.23c0.73,0,1.35-0.15,1.85-0.45
			c0.5-0.3,1-0.84,1.5-1.61c0.5-0.77,1.09-1.91,1.77-3.43l8.55-18.7c0.05-0.08,0.17-0.12,0.35-0.12c0.21,0,0.33,0.04,0.36,0.12
			l9.84,19.29c0.92,1.86,1.68,3.14,2.28,3.84s1.23,1.06,1.89,1.06C-19.49-47.88-19.43-47.8-19.43-47.65z M-39.79-57.49h8.59
			l-4.53-8.94L-39.79-57.49z"/>
	</g>
	<g class="st1">
		<path d="M-219.18-41.44h1.24v11.58h0.11l8.18-11.58h1.23v13.82h-1.26v-11.57h-0.11l-8.17,11.57h-1.22V-41.44z"/>
		<path d="M-204.75-41.44h1.46l5.01,12.04h0.12l5.01-12.04h1.46v13.82h-1.19v-11.15h-0.11l-4.66,11.15h-1.15l-4.66-11.15h-0.11
			v11.15h-1.19V-41.44z"/>
		<path d="M-188.01-27.62v-13.82h8.02v1.13h-6.75v5.2h6.33v1.13h-6.33v5.22h6.89v1.13H-188.01z"/>
		<path d="M-176.74-27.62v-13.82h1.26v6.34h7.84v-6.34h1.26v13.82h-1.26v-6.35h-7.84v6.35H-176.74z"/>
		<path d="M-162.71-41.44h1.24v11.58h0.11l8.18-11.58h1.23v13.82h-1.26v-11.57h-0.11l-8.17,11.57h-1.22V-41.44z"/>
		<path d="M-144.23-27.62v-1.17h0.36c0.57,0,1.02-0.19,1.36-0.57c0.33-0.38,0.58-0.99,0.74-1.83c0.16-0.84,0.26-1.95,0.31-3.32
			l0.24-6.93h8.11v13.82h-1.26v-12.68h-5.65l-0.22,6.07c-0.05,1.46-0.19,2.68-0.4,3.66c-0.22,0.98-0.57,1.71-1.08,2.21
			s-1.21,0.74-2.12,0.74H-144.23z"/>
		<path d="M-128.73-27.52c-0.27,0-0.49-0.1-0.68-0.29c-0.19-0.19-0.29-0.42-0.29-0.69c0-0.27,0.1-0.5,0.29-0.69
			c0.19-0.19,0.42-0.28,0.68-0.28c0.27,0,0.5,0.09,0.69,0.28c0.19,0.19,0.28,0.42,0.28,0.69c0,0.18-0.04,0.34-0.13,0.49
			c-0.09,0.15-0.2,0.27-0.35,0.35C-128.39-27.56-128.55-27.52-128.73-27.52z"/>
		<path d="M-121.53-33.86h1.42l-3.37,6.23h-1.46L-121.53-33.86z M-115.44-27.62h-1.26v-12.68h-3.16c-0.73,0-1.33,0.12-1.81,0.37
			s-0.84,0.6-1.08,1.05c-0.24,0.45-0.36,0.98-0.36,1.58s0.12,1.12,0.35,1.57c0.24,0.44,0.59,0.78,1.07,1.02
			c0.48,0.24,1.08,0.36,1.8,0.36h3.77v1.15h-3.8c-0.97,0-1.79-0.17-2.44-0.52c-0.66-0.35-1.15-0.83-1.49-1.44
			c-0.33-0.62-0.5-1.33-0.5-2.13s0.17-1.52,0.5-2.14s0.83-1.11,1.49-1.46c0.66-0.35,1.48-0.53,2.46-0.53h4.46V-27.62z"/>
		<path d="M-103.76-27.62l-4.76-6.52h-1.99v6.52h-1.26v-13.82h1.26v6.17h1.25l5.09-6.17h1.5l-5.12,6.23l5.54,7.59H-103.76z"/>
		<path d="M-89.23-34.53c0,1.44-0.26,2.69-0.77,3.75s-1.22,1.89-2.12,2.47c-0.9,0.58-1.93,0.87-3.09,0.87s-2.2-0.29-3.09-0.87
			c-0.9-0.58-1.6-1.41-2.11-2.47c-0.51-1.06-0.77-2.32-0.77-3.75s0.26-2.69,0.77-3.75c0.51-1.06,1.22-1.89,2.12-2.47
			c0.9-0.58,1.93-0.87,3.09-0.87c1.17,0,2.2,0.29,3.09,0.87s1.6,1.41,2.12,2.47C-89.49-37.22-89.23-35.97-89.23-34.53z
			 M-90.46-34.53c0-1.24-0.21-2.3-0.62-3.18s-0.98-1.56-1.69-2.03c-0.72-0.47-1.53-0.7-2.44-0.7c-0.9,0-1.71,0.23-2.43,0.7
			s-1.28,1.14-1.7,2.02c-0.42,0.88-0.62,1.94-0.62,3.18c0,1.24,0.21,2.3,0.62,3.18c0.41,0.88,0.98,1.56,1.69,2.03
			s1.53,0.71,2.44,0.71s1.72-0.23,2.44-0.7c0.72-0.47,1.28-1.14,1.7-2.03C-90.66-32.23-90.45-33.29-90.46-34.53z"/>
		<path d="M-86.18-27.62v-13.82h8.06v1.13h-6.8v4.94H-81c0.92,0,1.71,0.16,2.35,0.47c0.65,0.31,1.14,0.75,1.48,1.32
			c0.34,0.57,0.51,1.23,0.51,2c0,0.79-0.17,1.48-0.51,2.08c-0.34,0.59-0.83,1.06-1.48,1.39c-0.65,0.33-1.43,0.5-2.36,0.5H-86.18z
			 M-84.92-28.74H-81c0.66,0,1.22-0.13,1.68-0.39c0.46-0.26,0.81-0.6,1.06-1.04c0.24-0.43,0.36-0.92,0.36-1.45
			c0-0.74-0.27-1.36-0.82-1.87c-0.55-0.5-1.31-0.75-2.28-0.75h-3.92V-28.74z"/>
		<path d="M-62.79-37.12h-1.27c-0.09-0.47-0.26-0.91-0.51-1.31c-0.25-0.4-0.55-0.75-0.92-1.06c-0.37-0.3-0.79-0.54-1.26-0.7
			s-0.97-0.25-1.52-0.25c-0.87,0-1.67,0.23-2.38,0.68c-0.72,0.45-1.29,1.12-1.72,2s-0.64,1.96-0.64,3.23c0,1.28,0.21,2.36,0.64,3.24
			c0.43,0.88,1,1.54,1.72,1.99c0.72,0.45,1.51,0.68,2.38,0.68c0.54,0,1.05-0.08,1.52-0.25s0.89-0.4,1.26-0.7
			c0.37-0.3,0.68-0.65,0.92-1.06s0.42-0.84,0.51-1.32h1.27c-0.11,0.63-0.32,1.22-0.63,1.77c-0.31,0.55-0.7,1.02-1.17,1.43
			c-0.47,0.41-1.02,0.73-1.64,0.96c-0.62,0.23-1.29,0.34-2.03,0.34c-1.16,0-2.19-0.29-3.09-0.87c-0.9-0.58-1.6-1.4-2.12-2.47
			c-0.51-1.06-0.77-2.31-0.77-3.76s0.26-2.7,0.77-3.76c0.51-1.06,1.22-1.88,2.12-2.47c0.9-0.58,1.93-0.87,3.09-0.87
			c0.74,0,1.41,0.11,2.03,0.34c0.62,0.23,1.16,0.55,1.64,0.96c0.47,0.41,0.87,0.89,1.17,1.43S-62.9-37.76-62.79-37.12z"/>
		<path d="M-48.49-34.53c0,1.44-0.26,2.69-0.77,3.75c-0.51,1.06-1.22,1.89-2.12,2.47c-0.9,0.58-1.93,0.87-3.09,0.87
			c-1.16,0-2.2-0.29-3.09-0.87c-0.9-0.58-1.6-1.41-2.11-2.47c-0.51-1.06-0.77-2.32-0.77-3.75s0.26-2.69,0.77-3.75
			c0.51-1.06,1.22-1.89,2.11-2.47c0.9-0.58,1.93-0.87,3.09-0.87c1.17,0,2.2,0.29,3.09,0.87c0.9,0.58,1.6,1.41,2.12,2.47
			C-48.75-37.22-48.49-35.97-48.49-34.53z M-49.72-34.53c0-1.24-0.21-2.3-0.62-3.18c-0.41-0.88-0.98-1.56-1.7-2.03
			c-0.71-0.47-1.53-0.7-2.44-0.7c-0.9,0-1.71,0.23-2.43,0.7s-1.28,1.14-1.7,2.02c-0.42,0.88-0.62,1.94-0.62,3.18
			c0,1.24,0.21,2.3,0.62,3.18c0.41,0.88,0.98,1.56,1.69,2.03s1.53,0.71,2.44,0.71c0.91,0,1.72-0.23,2.44-0.7s1.28-1.14,1.7-2.03
			C-49.92-32.23-49.71-33.29-49.72-34.53z"/>
		<path d="M-45.44-27.62v-13.82h1.26v6.34h7.84v-6.34h1.26v13.82h-1.26v-6.35h-7.84v6.35H-45.44z"/>
		<path d="M-31.39-27.62h-1.32l5.03-13.82h1.35l5.03,13.82h-1.32l-4.33-12.18h-0.09L-31.39-27.62z M-30.43-32.92h6.86v1.13h-6.86
			V-32.92z"/>
	</g>
</g>
<g class="st0">
	<g class="st1">
		<path class="st3" d="M-121.89-649.97v-29.4c0-9.51,2.42-18.9,7.22-27.12c18.11-30.96,59.47-31.98,81.11-5.38
			c7.65,9.41,11.75,21.21,11.9,33.34l0.34,28.33L-121.89-649.97z"/>
		<path class="st3" d="M-233.7-649.97v-29.4c0-9.51,2.42-18.9,7.22-27.12c18.11-30.96,59.47-31.98,81.11-5.38
			c7.65,9.41,11.75,21.21,11.9,33.34l0.34,28.33L-233.7-649.97z"/>
		<path class="st3" d="M-258.65-711.86c7.65,9.41,11.75,21.21,11.9,33.34l0.34,28.33l-50.29,0.11v-80.71
			C-282.63-730.42-268.56-724.05-258.65-711.86z"/>
	</g>
	
		<text transform="matrix(0.9845 0 0 0.98 -300.7803 -611.3418)" class="st1" style="font-family:'CormorantGaramond-Bold'; font-size:40px;"> </text>
	<text transform="matrix(1 0 0 1 -221.0138 -591.5526)" class="st1" style="font-family:'Inter-Light'; font-size:19px;"> .</text>
</g>
</svg>
