<svg width="101" height="30" viewBox="0 0 101 30" fill="none" xmlns="http://www.w3.org/2000/svg">
<path d="M100.494 29.4186L64.1907 29.4988V19.0955C64.1907 15.6482 65.066 12.2541 66.8023 9.28784L66.8024 9.28766C73.3299 -1.87436 88.2446 -2.26809 96.0695 7.35242C98.8336 10.7531 100.317 15.0218 100.372 19.4117L100.494 29.4186Z" stroke="#ECEAE4" stroke-miterlimit="10"/>
<path d="M59.3477 29.4186L23.0446 29.4988V19.0955C23.0446 15.6482 23.9198 12.2541 25.6561 9.28786L25.6562 9.28763C32.1838 -1.87765 47.0985 -2.27134 54.9233 7.35245C57.6874 10.7531 59.1706 15.0219 59.2253 19.4117L59.3477 29.4186Z" stroke="#ECEAE4" stroke-miterlimit="10"/>
<path d="M13.8543 7.35411C16.6439 10.7513 18.1395 15.0193 18.1909 19.4111L18.1909 19.4113L18.3133 29.4184L0.5 29.4589V0.533678C5.45102 0.800729 10.3548 3.0927 13.8543 7.35411ZM13.8543 7.35411L14.2407 7.03681L13.8543 7.35411Z" stroke="#ECEAE4" stroke-miterlimit="10"/>
</svg>
