<svg width="662" height="125" viewBox="0 0 662 125" fill="none" xmlns="http://www.w3.org/2000/svg">
<path d="M1 124V79.2792C1 64.8134 4.6811 50.5302 11.9824 38.0266C39.5298 -9.0671 102.443 -10.6186 135.36 29.843C146.997 44.1567 153.233 62.1059 153.461 80.557L153.978 123.65L1 124Z" stroke="#ECEAE4" stroke-miterlimit="10"/>
<path d="M165.979 124V79.2792C165.979 64.8134 169.66 50.5302 176.961 38.0266C204.508 -9.0671 267.422 -10.6186 300.339 29.843C311.975 44.1567 318.212 62.1059 318.44 80.557L318.957 123.65L165.979 124Z" stroke="#ECEAE4" stroke-miterlimit="10"/>
<path d="M330.957 124V79.2792C330.957 64.8134 334.638 50.5302 341.939 38.0266C369.487 -9.0671 432.4 -10.6186 465.317 29.843C476.954 44.1567 483.19 62.1059 483.418 80.557L483.936 123.65L330.957 124Z" stroke="#ECEAE4" stroke-miterlimit="10"/>
<path d="M514.553 29.7947C502.917 44.1084 496.68 62.0575 496.452 80.5087L495.935 123.602L572.432 123.769V1C551.03 1.56281 529.643 11.2523 514.553 29.7947Z" stroke="#ECEAE4" stroke-miterlimit="10"/>
<path d="M642.31 29.7947C653.947 44.1084 660.183 62.0575 660.411 80.5087L660.928 123.602L584.432 123.769V1C605.834 1.56281 627.221 11.2523 642.31 29.7947Z" stroke="#ECEAE4" stroke-miterlimit="10"/>
</svg>
