<svg width="151" height="66" viewBox="0 0 151 66" fill="none" xmlns="http://www.w3.org/2000/svg">
<path d="M12.2856 52.5643C12.2889 52.5634 12.2922 52.5624 12.2955 52.5614C12.2749 52.8815 12.254 53.2513 12.2323 53.6694C12.228 53.7517 12.2239 53.8326 12.22 53.9121C12.0416 53.617 11.8342 53.3551 11.596 53.129C11.4186 52.9607 11.2303 52.8148 11.0314 52.6913C11.5436 52.6892 11.9749 52.6557 12.2856 52.5643L12.1448 52.0856L12.2856 52.5643ZM2.71315 52.6914C2.77668 52.6937 2.84074 52.6959 2.90536 52.6981C2.7068 52.8197 2.51746 52.9626 2.33779 53.1268C2.09856 53.3454 1.87962 53.5988 1.67977 53.8849C1.68236 53.8533 1.68496 53.8215 1.68757 53.7894L1.68757 53.7894L1.68779 53.7865C1.72226 53.3311 1.74961 52.9299 1.76819 52.5827C2.03357 52.662 2.35787 52.6909 2.71315 52.6914ZM6.93285 64.8737L6.09134 64.8833C6.09718 64.8714 6.10287 64.8593 6.1084 64.8471C6.24644 64.542 6.28869 64.1371 6.28869 63.6998V53.9041C6.28869 53.6449 6.27191 53.4093 6.23224 53.2048C6.20252 53.0516 6.15594 52.8942 6.07853 52.7525C6.35701 52.7538 6.64206 52.7545 6.93371 52.7545C7.23691 52.7545 7.54651 52.7525 7.86249 52.7486C7.6822 53.0633 7.6321 53.4943 7.6321 53.9477V63.6998C7.6321 64.1496 7.67423 64.5549 7.79808 64.8463C7.8034 64.8588 7.80891 64.8712 7.81458 64.8834L6.94415 64.8737L6.94415 64.8736L6.93285 64.8737Z" fill="#ECEAE4" stroke="#ECEAE4"/>
<path d="M22.209 64.9125H23.5711C23.5744 64.5769 23.5866 64.2293 23.6079 63.8696C23.3879 64.132 23.1389 64.3605 22.8601 64.5526L22.209 64.9125ZM22.209 64.9125C22.4401 64.8124 22.6572 64.6929 22.8598 64.5528C22.8597 64.5529 22.8596 64.553 22.8595 64.5531L22.209 64.9125ZM23.4978 55.181L23.5004 55.1947L23.4978 55.181ZM23.0898 52.6914L23.1028 53.5313C22.9383 53.3281 22.7524 53.1481 22.5441 52.9933C22.3883 52.8775 22.222 52.7771 22.046 52.6914H23.0898ZM18.2805 52.6914C18.2713 52.6997 18.2621 52.7082 18.253 52.7168C17.9243 53.0291 17.8063 53.4658 17.8063 53.9235V58.2416V58.3286V58.7416V58.8286V63.6125C17.8063 64.0679 17.8903 64.5019 18.1355 64.8262C18.1585 64.8566 18.1825 64.8853 18.2074 64.9125H16.3108C16.3271 64.876 16.3417 64.8382 16.3547 64.7992C16.448 64.5193 16.4871 64.1406 16.4871 63.6998V53.9041C16.4871 53.4757 16.4552 53.0919 16.3518 52.8058C16.3381 52.7662 16.3226 52.7281 16.3056 52.6914H18.2805ZM22.27 58.5471L22.2781 58.9726C22.2592 58.9574 22.2398 58.9425 22.2201 58.9278C22.0072 58.7687 21.7665 58.644 21.5012 58.5504C21.7504 58.4728 21.9775 58.3699 22.1793 58.2384C22.2116 58.2173 22.243 58.1957 22.2736 58.1735L22.2699 58.5324L22.2699 58.5398L22.27 58.5471Z" fill="#ECEAE4" stroke="#ECEAE4"/>
<path d="M37.5464 62.733C38.0208 63.7051 38.434 64.4272 38.7896 64.8624C38.2503 64.8378 37.8531 64.8251 37.5966 64.8251C37.3353 64.8251 37.0348 64.833 36.6977 64.8484C36.7123 64.7758 36.7187 64.7029 36.7187 64.6313C36.7187 64.4286 36.6619 64.2058 36.5862 63.9873C36.5076 63.7602 36.394 63.498 36.2509 63.2042L36.251 63.2042L36.2488 63.1999L34.8224 60.3422L34.6843 60.0655H34.6643L34.507 59.7504L32.1006 54.9277L31.8665 54.4586L32.5846 52.8646L37.5464 62.733ZM27.6311 64.8203C27.4199 64.8203 27.1881 64.8247 26.9345 64.8333C27.0677 64.6778 27.1939 64.5027 27.3148 64.3136C27.4195 64.1499 27.5289 63.9605 27.6432 63.746C27.6755 64.1569 27.8112 64.5224 28.0553 64.8252C27.9067 64.8219 27.7653 64.8203 27.6311 64.8203Z" fill="#ECEAE4" stroke="#ECEAE4"/>
<path d="M45.4997 64.8737L44.6582 64.8833C44.6641 64.8714 44.6698 64.8593 44.6753 64.8471C44.8133 64.542 44.8556 64.1371 44.8556 63.6998V53.9041C44.8556 53.6449 44.8388 53.4093 44.7991 53.2048C44.7694 53.0516 44.7228 52.8942 44.6454 52.7525C44.9239 52.7538 45.209 52.7545 45.5006 52.7545C45.8038 52.7545 46.1134 52.7525 46.4294 52.7486C46.2491 53.0633 46.199 53.4943 46.199 53.9477V63.6998C46.199 64.1496 46.2411 64.5549 46.365 64.8463C46.3703 64.8588 46.3758 64.8712 46.3815 64.8834L45.511 64.8737L45.511 64.8736L45.4997 64.8737ZM50.8525 52.5643C50.8558 52.5634 50.8591 52.5624 50.8624 52.5614C50.8418 52.8815 50.8209 53.2513 50.7991 53.6694C50.7949 53.7517 50.7908 53.8326 50.7868 53.9121C50.6085 53.617 50.4011 53.3551 50.1629 53.129C49.9855 52.9607 49.7972 52.8148 49.5983 52.6913C50.1104 52.6892 50.5418 52.6557 50.8525 52.5643L50.7117 52.0856L50.8525 52.5643ZM41.28 52.6914C41.3436 52.6937 41.4076 52.6959 41.4722 52.6981C41.2737 52.8197 41.0844 52.9626 40.9047 53.1268C40.6655 53.3454 40.4465 53.5988 40.2467 53.8849C40.2493 53.8533 40.2519 53.8215 40.2545 53.7894L40.2545 53.7894L40.2547 53.7865C40.2892 53.3311 40.3165 52.9299 40.3351 52.5827C40.6005 52.662 40.9248 52.6909 41.28 52.6914Z" fill="#ECEAE4" stroke="#ECEAE4"/>
<path d="M59.7319 52.7324C60.4455 52.8597 61.0223 53.0962 61.4786 53.4261C62.1441 53.9119 62.5097 54.6692 62.5097 55.8065C62.5097 56.5912 62.3107 57.2251 61.9375 57.7322C61.5438 58.2671 61.0368 58.6723 60.4137 58.9431L60.4137 58.9431L60.411 58.9443C60.3318 58.9792 60.2523 59.012 60.1727 59.0426C60.1977 59.0094 60.2223 58.9755 60.2466 58.9408C60.7542 58.2139 60.9771 57.2448 60.9771 56.0734C60.9771 54.8964 60.7326 53.9131 60.1694 53.1867C60.0372 53.0147 59.891 52.8634 59.7319 52.7324ZM56.4208 64.8129C56.4315 64.8354 56.4428 64.8573 56.4546 64.8787L55.5773 64.8694L55.5773 64.8692L55.5656 64.8694L54.7385 64.8799C54.75 64.8523 54.7606 64.8239 54.7703 64.7948C54.8635 64.515 54.9027 64.1363 54.9027 63.6955V53.8998C54.9027 53.4714 54.8708 53.0876 54.7673 52.8015C54.7595 52.7788 54.7511 52.7567 54.7421 52.7351C55.057 52.7451 55.3283 52.7502 55.5525 52.7502C55.8141 52.7502 56.1088 52.739 56.4362 52.715C56.3624 52.8579 56.3169 53.0153 56.2872 53.1696C56.2445 53.3913 56.2267 53.6487 56.2267 53.9337V63.6033C56.2267 64.0826 56.2732 64.5029 56.4208 64.8129Z" fill="#ECEAE4" stroke="#ECEAE4"/>
<path d="M72.205 65.3737C72.5689 65.3737 72.8988 65.3785 73.1996 65.3931C73.5004 65.4076 73.7576 65.4222 73.9662 65.4367C74.4999 65.4804 74.9511 65.4998 75.3295 65.4998C76.2223 65.4998 77.0325 65.3251 77.7603 64.9807C78.488 64.6362 79.0508 64.1656 79.4584 63.5639L72.205 65.3737ZM72.205 65.3737L70.9609 65.3895L72.205 65.3737ZM74.9364 64.9932L74.9339 65.4613C74.9343 65.4613 74.9347 65.4613 74.9352 65.4613C74.9356 65.4613 74.9361 65.4613 74.9365 65.4613V64.9932C74.9365 64.9932 74.9364 64.9932 74.9364 64.9932ZM74.9364 64.9932L74.9365 64.9613L73.709 64.6459L73.4441 64.9047C73.6547 64.9157 73.8412 64.9268 74.001 64.9379L74.007 64.9384L74.007 64.9384C74.3535 64.9667 74.6622 64.9845 74.9364 64.9932ZM79.0443 63.2837C78.6919 63.8038 78.2017 64.2186 77.5464 64.5287C77.4534 64.5727 77.3588 64.6137 77.2626 64.6517C77.2883 64.6254 77.3134 64.5984 77.3381 64.5708C77.8813 63.9604 78.1147 63.1036 78.1147 62.089C78.1147 60.8087 77.8136 59.7576 77.111 59.0491C76.9257 58.8622 76.7219 58.7024 76.5009 58.5686C77.2286 58.7038 77.8487 58.9487 78.3728 59.2945C79.169 59.8198 79.5649 60.5531 79.5649 61.565C79.5649 62.1991 79.3902 62.7708 79.0443 63.2837ZM72.9034 58.6497V63.6949C72.9034 64.1406 73.0001 64.568 73.263 64.8956C73.25 64.8949 73.2369 64.8943 73.2238 64.8937C72.9115 64.8785 72.5726 64.8737 72.205 64.8737V64.8736L72.1986 64.8737L71.3801 64.8841C71.3899 64.8613 71.3991 64.838 71.4078 64.8142C71.5176 64.5227 71.5551 64.1339 71.5551 63.6998V53.9041C71.5551 53.4757 71.5232 53.0919 71.4198 52.8058C71.4061 52.7662 71.3906 52.7281 71.3736 52.6914H73.2136C73.0882 52.8596 73.0133 53.0605 72.9674 53.2617C72.9159 53.4878 72.8937 53.747 72.8937 54.0302V58.0718V58.6511L72.9034 58.6497ZM70.6433 65.3947L70.5214 65.0534L70.6433 65.3947ZM77.878 53.1305C77.7015 52.9616 77.514 52.8153 77.3158 52.6914H78.2839C78.2839 52.7007 78.284 52.7103 78.284 52.7202V52.7331L78.2846 52.7459L78.3315 53.6599C78.1951 53.4664 78.0442 53.2896 77.878 53.1305L77.5322 53.4917L77.878 53.1305Z" fill="#ECEAE4" stroke="#ECEAE4"/>
<path d="M93.5022 62.733C93.9766 63.7051 94.3898 64.4272 94.7454 64.8624C94.2061 64.8378 93.8089 64.8251 93.5524 64.8251C93.2911 64.8251 92.9906 64.833 92.6535 64.8484C92.6681 64.7758 92.6745 64.7029 92.6745 64.6313C92.6745 64.4286 92.6177 64.2058 92.542 63.9873C92.4634 63.7602 92.3499 63.498 92.2067 63.2042L92.2068 63.2042L92.2046 63.1999L90.7782 60.3422L90.6401 60.0655H90.6156L90.4578 59.75L88.0465 54.9274L87.8175 54.4693L88.5404 52.8646L93.5022 62.733ZM83.5869 64.8203C83.3757 64.8203 83.144 64.8247 82.8903 64.8333C83.0235 64.6778 83.1497 64.5027 83.2706 64.3136C83.3753 64.1499 83.4847 63.9605 83.599 63.746C83.6313 64.1569 83.767 64.5224 84.0111 64.8252C83.8625 64.8219 83.7211 64.8203 83.5869 64.8203Z" fill="#ECEAE4" stroke="#ECEAE4"/>
<path d="M108.499 62.7389C108.972 63.7073 109.383 64.4275 109.738 64.8632C109.201 64.8388 108.805 64.8261 108.549 64.8261C108.288 64.8261 107.987 64.834 107.65 64.8494C107.665 64.7768 107.671 64.7039 107.671 64.6323C107.671 64.4296 107.615 64.2068 107.539 63.9883C107.46 63.7612 107.347 63.499 107.204 63.2053L107.204 63.2052L107.201 63.2001L103.053 54.9278L102.82 54.4631L103.537 52.8704L108.499 62.7389ZM98.5959 63.7519C98.6282 64.1628 98.7638 64.5282 99.0079 64.8311C98.8593 64.8278 98.7179 64.8261 98.5837 64.8261C98.3725 64.8261 98.1408 64.8305 97.8872 64.8392C98.0204 64.6836 98.1466 64.5086 98.2675 64.3195C98.3722 64.1558 98.4815 63.9664 98.5959 63.7519ZM101.058 65.4135C100.954 65.4135 100.831 65.411 100.689 65.406C100.667 65.3505 100.665 65.3053 100.665 65.2873C100.665 65.2765 100.665 65.2166 100.701 65.1432C100.815 65.1552 100.934 65.1612 101.058 65.1612C101.126 65.1612 101.165 65.2048 101.165 65.2873C101.165 65.3698 101.131 65.4135 101.058 65.4135Z" fill="#ECEAE4" stroke="#ECEAE4"/>
<path d="M119.73 64.9125H121.087C121.09 64.5788 121.103 64.2333 121.124 63.8758C120.905 64.1357 120.658 64.362 120.381 64.5526L119.73 64.9125ZM119.73 64.9125C119.961 64.8124 120.178 64.6929 120.381 64.5528C120.381 64.5529 120.381 64.553 120.38 64.5531L119.73 64.9125ZM120.611 52.6914L120.624 53.5313C120.459 53.3281 120.273 53.1481 120.065 52.9933C119.909 52.8775 119.743 52.7771 119.567 52.6914H120.611ZM113.822 52.6914H115.801C115.792 52.6997 115.783 52.7082 115.774 52.7168C115.445 53.0291 115.327 53.4658 115.327 53.9235V58.2416V58.3286V58.7416V58.8286V63.6125C115.327 64.0679 115.411 64.5019 115.656 64.8262C115.679 64.8566 115.703 64.8853 115.728 64.9125H113.827C113.843 64.876 113.858 64.8382 113.871 64.7992C113.964 64.5193 114.003 64.1406 114.003 63.6998V53.9041C114.003 53.4757 113.971 53.0919 113.868 52.8058C113.854 52.7662 113.839 52.7281 113.822 52.6914ZM119.741 58.9278C119.528 58.7687 119.287 58.644 119.022 58.5504C119.271 58.4728 119.498 58.3699 119.7 58.2384C119.733 58.2173 119.764 58.1957 119.795 58.1735L119.791 58.5324L119.791 58.5398L119.791 58.5471L119.799 58.9726C119.78 58.9574 119.761 58.9425 119.741 58.9278Z" fill="#ECEAE4" stroke="#ECEAE4"/>
<path d="M129.484 64.8737L128.643 64.8833C128.648 64.8714 128.654 64.8593 128.66 64.8471C128.798 64.542 128.84 64.1371 128.84 63.6998V53.9041C128.84 53.6449 128.823 53.4093 128.784 53.2048C128.754 53.0517 128.707 52.8942 128.63 52.7525C128.908 52.7538 129.193 52.7545 129.485 52.7545C129.788 52.7545 130.098 52.7525 130.414 52.7486C130.233 53.0633 130.183 53.4944 130.183 53.9477V63.6998C130.183 64.1485 130.225 64.553 130.348 64.8443C130.354 64.8575 130.36 64.8706 130.366 64.8834L129.495 64.8737L129.495 64.8736L129.484 64.8737ZM134.839 52.5636C134.842 52.5628 134.844 52.5621 134.847 52.5614C134.826 52.8815 134.805 53.2513 134.784 53.6694C134.779 53.7517 134.775 53.8326 134.771 53.9121C134.593 53.617 134.385 53.3551 134.147 53.129C133.97 52.9607 133.782 52.8148 133.583 52.6913C134.095 52.6892 134.526 52.6557 134.837 52.5643L134.837 52.5644L134.839 52.5636ZM125.264 52.6914C125.327 52.6937 125.39 52.6958 125.453 52.698C125.255 52.8196 125.065 52.9626 124.885 53.1268C124.648 53.3441 124.43 53.5957 124.231 53.8797C124.234 53.8498 124.236 53.8197 124.239 53.7894L124.239 53.7894L124.239 53.7865C124.274 53.3311 124.301 52.9299 124.319 52.5827C124.585 52.662 124.909 52.6909 125.264 52.6914Z" fill="#ECEAE4" stroke="#ECEAE4"/>
<path d="M147.066 62.733C147.54 63.7051 147.954 64.4272 148.309 64.8624C147.77 64.8378 147.373 64.8251 147.116 64.8251C146.855 64.8251 146.554 64.833 146.217 64.8484C146.232 64.7758 146.238 64.7029 146.238 64.6313C146.238 64.4286 146.181 64.2058 146.106 63.9873C146.027 63.7602 145.914 63.498 145.77 63.2042L145.77 63.2042L145.768 63.1999L144.342 60.3422L144.204 60.0655H144.184L144.027 59.7504L141.62 54.9277L141.386 54.4586L142.104 52.8646L147.066 62.733ZM137.151 64.8203C136.939 64.8203 136.708 64.8247 136.454 64.8333C136.587 64.6778 136.713 64.5027 136.834 64.3136C136.939 64.1499 137.048 63.9605 137.163 63.746C137.195 64.1569 137.331 64.5224 137.575 64.8252C137.426 64.8219 137.285 64.8203 137.151 64.8203Z" fill="#ECEAE4" stroke="#ECEAE4"/>
<path d="M95.041 44.6424V28.5976C95.041 23.4014 96.3607 18.2779 98.9855 13.7949C108.873 -3.1087 131.454 -3.66665 143.268 10.8547C147.445 15.9927 149.682 22.4359 149.764 29.0537L149.953 44.5211L95.041 44.6424Z" stroke="#ECEAE4" stroke-miterlimit="10"/>
<path d="M34.4817 44.6421V28.5973C34.4817 23.4011 35.8014 18.2776 38.4262 13.7946C48.3141 -3.11383 70.8942 -3.67178 82.7083 10.8544C86.8856 15.9924 89.1223 22.4356 89.2048 29.0534L89.394 44.5208L34.4817 44.6421Z" stroke="#ECEAE4" stroke-miterlimit="10"/>
<path d="M22.2599 10.8538C26.4761 15.987 28.7322 22.4301 28.8098 29.0528L28.999 44.5202L1.30029 44.5833V0.519531C9.04857 0.718454 16.792 4.19717 22.2599 10.8538Z" stroke="#ECEAE4" stroke-miterlimit="10"/>
</svg>
